<svg xmlns="http://www.w3.org/2000/svg" xmlns:xlink="http://www.w3.org/1999/xlink" viewBox="0 0 64 64"><defs><linearGradient id="a" x1="50" x2="59" y1="18" y2="18" gradientUnits="userSpaceOnUse"><stop offset="0" stop-color="#d3e6f5"/><stop offset="1" stop-color="#f0f7fc"/></linearGradient><linearGradient id="d" x1="5" x2="14" y1="18" y2="18" xlink:href="#a"/><linearGradient id="e" x1="10.94" x2="53.06" y1="58.18" y2="16.06" xlink:href="#a"/><linearGradient id="b" x1="28" x2="36" y1="26.54" y2="26.54" gradientUnits="userSpaceOnUse"><stop offset="0" stop-color="#fe9661"/><stop offset="1" stop-color="#ffb369"/></linearGradient><linearGradient id="f" x1="27" x2="37" y1="22.34" y2="22.34" xlink:href="#b"/><linearGradient id="g" x1="26" x2="38" y1="17.98" y2="17.98" xlink:href="#b"/><linearGradient id="c" x1="41.03" x2="41.03" y1="43.5" y2="35.48" gradientUnits="userSpaceOnUse"><stop offset="0" stop-color="#54a5ff"/><stop offset="1" stop-color="#8ad3fe"/></linearGradient><linearGradient id="h" x1="19" x2="27.57" y1="32.49" y2="32.49" xlink:href="#c"/></defs><path fill="url(#a)" d="M58,21a1,1,0,0,1-.5-.13l-7-4a1,1,0,1,1,1-1.74l7,4A1,1,0,0,1,58,21Z"/><path fill="url(#d)" d="M6,21a1,1,0,0,1-.5-1.87l7-4a1,1,0,0,1,1,1.74l-7,4A1,1,0,0,1,6,21Z"/><path fill="url(#e)" d="M53,16V57a3,3,0,0,1-3,3H14a3,3,0,0,1-3-3V16L32,4Z"/><path fill="#54a5ff" d="M32,52a1,1,0,0,1-1-1V33a1,1,0,0,1,2,0V51A1,1,0,0,1,32,52Z"/><path fill="#54a5ff" d="M32 48a1 1 0 0 1-.64-1.77l5.55-4.66A1 1 0 0 1 38.2 43.1l-5.56 4.67A1 1 0 0 1 32 48zM32 40.74a1 1 0 0 1-.64-.24l-5.24-4.41a1 1 0 1 1 1.28-1.52L32.64 39a1 1 0 0 1 .13 1.4A1 1 0 0 1 32 40.74z"/><path fill="url(#b)" d="M35,28a.94.94,0,0,1-.55-.17,4.41,4.41,0,0,0-4.9,0,1,1,0,1,1-1.1-1.66,6.37,6.37,0,0,1,7.1,0A1,1,0,0,1,35,28Z"/><path fill="url(#f)" d="M36,24a1,1,0,0,1-.6-.2,5.7,5.7,0,0,0-6.8,0,1,1,0,0,1-1.2-1.6,7.71,7.71,0,0,1,9.2,0,1,1,0,0,1,.2,1.4A1,1,0,0,1,36,24Z"/><path fill="url(#g)" d="M37.78,19.63a1,1,0,0,0-.15-1.41l-.63-.5a8,8,0,0,0-10,0l-.62.5a1,1,0,1,0,1.25,1.56l.62-.5a6,6,0,0,1,7.5,0l.63.5A1,1,0,0,0,37,20,1,1,0,0,0,37.78,19.63Z"/><path fill="url(#c)" d="M45.07,37.61l-2,4a3.31,3.31,0,0,1-5.48.68h0A3.32,3.32,0,0,1,39,37l4.32-1.4a1.35,1.35,0,0,1,1.71,2Z"/><path fill="url(#h)" d="M26.77,35.33h0a3.32,3.32,0,0,1-5.49-.68l-2-4a1.36,1.36,0,0,1,1.72-2L25.27,30A3.32,3.32,0,0,1,26.77,35.33Z"/><path fill="#4795ea" d="M39.73,52.22,38,60H26l-1.73-7.78a1,1,0,0,1,1-1.22h13.5A1,1,0,0,1,39.73,52.22Z"/></svg>