<svg xmlns="http://www.w3.org/2000/svg" viewBox="0 0 64 64"><path d="M61,2H29a1,1,0,0,0-1,1V6H27a1,1,0,0,0-1,1V17h-.23A9.02,9.02,0,0,0,18,10.06V10a1,1,0,0,0-1-1H15a9.014,9.014,0,0,0-9,9v4.59l-3.71,3.7A1.033,1.033,0,0,0,2,27v3a1,1,0,0,0,1,1H6v8a1,1,0,0,0,1,1h3a.988.988,0,0,0,.53-.15L12,38.93V42a1,1,0,0,0,1,1h3a1,1,0,0,0,.64-.23l3.53-1.95.26.27A13.943,13.943,0,0,0,19.64,43H18a1,1,0,0,0-1,1v6a1,1,0,0,0,1,1h1.64a13.943,13.943,0,0,0,.79,1.91l-1.16,1.16a1.008,1.008,0,0,0,0,1.42l4.24,4.24a1.008,1.008,0,0,0,1.42,0l1.16-1.16a13.943,13.943,0,0,0,1.91.79V61a1,1,0,0,0,1,1h6a1,1,0,0,0,1-1V59.36a13.943,13.943,0,0,0,1.91-.79l1.16,1.16a1.008,1.008,0,0,0,1.42,0l4.24-4.24a1.008,1.008,0,0,0,0-1.42l-1.16-1.16A13.943,13.943,0,0,0,44.36,51H46a1,1,0,0,0,1-1V44a1,1,0,0,0-1-1H44.36c-.11-.34-.25-.67-.38-1H57a1,1,0,0,0,1-1V38h3a1,1,0,0,0,1-1V3A1,1,0,0,0,61,2ZM27.11,42h9.77a7,7,0,1,1-9.77,0ZM26,35.35l-1.07-1.08a1.008,1.008,0,0,0-1.42,0l-.52.52L22.98,32H24a1.014,1.014,0,0,0,.8-.4L26,30ZM18,12.08A7.022,7.022,0,0,1,23.71,17H18ZM9.71,38H8V30a1,1,0,0,0-1-1H4V27.41l3.71-3.7A1.033,1.033,0,0,0,8,23V18a7.008,7.008,0,0,1,7-7h1v7a1,1,0,0,0,1,1h9v7.67L23.5,30H18a1,1,0,0,0-1,1v2.45Zm9.56.51a1.019,1.019,0,0,0-.29.7L15.64,41H14V37.68l4.53-2.83A1.012,1.012,0,0,0,19,34V32h1.98L21,36.79ZM45,45v4H43.61a1.014,1.014,0,0,0-.97.75,11.731,11.731,0,0,1-1.17,2.84,1,1,0,0,0,.15,1.21l.99.98-2.83,2.83-.98-.99a1,1,0,0,0-1.21-.15,11.731,11.731,0,0,1-2.84,1.17,1.014,1.014,0,0,0-.75.97V60H30V58.61a1.014,1.014,0,0,0-.75-.97,11.731,11.731,0,0,1-2.84-1.17,1,1,0,0,0-1.21.15l-.98.99-2.83-2.83.99-.98a1,1,0,0,0,.15-1.21,11.731,11.731,0,0,1-1.17-2.84,1.014,1.014,0,0,0-.97-.75H19V45h1.39a1.014,1.014,0,0,0,.97-.75,11.731,11.731,0,0,1,1.17-2.84,1,1,0,0,0-.15-1.21l-.99-.98,2.83-2.83.98.99a1,1,0,0,0,.8.27v2.66A9,9,0,1,0,39.47,42h2.29a10.955,10.955,0,0,1,.88,2.25,1,1,0,0,0,.97.75Zm11-5H28V8H49v7a1,1,0,0,0,1,1h6ZM51,14V9.7L54.77,14Zm9,22H58V15.03a.978.978,0,0,0-.25-.65L50.72,6.34A1,1,0,0,0,49.96,6H30V4H60Z"/><path d="M52 36V19a1 1 0 0 0-1-1H47a1 1 0 0 0-1 1V36H45V23a1 1 0 0 0-1-1H40a1 1 0 0 0-1 1V36H38V30a1 1 0 0 0-1-1H33a1 1 0 0 0-1 1v6H30v2H54V36zM36 36H34V31h2zm7 0H41V24h2zm7 0H48V20h2zM27 47a5 5 0 1 0 5-5A5.006 5.006 0 0 0 27 47zm5-3a3 3 0 1 1-3 3A3 3 0 0 1 32 44z"/></svg>