<svg xmlns="http://www.w3.org/2000/svg" id="Layer_1" enable-background="new 0 0 64 64" viewBox="0 0 64 64"><path d="M54.32,49.12c-0.01,0.01-0.02,0.01-0.03,0.02c-0.22,0.06-1.14,0.31-2.65,0.31c-2.06,0-5.23-0.47-9.23-2.47
		c-0.09-0.04-7.6-3.95-12.27-4.95c-0.02,0-7.63-1.17-11.56-0.35c-0.42,0.06-8.12,0.9-12.03-1.32c-3.15-1.8-5.23-4.34-6.38-7.73
		c-0.27,3.65-0.34,7.28,0.58,10.45c0.92,3.19,2.77,5.54,5.64,7.18c2.75,1.57,8.63,1.31,10.66,1.09c1.14-0.24,2.53-0.33,3.96-0.33
		c3.89,0,8.07,0.64,8.31,0.68c5,1.07,12.51,4.98,12.82,5.15c6.42,3.2,10.29,2.03,10.33,2.01c6.54-2.18,9.47-5.44,10.81-12
		c0.29-1.45,0.48-2.92,0.6-4.41C61.9,45.54,58.86,47.61,54.32,49.12z"/><path d="M7.58,38.55c2.76,1.57,8.64,1.31,10.67,1.09c4.21-0.88,11.94,0.3,12.27,0.35c5,1.07,12.51,4.98,12.83,5.15
		c6.29,3.15,10.11,2.09,10.32,2.01c5.89-1.96,8.8-4.79,10.32-10.02c-0.22-4.34-1.1-8.48-2.67-11.82c-1.92-4.13-4.45-7.77-7.5-10.83
		c-6.22-6.22-14.71-9.73-23.3-9.54C25.48,5.03,18.1,6,11.66,10.14C6.16,13.66,2.71,18.45,1.2,24.7c-0.03,2.66,0.21,4.85,0.74,6.69
		C2.86,34.57,4.71,36.91,7.58,38.55z M25.99,14.72c5.65,0,10.08,3.05,10.08,6.94c0,3.9-4.42,6.94-10.08,6.94
		c-5.64,0-10.07-3.05-10.07-6.94C15.93,17.77,20.35,14.72,25.99,14.72z"/><path d="M25.99,26.55c4.34,0,8.01-2.23,8.01-4.88c0-2.65-3.67-4.88-8.01-4.88c-4.34,0-8,2.23-8,4.88
		C17.99,24.31,21.65,26.55,25.99,26.55z"/></svg>