<svg xmlns="http://www.w3.org/2000/svg" id="color_cut_line" enable-background="new 0 0 64 64" viewBox="0 0 64 64"><circle cx="32" cy="32" r="12" fill="#ffc008"/><path fill="#fbde08" d="M36.05 20.7l-1.35 5.94-1.18 5.25-.05.21L32.14 38l-1.35 5.94c-1.72-.17-3.34-.71-4.77-1.53L29 29.2l.72-3.2 1.35-5.96C31.38 20.01 31.69 20 32 20 33.42 20 34.79 20.25 36.05 20.7zM38.8 22.12l-2.83 12.52-.41 1.83v.01l-1.67 7.37C33.28 43.95 32.64 44 32 44c-.06 0-.13 0-.19-.01l1.36-6.03 1.24-5.5.25-1.07v-.01l.88-3.88v-.01l1.44-6.41C37.62 21.37 38.23 21.72 38.8 22.12z"/><path fill="#ff8b00" d="M36.488,32C37.407,31.266,38,30.201,38,29c0-2.089-1.765-3.788-4-3.965V24c0-0.553-0.448-1-1-1s-1,0.447-1,1
			v1h-1v-1c0-0.553-0.448-1-1-1s-1,0.447-1,1v1h-1c-0.552,0-1,0.447-1,1s0.448,1,1,1h1v10h-1c-0.552,0-1,0.447-1,1s0.448,1,1,1h1v1
			c0,0.553,0.448,1,1,1s1-0.447,1-1v-1h1v1c0,0.553,0.448,1,1,1s1-0.447,1-1v-1.035c2.235-0.177,4-1.877,4-3.965
			C38,33.799,37.407,32.734,36.488,32z M36,29c0,0.994-0.869,1.815-2,1.968v-3.936C35.131,27.185,36,28.006,36,29z M32,27v4h-1v-4
			H32z M31,37v-4h1v4H31z M34,36.968v-3.936c1.131,0.153,2,0.974,2,1.968S35.131,36.815,34,36.968z"/><circle cx="60" cy="4" r="2" fill="#ffc008"/><circle cx="50" cy="14" r="2" fill="#ffc008"/><circle cx="12" cy="10" r="2" fill="#ffc008"/><circle cx="3" cy="3" r="2" fill="#ffc008"/><circle cx="3" cy="61" r="2" fill="#ffc008"/><circle cx="7" cy="52" r="2" fill="#ffc008"/><circle cx="53" cy="54" r="2" fill="#ffc008"/><circle cx="59" cy="61" r="2" fill="#ffc008"/><path fill="#472b3c" d="M27 37c-.552 0-1 .447-1 1s.448 1 1 1h1v1c0 .553.448 1 1 1s1-.447 1-1v-1h1v1c0 .553.448 1 1 1s1-.447 1-1v-1.035c2.235-.177 4-1.877 4-3.965 0-1.201-.593-2.266-1.512-3C36.407 31.266 37 30.201 37 29c0-2.089-1.765-3.788-4-3.965V24c0-.553-.448-1-1-1s-1 .447-1 1v1h-1v-1c0-.553-.448-1-1-1s-1 .447-1 1v1h-1c-.552 0-1 .447-1 1s.448 1 1 1h1v10H27zM33 36.968v-3.936c1.131.153 2 .974 2 1.968S34.131 36.815 33 36.968zM35 29c0 .994-.869 1.815-2 1.968v-3.936C34.131 27.185 35 28.006 35 29zM31 27v4h-1v-4H31zM30 33h1v4h-1V33zM53 57c1.654 0 3-1.346 3-3s-1.346-3-3-3-3 1.346-3 3S51.346 57 53 57zM53 53c.551 0 1 .448 1 1s-.449 1-1 1-1-.448-1-1S52.449 53 53 53zM10 52c0-1.654-1.346-3-3-3s-3 1.346-3 3 1.346 3 3 3S10 53.654 10 52zM7 53c-.551 0-1-.448-1-1s.449-1 1-1 1 .448 1 1S7.551 53 7 53zM3 64c1.654 0 3-1.346 3-3s-1.346-3-3-3-3 1.346-3 3S1.346 64 3 64zM3 60c.551 0 1 .448 1 1s-.449 1-1 1-1-.448-1-1S2.449 60 3 60zM47 14c0 1.654 1.346 3 3 3s3-1.346 3-3-1.346-3-3-3S47 12.346 47 14zM51 14c0 .552-.449 1-1 1s-1-.448-1-1 .449-1 1-1S51 13.448 51 14zM3 6c1.654 0 3-1.346 3-3S4.654 0 3 0 0 1.346 0 3 1.346 6 3 6zM3 2c.551 0 1 .448 1 1S3.551 4 3 4 2 3.552 2 3 2.449 2 3 2zM12 7c-1.654 0-3 1.346-3 3s1.346 3 3 3 3-1.346 3-3S13.654 7 12 7zM12 11c-.551 0-1-.448-1-1s.449-1 1-1 1 .448 1 1S12.551 11 12 11zM63 4c0-1.654-1.346-3-3-3s-3 1.346-3 3 1.346 3 3 3S63 5.654 63 4zM60 5c-.551 0-1-.448-1-1s.449-1 1-1 1 .448 1 1S60.551 5 60 5zM62 61c0-1.654-1.346-3-3-3s-3 1.346-3 3 1.346 3 3 3S62 62.654 62 61zM58 61c0-.552.449-1 1-1s1 .448 1 1-.449 1-1 1S58 61.552 58 61z"/><path fill="#472b3c" d="M1,35h18.363c0.251,1.055,0.625,2.061,1.116,3H7c-0.552,0-1,0.447-1,1v8c0,0.553,0.448,1,1,1s1-0.447,1-1v-7h7
		v5c0,0.553,0.448,1,1,1s1-0.447,1-1v-5h4.774c1.365,1.741,3.157,3.132,5.226,3.997V50h-6c-0.552,0-1,0.447-1,1s0.448,1,1,1h6v8h-9
		v-5c0-0.553-0.448-1-1-1s-1,0.447-1,1v5H8c-0.552,0-1,0.447-1,1s0.448,1,1,1h20c0.552,0,1-0.447,1-1V44.637
		c0.65,0.154,1.317,0.26,2,0.313V63c0,0.553,0.448,1,1,1s1-0.447,1-1V44.949c1.038-0.08,2.044-0.275,3-0.586V54c0,0.553,0.448,1,1,1
		h4v5c0,0.553,0.448,1,1,1s1-0.447,1-1v-5h5c0.552,0,1-0.447,1-1s-0.448-1-1-1H38v-5h4c0.552,0,1-0.447,1-1s-0.448-1-1-1h-4v-2.479
		c3.296-1.724,5.757-4.817,6.637-8.521H50v5c0,0.553,0.448,1,1,1s1-0.447,1-1v-5h6v9h-5c-0.552,0-1,0.447-1,1s0.448,1,1,1h5v10
		c0,0.553,0.448,1,1,1s1-0.447,1-1V34c0-0.553-0.448-1-1-1H44.949C44.975,32.669,45,32.338,45,32s-0.025-0.669-0.051-1H63
		c0.552,0,1-0.447,1-1s-0.448-1-1-1H44.637c-0.163-0.688-0.371-1.359-0.64-2H50c0.552,0,1-0.447,1-1v-2h7c0.552,0,1-0.447,1-1
		s-0.448-1-1-1h-7v-3c0-0.553-0.448-1-1-1s-1,0.447-1,1v6h-6.063c-1.014-1.579-2.358-2.923-3.937-3.937V5h5v5c0,0.553,0.448,1,1,1
		s1-0.447,1-1V5h9c0.552,0,1-0.447,1-1s-0.448-1-1-1H38c-0.552,0-1,0.447-1,1v16.003c-1.247-0.522-2.593-0.844-4-0.952V1
		c0-0.553-0.448-1-1-1s-1,0.447-1,1v18.045c-1.385,0.107-2.732,0.438-4,0.967V10c0-0.553-0.448-1-1-1h-3V4c0-0.553-0.448-1-1-1
		s-1,0.447-1,1v5h-4c-0.552,0-1,0.447-1,1s0.448,1,1,1h8v10.058c-0.558,0.357-1.097,0.749-1.599,1.192
		c-0.414,0.365-0.454,0.998-0.088,1.412c0.366,0.413,0.998,0.454,1.412,0.088C26.733,21.977,29.317,21,32,21c6.065,0,11,4.935,11,11
		s-4.935,11-11,11s-11-4.935-11-11c0-0.553-0.448-1-1-1s-1,0.447-1,1c0,0.338,0.025,0.669,0.051,1H1c-0.552,0-1,0.447-1,1
		S0.448,35,1,35z"/><path fill="#472b3c" d="M3,7C2.448,7,2,7.447,2,8v20c0,0.553,0.448,1,1,1h17.69c0,0,0.001,0,0.001,0
		c0.474-0.001,0.87-0.33,0.973-0.772c0.217-0.595,0.488-1.175,0.807-1.728c0.276-0.478,0.113-1.09-0.365-1.366
		c-0.48-0.276-1.091-0.113-1.366,0.366c-0.28,0.483-0.528,0.985-0.743,1.5H12v-6c0-0.553-0.448-1-1-1s-1,0.447-1,1v6H4V8
		C4,7.447,3.552,7,3,7z"/><circle cx="46" cy="47" r="2" fill="#472b3c"/><circle cx="17" cy="51" r="2" fill="#472b3c"/><circle cx="62" cy="23" r="2" fill="#472b3c"/><circle cx="11" cy="17" r="2" fill="#472b3c"/></svg>