<?xml version="1.0" encoding="UTF-8"?><!DOCTYPE svg PUBLIC "-//W3C//DTD SVG 1.1//EN" "http://www.w3.org/Graphics/SVG/1.1/DTD/svg11.dtd"><svg xmlns="http://www.w3.org/2000/svg" xmlns:xlink="http://www.w3.org/1999/xlink" version="1.1" id="Layer_1" x="0px" y="0px" width="91px" height="91px" viewBox="0 0 91 91" xml:space="preserve"><path d="M31.928 47.292c-3.94 0-7.149 3.208-7.149 7.151s3.208 7.15 7.149 7.15c3.945 0 7.153-3.207 7.153-7.15s-3.208-7.151-7.153-7.151zm0 9.934c-1.531 0-2.779-1.248-2.779-2.78s1.248-2.782 2.779-2.782c1.536 0 2.783 1.25 2.783 2.782s-1.247 2.78-2.783 2.78z"/><path d="M45.633 17.641c-3.942 0-7.153 3.21-7.153 7.153 0 3.942 3.21 7.153 7.153 7.153 3.943 0 7.153-3.21 7.153-7.153 0-3.943-3.21-7.153-7.153-7.153zm0 9.938a2.787 2.787 0 0 1-2.784-2.784 2.786 2.786 0 0 1 2.784-2.784 2.786 2.786 0 0 1 2.783 2.784 2.788 2.788 0 0 1-2.783 2.784z"/><path d="M90.796 36.62a2.697 2.697 0 0 0-.04-.274c-.003-.015-.003-.029-.005-.042-8.269-32.731-53.72-26.267-54.178-26.198a2.19 2.19 0 0 0-1.1.505l-18.73 16.131a2.188 2.188 0 0 0 .128 3.414c.727.538 1.145 1.348 1.145 2.229a2.788 2.788 0 0 1-2.784 2.786 2.758 2.758 0 0 1-1.982-.838 2.154 2.154 0 0 0-1.627-.656c-.61.018-1.185.29-1.583.75L.984 44.857c-.018.018-.023.04-.037.06a1.995 1.995 0 0 0-.3.475c-.006.01-.013.018-.016.027-.077.173-.124.36-.151.555-.007.047-.01.093-.015.139-.005.06-.018.114-.018.175v9.539c0 .622.266 1.214.728 1.63A2.19 2.19 0 0 0 2.874 58l.308-.04c.104-.013.204-.032.309-.032A5.781 5.781 0 0 1 9.269 63.7a5.783 5.783 0 0 1-5.778 5.778c-.105 0-.206-.02-.309-.035l-.308-.037a2.214 2.214 0 0 0-1.699.541 2.192 2.192 0 0 0-.728 1.631v8.734a2.184 2.184 0 0 0 2.425 2.173l39.626-4.352a2.185 2.185 0 0 0 1.535-.902 2.18 2.18 0 0 0 .359-1.743 5.652 5.652 0 0 1-.146-1.246 5.78 5.78 0 0 1 5.775-5.773 5.782 5.782 0 0 1 5.773 5.769c.002.619.266 1.209.728 1.625a2.186 2.186 0 0 0 1.696.541l30.651-3.368a2.184 2.184 0 0 0 1.945-2.171V36.838l-.003-.037c0-.06-.01-.12-.015-.181zm-78.758 2.168c.98.493 2.065.753 3.192.753a7.161 7.161 0 0 0 7.154-7.155 7.1 7.1 0 0 0-1.102-3.787l16.543-14.25c5.021-.6 39.627-3.784 47.971 20.603l-12.575 1.383c-1.728-3.62-5.414-6.134-9.684-6.134-5.099 0-9.368 3.576-10.455 8.35L7.939 43.507l4.099-4.719zm57.861 2.141a6.37 6.37 0 0 1-6.362 6.363 6.368 6.368 0 0 1-6.36-6.363 6.368 6.368 0 0 1 6.36-6.36 6.368 6.368 0 0 1 6.362 6.36zm16.547 27.973l-26.571 2.921c-1.09-4.43-5.096-7.729-9.853-7.729-5.52 0-10.025 4.432-10.144 9.925L4.817 77.87v-4.108c4.972-.654 8.822-4.915 8.822-10.063 0-5.144-3.85-9.408-8.822-10.059v-5.393l48.188-5.292c.948 4.952 5.309 8.708 10.532 8.708 5.916 0 10.733-4.814 10.733-10.734 0-.105-.013-.208-.018-.313l12.192-1.34.002 29.626z"/><metadata><rdf:RDF xmlns:rdf="http://www.w3.org/1999/02/22-rdf-syntax-ns#" xmlns:rdfs="http://www.w3.org/2000/01/rdf-schema#" xmlns:dc="http://purl.org/dc/elements/1.1/"><rdf:Description about="https://iconscout.com/legal#licenses" dc:title="food,cheese" dc:description="food,cheese" dc:publisher="Iconscout" dc:date="2018-04-15" dc:format="image/svg+xml" dc:language="en"><dc:creator><rdf:Bag><rdf:li>BomSymbols .</rdf:li></rdf:Bag></dc:creator></rdf:Description></rdf:RDF></metadata></svg>