<?xml version="1.0" encoding="UTF-8" standalone="no"?>
<svg xmlns:dc="http://purl.org/dc/elements/1.1/" xmlns:cc="http://creativecommons.org/ns#" xmlns:rdf="http://www.w3.org/1999/02/22-rdf-syntax-ns#" xmlns:svg="http://www.w3.org/2000/svg" xmlns="http://www.w3.org/2000/svg" xmlns:sodipodi="http://sodipodi.sourceforge.net/DTD/sodipodi-0.dtd" xmlns:inkscape="http://www.inkscape.org/namespaces/inkscape" width="32" height="32" viewBox="0 0 32 32.000001" id="svg17515" version="1.1" inkscape:version="0.91 r13725" sodipodi:docname="hen-bird-poultry-farm-chicken.svg">
  <defs id="defs17517">
    <clipPath clipPathUnits="userSpaceOnUse" id="clipPath32617-9-8-8-9">
      <circle r="38.553814" cy="50.047192" cx="-64.623535" style="fill:#4bb7c0;fill-opacity:1;stroke:none" id="path32619-2-3-5-1" transform="matrix(9.3443438,0,0,9.3443438,-627.91229,-5859.5225)"/>
    </clipPath>
    <clipPath clipPathUnits="userSpaceOnUse" id="clipPath19550">
      <circle r="38.553814" cy="50.047192" cx="-64.623535" style="fill:#4bb7c0;fill-opacity:1;stroke:none" id="circle19552" transform="matrix(9.3443438,0,0,9.3443438,-627.91229,-5859.5225)"/>
    </clipPath>
  </defs>
  <sodipodi:namedview id="base" pagecolor="#ffffff" bordercolor="#666666" borderopacity="1.0" inkscape:pageopacity="0.0" inkscape:pageshadow="2" inkscape:zoom="6.409375" inkscape:cx="8.6402237" inkscape:cy="13.472714" inkscape:document-units="px" inkscape:current-layer="layer1" showgrid="false" units="px" inkscape:window-width="1366" inkscape:window-height="716" inkscape:window-x="-8" inkscape:window-y="-8" inkscape:window-maximized="1"/>
  
  <g inkscape:label="Layer 1" inkscape:groupmode="layer" id="layer1" transform="translate(0,-1020.3622)">
    <path sodipodi:nodetypes="cccccsscccccssccccc" inkscape:connector-curvature="0" id="path9233-2" d="m 24.640165,1023.1126 c -0.381959,7e-4 -0.806213,0.1616 -1.121279,0.498 -0.82241,-0.043 -1.596926,0.5408 -1.628823,1.5021 0,0.8223 0.677527,1.4996 1.500037,1.4996 l 0,-0.9997 c -0.282069,0 -0.500045,-0.2179 -0.500045,-0.4999 0,-0.2821 0.217976,-0.4999 0.500045,-0.4999 0.06199,0 0.120787,0.011 0.173782,0.031 0.242373,0.093 0.515444,-0.015 0.628931,-0.2481 0.08399,-0.1726 0.255373,-0.2821 0.447352,-0.2831 0.192479,4e-4 0.36546,0.1099 0.449151,0.2831 0.112788,0.2321 0.383458,0.3404 0.625032,0.25 0.05599,-0.021 0.116387,-0.033 0.175781,-0.033 0.282269,0 0.500046,0.2178 0.500046,0.4999 0,0.282 -0.217777,0.4999 -0.500046,0.4999 l 0,0.9997 c 0.822611,0 1.500137,-0.6773 1.500137,-1.4996 -0.042,-1.1397 -1.020889,-1.5505 -1.632823,-1.4997 -0.333063,-0.3617 -0.784814,-0.5093 -1.117278,-0.5003 z" style="color:#000000;font-style:normal;font-variant:normal;font-weight:normal;font-stretch:normal;font-size:medium;line-height:normal;font-family:sans-serif;text-indent:0;text-align:start;text-decoration:none;text-decoration-line:none;text-decoration-style:solid;text-decoration-color:#000000;letter-spacing:normal;word-spacing:normal;text-transform:none;direction:ltr;writing-mode:lr-tb;baseline-shift:baseline;text-anchor:start;white-space:normal;clip-rule:nonzero;display:inline;overflow:visible;visibility:visible;opacity:1;isolation:auto;mix-blend-mode:normal;color-interpolation:sRGB;color-interpolation-filters:linearRGB;solid-color:#000000;solid-opacity:1;fill:#000000;fill-opacity:1;fill-rule:nonzero;stroke:none;stroke-width:1.00006497;stroke-linecap:butt;stroke-linejoin:round;stroke-miterlimit:4;stroke-dasharray:none;stroke-dashoffset:0;stroke-opacity:1;color-rendering:auto;image-rendering:auto;shape-rendering:auto;text-rendering:auto;enable-background:accumulate"/>
    <path style="color:#000000;font-style:normal;font-variant:normal;font-weight:normal;font-stretch:normal;font-size:medium;line-height:normal;font-family:sans-serif;text-indent:0;text-align:start;text-decoration:none;text-decoration-line:none;text-decoration-style:solid;text-decoration-color:#000000;letter-spacing:normal;word-spacing:normal;text-transform:none;direction:ltr;writing-mode:lr-tb;baseline-shift:baseline;text-anchor:start;white-space:normal;clip-rule:nonzero;display:inline;overflow:visible;visibility:visible;opacity:1;isolation:auto;mix-blend-mode:normal;color-interpolation:sRGB;color-interpolation-filters:linearRGB;solid-color:#000000;solid-opacity:1;fill:#000000;fill-opacity:1;fill-rule:evenodd;stroke:none;stroke-width:1.00006557;stroke-linecap:round;stroke-linejoin:round;stroke-miterlimit:4;stroke-dasharray:none;stroke-dashoffset:0;stroke-opacity:1;color-rendering:auto;image-rendering:auto;shape-rendering:auto;text-rendering:auto;enable-background:accumulate" d="m 25.569964,1025.5269 c -0.651729,-0.1522 -1.449443,-0.288 -2.20876,0.023 -1.01869,0.4178 -1.602426,1.344 -2.11887,2.0526 -0.616733,0.8459 -0.913301,1.7907 -1.312358,2.5801 -0.46225,0.9141 -0.684725,1.8302 -1.19717,2.4042 -0.450851,0.5049 -1.053685,0.9232 -1.675618,1.1094 -0.46085,0.1381 -1.058385,0.061 -1.701015,-0.018 -0.746319,-0.091 -1.554631,-0.5068 -2.540724,-0.6269 -0.418955,-0.051 -0.785415,0.023 -1.089682,0.061 -0.304367,0.037 -0.526943,0.038 -0.685525,-0.027 -0.274371,-0.1124 -0.514044,-0.3688 -0.785015,-0.7188 -0.2709704,-0.3499 -0.5591391,-0.7813 -1.0194891,-1.1094 -0.8979025,-0.6398 -2.6461127,-1.3124 -2.6461127,-1.3124 a 0.499996,0.50003953 0 0 0 -0.6855255,0.4629 l 0,0.3282 -1.1287774,-0.7442 a 0.499996,0.50003953 0 0 0 -0.7753158,0.416 l 0,1.2558 0,1.2558 a 0.499996,0.50003953 0 0 0 0.052994,0.2266 l 0.5819368,1.1484 0,1.7656 a 0.499996,0.50003953 0 0 0 0.1483839,0.3554 l 1.1717727,1.1582 0.5995349,2.377 a 0.499996,0.50003953 0 0 0 0.1757809,0.2695 c 0,0 0.3460625,0.2723 0.7499186,0.6366 0.4038561,0.3644 0.865906,0.8394 1.040887,1.1192 0.1147875,0.1836 0.1811803,0.451 0.2519726,0.7812 0.070992,0.3302 0.1455842,0.7222 0.3827584,1.1016 0.672527,1.0759 1.6177247,2.0094 2.7047067,2.6737 1.185171,0.7242 2.591818,1.3301 4.069958,1.3301 0.82901,0 1.536633,-0.3739 2.134468,-0.6836 1.046686,-0.5423 1.782206,-1.3766 2.587619,-1.9121 0.942497,-0.6264 2.20736,-1.0138 3.232049,-1.9276 0.834309,-0.7439 1.537533,-1.6593 2.02328,-2.668 0.407056,-0.8455 0.626832,-1.7766 0.683526,-2.6972 0.111688,-1.8285 -0.537242,-3.5056 -0.636731,-5.0858 -0.05399,-0.8471 -0.125386,-1.6582 0,-2.3983 0.05999,-0.3643 0.08399,-0.7271 0.148484,-1.0118 0.05899,-0.2604 0.147184,-0.4032 0.259672,-0.5 0.07199,0.013 0.18168,0.047 0.36716,0.047 l 1.271362,0 a 0.499996,0.50003953 0 0 0 0.445251,-0.7246 c 0,0 -0.18098,-0.3612 -0.437452,-0.7871 -0.256472,-0.4259 -0.566439,-0.9141 -0.949097,-1.2479 -0.429753,-0.3751 -0.956096,-0.6144 -1.486139,-0.7383 z m -1.827902,0.9491 c 0.414455,-0.1699 1.01659,-0.1131 1.601326,0.023 0.390658,0.091 0.774616,0.2733 1.054586,0.5176 0.188879,0.1649 0.512644,0.6176 0.748019,1.0078 l -0.419955,0 c -0.01,0 -0.109988,-0.02 -0.263571,-0.041 -0.153584,-0.021 -0.416155,-0.039 -0.660128,0.1348 -0.412056,0.2943 -0.589436,0.74 -0.679627,1.1367 -0.08999,0.3971 -0.112687,0.7833 -0.160082,1.0722 -0.149884,0.9125 -0.05599,1.8007 0,2.6249 0.112487,1.788 0.728721,3.4209 0.634631,4.9609 -0.049,0.8025 -0.244774,1.6114 -0.587836,2.3242 -0.424154,0.881 -1.049086,1.6976 -1.786906,2.3554 -0.808413,0.7209 -2.012682,1.1065 -3.118762,1.8418 -0.951196,0.6322 -1.665619,1.4262 -2.493929,1.8553 -0.588136,0.3047 -1.165773,0.5723 -1.675518,0.5723 -1.19947,0 -2.457833,-0.516 -3.550414,-1.1836 -0.950197,-0.5806 -1.790206,-1.4112 -2.376742,-2.3495 -0.1147874,-0.1837 -0.1810802,-0.4511 -0.2518726,-0.7812 -0.070992,-0.3302 -0.1456841,-0.7222 -0.3827584,-1.1016 -0.2973677,-0.4756 -0.7879144,-0.9434 -1.2186676,-1.3319 -0.3574612,-0.3225 -0.5668385,-0.4868 -0.6640279,-0.5645 l -0.5975351,-2.3574 a 0.499996,0.50003953 0 0 0 -0.1327856,-0.2324 l -1.1209783,-1.1094 0,-1.6757 a 0.499996,0.50003953 0 0 0 -0.054994,-0.2246 l -0.580037,-1.1504 0,-1.1367 0,-0.3262 1.1287774,0.7442 a 0.499996,0.50003953 0 0 0 0.7753158,-0.418 l 0,-0.4531 c 0.5587393,0.2421 1.2932596,0.5345 1.7518098,0.8613 0.2681708,0.1911 0.5164439,0.531 0.8085121,0.9082 0.2919683,0.3772 0.6417304,0.8038 1.1970694,1.0312 0.428254,0.1754 0.841409,0.1359 1.185472,0.094 0.343962,-0.042 0.636131,-0.086 0.847508,-0.061 0.746319,0.091 1.554531,0.507 2.540724,0.627 0.618133,0.075 1.354353,0.2105 2.109171,-0.016 0.839209,-0.2512 1.575129,-0.7759 2.134568,-1.4024 0.740619,-0.8296 0.959096,-1.8588 1.343554,-2.619 0.447651,-0.8852 0.73802,-1.7706 1.228467,-2.4434 0.533742,-0.7323 1.053185,-1.4532 1.691216,-1.7148 z" id="path16536-4-7-4" inkscape:connector-curvature="0"/>
    <path style="color:#000000;font-style:normal;font-variant:normal;font-weight:normal;font-stretch:normal;font-size:medium;line-height:normal;font-family:sans-serif;text-indent:0;text-align:start;text-decoration:none;text-decoration-line:none;text-decoration-style:solid;text-decoration-color:#000000;letter-spacing:normal;word-spacing:normal;text-transform:none;direction:ltr;writing-mode:lr-tb;baseline-shift:baseline;text-anchor:start;white-space:normal;clip-rule:nonzero;display:inline;overflow:visible;visibility:visible;opacity:1;isolation:auto;mix-blend-mode:normal;color-interpolation:sRGB;color-interpolation-filters:linearRGB;solid-color:#000000;solid-opacity:1;fill:#000000;fill-opacity:1;fill-rule:evenodd;stroke:none;stroke-width:1.00006497px;stroke-linecap:butt;stroke-linejoin:miter;stroke-miterlimit:4;stroke-dasharray:none;stroke-dashoffset:0;stroke-opacity:1;color-rendering:auto;image-rendering:auto;shape-rendering:auto;text-rendering:auto;enable-background:accumulate" d="m 13.498975,1046.8623 0,3.4999 0.999891,0 0,-3.4999 z" id="path8986-0-6" inkscape:connector-curvature="0"/>
    <path style="color:#000000;font-style:normal;font-variant:normal;font-weight:normal;font-stretch:normal;font-size:medium;line-height:normal;font-family:sans-serif;text-indent:0;text-align:start;text-decoration:none;text-decoration-line:none;text-decoration-style:solid;text-decoration-color:#000000;letter-spacing:normal;word-spacing:normal;text-transform:none;direction:ltr;writing-mode:lr-tb;baseline-shift:baseline;text-anchor:start;white-space:normal;clip-rule:nonzero;display:inline;overflow:visible;visibility:visible;opacity:1;isolation:auto;mix-blend-mode:normal;color-interpolation:sRGB;color-interpolation-filters:linearRGB;solid-color:#000000;solid-opacity:1;fill:#000000;fill-opacity:1;fill-rule:evenodd;stroke:none;stroke-width:1.00006497px;stroke-linecap:butt;stroke-linejoin:miter;stroke-miterlimit:4;stroke-dasharray:none;stroke-dashoffset:0;stroke-opacity:1;color-rendering:auto;image-rendering:auto;shape-rendering:auto;text-rendering:auto;enable-background:accumulate" d="m 16.998595,1046.8623 0,3.4999 0.999891,0 0,-3.4999 z" id="path8988-84-9" inkscape:connector-curvature="0"/>
    <path style="color:#000000;font-style:normal;font-variant:normal;font-weight:normal;font-stretch:normal;font-size:medium;line-height:normal;font-family:sans-serif;text-indent:0;text-align:start;text-decoration:none;text-decoration-line:none;text-decoration-style:solid;text-decoration-color:#000000;letter-spacing:normal;word-spacing:normal;text-transform:none;direction:ltr;writing-mode:lr-tb;baseline-shift:baseline;text-anchor:start;white-space:normal;clip-rule:nonzero;display:inline;overflow:visible;visibility:visible;opacity:1;isolation:auto;mix-blend-mode:normal;color-interpolation:sRGB;color-interpolation-filters:linearRGB;solid-color:#000000;solid-opacity:1;fill:#000000;fill-opacity:1;fill-rule:evenodd;stroke:none;stroke-width:1.00006497px;stroke-linecap:butt;stroke-linejoin:miter;stroke-miterlimit:4;stroke-dasharray:none;stroke-dashoffset:0;stroke-opacity:1;color-rendering:auto;image-rendering:auto;shape-rendering:auto;text-rendering:auto;enable-background:accumulate" d="m 12.999029,1049.3623 0,0.9999 2.749701,0 0,-0.9999 z" id="path8990-1-8" inkscape:connector-curvature="0"/>
    <path style="color:#000000;font-style:normal;font-variant:normal;font-weight:normal;font-stretch:normal;font-size:medium;line-height:normal;font-family:sans-serif;text-indent:0;text-align:start;text-decoration:none;text-decoration-line:none;text-decoration-style:solid;text-decoration-color:#000000;letter-spacing:normal;word-spacing:normal;text-transform:none;direction:ltr;writing-mode:lr-tb;baseline-shift:baseline;text-anchor:start;white-space:normal;clip-rule:nonzero;display:inline;overflow:visible;visibility:visible;opacity:1;isolation:auto;mix-blend-mode:normal;color-interpolation:sRGB;color-interpolation-filters:linearRGB;solid-color:#000000;solid-opacity:1;fill:#000000;fill-opacity:1;fill-rule:evenodd;stroke:none;stroke-width:1.00006497px;stroke-linecap:butt;stroke-linejoin:miter;stroke-miterlimit:4;stroke-dasharray:none;stroke-dashoffset:0;stroke-opacity:1;color-rendering:auto;image-rendering:auto;shape-rendering:auto;text-rendering:auto;enable-background:accumulate" d="m 16.498649,1049.3623 0,0.9999 2.749701,0 0,-0.9999 z" id="path8992-4-1" inkscape:connector-curvature="0"/>
  </g>

	<metadata>
		<rdf:RDF xmlns:rdf="http://www.w3.org/1999/02/22-rdf-syntax-ns#" xmlns:rdfs="http://www.w3.org/2000/01/rdf-schema#" xmlns:dc="http://purl.org/dc/elements/1.1/">
			<rdf:Description about="https://iconscout.com/legal#licenses" dc:title="chicken-hen-bird-poultry-farm-egg-meat" dc:description="chicken-hen-bird-poultry-farm-egg-meat" dc:publisher="Iconscout" dc:date="2017-04-20" dc:format="image/svg+xml" dc:language="en">
				<dc:creator>
					<rdf:Bag>
						<rdf:li>Vignesh Oviyan</rdf:li>
					</rdf:Bag>
				</dc:creator>
			</rdf:Description>
		</rdf:RDF>
    </metadata></svg>
