<svg xmlns="http://www.w3.org/2000/svg" viewBox="0 0 64 64"><path fill="#ffa725" d="M15,26v5a1,1,0,0,1-1,1H9a1,1,0,0,1-1-1l6-6A1,1,0,0,1,15,26Z"/><path fill="#d7442d" d="M12,40h0a2,2,0,0,1-2-2h0a2.85,2.85,0,0,1,.62-1.78L14,32v6A2,2,0,0,1,12,40Z"/><path fill="#ffe7ad" d="M55.75,37A22.34,22.34,0,0,1,33.24,56,19.85,19.85,0,0,1,14,36V32A19.85,19.85,0,0,0,33.24,52,22.36,22.36,0,0,0,54.77,37Z"/><path fill="#f9efd9" d="M51,37h3.77A22.36,22.36,0,0,1,33.24,52,19.85,19.85,0,0,1,14,32v0a1,1,0,0,0,1-1V26a1,1,0,0,0-1-1V24a10,10,0,0,1,17.07-7.07A9.68,9.68,0,0,1,33,19.65,9.89,9.89,0,0,1,34,24a8,8,0,0,0,8,8H56Z"/><path fill="#d7442d" d="M33,13.5v6.15a9.68,9.68,0,0,0-1.93-2.72A10,10,0,0,0,18,16V10.5a2.5,2.5,0,0,1,5,0v1a2.5,2.5,0,0,1,5,0v2a2.5,2.5,0,0,1,5,0Z"/><path fill="#3f0a1a" d="M14,33H9a2,2,0,0,1-2-2,1,1,0,0,1,.29-.71l6-6A1,1,0,0,1,14,24a2,2,0,0,1,2,2v5A2,2,0,0,1,14,33ZM9.41,31H14V26.41Zm5-5h0ZM14,26Z"/><path fill="#3f0a1a" d="M12,41a3,3,0,0,1-3-3,3.9,3.9,0,0,1,.84-2.41l3.38-4.21a1,1,0,0,1,1.11-.32A1,1,0,0,1,15,32v6A3,3,0,0,1,12,41Zm1-6.15-1.59,2A1.83,1.83,0,0,0,11,38a1,1,0,0,0,2,0Z"/><path fill="#3f0a1a" d="M33.65,57h-.43A20.37,20.37,0,0,1,17,48.42a1,1,0,0,1,1.62-1.18A18.39,18.39,0,0,0,33.26,55h.39A21.39,21.39,0,0,0,54.56,38H51a1,1,0,0,1-.92-.62,1,1,0,0,1,.21-1.09L53.59,33H42a9,9,0,0,1-9-9,8.79,8.79,0,0,0-.9-3.91,8.44,8.44,0,0,0-1.74-2.45A9,9,0,0,0,15,24v.27A2,2,0,0,1,16,26v5a2,2,0,0,1-1,1.73V36A19.07,19.07,0,0,0,16.72,44a1,1,0,0,1-1.82.82A21,21,0,0,1,13,36V32a1,1,0,0,1,1-1V26a1,1,0,0,1-1-1V24a11,11,0,0,1,18.78-7.78A11,11,0,0,1,35,24a7,7,0,0,0,7,7H56a1,1,0,0,1,.92.62,1,1,0,0,1-.21,1.09L53.41,36h2.34a1,1,0,0,1,1,1.15A23.39,23.39,0,0,1,33.65,57Z"/><path fill="#3f0a1a" d="M33,20.65a1,1,0,0,1-.9-.57,8.54,8.54,0,0,0-1.74-2.44,9,9,0,0,0-11.76-.83,1,1,0,0,1-1.05.09A1,1,0,0,1,17,16V10.5a3.5,3.5,0,0,1,6.47-1.85,3.46,3.46,0,0,1,2-.65,3.51,3.51,0,0,1,3.33,2.42A3.51,3.51,0,0,1,34,13.5V14a1,1,0,0,1-2,0v-.5a1.5,1.5,0,0,0-3,0,1,1,0,0,1-.2.6,11,11,0,0,1,3,2.12l.32.34A1,1,0,0,1,34,17v2.65a1,1,0,0,1-.78,1ZM20.5,9A1.5,1.5,0,0,0,19,10.5v3.7a11.15,11.15,0,0,1,8-.79V11.5a1.5,1.5,0,0,0-3,0,1,1,0,0,1-2,0v-1A1.5,1.5,0,0,0,20.5,9Z"/><path fill="#ffe7ad" d="M42,45.76A2.6,2.6,0,0,1,39.36,48H35a10,10,0,0,1-10-9.53l.24-.26A10,10,0,0,0,35,46h4.36a2.69,2.69,0,0,0,2.43-1.5A2.42,2.42,0,0,1,42,45.76Z"/><circle cx="21.5" cy="21.5" r="1.5" fill="#3f0a1a"/><path fill="#3f0a1a" d="M39.36,49H35A11,11,0,0,1,24,38.52a1,1,0,1,1,2-.1A9,9,0,0,0,35,47h4.36A1.61,1.61,0,0,0,41,45.66a1.55,1.55,0,0,0-.38-1.17A1.53,1.53,0,0,0,39.5,44h-3a1,1,0,0,1,0-2,1.53,1.53,0,0,0,1.12-.49A1.55,1.55,0,0,0,38,40.34,1.61,1.61,0,0,0,36.36,39H33.5a1,1,0,0,1,0-2,1.53,1.53,0,0,0,1.12-.49A1.55,1.55,0,0,0,35,35.34,1.61,1.61,0,0,0,33.36,34H30a1,1,0,0,1,0-2h3.36a3.49,3.49,0,0,1,3.3,5,3.48,3.48,0,0,1,3,5A3.51,3.51,0,0,1,43,45.86,3.61,3.61,0,0,1,39.36,49Z"/></svg>