<svg xmlns="http://www.w3.org/2000/svg" viewBox="0 0 64 64"><path d="M20.46,45.67c.51.36,1,.69,1.55,1,.26.16.51.3.77.44s.52.29.77.41l.78.38c.51.23,1,.45,1.54.64l.28.1c.07.13.12.24.18.36s.18.37.28.53c.21.37.41.72.62,1s.36.54.54.79l.15.19c.09.11.17.22.26.32a5.07,5.07,0,0,0,2,1.47h0V56h-1a1,1,0,0,0,0,2h10a1,1,0,0,0,0-2h-3V52.79a5.61,5.61,0,0,0,2.45-3,18.49,18.49,0,0,1-1.81.71,13.63,13.63,0,0,1-.68,1.26,9.07,9.07,0,0,1-.9,1.23h0a6,6,0,0,1-1,1v2h-2V52.82a2.11,2.11,0,0,0,.34-.16,1,1,0,0,0,.26-.16h0l0,0,.08,0a2.23,2.23,0,0,0,.24-.19h0a.05.05,0,0,0,0,0l.08-.08a2.23,2.23,0,0,0,.27-.26,6.28,6.28,0,0,0,.87-1.16l0,0h0l.06-.09.1-.17a7.39,7.39,0,0,0,.47-.93l.06-.13,0-.07a.83.83,0,0,1,.07-.13s0,0,0,0,.1-.25.13-.36l.43-.11.12,0,.38-.12.44-.16.34-.13c.31-.11.59-.24.86-.36l.68-.35c.22-.11.42-.23.61-.34l.27-.17,0,0h0c.35-.22.64-.43.86-.58l.23-.17.09-.08a11.17,11.17,0,0,0,1.14-1l.49-.51c.18-.19.37-.4.55-.63l.22-.27a18.68,18.68,0,0,0,1.36-1.88,20.25,20.25,0,0,0,1.34-2.46c.13-.3.25-.61.37-.92s.23-.63.34-1a17.89,17.89,0,0,0,.5-2c0-.23.07-.47.1-.71.07-.47.13-1,.17-1.45s.07-.79.09-1.19a.34.34,0,0,0,0-.1c0-.33,0-.65,0-1s0-.92,0-1.37c0-.23,0-.46,0-.69s0-.45,0-.67c0-.88-.06-1.71-.11-2.45,0-.28,0-.54-.05-.79,0-.59-.1-1.1-.14-1.5,0-.09,0-.17,0-.25a.09.09,0,0,1,0-.05A3.19,3.19,0,0,0,49,22.75a2.22,2.22,0,0,0,.54-.56,3.27,3.27,0,0,0,.34-2.5,8.13,8.13,0,0,0-.7-2v0l.11-.05.2-.12.34-.14a2.71,2.71,0,0,0,.45-.23,2.19,2.19,0,0,0,.33-.25l.11-.11a1,1,0,0,0,.21-.24l0-.06a2.15,2.15,0,0,0,.19-.37c.05-.13.08-.26.12-.39a1.75,1.75,0,0,0,0-.64,1,1,0,0,0,0-.25,1.46,1.46,0,0,0-.12-.41s0-.1-.06-.16L51,14.13a1.86,1.86,0,0,0-.19-.37c0-.07-.08-.14-.12-.22l-.12-.19L50.33,13c-.06-.08-.12-.17-.2-.26a2.3,2.3,0,0,0-.17-.2l-.27-.29A7.33,7.33,0,0,0,48.13,11a3.18,3.18,0,0,0,.17-2.19,1.49,1.49,0,0,0-.17-.44C47.61,7.47,46.52,7,44.91,7h0a10.15,10.15,0,0,0-6.78,2.29,2.78,2.78,0,0,0-.95,1.53h0a1.84,1.84,0,0,0-.05.25A3.83,3.83,0,0,0,38,13.82c-.05.12-.09.25-.13.38s-.15.5-.23.77c-.11.44-.17.86-.24,1.33-.05.32-.1.67-.19,1.09l-.11.48c0,.25-.12.52-.2.82s-.11.35-.17.53-.19.63-.32,1c-.06.18-.13.36-.2.56-.28.78-.64,1.67-1.09,2.73-.11.26-.22.5-.34.73s-.17.3-.26.44a4.58,4.58,0,0,1-.31.49l-.21.29a1.71,1.71,0,0,1-.22.25,1.13,1.13,0,0,1-.21.24,2.39,2.39,0,0,1-.22.23,5.47,5.47,0,0,1-.46.4,4.51,4.51,0,0,1-.72.48,4,4,0,0,1-.5.26l-.26.11a4.4,4.4,0,0,1-.51.18l-.22.07-.32.08a5.27,5.27,0,0,1-.52.1,2.87,2.87,0,0,1-.5.07L29,28l-.49,0h-.27c-.64,0-1.27,0-1.89,0-.32,0,0,0-.27,0a4.26,4.26,0,0,1-.63,0l-.53-.11a2.3,2.3,0,0,1-.34-.12,1.19,1.19,0,0,1-.26-.11A1.11,1.11,0,0,1,24,27.5a1.19,1.19,0,0,1-.25-.13,4.07,4.07,0,0,1-.49-.31,8.28,8.28,0,0,1-.89-.67L21.93,26h0l-.54-.46a7.11,7.11,0,0,0-1.8-1.14,3.77,3.77,0,0,0-3.47-.11l-.26.17a2.31,2.31,0,0,0-.24.2,2.2,2.2,0,0,0-.2.23,0,0,0,0,0,0,0l-.15.21s-.05,0-.05.07a3.15,3.15,0,0,0-.27.59,3.37,3.37,0,0,0-.1.34c0,.11-.05.23-.07.35a6.33,6.33,0,0,1-.15.64C12.62,35.4,14.59,41.64,20.46,45.67Zm1.16-6.84a1,1,0,1,1,1.1-1.66C27,40,30.45,40.82,33.08,39.61c4.24-2,5.09-8.66,5.1-8.73a1,1,0,1,1,2,.24c0,.32-1,7.88-6.24,10.3a7.93,7.93,0,0,1-3.4.73C27.91,42.15,24.93,41,21.62,38.83ZM44.67,15a.5.5,0,1,1,.5-.5A.5.5,0,0,1,44.67,15Z" data-name="Layer 4"/></svg>