<svg xmlns="http://www.w3.org/2000/svg" id="Layer_1" enable-background="new 0 0 64 64" viewBox="0 0 64 64"><path fill="#2a2f63" d="M59.6,34.4c-2.5-2.6-5.7-4.2-9.3-4.7c-5.5-0.7-10.5-2.7-14.4-5.9l-4.9-4c-1.6-1.3-3.9-1.1-5.2,0.5l-0.1,0.1L18,14.2c2-3,1.4-7-1.4-9.3c-3-2.4-7.4-2-9.8,1c-0.9,1.1-1.5,2.5-1.6,4c-1.4,0.4-2.7,1.2-3.6,2.3c-2.4,3-2,7.4,1,9.8c2.8,2.3,6.9,2,9.4-0.5l7.8,6.3L19.7,28c-1.3,1.6-1.1,3.9,0.5,5.2l4.4,3.6c4.4,3.5,7.5,8.1,9.1,13.1c0.9,2.9,2.6,5.4,5,7.3c2.8,2.3,6.3,3.5,9.8,3.5c0.8,0,1.6-0.1,2.4-0.2c4.4-0.7,8.2-3.2,10.6-7C65.4,47.5,64.7,39.6,59.6,34.4z M12.7,18.4c-0.3-0.3-0.8-0.4-1.2-0.3c-0.4,0.1-0.8,0.3-1,0.7c-0.1,0.1-0.2,0.3-0.3,0.4c-1.4,1.8-4,2-5.8,0.6c-1.8-1.4-2-4-0.6-5.8c0.7-0.9,1.8-1.4,2.9-1.5c0.4,0,0.8-0.2,1-0.5c0.2-0.3,0.4-0.7,0.3-1.1C7.9,9.8,8.2,8.6,9,7.7c1.4-1.8,4-2,5.8-0.6c1.8,1.4,2,4,0.6,5.8c-0.1,0.2-0.2,0.3-0.4,0.4c-0.3,0.3-0.5,0.7-0.5,1.1c0,0.4,0.2,0.8,0.5,1.1l8.9,7.3l-2.3,2.9L12.7,18.4z M59.1,52c-2,3.1-5.1,5.1-8.7,5.7c-3.5,0.6-7.2-0.4-10-2.7c-1.9-1.6-3.3-3.6-4.1-6c-1.8-5.5-5.2-10.5-10-14.4L22,31c-0.4-0.3-0.4-0.8-0.1-1.2l1-1.2c0,0,0,0,0,0l4.2-5.1c0,0,0,0,0,0l1-1.2c0.2-0.2,0.4-0.3,0.7-0.3c0.2,0,0.4,0.1,0.5,0.2l4.9,4c4.3,3.5,9.8,5.8,15.9,6.5c2.9,0.4,5.5,1.7,7.6,3.8C61.7,40.6,62.3,47,59.1,52z"/><path fill="#d6d6d6" d="M23.9,22.8l-2.3,2.9l-8.9-7.3c-0.3-0.3-0.8-0.4-1.2-0.3c-0.4,0.1-0.8,0.3-1,0.7c-0.1,0.1-0.2,0.3-0.3,0.4c-1.4,1.8-4,2-5.8,0.6c-1.8-1.4-2-4-0.6-5.8c0.7-0.9,1.8-1.4,2.9-1.5c0.4,0,0.8-0.2,1-0.5c0.2-0.3,0.4-0.7,0.3-1.1C7.9,9.8,8.2,8.6,9,7.7c1.4-1.8,4-2,5.8-0.6c1.8,1.4,2,4,0.6,5.8c-0.1,0.2-0.2,0.3-0.4,0.4c-0.3,0.3-0.5,0.7-0.5,1.1c0,0.4,0.2,0.8,0.5,1.1L23.9,22.8z"/><path fill="#f0d39a" d="M59.1,52c-2,3.1-5.1,5.1-8.7,5.7c-3.5,0.6-7.2-0.4-10-2.7c-1.9-1.6-3.3-3.6-4.1-6c-1.8-5.5-5.2-10.5-10-14.4L22,31c-0.4-0.3-0.4-0.8-0.1-1.2l1-1.2c0,0,0,0,0,0l4.2-5.1c0,0,0,0,0,0l1-1.2c0.2-0.2,0.4-0.3,0.7-0.3c0.2,0,0.4,0.1,0.5,0.2l4.9,4c4.3,3.5,9.8,5.8,15.9,6.5c2.9,0.4,5.5,1.7,7.6,3.8C61.7,40.6,62.3,47,59.1,52z"/></svg>