<svg xmlns="http://www.w3.org/2000/svg" viewBox="0 0 64 64"><path d="M33.0169 28.0731a8.8216 8.8216 0 0 0 6.2471 15.05q.2988 0 .6-.02a8.82 8.82 0 0 0 6.4248-3.4653L54.74 28.5257l.0049-.0073a3.2391 3.2391 0 0 0-.3047-4.2539l-5.15-5.15a3.2461 3.2461 0 0 0-4.2509-.29l-11.11 8.44A7.9191 7.9191 0 0 0 33.0169 28.0731zM62.3012 16.37a3.9106 3.9106 0 0 0-2.67-1.65.9131.9131 0 0 1-.79-.8 3.9935 3.9935 0 0 0-1.64-2.67 3.9145 3.9145 0 0 0-6.13 2.88 3.8475 3.8475 0 0 0 .51 2.31l-1.08 1.08a1.6333 1.6333 0 0 1 .2.18l5.15 5.15c.07.07.13.14.19.21l1.07-1.08a3.9878 3.9878 0 0 0 2.32.51 3.9045 3.9045 0 0 0 2.87-6.12zM35.5794 21.3173l2.5623.9743L38.79 21.1l.002-.0029a2.9822 2.9822 0 0 0-.86-3.8223L32.764 13.4755a2.9912 2.9912 0 0 0-3.9.33L23.165 19.6989a26.4885 26.4885 0 0 1 12.4144 1.6184zM33.6445 11.6757c.1007.0635.2064.1168.303.1879l5.169 3.7994c.0993.0719.1815.1587.274.2368l.5385-.7334a3.5668 3.5668 0 1 0 1.2051-6.917h-.0274a.6768.6768 0 0 1-.6826-.5073A3.566 3.566 0 1 0 34.18 10.9462z"/><path d="M47.8813,40.85a10.7993,10.7993,0,0,1-7.88,4.25c-.25.01-.49.02-.74.02a10.8118,10.8118,0,0,1-7.66-18.46,10.0006,10.0006,0,0,1,1.12-.99l2.89-2.2-.74-.28a24.7081,24.7081,0,0,0-13.7-1.17,25.1042,25.1042,0,0,0-20.17,24.54,12.2419,12.2419,0,0,0,12.23,12.23h39.34a8.4329,8.4329,0,0,0,8.43-8.43,24.84,24.84,0,0,0-7.09-17.44Zm-21.172-1.1976a6.8358,6.8358,0,0,0-2.0147,4.8643v2.5058a5.6214,5.6214,0,0,1-5.6152,5.6153H15.6175a5.6215,5.6215,0,0,1-5.6153-5.6153,1.0011,1.0011,0,0,1,.168-.5547,9.6392,9.6392,0,0,1,6.626-3.8432.1475.1475,0,0,0,.13-.145,4.5387,4.5387,0,0,1,4.5332-4.5342h4.5429a1,1,0,0,1,.7071,1.707Z"/><path d="M18.9261,42.4794a2.1456,2.1456,0,0,1-1.9034,2.1323,7.6927,7.6927,0,0,0-5.0068,2.727,3.62,3.62,0,0,0,3.6016,3.2989h3.4619a3.6194,3.6194,0,0,0,3.6152-3.6153V44.5165a8.825,8.825,0,0,1,1.2627-4.5713h-2.498A2.5367,2.5367,0,0,0,18.9261,42.4794Z"/></svg>