<svg xmlns="http://www.w3.org/2000/svg" enable-background="new 0 0 64 64" viewBox="0 0 64 64"><path d="M28.78 34.84c-.49 2.05-.58 5.01 1.7 7.47.96 1.04 2.31 1.81 3.9 2.21 2.25.58 6.33 1.26 8.43-.61 1.21-1.07 1.65-2.96 1.29-5.62-.04-.36.11-.73.4-.94.02-.02 2.4-1.8 2.66-4.19.13-1.22-.32-2.44-1.33-3.62-.35-.4-.32-1.01.06-1.38.11-.11 1.53-1.56 2.15-4.28.02-.09.04-.18.06-.27.42-2.08.38-4.86-.99-8.3-1.32 2.56-4.09 6.78-8.68 8.77-.03.01-.07.03-.1.04-.16.07-.32.14-.49.2C33.64 25.92 29.83 30.34 28.78 34.84zM15.62 8.38c.35-.4.82-.86 1.38-1.26 1.79-1.27 4.64-2.09 8.64.25.13.08.26.15.39.23.51.32 1 .69 1.48 1.07.14.12.28.24.42.36.3-2.72.6-7.96-1.68-8.89-1.4-.57-2.83.6-4 1.92-.58-.74-1.41-1.46-2.39-1.32-1.04.15-1.62 1.11-1.96 2.17C17.3 2.67 16.55 2.58 15.88 3c-1.16.73-1.35 2.53-.61 5.79C15.39 8.65 15.5 8.51 15.62 8.38zM7.52 15.93c-.39.1-.69.41-.75.81-.07.39.1.79.43 1.01l4.15 2.78c.11-.72.25-1.44.4-2.16.1-.5.2-1 .33-1.51.12-.55.25-1.09.39-1.65.04-.19.09-.38.15-.59L7.52 15.93z"/><path d="M54.7,17.15c-1.11,3.32-2.69,5.78-4.72,7.36c-0.53,2.11-1.46,3.6-2.07,4.4c1.01,1.43,1.45,2.94,1.26,4.49
		c-0.28,2.53-2.11,4.43-2.99,5.21c0.3,3.07-0.38,5.37-2.03,6.83c-1.45,1.28-3.42,1.73-5.44,1.73c-1.67,0-3.37-0.3-4.82-0.68
		c-1.97-0.51-3.67-1.47-4.89-2.8c-2.24-2.43-3.02-5.73-2.18-9.31c1.12-4.76,4.99-9.47,9.4-11.55c-3.71-3.84-5.74-6.85-6.81-8.76
		c-0.84-1.48-1.92-2.8-3.15-3.82c-0.01,0-0.02-0.01-0.03-0.01c-0.51-0.41-1.03-0.8-1.59-1.11c-3.08-1.81-5.51-1.63-7.45,0.55
		c-0.02,0.02-0.03,0.03-0.04,0.05c-1.68,1.92-2.32,4.65-2.34,4.67l-0.06,0.24c-0.08,0.28-0.15,0.56-0.22,0.83
		c-0.02,0.08-0.04,0.16-0.06,0.24c-0.02,0.08-0.04,0.15-0.06,0.23c0,0,0,0,0,0.01c-1.89,7.41-2.29,14.36-1.19,20.69
		c1.28,7.39,6.69,13.2,13.82,14.92l-0.38,6.08l-4.2,3.7c-0.42,0.37-0.46,1.01-0.09,1.43c0.37,0.42,1.01,0.46,1.43,0.09l2.68-2.36
		l-0.15,2.44c-0.04,0.55,0.39,1.04,0.94,1.07c0.57,0.04,1.04-0.39,1.07-0.95l0.15-2.44l2.37,2.69c0.18,0.21,0.44,0.32,0.69,0.34
		c0.26,0.02,0.52-0.07,0.73-0.25c0.42-0.37,0.46-1.01,0.09-1.43l-3.71-4.21l0.37-5.81c4.25,0.67,8.47,0.32,12.35-0.97l-0.25,6.68
		l-4.1,3.81c-0.41,0.38-0.43,1.02-0.05,1.43c0.38,0.41,1.02,0.43,1.43,0.05l2.62-2.43l-0.09,2.44c-0.02,0.56,0.42,1.03,0.97,1.05
		c0.56,0.02,1.03-0.42,1.05-0.97l0.09-2.45l2.44,2.63c0.19,0.2,0.44,0.31,0.7,0.32c0.26,0.01,0.52-0.08,0.73-0.27
		c0.41-0.38,0.43-1.02,0.05-1.43l-3.81-4.11l0.28-7.52c3.14-1.35,6.01-3.35,8.41-5.93C60.34,35.15,56.78,22.48,54.7,17.15z
		 M21.48,18.29c-1.35,0-2.46-1.1-2.46-2.46s1.1-2.46,2.46-2.46c1.35,0,2.45,1.1,2.45,2.46S22.84,18.29,21.48,18.29z"/><path d="M21.48,15.2c-0.36,0-0.64,0.28-0.64,0.64c0,0.36,0.28,0.64,0.64,0.64c0.35,0,0.63-0.29,0.63-0.64
		C22.11,15.48,21.83,15.2,21.48,15.2z"/></svg>