<svg xmlns="http://www.w3.org/2000/svg" baseProfile="tiny" version="1.2" viewBox="0 0 100 100"><path d="M12.5 45c2.769 0 5.186-1.512 6.485-3.75h22.029C42.314 43.488 44.731 45 47.5 45c4.136 0 7.5-3.364 7.5-7.5S51.636 30 47.5 30c-2.769 0-5.186 1.512-6.485 3.75H18.985c-.658-1.133-1.602-2.077-2.735-2.735V21.25h7.265C24.814 23.488 27.231 25 30 25c4.136 0 7.5-3.364 7.5-7.5S34.136 10 30 10c-2.769 0-5.186 1.512-6.485 3.75H12.5L8.75 17.5v13.515C6.512 32.314 5 34.731 5 37.5 5 41.636 8.364 45 12.5 45zM47.5 35c1.378 0 2.5 1.122 2.5 2.5S48.878 40 47.5 40 45 38.878 45 37.5 46.122 35 47.5 35zM30 15c1.378 0 2.5 1.122 2.5 2.5S31.378 20 30 20s-2.5-1.122-2.5-2.5S28.622 15 30 15zM12.5 35c1.378 0 2.5 1.122 2.5 2.5S13.878 40 12.5 40 10 38.878 10 37.5 11.122 35 12.5 35zM95 62.5c0-4.136-3.364-7.5-7.5-7.5S80 58.364 80 62.5c0 2.769 1.512 5.186 3.75 6.485v7.029c-1.133.658-2.077 1.602-2.735 2.735H51.25v-9.765C53.488 67.686 55 65.269 55 62.5c0-4.136-3.364-7.5-7.5-7.5-2.769 0-5.186 1.512-6.485 3.75H18.985C17.686 56.512 15.269 55 12.5 55 8.364 55 5 58.364 5 62.5S8.364 70 12.5 70c2.769 0 5.186-1.512 6.485-3.75h22.029c.658 1.133 1.602 2.077 2.735 2.735V82.5l3.75 3.75h33.515C82.314 88.488 84.731 90 87.5 90c4.136 0 7.5-3.364 7.5-7.5 0-2.769-1.512-5.186-3.75-6.485v-7.029C93.488 67.686 95 65.269 95 62.5zM12.5 65c-1.378 0-2.5-1.122-2.5-2.5s1.122-2.5 2.5-2.5 2.5 1.122 2.5 2.5S13.878 65 12.5 65zM47.5 65c-1.378 0-2.5-1.122-2.5-2.5s1.122-2.5 2.5-2.5 2.5 1.122 2.5 2.5S48.878 65 47.5 65zM87.5 85c-1.378 0-2.5-1.122-2.5-2.5s1.122-2.5 2.5-2.5 2.5 1.122 2.5 2.5S88.878 85 87.5 85zM87.5 65c-1.378 0-2.5-1.122-2.5-2.5s1.122-2.5 2.5-2.5 2.5 1.122 2.5 2.5S88.878 65 87.5 65zM95 17.5c0-4.136-3.364-7.5-7.5-7.5-2.769 0-5.186 1.512-6.485 3.75h-9.529C70.186 11.512 67.769 10 65 10c-4.136 0-7.5 3.364-7.5 7.5S60.864 25 65 25c2.769 0 5.186-1.512 6.485-3.75h9.529c.658 1.133 1.602 2.077 2.735 2.735v7.029C81.512 32.314 80 34.731 80 37.5c0 4.136 3.364 7.5 7.5 7.5s7.5-3.364 7.5-7.5c0-2.769-1.512-5.186-3.75-6.485v-7.029C93.488 22.686 95 20.269 95 17.5zM65 20c-1.378 0-2.5-1.122-2.5-2.5S63.622 15 65 15s2.5 1.122 2.5 2.5S66.378 20 65 20zM87.5 40c-1.378 0-2.5-1.122-2.5-2.5s1.122-2.5 2.5-2.5 2.5 1.122 2.5 2.5S88.878 40 87.5 40zM87.5 20c-1.378 0-2.5-1.122-2.5-2.5s1.122-2.5 2.5-2.5 2.5 1.122 2.5 2.5S88.878 20 87.5 20z"/></svg>