<svg xmlns="http://www.w3.org/2000/svg" viewBox="0 0 64 64"><g data-name="Layer 3"><path fill="#e6e6e6" d="M23.07,47.63l-5.88,5.88a5.309,5.309,0,1,1-7.09.39,5.39,5.39,0,0,1-.45.4,5.348,5.348,0,1,1,.84-7.49l5.88-5.88Z"/><path fill="#d2b393" d="M61.57,32.56c-5.81,5.82-11.71,8.37-21.45,10.17a38.457,38.457,0,0,0-8.03,2.45,40.212,40.212,0,0,0-5.8,3.06,2.375,2.375,0,0,1-2.94-.33l-.28-.28-6.7-6.7-.28-.28a2.375,2.375,0,0,1-.33-2.94,39.68,39.68,0,0,0,5.51-13.83C22.99,14.6,25.38,8.8,30.65,3.25c.25-.27.52-.55.79-.82a4.2,4.2,0,0,0-.7.93c-1.46,2.54-.66,6.78,1.88,11.44a42.482,42.482,0,0,0,7.19,9.39C48.13,32.51,57.87,36.26,61.57,32.56Z"/><ellipse cx="46.505" cy="17.495" fill="#ed5555" rx="9.468" ry="21.305" transform="rotate(-45 46.505 17.495)"/><path fill="#b83b3b" d="M44.236,25.161c-8.32-8.32-12.07-18.06-8.37-21.76A5.69,5.69,0,0,1,40.285,2c-3.8-1.4-7.043-1.376-8.845.426-3.7,3.7.05,13.44,8.37,21.76,5.972,5.972,12.665,9.57,17.341,9.768A37.744,37.744,0,0,1,44.236,25.161Z"/><path fill="#b83b3b" d="M49.02,14.98c4.16,4.16,6.41,8.66,5.02,10.05S48.16,24.16,44,20s-6.41-8.65-5.03-10.04S44.86,10.82,49.02,14.98Z"/><path fill="#c29588" d="M31.62,44.72l.47.46a40.212,40.212,0,0,0-5.8,3.06,2.375,2.375,0,0,1-2.94-.33l-.28-.28-6.7-6.7-.28-.28a2.375,2.375,0,0,1-.33-2.94,39.68,39.68,0,0,0,5.51-13.83C22.99,14.6,25.38,8.8,30.65,3.25l.09.11c-1.46,2.54-.66,6.78,1.88,11.44L27.77,27.5A15.987,15.987,0,0,0,31.62,44.72Z"/></g><g data-name="Layer 1"><path d="M7.681,56.319A6.329,6.329,0,1,0,18.619,53.5l2.328-2.328a1,1,0,1,0-1.414-1.414l-3.05,3.05a1.011,1.011,0,0,0,.081,1.487,4.233,4.233,0,0,1,.357.315,4.328,4.328,0,1,1-6.439.369,4.281,4.281,0,0,1,.325-.367A1,1,0,0,0,11.1,53.9a1.009,1.009,0,0,0-1.707-.707,4.328,4.328,0,1,1,0-6.114,4.075,4.075,0,0,1,.316.357,1.01,1.01,0,0,0,1.487.081l5.173-5.173,6.273,6.273a3.389,3.389,0,0,0,4.189.464A38.488,38.488,0,0,1,40.3,43.713c10.312-1.905,16.266-4.734,21.979-10.447,4.152-4.151.475-14.332-8.37-23.177S34.885-2.433,30.734,1.719c-.007.007-.012.016-.019.023a32.583,32.583,0,0,0-8.16,12.981,1,1,0,1,0,1.89.653A30.065,30.065,0,0,1,29.017,6.69c0,.116.021.242.028.361a16.282,16.282,0,0,0,1.14,4.886A39.2,39.2,0,0,0,39.1,24.9a39.2,39.2,0,0,0,12.96,8.918,15.93,15.93,0,0,0,5.254,1.168c-4.453,3.4-9.518,5.311-17.379,6.764A40.531,40.531,0,0,0,25.754,47.4a1.376,1.376,0,0,1-1.7-.193l-7.26-7.26a1.374,1.374,0,0,1-.2-1.692,40.542,40.542,0,0,0,5.652-14.189c.323-1.741.682-3.4,1.067-4.928a1,1,0,1,0-1.94-.488c-.395,1.569-.762,3.269-1.093,5.052a38.492,38.492,0,0,1-5.372,13.476A3.392,3.392,0,0,0,15,40.889l-4.492,4.492A6.328,6.328,0,1,0,7.681,56.319ZM35.468,1.976C39.819,1.976,46.6,5.605,52.5,11.5c7.78,7.781,11.613,17.1,8.373,20.345l-.007.005A3.964,3.964,0,0,1,58.627,32.9a11.813,11.813,0,0,1-5.842-.953,37.174,37.174,0,0,1-12.266-8.467,37.174,37.174,0,0,1-8.467-12.266A11.822,11.822,0,0,1,31.1,5.371a3.964,3.964,0,0,1,1.048-2.234l.005-.007A4.536,4.536,0,0,1,35.468,1.976Z"/><path d="M52.858,26.446a2.572,2.572,0,0,0,1.889-.709c.708-.708,1.241-2.174-.241-5.14a25.768,25.768,0,0,0-4.779-6.324c-.432-.432-.864-.834-1.3-1.225a1,1,0,0,0-.67-.258h-.01a1,1,0,0,0-.624,1.775c.4.359.791.727,1.187,1.122a23.778,23.778,0,0,1,4.4,5.8c.837,1.675.822,2.626.618,2.829-.54.536-4.127-.526-8.628-5.027s-5.564-8.088-5.029-8.626c.25-.253,1.7-.23,4.347,1.491a1,1,0,0,0,1.09-1.677C41.955,8.429,39.522,8,38.261,9.255c-2.2,2.213,1.068,7.488,5.032,11.452C46.374,23.788,50.245,26.446,52.858,26.446Z"/></g></svg>