<svg xmlns="http://www.w3.org/2000/svg" data-name="Layer 1" viewBox="0 0 128 128"><path d="M80.84 25.64a23.14 23.14 0 0 1 11.54-7.32 2 2 0 1 0-1-3.86A27.12 27.12 0 0 0 77.81 23a2 2 0 1 0 3 2.6zM16.59 22.42a2 2 0 0 0-2.81.3A26 26 0 0 0 8.37 35.07 2 2 0 0 0 10 37.35l.31 0a2 2 0 0 0 2-1.7 22 22 0 0 1 4.57-10.45A2 2 0 0 0 16.59 22.42z"/><path d="M54.82,121.39a8.79,8.79,0,0,0,6.81-.15,9,9,0,0,0,5.09-6.15,9.14,9.14,0,0,0,1.13.53,8.79,8.79,0,0,0,6.81-.15,9.07,9.07,0,0,0,4.6-11.86,8.91,8.91,0,0,0-5-4.81,8.75,8.75,0,0,0-4.86-.46L63.76,84.95A4,4,0,0,0,65.43,80c-1.52-3.83-2.75-7.66-3.08-8.74-2.15-6.94-.86-14.91.38-22.63.34-2.1.65-4.07.92-6.09.53-4.78.77-11.06-2.09-17.23A33.12,33.12,0,0,0,42.68,7.91,31.39,31.39,0,0,0,18.36,9.06c-16.08,7.65-22.9,27.4-15.19,44A32.75,32.75,0,0,0,16.73,67.82c1.19.68,2.38,1.34,3.57,2,6.21,3.42,12.08,6.66,16.39,12.32A67,67,0,0,1,42.12,91a3.91,3.91,0,0,0,5,1.82l5.58,12.94a9.1,9.1,0,0,0-2.88,10.85A8.9,8.9,0,0,0,54.82,121.39ZM45.66,89.11a68.08,68.08,0,0,0-5.79-9.4C35,73.38,28.53,69.79,22.23,66.31c-1.17-.65-2.35-1.29-3.52-2a28.77,28.77,0,0,1-11.91-13C0,36.76,6,19.39,20.08,12.67A27.32,27.32,0,0,1,31.85,10a27.9,27.9,0,0,1,9.47,1.67A29.15,29.15,0,0,1,57.92,27c2.45,5.28,2.22,10.85,1.75,15.07C59.42,44,59.11,46,58.78,48c-1.31,8.17-2.67,16.62-.25,24.45.45,1.43,1.65,5.18,3.18,9.06l-1.38.65h0l-.16.08Zm5.14,2,9.36-4.45,6.3,14.86a2,2,0,0,0,2.65,1,4.81,4.81,0,0,1,3.73-.08,4.93,4.93,0,0,1,2.74,2.67A5.05,5.05,0,0,1,73,111.81a4.81,4.81,0,0,1-3.73.08,4.93,4.93,0,0,1-2.74-2.66,2,2,0,0,0-2.65-1l-.34.15a2,2,0,0,0-1,2.62A5.05,5.05,0,0,1,60,117.58a4.81,4.81,0,0,1-3.73.08A4.93,4.93,0,0,1,53.54,115a5.06,5.06,0,0,1,2.55-6.62,2,2,0,0,0,1-2.62Z"/><path d="M111.27,67.82a32.76,32.76,0,0,0,13.56-14.75c7.7-16.61.89-36.36-15.19-44A31.38,31.38,0,0,0,85.33,7.91,33.12,33.12,0,0,0,66.45,25.33c-.11.23-.2.46-.3.69h0c.13.36.24.71.36,1.06l0,.15c.1.34.2.68.29,1l.05.19q.13.5.25,1l0,.18c.07.34.14.67.21,1l0,.12A34.71,34.71,0,0,1,68,36.09s0,.09,0,.14c0,.28,0,.55,0,.83,0,.1,0,.2,0,.3s0,.49,0,.73,0,.26,0,.39,0,.43,0,.65,0,.3,0,.45,0,.38,0,.57,0,.34,0,.5,0,.34,0,.5,0,.4-.05.6l0,.38c0,.32-.06.64-.1,1-.27,2.12-.62,4.29-.93,6.22-.23,1.4-.45,2.81-.66,4.21.79,5.57,1.23,11.13,0,16.2,0,.13.07.26.1.38l.11.34,0,.07c.34,1.06,1,3.22,1.95,5.68.6-1.75,1-3.12,1.22-3.71,2.42-7.83,1.07-16.28-.25-24.44-.33-2.07-.65-4-.89-5.9-.7-6.33-.17-11,1.75-15.11a29.15,29.15,0,0,1,16.6-15.34A27.89,27.89,0,0,1,96.15,10a27.32,27.32,0,0,1,11.76,2.67C122,19.39,128,36.76,121.2,51.39a28.77,28.77,0,0,1-11.91,13c-1.17.67-2.35,1.32-3.52,2-6.3,3.47-12.82,7.06-17.64,13.39a64.23,64.23,0,0,0-5.75,9.41l-12.81-6a8,8,0,0,1-1.09,2.73l.62,1.46h0v0l8.1,3.85L75.54,95h0c.29.11.58.23.86.36l.17.08.71.36.16.09q.36.21.71.44l.1.07q.39.26.75.55h0l1.8-4.18a3.94,3.94,0,0,0,1.51.32A4,4,0,0,0,85.88,91a66.78,66.78,0,0,1,5.43-8.84c4.31-5.66,10.18-8.89,16.39-12.31C108.89,69.16,110.08,68.5,111.27,67.82Z"/></svg>