<svg xmlns="http://www.w3.org/2000/svg" fill-rule="evenodd" stroke-linejoin="round" stroke-miterlimit="2" clip-rule="evenodd" viewBox="0 0 32 32"><path fill="url(#_Linear1)" d="M13,4l6,0c0.552,-0 1,-0.448 1,-1c-0,-0.552 -0.448,-1 -1,-1l-6,0c-0.552,-0 -1,0.448 -1,1c-0,0.552 0.448,1 1,1Z"/><path fill="url(#_Linear2)" d="M12.6,7.439l0,-4.439c-0,-0.552 0.448,-1 1,-1c0.552,-0 1,0.448 1,1l0,5c-0,0.363 -0.197,0.698 -0.514,0.874c-0,0 -1.179,0.654 -2.122,1.571c-0.486,0.473 -0.964,0.992 -0.964,1.555l-0,15c-0,0.608 0.671,1 1.4,1l7.2,0c0.729,0 1.4,-0.392 1.4,-1l0,-15c0,-0.563 -0.478,-1.082 -0.964,-1.555c-0.943,-0.917 -2.122,-1.571 -2.122,-1.571c-0.317,-0.176 -0.514,-0.511 -0.514,-0.874l-0,-5c0,-0.552 0.448,-1 1,-1c0.552,0 1,0.448 1,1l-0,4.439c0.657,0.42 1.802,1.225 2.592,2.176c0.614,0.74 1.008,1.572 1.008,2.385c0,0 0,15 0,15c0,1.602 -1.477,3 -3.4,3c-0,0 -7.2,0 -7.2,0c-1.923,0 -3.4,-1.398 -3.4,-3c0,-0 0,-15 0,-15c0,-0.813 0.394,-1.645 1.008,-2.385c0.79,-0.951 1.935,-1.756 2.592,-2.176Z"/><path fill="url(#_Linear3)" d="M10.316,13.949c2.684,-0.895 4.026,-0.448 5.368,-0c1.658,0.552 3.316,1.105 6.632,-0c0.524,-0.175 0.807,-0.742 0.633,-1.265c-0.175,-0.524 -0.742,-0.807 -1.265,-0.633c-2.684,0.895 -4.026,0.448 -5.368,0c-1.658,-0.552 -3.316,-1.105 -6.632,0c-0.524,0.175 -0.807,0.742 -0.633,1.265c0.175,0.524 0.742,0.807 1.265,0.633Z"/><path fill="url(#_Linear4)" d="M16,27l1.25,0c1.518,0 2.75,-1.232 2.75,-2.75l0,-6.25c0,-0.552 -0.448,-1 -1,-1c-0.552,-0 -1,0.448 -1,1l0,6.25c0,0.414 -0.336,0.75 -0.75,0.75c0,0 -1.25,0 -1.25,0c-0.552,0 -1,0.448 -1,1c0,0.552 0.448,1 1,1Z"/><defs><linearGradient id="_Linear1" x2="1" gradientTransform="matrix(0 26 -26 0 16 3)" gradientUnits="userSpaceOnUse"><stop offset="0" stop-color="#ff9100"/><stop offset="1" stop-color="#ffc400"/></linearGradient><linearGradient id="_Linear2" x2="1" gradientTransform="matrix(0 26 -26 0 16 3)" gradientUnits="userSpaceOnUse"><stop offset="0" stop-color="#ff9100"/><stop offset="1" stop-color="#ffc400"/></linearGradient><linearGradient id="_Linear3" x2="1" gradientTransform="matrix(0 26 -26 0 16 3)" gradientUnits="userSpaceOnUse"><stop offset="0" stop-color="#ff9100"/><stop offset="1" stop-color="#ffc400"/></linearGradient><linearGradient id="_Linear4" x2="1" gradientTransform="matrix(0 26 -26 0 16 3)" gradientUnits="userSpaceOnUse"><stop offset="0" stop-color="#ff9100"/><stop offset="1" stop-color="#ffc400"/></linearGradient></defs></svg>