<svg xmlns="http://www.w3.org/2000/svg" data-name="Layer 1" viewBox="0 0 64 64"><path fill="none" stroke="#222" stroke-linecap="round" stroke-linejoin="round" stroke-width="3" d="M38.85,59.7V23L46,11.58l6.93,11.06a1.56,1.56,0,0,1,.22.78V58.7a1,1,0,0,1-1,1Z"/><rect width="14.3" height="26.67" x="38.85" y="23" fill="none" stroke="#222" stroke-linecap="round" stroke-linejoin="round" stroke-width="3" transform="rotate(-180 46 36.335)"/><path fill="none" stroke="#222" stroke-linecap="round" stroke-linejoin="round" stroke-width="3" d="M18,11.58,11.08,22.64a1.48,1.48,0,0,0-.23.78V58.7a1,1,0,0,0,1,1h27V23L46,11.58Z"/><path fill="none" stroke="#222" stroke-linecap="round" stroke-linejoin="round" stroke-width="3" d="M20,4.3H44a2,2,0,0,1,2,2v5.29a0,0,0,0,1,0,0H18a0,0,0,0,1,0,0V6.3A2,2,0,0,1,20,4.3Z"/><rect width="28" height="26.67" x="10.85" y="23" fill="none" stroke="#222" stroke-linecap="round" stroke-linejoin="round" stroke-width="3"/><path fill="none" stroke="#222" stroke-linecap="round" stroke-linejoin="round" stroke-width="3" d="M10.85 49.67h28a0 0 0 0 1 0 0v10a0 0 0 0 1 0 0h-27a1 1 0 0 1-1-1v-9A0 0 0 0 1 10.85 49.67zM38.85 49.67h14.3a0 0 0 0 1 0 0v9a1 1 0 0 1-1 1H38.85a0 0 0 0 1 0 0v-10A0 0 0 0 1 38.85 49.67z"/><circle cx="24.85" cy="36.33" r="6.74" fill="none" stroke="#222" stroke-linecap="round" stroke-linejoin="round" stroke-width="3"/></svg>