<svg xmlns="http://www.w3.org/2000/svg" data-name="Camada 1" viewBox="0 0 100 100"><path d="M70.432 39.74036a3.83025 3.83025 0 0 0-3.82995-3.83c-3.00031 0-5.19928 3.42469-2.85608 6.58966C66.89723 44.97614 70.432 42.77954 70.432 39.74036zM33.91164 43.56525a3.83316 3.83316 0 1 0-3.83319-3.83313A3.83315 3.83315 0 0 0 33.91164 43.56525zM50.25545 49.01c-12.03906 0-21.834 7.51367-21.834 16.75 0 9.13281 9.53711 19.75 21.834 19.75 12.2959 0 21.833-10.61719 21.833-19.75C72.08846 56.52368 62.29451 49.01 50.25545 49.01zm0 30.5c-8.52735 0-15.834-7.56054-15.834-13.75 0-5.82715 7.251-10.75 15.834-10.75 8.582 0 15.833 4.92285 15.833 10.75C66.08846 71.94947 58.78279 79.51 50.25545 79.51z"/><path d="M55.54341 65.5683a2.44271 2.44271 0 0 0 3.4773 3.42462A2.44271 2.44271 0 0 0 55.54341 65.5683zM43.21443 64.90375a2.355 2.355 0 1 0 2.35492 2.35492A2.3549 2.3549 0 0 0 43.21443 64.90375z"/><path d="M93.36495,29.37a60.38386,60.38386,0,0,0-7.81-11.76A52.93145,52.93145,0,0,0,72.46919,6.40265a18.32277,18.32277,0,0,1,2.3581-.14984c1.28,0,2.63-.06,4.06-.12,1.45-.06,3.01-.13,4.54-.13,3.54,0,6.93006.35,8.51,1.93,2.34,2.35,2.13,8.89,1.98,13.67-.05,1.29-.09,2.52-.09,3.65a18.71228,18.71228,0,0,1-.46,4.12,59.65357,59.65357,0,0,1,3.37006,7.91,24.82179,24.82179,0,0,0,3.09-12.03c0-1.07.04-2.24.08-3.46.2-6.2.46-13.92-3.73-18.1-4.12-4.12-11.25-3.82-17.54-3.56-1.37.06-2.66.12-3.81.12A24.74156,24.74156,0,0,0,64.36958,2.55176L64.36495,2.55A43.11888,43.11888,0,0,0,50.255.01V0h-.51V.01a43.11945,43.11945,0,0,0-14.11,2.54l-.00518.002A24.74081,24.74081,0,0,0,25.17159.25281c-1.15,0-2.43995-.06-3.81-.12-6.29-.26-13.42-.56-17.54,3.56-4.18,4.18-3.93,11.9-3.73,18.1.04,1.23.08,2.39.08,3.46a24.82182,24.82182,0,0,0,3.09,12.03,59.64661,59.64661,0,0,1,3.37-7.91,18.71589,18.71589,0,0,1-.46-4.12c0-1.13-.04-2.36-.08-3.65-.16-4.78-.37-11.32,1.97-13.67,1.58-1.58,4.97-1.93,8.51-1.93,1.53,0,3.09.07,4.54.13,1.43005.06,2.79.12,4.06.12a18.35883,18.35883,0,0,1,2.35907.1499A52.89328,52.89328,0,0,0,14.455,17.61a60.43657,60.43657,0,0,0-7.82,11.76,59.64711,59.64711,0,0,0-3.37,7.91A57.85451,57.85451,0,0,0,.015,55.01C-.335,71.98,5.395,85.66,15.735,92.52c9.76,6.48,22.09,7.45,34.01,7.48h.51c11.92-.03,24.25-1,34.01-7.48,10.35-6.86,16.07-20.54,15.72-37.51a58.15489,58.15489,0,0,0-3.25-17.73A59.6554,59.6554,0,0,0,93.36495,29.37ZM80.945,87.52c-8.44,5.61-19.71,6.46-30.69,6.48h-.51c-10.98-.02-22.25-.87-30.69-6.48-12.21-8.1-13.19-25.35-13.04-32.39a50.541,50.541,0,0,1,1.74-11.97,57.26076,57.26076,0,0,1,2.2-6.55c4.82-11.88,13.77-22.41,25.3-27.45A37.70392,37.70392,0,0,1,42.135,6.9a34.81449,34.81449,0,0,1,15.73,0A38.38554,38.38554,0,0,1,64.735,9.16c11.54,5.04,20.49,15.57,25.31,27.45a57.24872,57.24872,0,0,1,2.2,6.55,50.54116,50.54116,0,0,1,1.74,11.97C94.135,62.17,93.155,79.42,80.945,87.52Z"/></svg>