<svg xmlns="http://www.w3.org/2000/svg" viewBox="0 0 283.46 283.46"><g data-name="Layer 1"><rect width="9.4" height="89.33" x="104.58" y="60.02" fill="#af8663" transform="rotate(-49.81 109.281 104.685)"/><rect width="89.33" height="9.4" x="129.52" y="99.98" fill="#73543b" transform="rotate(-40.19 174.171 104.676)"/><path fill="#fd697f" fill-rule="evenodd" d="M208.31,92.54a16.68,16.68,0,1,0-16.68-16.67A16.71,16.71,0,0,0,208.31,92.54Z"/><path fill="#fd8f9f" fill-rule="evenodd" d="M75.16,92.54A16.68,16.68,0,1,0,58.48,75.87,16.71,16.71,0,0,0,75.16,92.54Z"/><rect width="9.4" height="247.91" x="137.03" y="26.12" fill="#896645"/><rect width="4.7" height="247.91" x="141.73" y="26.12" fill="#73543b"/><path fill="#fd8f9f" fill-rule="evenodd" d="M141.73,42.8a16.68,16.68,0,1,0-16.68-16.68A16.71,16.71,0,0,0,141.73,42.8Z"/><path fill="#fd697f" fill-rule="evenodd" d="M141.73,9.44a16.68,16.68,0,1,1,0,33.36Z"/><path fill="#00cb75" fill-rule="evenodd" d="M63.54,120.5c5.87,43.09,39.81,67.85,73.49,68.23C134.15,155.17,106.94,123.16,63.54,120.5Z"/><path fill="#007845" fill-rule="evenodd" d="M219.92,120.5c-5.87,43.09-39.8,67.85-73.49,68.23C149.31,155.17,176.52,123.16,219.92,120.5Z"/><path fill="#00cb75" fill-rule="evenodd" d="M63.54,186.27c5.87,43.09,39.81,67.85,73.49,68.22C134.15,220.93,106.94,188.93,63.54,186.27Z"/><path fill="#007845" fill-rule="evenodd" d="M219.92,186.27c-5.87,43.09-39.8,67.85-73.49,68.22C149.31,220.93,176.52,188.93,219.92,186.27Z"/></g></svg>