<svg xmlns="http://www.w3.org/2000/svg" enable-background="new 0 0 64 64" viewBox="0 0 64 64"><circle cx="3" cy="18" r="2" fill="#fdf57a"/><polygon fill="#f14950" points="63 4 63 9 58 9 58 7 58 4"/><polygon fill="#cc8964" points="59 58 63 58 63 63 1 63 1 58 10 58 18 51 23 51 26 51 29 48 32 48 35 48 41 48 46 53 54 53"/><path fill="#9a4738" d="M63,58v5H1v-3h25.75C32.963,60,38,54.963,38,48.75V48h3l5,5h8l5,5H63z"/><path fill="#879a39" d="M12 29c0 0 15.9 4.42 19.48 8.27C16.88 44.63 12 29 12 29zM16 1c3.94 2.95 15.63 17.53 15.99 17.99C31.5 18.81 16 12.81 16 1z"/><path fill="#aac348" d="M12 29c11-6 20 8 20 8-.17.09-.35.18-.52.27C27.9 33.42 12 29 12 29zM32 18.98c0 .01 0 .02 0 .02s0 0-.01-.01C31.63 18.53 19.94 3.95 16 1c0 0 15.97 3.99 16 17.96C32 18.97 32 18.97 32 18.98z"/><circle cx="21" cy="55" r="1" fill="#cf735b"/><circle cx="28" cy="55" r="1" fill="#cf735b"/><circle cx="33" cy="52" r="1" fill="#cf735b"/><circle cx="37" cy="55" r="1" fill="#cf735b"/><circle cx="43" cy="55" r="1" fill="#cf735b"/><path fill="#bbcf6b" d="M32,49c-0.552,0-1-0.447-1-1V9c0-0.552,0.448-1,1-1s1,0.448,1,1v39C33,48.553,32.552,49,32,49z"/><circle cx="1" cy="36" r="1" fill="#7d7b80"/><circle cx="1" cy="46" r="1" fill="#7d7b80"/><circle cx="63" cy="40" r="1" fill="#7d7b80"/><path fill="#7d7b80" d="M11 37H5c-.552 0-1-.447-1-1s.448-1 1-1h6c.552 0 1 .447 1 1S11.552 37 11 37zM20 49c-.256 0-.512-.098-.707-.293L17.586 47H5c-.552 0-1-.447-1-1s.448-1 1-1h13c.265 0 .52.105.707.293l2 2c.391.391.391 1.023 0 1.414C20.512 48.902 20.256 49 20 49zM59 41h-3c-.266 0-.52-.105-.707-.293L52.586 38H50c-.553 0-1-.447-1-1s.447-1 1-1h3c.266 0 .52.105.707.293L56.414 39H59c.553 0 1 .447 1 1S59.553 41 59 41z"/><path fill="#cf735b" d="M29 59h-5c-.552 0-1-.447-1-1s.448-1 1-1h5c.552 0 1 .447 1 1S29.552 59 29 59zM49 59H35c-.553 0-1-.447-1-1s.447-1 1-1h14c.553 0 1 .447 1 1S49.553 59 49 59z"/><path fill="#7d7b80" d="M63 16h-9c-.553 0-1-.448-1-1s.447-1 1-1h9c.553 0 1 .448 1 1S63.553 16 63 16zM61 20h-7c-.553 0-1-.448-1-1s.447-1 1-1h7c.553 0 1 .448 1 1S61.553 20 61 20zM59 24h-5c-.553 0-1-.448-1-1s.447-1 1-1h5c.553 0 1 .448 1 1S59.553 24 59 24zM6 29H1c-.552 0-1-.448-1-1s.448-1 1-1h5c.552 0 1 .448 1 1S6.552 29 6 29zM20.707 17.293C20.52 17.106 20.265 17 20 17h-8v-6c0-.265-.105-.52-.293-.707l-7-7c-.391-.391-1.023-.391-1.414 0s-.391 1.023 0 1.414L10 11.414V17H5.816C5.402 15.839 4.302 15 3 15c-1.654 0-3 1.346-3 3s1.346 3 3 3c1.302 0 2.402-.839 2.816-2h13.77l8.707 8.707C28.488 27.902 28.744 28 29 28s.512-.098.707-.293c.391-.391.391-1.023 0-1.414L20.707 17.293zM3 19c-.551 0-1-.449-1-1s.449-1 1-1 1 .449 1 1S3.551 19 3 19zM63 3h-5c-.553 0-1 .448-1 1v2h-2c-.266 0-.52.105-.707.293L49.586 11H47c-.553 0-1 .448-1 1s.447 1 1 1h3c.266 0 .52-.105.707-.293L55.414 8H57v1c0 .552.447 1 1 1h5c.553 0 1-.448 1-1V4C64 3.448 63.553 3 63 3zM62 8h-3V5h3V8zM8 23H1c-.552 0-1 .448-1 1s.448 1 1 1h7c.552 0 1-.448 1-1S8.552 23 8 23z"/><path fill="#aac348" d="M32 18.98C32.1 18.37 34.27 6 45 6L32 19C32 19 32 18.99 32 18.98zM32.01 36.99C32.18 36.49 38.2 20.02 51 21 47.06 26.91 32.47 36.69 32.01 36.99z"/><path fill="#879a39" d="M32 19L45 6C45 6 43 19 32 19zM32.01 36.99C32.47 36.69 47.06 26.91 51 21c0 0-2 28-19 16C32 37 32 37 32.01 36.99z"/><path fill="#fff" d="M44.099 24.345c-.886.352-1.664.862-2.312 1.565-.436.472.27 1.181.707.707.526-.571 1.147-1.021 1.871-1.308C44.956 25.074 44.698 24.107 44.099 24.345zM40.625 26.875c-.643 0-.645 1 0 1C41.268 27.875 41.27 26.875 40.625 26.875z"/></svg>