<svg xmlns="http://www.w3.org/2000/svg" enable-background="new 0 0 96 96" viewBox="0 0 96 96"><path d="M36.8206 8.0305c-.0002.0009-.0004.0018-.0006.0028.0973.022 2.0164.4563 1.8947.4288.0477-.2206.2223-.9207.6027-2.8679l-.0031-.0006c.0002-.0009.0005-.0022.0007-.0031-.098-.0187-2.0344-.389-1.9118-.3655-.1743.9259-.4717 2.3148-.5835 2.8054L36.8206 8.0305zM35.6345 18.1395l.0002-.0004.0025.0011c.7736-1.7199 1.8357-4.6638 2.6696-7.9788h-.0001c.0003-.0011.0005-.002.0008-.0031L36.4229 9.682c-.0003.0012-.0006.0022-.0009.0034l-.0004-.0001c-.8389 3.3016-1.7944 5.9626-2.5571 7.6578C33.9619 17.3869 35.7483 18.1907 35.6345 18.1395zM57.0631 78.3632c3.8377 2.2035 6.7301 5.7147 8.1441 9.8874l1.841-.6235c-1.5663-4.6215-4.7686-8.5099-9.0172-10.9493L57.0631 78.3632zM55.3886 77.5143l.7867-1.7765c-1.1421-.5063-2.3373-.9058-3.5525-1.1872l-.4384 1.8932C53.28 76.6977 54.358 77.0578 55.3886 77.5143zM15.8192 65.1648l-1.47 1.2716c2.2538 2.6059 5.086 4.4094 8.4174 5.3603l.5333-1.8685C20.3387 69.0826 17.8215 67.4798 15.8192 65.1648zM25.5419 72.3699c.9248.1229 1.8866.1851 2.8578.1851v-1.9435c-.8863 0-1.7618-.0565-2.6026-.168L25.5419 72.3699zM67.5996 61.5378l-.4346.8693.2083.103h.2292c.986 0 1.962-.0641 2.9005-.1907l-.26-1.9264c-.8527.1153-1.7409.1737-2.6405.1737L67.5996 61.5378zM72.7079 59.8804l.5343 1.8685c3.3271-.9513 6.156-2.7539 8.4079-5.3574l-1.47-1.2716C78.1797 57.433 75.6654 59.0344 72.7079 59.8804z"/><path d="M48.1053 79.7434c-7.5505 0-13.76 5.8792-14.2556 13.3131H23.2381V95h49.7342v-1.9435H62.3706C61.8653 85.6226 55.6655 79.7434 48.1053 79.7434zM28.3991 68.8808c4.4127 0 7.9833-1.4885 8.1816-1.5744.0053-.0026.0098-.0057.0152-.0083 3.5666 2.975 7.5865 3.5107 9.9933 3.5107.2193 0 .4202-.0052.6111-.0126v7.9726h1.9435V60.6745c.1128.0024.2139.0078.3345.0078 2.418 0 6.3643-.5389 9.9039-3.4457.03.0149.0557.032.0859.0467.1495.0636 3.7205 1.5511 8.1322 1.5516.001 0 .0014 0 .0024 0 4.669 0 8.4392-1.6213 11.206-4.8184 4.9214-5.6882 6.314-16.1592 4.1394-31.1226l-.2387-1.6394-1.3148 1.0083c-.0902.0693-9.1439 6.9759-17.6737 10.2134-4.9318 1.8723-8.704 5.3067-10.6209 9.6715-1.8961 4.3178-1.1659 10.2674 4.4721 14.0325-3.11 2.2737-6.4751 2.6034-8.4283 2.5548V36.379c.1439-.0447.2854-.0808.4307-.1307.3473-.1404 8.509-3.5321 9.4831-11.1111.8811-6.8573-4.4521-14.6451-15.8526-23.147L41.8774 1l-.2164 1.6422c-.0123.0939-1.2688 9.4338-4.3705 16.3257-1.8159 4.035-2.0156 8.3116-.5618 12.0411 1.4116 3.6199 4.8701 5.9591 8.8108 5.9591H45.54c.5426 0 1.0973-.0517 1.6604-.1367v32.0206c-1.8637.086-5.4894-.144-8.796-2.6033 5.6563-3.7461 6.3984-9.7225 4.4956-14.0558-1.9169-4.3639-5.6886-7.7987-10.6214-9.6715-8.5294-3.2374-17.5831-10.1436-17.6733-10.2129l-1.3148-1.0083-.2387 1.6394c-2.1746 14.962-.782 25.4326 4.139 31.1207C19.958 67.259 23.7288 68.8808 28.3991 68.8808zM57.9697 38.4378l4.662 11.9379 5.1085-5.8125-3.5195-10.1879c.0649-.0255.1248-.0572.1902-.082.5602-.2126 1.1206-.4438 1.68-.6823l3.1777 9.2124 3.8615-4.3945-1.4754-7.5508c.6279-.3454 1.2418-.6935 1.8391-1.0424l1.5671 7.9899 6.8402.9409c-.0432.6869-.1012 1.3536-.1719 2.0028l-7.1208-.9727-3.9018 4.4446 9.7854 2.6295c-.2148.6645-.4585 1.2885-.719 1.8889l-10.5546-2.839L64.12 51.7332l10.9843 3.0035c-.8186.5639-1.7095 1.0134-2.6664 1.3553l-9.6553-2.6392c-.5108.8429-1.0847 1.6216-1.7025 2.3513-.5097-.1682-.8054-.2887-.8066-.2887v.0005c-.3897-.1907-.7581-.3922-1.1069-.6026.7503-.8211 1.4344-1.715 2.0271-2.7174l-4.715-12.0356C56.9239 39.551 57.4322 38.9835 57.9697 38.4378zM47.1946 34.8731v-2.7386l-9.2688-4.0509c-.1334-.734-.196-1.4835-.1977-2.243l9.368 4.0967-.3744-5.7542-7.8439-3.9513c.0642-.1552.116-.3116.1856-.4662.1998-.4439.3892-.8982.574-1.3561l6.9366 3.4877-.2956-4.5029-5.0978-3.4341c.2015-.6742.3841-1.3379.558-1.993l5.4659 3.6634 4.4952-3.408c.4446.5085.8727 1.0145 1.2645 1.5148l-4.7153 3.5684.2957 4.5815 7.021-4.1713c.3167.6142.5814 1.2187.8063 1.8156l-7.6796 4.5628.3744 5.7541 7.9827-4.5492c-.1808 1.0267-.5127 1.9721-.9658 2.8217l-6.9184 3.9346v2.25c-.1632.0765-.268.1218-.2705.123C48.3202 34.6256 47.7522 34.7736 47.1946 34.8731zM15.4968 56.8831l9.8946-2.585-3.9043-4.4493-7.2127.9949c-.0702-.6395-.1277-1.2967-.1711-1.9729l6.9378-.9543 1.5627-7.9776c.5922.345 1.2017.6887 1.8233 1.0296l-1.4835 7.5425 3.8646 4.3998 3.1177-9.2467c.5537.2358 1.1082.4643 1.6625.6747.0593.0225.1135.0512.1723.0743l-3.4364 10.2121 4.9646 5.6483 4.6455-11.8858c.5326.5317 1.0315 1.0882 1.4757 1.6813l-4.7041 11.998c.6186 1.071 1.3488 2.0274 2.1497 2.8841-.3409.2052-.7007.4016-1.0808.5879-.0095.004-.3029.125-.8033.2928-.6673-.772-1.2822-1.611-1.8312-2.5261l-9.8994 2.7154c-.9067-.3533-1.7547-.8019-2.5326-1.361l11.114-3.039-4.9646-5.6583-10.6564 2.7829C15.9468 58.1528 15.7075 57.538 15.4968 56.8831z"/></svg>