<?xml version="1.0" encoding="UTF-8"?><svg xmlns="http://www.w3.org/2000/svg" xmlns:xlink="http://www.w3.org/1999/xlink" version="1.1" id="Layer_1" x="0px" y="0px" viewBox="0 0 52 52" xml:space="preserve"><style type="text/css">.st0{fill:#3C93C9;} .st1{fill:none;stroke:#000000;stroke-width:2;stroke-linecap:round;stroke-linejoin:round;stroke-miterlimit:10;}</style><path d="M34.435 47.72c-.756-2.246-2.013-4.103-3.533-5.372a6.145 6.145 0 0 1-4.677 2.162 6.145 6.145 0 0 1-4.679-2.164c-1.522 1.27-2.78 3.127-3.531 5.374l-.32.96a1 1 0 0 0 .14.9c.18.26.49.42.81.42h15.18a1.003 1.003 0 0 0 .87-1.5l-.26-.78z"/><path class="st0" d="M36.725 19.3a3.235 3.235 0 0 1-4.98 2.72l-1.88 1.88c-.81.81-1.82 1.31-2.87 1.51v2.35h6.81a1 1 0 0 1 .81.41 1 1 0 0 1 .14.9l-.32.96c-.67 1.99-1.82 3.56-3.3 4.62a6.131 6.131 0 0 0-9.82 0c-1.48-1.06-2.63-2.63-3.3-4.62l-.32-.96a1 1 0 0 1 .14-.9c.18-.26.49-.41.81-.41h6.35v-2.35c-1.05-.2-2.05-.7-2.86-1.51l-1.89-1.88c-.5.32-1.09.51-1.73.51-1.79 0-3.24-1.45-3.24-3.23s1.45-3.23 3.24-3.23c1.78 0 3.23 1.45 3.23 3.23 0 .41-.09.8-.23 1.16l2.03 2.03c.42.42.92.69 1.45.85v-8.08a5.385 5.385 0 0 1-2.86-1.5l-1.89-1.89c-.5.32-1.09.52-1.73.52-1.79 0-3.24-1.45-3.24-3.23a3.24 3.24 0 0 1 3.24-3.24c1.78 0 3.23 1.45 3.23 3.24 0 .4-.09.79-.23 1.15l2.03 2.03c.42.42.92.69 1.45.85v-4.9c-1.29-.43-2.23-1.63-2.23-3.06a3.235 3.235 0 0 1 6.47 0c0 1.43-.94 2.63-2.24 3.06v4.9c.53-.16 1.04-.43 1.45-.85l2.04-2.03c-.14-.36-.23-.75-.23-1.15a3.24 3.24 0 0 1 3.24-3.24 3.235 3.235 0 1 1 0 6.47c-.65 0-1.24-.2-1.75-.52l-1.88 1.89c-.81.81-1.82 1.31-2.87 1.5v8.08c.53-.16 1.04-.43 1.45-.85l2.04-2.03c-.14-.36-.23-.75-.23-1.16a3.235 3.235 0 1 1 6.47 0z" fill="#3C93C9"/><path d="M30.385 38.35c0-2.29-1.87-4.16-4.16-4.16s-4.16 1.87-4.16 4.16c0 2.3 1.87 4.16 4.16 4.16s4.16-1.86 4.16-4.16z"/><metadata><rdf:RDF xmlns:rdf="http://www.w3.org/1999/02/22-rdf-syntax-ns#" xmlns:rdfs="http://www.w3.org/2000/01/rdf-schema#" xmlns:dc="http://purl.org/dc/elements/1.1/"><rdf:Description about="https://iconscout.com/legal#licenses" dc:title="garden,growth,nature,plant" dc:description="garden,growth,nature,plant" dc:publisher="Iconscout" dc:date="2017-12-03" dc:format="image/svg+xml" dc:language="en"><dc:creator><rdf:Bag><rdf:li>Icon River</rdf:li></rdf:Bag></dc:creator></rdf:Description></rdf:RDF></metadata></svg>