<svg xmlns="http://www.w3.org/2000/svg" data-name="Layer 1" viewBox="0 0 512 512"><defs><linearGradient id="a" x1="256" x2="256" y1="20.767" y2="486.056" gradientUnits="userSpaceOnUse"><stop offset="0" stop-color="#00efd1"/><stop offset="1" stop-color="#00acea"/></linearGradient></defs><g data-name="&lt;Group&gt;"><path fill="url(#a)" d="M256,318.769A62.769,62.769,0,1,0,193.231,256,62.84,62.84,0,0,0,256,318.769Zm0-109.538A46.769,46.769,0,1,1,209.231,256,46.821,46.821,0,0,1,256,209.231Z" data-name="&lt;Compound Path&gt;"/><path fill="url(#a)" d="M161.779,247.434a97.148,97.148,0,0,0,.553,21.382l-8.626,8.274a8,8,0,0,0-1.792,8.981l11.65,26.625a8,8,0,0,0,7.916,4.772l11.9-.875a87.68,87.68,0,0,0,15.524,14.788l-.349,11.869a8,8,0,0,0,5.116,7.7l27.1,10.46a8,8,0,0,0,8.938-2.237l7.722-8.951a97.148,97.148,0,0,0,21.382-.553l8.274,8.626a8,8,0,0,0,8.98,1.792L312.7,348.438a8,8,0,0,0,4.772-7.916l-.875-11.9A87.756,87.756,0,0,0,331.382,313.1l11.868.349a8.012,8.012,0,0,0,7.7-5.116l10.46-27.1a8,8,0,0,0-2.237-8.936l-8.948-7.724a97.1,97.1,0,0,0-.554-21.383l8.627-8.274a8,8,0,0,0,1.792-8.98L348.44,199.3a8,8,0,0,0-7.916-4.772l-11.9.875A87.68,87.68,0,0,0,313.1,180.619l.35-11.869a8,8,0,0,0-5.116-7.7l-27.1-10.46a8,8,0,0,0-8.938,2.237l-7.722,8.951a97,97,0,0,0-21.386.553l-8.274-8.626a8,8,0,0,0-8.98-1.792L199.3,163.562a8,8,0,0,0-4.772,7.916l.875,11.9A87.756,87.756,0,0,0,180.618,198.9l-11.868-.349a7.981,7.981,0,0,0-7.7,5.116l-10.46,27.1a8,8,0,0,0,2.237,8.937Zm12.16-32.719,10.506.309a8.008,8.008,0,0,0,6.892-3.559,71.851,71.851,0,0,1,17.119-17.975,8,8,0,0,0,3.221-7.019l-.773-10.519,16.324-7.141,7.306,7.618a8.006,8.006,0,0,0,7.214,2.332,81.132,81.132,0,0,1,25.11-.649,8,8,0,0,0,7.089-2.708l6.779-7.857,16.562,6.392-.309,10.506a8,8,0,0,0,3.559,6.892,71.9,71.9,0,0,1,17.975,17.119,8,8,0,0,0,7.018,3.221l10.52-.773,7.141,16.324-7.619,7.306a8,8,0,0,0-2.332,7.214,81.138,81.138,0,0,1,.649,25.106,8,8,0,0,0,2.707,7.087l7.856,6.781-6.392,16.563-10.506-.309a7.98,7.98,0,0,0-6.892,3.559,71.851,71.851,0,0,1-17.119,17.975,8,8,0,0,0-3.221,7.019l.773,10.519-16.324,7.141-7.306-7.618a8,8,0,0,0-7.213-2.332,81.239,81.239,0,0,1-25.107.649,8,8,0,0,0-7.088,2.708l-6.78,7.858-16.562-6.393.309-10.506a8,8,0,0,0-3.559-6.892,71.9,71.9,0,0,1-17.975-17.119,8.014,8.014,0,0,0-7.018-3.221l-10.52.773-7.142-16.324,7.618-7.306a8,8,0,0,0,2.332-7.214,81.168,81.168,0,0,1-.649-25.106,8,8,0,0,0-2.707-7.087l-7.858-6.782Z" data-name="&lt;Compound Path&gt;"/><path fill="url(#a)" d="M443.467,264a27.537,27.537,0,1,0,0-16H396V229h21.879A8.423,8.423,0,0,0,426,220.636V189h13.061a29.017,29.017,0,0,0,6.883,11.4,27.575,27.575,0,1,0,0-38.912A29.429,29.429,0,0,0,439.061,173H417.879A7.8,7.8,0,0,0,410,180.88V213H396V124.34a8.592,8.592,0,0,0-8.34-8.34H299V102h32.12A7.8,7.8,0,0,0,339,94.122v-21.2a28.794,28.794,0,0,0,11.517-6.862A27.5,27.5,0,1,0,303.6,46.571,26.939,26.939,0,0,0,311.662,66H311.6A32.546,32.546,0,0,0,323,72.918V86H291.364A8.423,8.423,0,0,0,283,94.122V116H264V68.554a27.48,27.48,0,1,0-16,0V116H229V94.122A8.423,8.423,0,0,0,220.636,86H189V72.918A32.546,32.546,0,0,0,200.4,66h-.03a26.924,26.924,0,0,0,8.044-19.429,27.523,27.523,0,1,0-46.927,19.484A28.793,28.793,0,0,0,173,72.918v21.2A7.8,7.8,0,0,0,180.88,102H213v14H124.34a8.592,8.592,0,0,0-8.34,8.34V213H102V180.88A7.8,7.8,0,0,0,94.121,173H72.94a29.453,29.453,0,0,0-6.884-11.516,27.458,27.458,0,1,0,0,38.914A29.022,29.022,0,0,0,72.939,189H86v31.636A8.423,8.423,0,0,0,94.121,229H116v19H68.533a27.537,27.537,0,1,0,0,16H116v19H94.121A8.423,8.423,0,0,0,86,291.364V323H72.939a29.017,29.017,0,0,0-6.883-11.4,27.575,27.575,0,1,0,0,38.912A29.443,29.443,0,0,0,72.94,339H94.121A7.8,7.8,0,0,0,102,331.12V299h14v88.66a8.592,8.592,0,0,0,8.34,8.34H213v14H180.88a7.8,7.8,0,0,0-7.88,7.878v21.2a28.794,28.794,0,0,0-11.517,6.862A27.5,27.5,0,1,0,208.4,465.429,26.939,26.939,0,0,0,200.338,446h.059a32.546,32.546,0,0,0-11.4-6.918V426h31.636A8.423,8.423,0,0,0,229,417.878V396h19v47.446a27.48,27.48,0,1,0,16,0V396h19v21.878A8.423,8.423,0,0,0,291.364,426H323v13.082A32.546,32.546,0,0,0,311.6,446h.03a26.924,26.924,0,0,0-8.044,19.429,27.523,27.523,0,1,0,46.927-19.484A28.793,28.793,0,0,0,339,439.082v-21.2A7.8,7.8,0,0,0,331.12,410H299V396h88.66a8.592,8.592,0,0,0,8.34-8.34V299h14v32.12a7.8,7.8,0,0,0,7.879,7.88h21.182a29.438,29.438,0,0,0,6.883,11.516,27.458,27.458,0,1,0,0-38.914,29.022,29.022,0,0,0-6.884,11.4H426V291.364A8.423,8.423,0,0,0,417.879,283H396V264Zm18.177-16.143a11.516,11.516,0,1,1,0,16.286h0A11.529,11.529,0,0,1,461.644,247.857Zm-4.386-75.12a11.516,11.516,0,1,1,0,16.286h0a11.515,11.515,0,0,1,0-16.285ZM319.6,46.6a11.516,11.516,0,1,1,3.373,8.143h0A11.441,11.441,0,0,1,319.6,46.6Zm-75.12-4.386a11.516,11.516,0,1,1,19.659,8.143h0a11.516,11.516,0,0,1-19.659-8.143ZM169.364,46.6a11.516,11.516,0,1,1,3.373,8.143A11.441,11.441,0,0,1,169.364,46.6ZM54.742,189.022h0a11.515,11.515,0,1,1,3.373-8.143A11.441,11.441,0,0,1,54.742,189.023Zm-4.386,75.121a11.516,11.516,0,1,1,0-16.286h0A11.529,11.529,0,0,1,50.356,264.143Zm4.386,75.12a11.516,11.516,0,1,1,0-16.286h0a11.515,11.515,0,0,1,0,16.285ZM192.4,465.4a11.506,11.506,0,1,1-3.373-8.143A11.441,11.441,0,0,1,192.4,465.4Zm75.12,4.386a11.516,11.516,0,1,1-19.659-8.143h0a11.516,11.516,0,0,1,19.659,8.143Zm75.12-4.386a11.516,11.516,0,1,1-19.659-8.143h0a11.516,11.516,0,0,1,19.659,8.143ZM380,380H132V132H380Zm77.258-57.022h0a11.515,11.515,0,1,1-3.373,8.143A11.441,11.441,0,0,1,457.258,322.977Z" data-name="&lt;Compound Path&gt;"/></g></svg>