<svg xmlns="http://www.w3.org/2000/svg" enable-background="new 0 0 100 100" viewBox="0 0 100 100"><path d="M52,42.8h-4v-25c0-1.1,0.9-2,2-2s2,0.9,2,2V42.8z M63,48.8v42c0,1.1-0.9,2-2,2H39c-1.1,0-2-0.9-2-2v-42c0-1.1,0.9-2,2-2h22
	C62.1,46.8,63,47.7,63,48.8z M47,84.8c0-0.5-0.2-1-0.6-1.4c-0.5-0.5-1.1-0.7-1.8-0.5c-0.1,0-0.2,0.1-0.4,0.1
	c-0.1,0.1-0.2,0.1-0.3,0.2c-0.1,0.1-0.2,0.2-0.3,0.2c-0.1,0.1-0.2,0.2-0.2,0.3c-0.1,0.1-0.1,0.2-0.2,0.3c-0.1,0.1-0.1,0.2-0.1,0.4
	c0,0.1,0,0.3,0,0.4c0,0.5,0.2,1,0.6,1.4c0.4,0.4,0.9,0.6,1.4,0.6s1-0.2,1.4-0.6c0.2-0.2,0.3-0.4,0.4-0.6C47,85.3,47,85.1,47,84.8z
	 M57,84.8c0-0.1,0-0.3,0-0.4c0-0.1-0.1-0.3-0.1-0.4c0-0.1-0.1-0.2-0.2-0.3c-0.1-0.1-0.1-0.2-0.2-0.3c-0.7-0.8-2.1-0.8-2.8,0
	c-0.1,0.1-0.2,0.2-0.2,0.3c-0.1,0.1-0.1,0.2-0.2,0.3c-0.1,0.1-0.1,0.2-0.1,0.4c0,0.1,0,0.3,0,0.4c0,0.3,0,0.5,0.2,0.8
	c0.1,0.2,0.2,0.5,0.4,0.6c0.1,0.1,0.2,0.2,0.3,0.3c0.1,0.1,0.2,0.1,0.3,0.2s0.2,0.1,0.4,0.1c0.1,0,0.3,0,0.4,0c0.5,0,1-0.2,1.4-0.6
	c0.2-0.2,0.3-0.4,0.4-0.6C57,85.3,57,85.1,57,84.8z M57,54.8c0-1.1-0.9-2-2-2H45c-1.1,0-2,0.9-2,2v20c0,1.1,0.9,2,2,2h10
	c1.1,0,2-0.9,2-2V54.8z M47,72.8h6v-6h-6V72.8z M47,62.8h6v-6h-6V62.8z M40.5,25.3c0.5,0,1-0.2,1.4-0.6c0.8-0.8,0.8-2,0-2.8
	c-1.2-1.2-1.2-3.1,0-4.2c0.8-0.8,0.8-2,0-2.8c-0.8-0.8-2-0.8-2.8,0c-2.7,2.7-2.7,7.2,0,9.9C39.4,25.1,40,25.3,40.5,25.3z M58.1,14.9
	c-0.8,0.8-0.8,2,0,2.8c0.6,0.6,0.9,1.3,0.9,2.1s-0.3,1.6-0.9,2.1c-0.8,0.8-0.8,2,0,2.8c0.4,0.4,0.9,0.6,1.4,0.6s1-0.2,1.4-0.6
	c1.3-1.3,2.1-3.1,2.1-5s-0.7-3.6-2.1-5C60.2,14.1,58.9,14.1,58.1,14.9z M34.8,7.8C34,7,32.8,7,32,7.8c-6.6,6.6-6.6,17.4,0,24
	c0.4,0.4,0.9,0.6,1.4,0.6s1-0.2,1.4-0.6c0.8-0.8,0.8-2,0-2.8c-5.1-5.1-5.1-13.3,0-18.4C35.6,9.8,35.6,8.6,34.8,7.8z M68,7.8
	c-0.8-0.8-2-0.8-2.8,0c-0.8,0.8-0.8,2,0,2.8c2.5,2.5,3.8,5.7,3.8,9.2s-1.4,6.7-3.8,9.2c-0.8,0.8-0.8,2,0,2.8
	c0.4,0.4,0.9,0.6,1.4,0.6s1-0.2,1.4-0.6c3.2-3.2,5-7.5,5-12S71.2,11,68,7.8z"/></svg>