<?xml version="1.0" encoding="UTF-8"?>
<svg xmlns="http://www.w3.org/2000/svg" xmlns:xlink="http://www.w3.org/1999/xlink" version="1.1" id="setting-gear-process-engineering" x="0px" y="0px" viewBox="0 0 15 15" style="enable-background:new 0 0 15 15;" xml:space="preserve">
<path d="M7.5,4C5.57,4,4,5.57,4,7.5S5.57,11,7.5,11S11,9.43,11,7.5S9.43,4,7.5,4z M7.5,10C6.122,10,5,8.878,5,7.5S6.122,5,7.5,5  S10,6.122,10,7.5S8.878,10,7.5,10z"/>
<path d="M15,9V6h-2.208c-0.117-0.409-0.281-0.803-0.492-1.179l1.563-1.564l-2.121-2.121L10.179,2.7C9.803,2.489,9.409,2.325,9,2.208  V0H6v2.208C5.591,2.325,5.197,2.489,4.821,2.7L3.257,1.136L1.136,3.257L2.7,4.821C2.489,5.197,2.325,5.591,2.208,6H0v3h2.208  C2.325,9.409,2.489,9.803,2.7,10.179l-1.563,1.564l2.121,2.121L4.821,12.3c0.375,0.211,0.77,0.375,1.179,0.492V15h3v-2.208  c0.409-0.117,0.803-0.281,1.179-0.492l1.564,1.563l2.121-2.121L12.3,10.179c0.211-0.375,0.375-0.77,0.492-1.179H15z M12.45,11.743  l-0.707,0.707l-1.423-1.423l-0.341,0.225C9.49,11.574,8.959,11.796,8.4,11.91L8,11.991V14H7v-2.009L6.6,11.91  c-0.559-0.114-1.09-0.335-1.578-0.658l-0.341-0.225L3.257,12.45L2.55,11.743l1.423-1.423L3.749,9.979  C3.426,9.49,3.204,8.959,3.09,8.4L3.009,8H1V7h2.009L3.09,6.6c0.114-0.559,0.335-1.09,0.658-1.578l0.225-0.341L2.55,3.257  L3.257,2.55l1.423,1.423l0.341-0.225C5.51,3.426,6.041,3.204,6.6,3.09L7,3.009V1h1v2.009L8.4,3.09  c0.559,0.114,1.09,0.335,1.578,0.658l0.341,0.225l1.423-1.423l0.707,0.707l-1.423,1.423l0.225,0.341  C11.574,5.51,11.796,6.041,11.91,6.6L11.991,7H14v1h-2.009L11.91,8.4c-0.114,0.559-0.335,1.09-0.658,1.578l-0.225,0.341  L12.45,11.743z"/>

	<metadata>
		<rdf:RDF xmlns:rdf="http://www.w3.org/1999/02/22-rdf-syntax-ns#" xmlns:rdfs="http://www.w3.org/2000/01/rdf-schema#" xmlns:dc="http://purl.org/dc/elements/1.1/">
			<rdf:Description about="https://iconscout.com/legal#licenses" dc:title="setting-gear-process-engineering" dc:description="setting-gear-process-engineering" dc:publisher="Iconscout" dc:date="2017-04-02" dc:format="image/svg+xml" dc:language="en">
				<dc:creator>
					<rdf:Bag>
						<rdf:li>Becris .</rdf:li>
					</rdf:Bag>
				</dc:creator>
			</rdf:Description>
		</rdf:RDF>
    </metadata></svg>
