<?xml version="1.0" encoding="UTF-8"?><svg xmlns="http://www.w3.org/2000/svg" viewBox="0 0 64 64"><defs><style>.cls-1{fill:none;stroke:#000;stroke-linecap:round;stroke-linejoin:round;stroke-width:2px;}</style></defs><title>42-web essential</title><g id="Layer_42" data-name="Layer 42"><path class="cls-1" d="M42.53 17.69A4.54 4.54 0 0 1 39.32 10l-5.74-5.79A4.54 4.54 0 0 1 25.84 1h-8.12A4.54 4.54 0 0 1 10 4.21L4.24 10A4.54 4.54 0 0 1 1 17.69v8.12a4.54 4.54 0 0 1 3.21 7.74L10 39.29a4.54 4.54 0 0 1 7.74 3.21h8.12a4.54 4.54 0 0 1 7.74-3.21l5.74-5.74a4.54 4.54 0 0 1 3.21-7.74zm-10.12 4.06a10.66 10.66 0 0 1-3.11 7.52 10.66 10.66 0 0 1-7.52 3.11 10.66 10.66 0 0 1-7.52-3.11 10.66 10.66 0 0 1-3.11-7.52 10.66 10.66 0 0 1 3.11-7.52 10.66 10.66 0 0 1 7.52-3.11 10.66 10.66 0 0 1 7.52 3.11 10.66 10.66 0 0 1 3.11 7.52z" fill="none" stroke="#000" stroke-linecap="round" stroke-linejoin="round" stroke-width="2px"/><path class="cls-1" d="M63 45.63a3.18 3.18 0 0 1-2.23-5.42l-4-4a3.15 3.15 0 0 1-5.38-2.24H45.7a3.15 3.15 0 0 1-5.38 2.24l-4 4a3.18 3.18 0 0 1-2.23 5.42v5.68a3.18 3.18 0 0 1 2.23 5.42l4 4A3.15 3.15 0 0 1 45.7 63h5.65a3.15 3.15 0 0 1 5.38-2.24l4-4A3.18 3.18 0 0 1 63 51.31zm-7 2.84a7.48 7.48 0 0 1-2.16 5.26 7.36 7.36 0 0 1-5.23 2.18 7.32 7.32 0 0 1-5.22-2.18 7.45 7.45 0 0 1-2.17-5.26 7.45 7.45 0 0 1 2.17-5.26A7.32 7.32 0 0 1 48.52 41a7.36 7.36 0 0 1 5.23 2.18 7.48 7.48 0 0 1 2.16 5.29z" fill="none" stroke="#000" stroke-linecap="round" stroke-linejoin="round" stroke-width="2px"/></g><metadata><rdf:RDF xmlns:rdf="http://www.w3.org/1999/02/22-rdf-syntax-ns#" xmlns:rdfs="http://www.w3.org/2000/01/rdf-schema#" xmlns:dc="http://purl.org/dc/elements/1.1/"><rdf:Description about="https://iconscout.com/legal#licenses" dc:title="-web,essential" dc:description="-web,essential" dc:publisher="Iconscout" dc:date="2018-07-06" dc:format="image/svg+xml" dc:language="en"><dc:creator><rdf:Bag><rdf:li>VINZENCE STUDIO</rdf:li></rdf:Bag></dc:creator></rdf:Description></rdf:RDF></metadata></svg>