<svg xmlns="http://www.w3.org/2000/svg" enable-background="new 0 0 512 512" viewBox="0 0 512 512"><path fill="#68a1d6" d="M120 251h-10v-20h10V251zM120 211h-10v-20h10V211zM120 171h-10v-20h10V171zM261 251h-10v-20h10V251zM261 211h-10v-20h10V211zM261 171h-10v-20h10V171zM402 251h-10v-20h10V251zM402 211h-10v-20h10V211zM402 171h-10v-20h10V171z"/><rect width="10" height="56" x="110" y="75" fill="#f37787"/><rect width="10" height="56" x="251" y="75" fill="#f37787"/><rect width="10" height="56" x="392" y="75" fill="#f37787"/><rect width="10" height="31" x="110" y="75" fill="#d84861"/><rect width="10" height="31" x="251" y="75" fill="#d84861"/><rect width="10" height="31" x="392" y="75" fill="#d84861"/><rect width="40" height="90" x="95" y="5" fill="#f37787"/><rect width="40" height="90" x="236" y="5" fill="#f37787"/><rect width="40" height="90" x="377" y="5" fill="#f37787"/><rect width="40" height="63" x="95" y="5" fill="#d84861"/><rect width="40" height="63" x="236" y="5" fill="#d84861"/><rect width="40" height="63" x="377" y="5" fill="#d84861"/><path fill="#f8d707" d="M75,109.5C56,109.5,40,94,40,75h10c0,13,11,24.5,25,24.5V109.5z"/><path fill="#f8d707" d="M75 129.5c-30 0-55-24.5-55-54.5h10c0 24 20 44.5 45 44.5V129.5zM75 89.5c-8 0-15-6.5-15-14.5h10c0 2 2 4.5 5 4.5V89.5zM437 109.5v-10c14 0 25-11.5 25-24.5h10C472 94 456 109.5 437 109.5z"/><path fill="#f8d707" d="M437 129.5v-10c25 0 45-20.5 45-44.5h10C492 105 467 129.5 437 129.5zM437 89.5v-10c3 0 5-2.5 5-4.5h10C452 83 445 89.5 437 89.5z"/><path fill="#f37787" d="M115,131L115,131c-11,0-20,9-20,20v0h40v0C135,140,126,131,115,131z"/><path fill="#f37787" d="M135,156H95c-2.8,0-5-2.2-5-5c0-13.8,11.2-25,25-25s25,11.2,25,25
				C140,153.8,137.7,156,135,156z M100.8,146h28.3c-2.1-5.8-7.6-10-14.1-10S102.9,140.2,100.8,146z"/><path fill="#a38c31" d="M437,477L437,477c0-22.1-17.9-40-40-40l0,0c-22.1,0-40,17.9-40,40l0,0h-61l0,0
			c0-22.1-17.9-40-40-40h0c-22.1,0-40,17.9-40,40l0,0h-61l0,0c0-22.1-17.9-40-40-40h0c-22.1,0-40,17.9-40,40l0,0H5v30h70h80h61h80
			h61h80h70v-30H437z"/><rect width="10" height="76" x="110" y="361" fill="#a38c31"/><path fill="#bebf31" d="M115,276.1L115,276.1c-23.4,23.4-23.4,61.4,0,84.9l0,0l0,0
				C138.4,337.6,138.4,299.6,115,276.1L115,276.1z"/><path fill="#bebf31" d="M115 366L115 366c-1.3 0-2.6-.5-3.5-1.5-25.3-25.3-25.3-66.6 0-91.9.9-.9 2.2-1.5 3.5-1.5s2.6.5 3.5 1.5c25.3 25.3 25.3 66.6 0 91.9C117.6 365.5 116.3 366 115 366zM115 283.6c-16.7 20.2-16.7 49.8 0 70C131.7 333.3 131.7 303.8 115 283.6zM55 354L55 354c0 33.1 26.9 60 60 60h0v0C115 380.9 88.1 354 55 354L55 354z"/><path fill="#bebf31" d="M115,419c-35.8,0-65-29.2-65-65c0-2.8,2.2-5,5-5c35.8,0,65,29.2,65,65
				C120,416.8,117.7,419,115,419z M60.2,359.2c2.5,26.1,23.4,47,49.5,49.5C107.2,382.6,86.4,361.7,60.2,359.2z"/><path fill="#bebf31" d="M175,354L175,354c-33.1,0-60,26.9-60,60v0h0C148.1,414,175,387.1,175,354L175,354z"/><path fill="#bebf31" d="M115,419c-2.8,0-5-2.2-5-5c0-35.8,29.2-65,65-65c2.8,0,5,2.2,5,5
				C180,389.8,150.8,419,115,419z M169.8,359.2c-26.1,2.5-47,23.4-49.5,49.5C146.4,406.3,167.3,385.4,169.8,359.2z"/><rect width="10" height="70" x="251" y="367" fill="#a38c31"/><path fill="#bebf31" d="M196,307L196,307c0,33.1,26.9,60,60,60h0v0C256,333.9,229.1,307,196,307L196,307z"/><path fill="#bebf31" d="M256,372c-35.8,0-65-29.2-65-65c0-2.8,2.2-5,5-5c35.8,0,65,29.2,65,65
				C261,369.8,258.7,372,256,372z M201.2,312.2c2.5,26.1,23.4,47,49.5,49.5C248.2,335.6,227.4,314.7,201.2,312.2z"/><path fill="#bebf31" d="M316,307L316,307c-33.1,0-60,26.9-60,60v0h0C289.1,367,316,340.1,316,307L316,307z"/><path fill="#bebf31" d="M256,372c-2.8,0-5-2.2-5-5c0-35.8,29.2-65,65-65c2.8,0,5,2.2,5,5
				C321,342.8,291.8,372,256,372z M310.8,312.2c-26.1,2.5-47,23.4-49.5,49.5C287.4,359.3,308.3,338.4,310.8,312.2z"/><g><rect width="10" height="98" x="392" y="339" fill="#a38c31"/></g><g><path fill="#bebf31" d="M337,279L337,279c33.1,0,60,26.9,60,60v0h0C363.9,339,337,312.1,337,279L337,279z"/><path fill="#bebf31" d="M397,344c-35.8,0-65-29.2-65-65c0-2.8,2.2-5,5-5c35.8,0,65,29.2,65,65
				C402,341.8,399.8,344,397,344z M342.2,284.2c2.5,26.1,23.4,47,49.5,49.5C389.3,307.6,368.4,286.7,342.2,284.2z"/></g><g><path fill="#bebf31" d="M457,313.5L457,313.5c0,33.1-26.9,60-60,60h0v0C397,340.4,423.9,313.5,457,313.5L457,313.5
				z"/><path fill="#bebf31" d="M397,378.5c-2.8,0-5-2.2-5-5c0-35.8,29.2-65,65-65c2.8,0,5,2.2,5,5
				C462,349.3,432.8,378.5,397,378.5z M451.8,318.8c-26.1,2.5-47,23.4-49.5,49.5C428.4,365.8,449.3,344.9,451.8,318.8z"/></g><g><path fill="#bebf31" d="M337,358L337,358c33.1,0,60,26.9,60,60v0h0C363.8,418,337,391.1,337,358L337,358z"/><path fill="#bebf31" d="M397,423c-35.8,0-65-29.2-65-65c0-2.8,2.2-5,5-5c35.8,0,65,29.2,65,65
				C402,420.8,399.7,423,397,423z M342.2,363.2c2.5,26.1,23.4,47,49.5,49.5C389.2,386.6,368.4,365.7,342.2,363.2z"/></g><rect width="502" height="50" x="5" y="5" fill="#f37787"/><g><rect width="78" height="10" x="76" y="146" fill="#f37787"/></g><g><path fill="#f37787" d="M256,131L256,131c-11,0-20,9-20,20v0h40v0C276,140,267,131,256,131z"/><path fill="#f37787" d="M276,156h-40c-2.8,0-5-2.2-5-5c0-13.8,11.2-25,25-25s25,11.2,25,25
				C281,153.8,278.7,156,276,156z M241.8,146h28.3c-2.1-5.8-7.6-10-14.1-10S243.9,140.2,241.8,146z"/></g><g><rect width="78" height="10" x="217" y="146" fill="#f37787"/></g><g><path fill="#f37787" d="M397,131L397,131c-11,0-20,9-20,20v0h40v0C417,140,408,131,397,131z"/><path fill="#f37787" d="M417,156h-40c-2.8,0-5-2.2-5-5c0-13.8,11.2-25,25-25s25,11.2,25,25
				C422,153.8,419.7,156,417,156z M382.8,146h28.3c-2.1-5.8-7.6-10-14.1-10S384.9,140.2,382.8,146z"/></g><g><rect width="78" height="10" x="358" y="146" fill="#f37787"/></g></svg>