<svg xmlns="http://www.w3.org/2000/svg" enable-background="new 0 0 512 512" viewBox="0 0 512 512"><path fill="#0d0d0d" d="M294,192h-76c-2.8,0-5-2.2-5-5v-20c0-2.8,2.2-5,5-5h18v10h-13v10h66v-10h-33
				c-2.8,0-5-2.2-5-5v-44h10v39h33c2.8,0,5,2.2,5,5v20C299,189.8,296.8,192,294,192z"/><path fill="#0d0d0d" d="M379.4,448.9L275.6,192h-39.3L132.6,448.9l-9.3-3.7l105-260c0.8-1.9,2.6-3.1,4.6-3.1h46
				c2,0,3.9,1.2,4.6,3.1l105,260L379.4,448.9z"/><path fill="#0d0d0d" d="M163,482H93c-2.8,0-5-2.2-5-5v-30c0-2.8,2.2-5,5-5h70c2.8,0,5,2.2,5,5v30
				C168,479.8,165.8,482,163,482z M98,472h60v-20H98V472z"/><path fill="#0d0d0d" d="M446 512H66c-2.8 0-5-2.2-5-5v-30c0-2.8 2.2-5 5-5h380c2.8 0 5 2.2 5 5v30C451 509.8 448.8 512 446 512zM71 502h370v-20H71V502zM226.8 140.2c-7.8-7.8-12.1-18.1-12.1-29.2 0-22.7 18.5-41.2 41.2-41.2s41.2 18.5 41.2 41.2c0 11-4.3 21.4-12.1 29.2l-7.1-7.1c5.9-5.9 9.1-13.7 9.1-22.1 0-17.2-14-31.2-31.2-31.2s-31.2 14-31.2 31.2c0 8.3 3.2 16.2 9.1 22.1L226.8 140.2z"/><path fill="#0d0d0d" d="M202.4,164.6c-14.3-14.3-22.2-33.3-22.2-53.6c0-41.8,34-75.8,75.8-75.8s75.8,34,75.8,75.8
					c0,20.2-7.9,39.3-22.2,53.6l-7.1-7.1c12.4-12.4,19.3-28.9,19.3-46.5c0-36.3-29.5-65.8-65.8-65.8s-65.8,29.5-65.8,65.8
					c0,17.6,6.8,34.1,19.3,46.5L202.4,164.6z"/><path fill="#0d0d0d" d="M256,128c-9.4,0-17-7.6-17-17s7.6-17,17-17s17,7.6,17,17S265.4,128,256,128z M256,104
					c-3.9,0-7,3.1-7,7s3.1,7,7,7s7-3.1,7-7S259.9,104,256,104z"/><path fill="#0d0d0d" d="M177.5,189.5c-21-21-32.5-48.8-32.5-78.5C145,49.8,194.8,0,256,0s111,49.8,111,111
					c0,29.7-11.5,57.5-32.5,78.5l-7.1-7.1C346.5,163.3,357,138,357,111c0-55.7-45.3-101-101-101S155,55.3,155,111
					c0,27,10.5,52.3,29.6,71.4L177.5,189.5z"/><g><path fill="#0d0d0d" d="M130.4,451.4l-4.9-8.7l201.7-113l-120.1-81.5c-1.3-0.9-2.1-2.3-2.2-3.9s0.6-3.1,1.8-4.1
				l69-57l6.4,7.7l-63.9,52.8l121.2,82.3c1.4,1,2.3,2.6,2.2,4.4c-0.1,1.7-1,3.3-2.6,4.1L130.4,451.4z"/></g><g><path fill="#0d0d0d" d="M419,482h-70c-2.8,0-5-2.2-5-5v-30c0-2.8,2.2-5,5-5h15.9l-192-107.6
				c-1.5-0.8-2.5-2.4-2.6-4.1c-0.1-1.7,0.8-3.4,2.2-4.4l121.2-82.3l-63.9-52.8l6.4-7.7l69,57c1.2,1,1.9,2.5,1.8,4.1s-0.9,3-2.2,3.9
				l-120.1,81.5l201.7,113c2,1.1,3,3.4,2.4,5.6c-0.6,2.2-2.6,3.7-4.8,3.7h-30v20h60v-20h-10v-10h15c2.8,0,5,2.2,5,5v30
				C424,479.8,421.8,482,419,482z"/></g></svg>