<svg xmlns="http://www.w3.org/2000/svg" data-name="Layer 1" viewBox="0 0 128 128"><path d="M1.042 107.75586l11 6a2.00168 2.00168 0 0 0 1.916 0l11-6A2.00037 2.00037 0 0 0 26 106V94a2.00037 2.00037 0 0 0-1.042-1.75586l-11-6a1.99817 1.99817 0 0 0-1.916 0l-11 6A2.00037 2.00037 0 0 0 0 94v12A2.00037 2.00037 0 0 0 1.042 107.75586zM51 94v12a2.00037 2.00037 0 0 0 1.042 1.75586l11 6a2.00168 2.00168 0 0 0 1.916 0l11-6A2.00037 2.00037 0 0 0 77 106V94a2.00037 2.00037 0 0 0-1.042-1.75586l-11-6a1.99817 1.99817 0 0 0-1.916 0l-11 6A2.00037 2.00037 0 0 0 51 94zM126.958 92.24414l-11-6a1.99817 1.99817 0 0 0-1.916 0l-11 6A2.00037 2.00037 0 0 0 102 94v12a2.00037 2.00037 0 0 0 1.042 1.75586l11 6a2.00168 2.00168 0 0 0 1.916 0l11-6A2.00037 2.00037 0 0 0 128 106V94A2.00037 2.00037 0 0 0 126.958 92.24414zM33 77a2.0001 2.0001 0 0 0 2 2h6a2 2 0 0 0 0-4H35A2.0001 2.0001 0 0 0 33 77zM85 77a2.0001 2.0001 0 0 0 2 2h6a2 2 0 0 0 0-4H87A2.0001 2.0001 0 0 0 85 77zM91.95331 44H111a2.00261 2.00261 0 0 1 2 2V82.65222a6.55513 6.55513 0 0 1 4-.53656V46a6.00656 6.00656 0 0 0-6-6H91.95331c.01367.22394.04669.44244.04669.66986v2.66028C92 43.55756 91.967 43.77606 91.95331 44zM66 82.35254V73.95361c-.22241.01355-.43945.04639-.66534.04639H62.668c-.22681 0-.4447-.033-.668-.04657v8.39911A5.99031 5.99031 0 0 1 66 82.35254z"/><rect width="16.167" height="4" x="81.833" y="98"/><path d="M36.04675,40H17a6.00656,6.00656,0,0,0-6,6V82.35254a5.99031,5.99031,0,0,1,4,0V46a2.00261,2.00261,0,0,1,2-2H36.04675C36.03308,43.77606,36,43.55756,36,43.33014V40.66986C36,40.44244,36.03308,40.22394,36.04675,40Z"/><rect width="15.333" height="4" x="30.833" y="98"/><path d="M42.37,38A2.52932,2.52932,0,0,0,40,40.67v2.66A2.52934,2.52934,0,0,0,42.37,46h3.4a18.642,18.642,0,0,0,2.51,6.06l-2.41,2.41a2.52818,2.52818,0,0,0,.22,3.56L47.97,59.91a2.82051,2.82051,0,0,0,1.98.85,2.18191,2.18191,0,0,0,1.58-.64l2.41-2.4A18.642,18.642,0,0,0,60,60.23v3.4A2.52932,2.52932,0,0,0,62.67,66h2.66A2.52932,2.52932,0,0,0,68,63.63v-3.4a18.642,18.642,0,0,0,6.06-2.51l2.41,2.4a2.18191,2.18191,0,0,0,1.58.64,2.82051,2.82051,0,0,0,1.98-.85L81.91,58.03a2.51793,2.51793,0,0,0,.21-3.56l-2.4-2.41A18.642,18.642,0,0,0,82.23,46h3.4A2.52934,2.52934,0,0,0,88,43.33V40.67A2.52932,2.52932,0,0,0,85.63,38h-3.4a18.64149,18.64149,0,0,0-2.51-6.06l2.4-2.4a2.53,2.53,0,0,0-.21-3.57L80.03,24.09a2.83809,2.83809,0,0,0-1.98-.85,2.18191,2.18191,0,0,0-1.58.64l-2.41,2.4A18.64471,18.64471,0,0,0,68,23.77v-3.4A2.52932,2.52932,0,0,0,65.33,18H62.67A2.52932,2.52932,0,0,0,60,20.37v3.4a18.64471,18.64471,0,0,0-6.06,2.51l-2.41-2.4a2.18191,2.18191,0,0,0-1.58-.64,2.83809,2.83809,0,0,0-1.98.85L46.09,25.97a2.54029,2.54029,0,0,0-.22,3.57l2.41,2.4A18.64149,18.64149,0,0,0,45.77,38ZM64,31A11,11,0,1,1,53,41.99817,10.9989,10.9989,0,0,1,64,31Z"/></svg>