<svg xmlns="http://www.w3.org/2000/svg" enable-background="new 0 0 512 512" version="1" viewBox="0 0 512 512"><path d="M408,437c0,5.9,0,11.8,0,17.6c0,5.7,1,13-1.4,18.3c-5.4,11.8-19,9.6-29.5,9.6c-24,0-48.1,0-72.1,0
							c-49.5,0-99,0-148.4,0c-18.6,0-37.3,0-55.9,0c-12,0-24.1,0-36.1,0c-7.1,0-12.7-3.2-16-9.6c-1.6-3.1-1.4-6.7-1.4-10
							c0-44.1,0-88.2,0-132.3c0-50.2,0-100.4,0-150.6c0-44.2,0-88.3,0-132.5c0-5.1,1.1-9.5,4.7-13.3c3.9-4.1,9-4.7,14.3-4.7
							c13.2,0,26.3,0,39.5,0c17.8,0,35.5,0,53.3,0c48.7,0,97.5,0,146.2,0c25.2,0,50.4,0,75.6,0c3.6,0,7.2,0,10.8,0
							c8.4,0,15.7,6.3,16.4,14.8c0.6,7,0,14.3,0,21.4c0,49.5,0,98.9,0,148.4c0,5.4,0,10.8,0,16.1c0,9.7,15,9.7,15,0
							c0-46.6,0-93.1,0-139.7c0-12.6,0-25.2,0-37.7c0-2.3,0-4.7,0-7c0-11-5.7-20.5-14.7-26.6c-9.6-6.5-23.3-4.7-34.4-4.7
							c-15.8,0-31.6,0-47.5,0c-46.2,0-92.4,0-138.6,0c-41.4,0-82.8,0-124.1,0c-18,0-31.6,14.7-31.6,32.4c0,9.5,0,18.9,0,28.4
							c0,30,0,60,0,90.1c0,44.4,0,88.7,0,133.1c0,42.9,0,85.9,0,128.8c0,11.6,0,23.2,0,34.8c0,3.1,0,6.1,0.4,9.2
							c1.8,12.1,10.6,21.5,22.1,25.2c4.4,1.4,9.2,1.2,13.7,1.2c6,0,12,0,18,0c15.8,0,31.6,0,47.3,0c46.2,0,92.4,0,138.7,0
							c15.1,0,30.1,0,45.2,0c25.2,0,50.4,0.7,75.6,0c17.2-0.5,29.8-15.6,29.8-32.2c0-9.4,0-18.8,0-28.3C423,427.3,408,427.3,408,437
							L408,437z"/><path d="M312.6,219.6c0-46.6,0-93.2,0-139.7c0-19.3,0-38.6,0-58c0-4.1-3.4-7.5-7.5-7.5c-48.9,0-97.8,0-146.7,0
							c-2.8,0-5.6,0-8.5,0c-4.1,0-7.5,3.4-7.5,7.5c0,49,0,98.1,0,147.1c0,44.2,0,88.4,0,132.6c0,41.5,0,83,0,124.6
							c0,21.3,0,42.5,0,63.8c0,4.1,3.4,7.5,7.5,7.5c48.9,0,97.8,0,146.7,0c2.8,0,5.6,0,8.5,0c4.1,0,7.5-3.4,7.5-7.5
							c0-14.2,0-28.3,0-42.5c0-9.7-15-9.7-15,0c0,14.2,0,28.3,0,42.5c2.5-2.5,5-5,7.5-7.5c-48.9,0-97.8,0-146.7,0
							c-2.8,0-5.6,0-8.5,0c2.5,2.5,5,5,7.5,7.5c0-49,0-98.1,0-147.1c0-44.2,0-88.4,0-132.6c0-41.5,0-83,0-124.6
							c0-21.3,0-42.5,0-63.8c-2.5,2.5-5,5-7.5,7.5c48.9,0,97.8,0,146.7,0c2.8,0,5.6,0,8.5,0c-2.5-2.5-5-5-7.5-7.5
							c0,49,0,98.1,0,147.1c0,16.9,0,33.7,0,50.6C297.6,229.3,312.6,229.3,312.6,219.6L312.6,219.6z"/><path d="M227.6 326.1c-44.3 0-88.5 0-132.8 0-18.4 0-36.8 0-55.2 0-9.7 0-9.7 15 0 15 42.1 0 84.1 0 126.2 0 20.6 0 41.2 0 61.7 0C237.2 341.1 237.2 326.1 227.6 326.1L227.6 326.1zM39.6 185.9c39.8 0 79.5 0 119.3 0 48.7 0 97.5 0 146.2 0 36.8 0 73.6 0 110.3 0 9.7 0 9.7-15 0-15-39.8 0-79.5 0-119.3 0-48.7 0-97.5 0-146.2 0-36.8 0-73.6 0-110.3 0C29.9 170.9 29.9 185.9 39.6 185.9L39.6 185.9zM281.9 41.3c-32.8 0-65.5 0-98.3 0-9.7 0-9.7 15 0 15 32.8 0 65.5 0 98.3 0C291.5 56.3 291.5 41.3 281.9 41.3L281.9 41.3z"/><path d="M176.1,48.8c0,22.4,0,44.8,0,67.2c0,9.7,15,9.7,15,0c0-22.4,0-44.8,0-67.2C191.1,39.1,176.1,39.1,176.1,48.8
							L176.1,48.8z"/><g><path d="M128.4,41.1c-20.7,0-41.4,0-62.1,0c-9.7,0-9.7,15,0,15c20.7,0,41.4,0,62.1,0C138.1,56.1,138.1,41.1,128.4,41.1
								L128.4,41.1z"/><path d="M58.8 48.6c0 22.4 0 44.8 0 67.2 0 9.7 15 9.7 15 0 0-22.4 0-44.8 0-67.2C73.8 38.9 58.8 38.9 58.8 48.6L58.8 48.6zM128.4 201.9c-20.7 0-41.4 0-62.1 0-9.7 0-9.7 15 0 15 20.7 0 41.4 0 62.1 0C138.1 216.9 138.1 201.9 128.4 201.9L128.4 201.9z"/><path d="M58.8,209.4c0,22.4,0,44.8,0,67.2c0,9.7,15,9.7,15,0c0-22.4,0-44.8,0-67.2C73.8,199.7,58.8,199.7,58.8,209.4
								L58.8,209.4z"/><g><path d="M128.4,362.6c-20.7,0-41.4,0-62.1,0c-9.7,0-9.7,15,0,15c20.7,0,41.4,0,62.1,0C138.1,377.6,138.1,362.6,128.4,362.6
								L128.4,362.6z"/><path d="M58.8,370.1c0,22.4,0,44.8,0,67.2c0,9.7,15,9.7,15,0c0-22.4,0-44.8,0-67.2C73.8,360.5,58.8,360.5,58.8,370.1
								L58.8,370.1z"/></g></g><g><path d="M281.9,202.1c-32.8,0-65.5,0-98.3,0c-9.7,0-9.7,15,0,15c32.8,0,65.5,0,98.3,0C291.5,217.1,291.5,202.1,281.9,202.1
							L281.9,202.1z"/><path d="M176.1,209.6c0,22.4,0,44.8,0,67.2c0,9.7,15,9.7,15,0c0-22.4,0-44.8,0-67.2C191.1,199.9,176.1,199.9,176.1,209.6
							L176.1,209.6z"/></g><g><path d="M235.9,370.5c-17.4,0-34.8,0-52.3,0c-9.7,0-9.7,15,0,15c17.4,0,34.8,0,52.3,0C245.5,385.5,245.5,370.5,235.9,370.5
							L235.9,370.5z"/><path d="M176.1,378c0,22.4,0,44.8,0,67.2c0,9.7,15,9.7,15,0c0-22.4,0-44.8,0-67.2C191.1,368.3,176.1,368.3,176.1,378
							L176.1,378z"/></g><g><path d="M330.1,56.1c20.7,0,41.4,0,62.1,0c9.7,0,9.7-15,0-15c-20.7,0-41.4,0-62.1,0C320.5,41.1,320.5,56.1,330.1,56.1
								L330.1,56.1z"/><path d="M384.7,48.6c0,22.4,0,44.8,0,67.2c0,9.7,15,9.7,15,0c0-22.4,0-44.8,0-67.2C399.7,38.9,384.7,38.9,384.7,48.6
								L384.7,48.6z"/></g><g><path d="M464.9,333.6c-0.3,44.6-26.1,84.8-66.2,104.2c-40.1,19.3-89.6,12-123.3-16.7c-34.2-29.1-48-76.2-35.9-119.3
					c11.9-42.5,48.6-74,91.8-81.6c32.9-5.8,67.9,4.4,93.2,26C450.1,267.9,464.7,300.1,464.9,333.6c0.1,9.7,15.1,9.7,15,0
					c-0.3-46-24.8-88.7-64.3-112.2c-40-23.7-91.1-23.2-131.1,0c-39.7,23-64.1,66.6-64.3,112.2c-0.3,45.9,25.1,88.9,64.3,112.2
					c40,23.7,91.1,23.2,131.1,0c39.7-23,64.1-66.6,64.3-112.2C479.9,323.9,464.9,323.9,464.9,333.6z"/></g><g><path d="M288.2,282.4c34.9,34.9,69.7,69.7,104.6,104.6c2.8,2.8,5.6,5.6,8.4,8.4c6.8,6.8,17.5-3.8,10.6-10.6
					C376.9,349.9,342,315,307.2,280.2c-2.8-2.8-5.6-5.6-8.4-8.4C292,265,281.3,275.6,288.2,282.4L288.2,282.4z"/><path d="M401.1,271.8c-34.9,34.9-69.7,69.7-104.6,104.6c-2.8,2.8-5.6,5.6-8.4,8.4c-6.8,6.8,3.8,17.5,10.6,10.6
					c34.9-34.9,69.7-69.7,104.6-104.6c2.8-2.8,5.6-5.6,8.4-8.4C418.6,275.6,408,265,401.1,271.8L401.1,271.8z"/></g></svg>