<svg xmlns="http://www.w3.org/2000/svg" enable-background="new 0 0 512 512" version="1" viewBox="0 0 512 512"><path d="M478.1,256c-0.1,44.8-13.6,88.3-38.7,125.4c-24.1,35.6-59.3,63.9-99.1,80.2c-41.9,17.2-88.7,21-132.9,11.2
				c-42.8-9.5-81.8-31.9-112.1-63.5c-62.5-65-78.9-165.1-40.9-246.8c18.3-39.4,48.1-72.8,85-95.6c38.2-23.7,83-34.8,127.8-32.8
				c88.8,4,168.5,64,198.2,147.5C473.9,205.5,478.1,230.7,478.1,256c0,9.7,15,9.7,15,0C492.9,165,439.5,80.3,357,41.4
				c-42-19.8-88.9-26.3-134.9-20.1c-44.4,6-86.3,25.7-120.4,54.6C31.6,135.4,3,233.4,28.1,321.6c24.7,86.7,99.9,153.5,188.7,168.2
				c45.9,7.6,92.9,1.5,135.5-17.1c40.5-17.7,75.2-47.4,100.1-83.8c26.7-38.9,40.7-85.9,40.8-133C493.2,246.3,478.2,246.3,478.1,256z
				"/><path d="M195 142.7c-.3 10.7-8.5 18.9-19.2 19.2-10.7.3-18.9-8.9-19.2-19.2-.3-10.7 8.9-18.9 19.2-19.2C186.5 123.2 194.7 132.4 195 142.7c.2 9.7 15.2 9.7 15 0-.5-19-15.2-33.7-34.2-34.2-19-.5-33.7 16-34.2 34.2-.5 19 16 33.7 34.2 34.2 19 .5 33.7-16 34.2-34.2C210.2 133 195.2 133 195 142.7zM369.8 227.2c-.3 21.7-14.1 41-34.8 47.8-20.7 6.8-44-1.1-56.6-18.8-12.5-17.7-12.2-42.6 1.2-59.7 13.8-17.7 37.1-23.7 57.9-16.3C357 187.1 369.5 206.9 369.8 227.2c.1 9.7 15.1 9.7 15 0-.3-23.5-12.7-45-33.1-56.8-20.5-11.9-46.6-10.9-66.6 1.3-20 12.2-31.6 35-30.8 58.3.8 23.2 14.8 44.6 35.3 55.2 20.2 10.5 45 9.2 64.3-2.6 19.2-11.7 30.6-33.2 30.8-55.5C384.9 217.5 369.9 217.5 369.8 227.2zM163.9 237.8c-.3 13.4-10.7 23.8-24.1 24.1-13.4.3-23.8-11.1-24.1-24.1-.3-13.4 11.1-23.8 24.1-24.1C153.2 213.5 163.6 224.9 163.9 237.8c.2 9.7 15.2 9.7 15 0-.5-21.6-17.5-38.6-39.1-39.1-21.6-.5-38.6 18.2-39.1 39.1-.5 21.6 18.2 38.6 39.1 39.1 21.6.5 38.6-18.2 39.1-39.1C179.1 228.2 164.1 228.2 163.9 237.8zM294 378.1c-.3 22-15.3 40.5-36.6 45.8-21.5 5.3-43.2-6.6-52.8-26-9.5-19.2-3-44 13.8-56.9 17.4-13.3 42.3-12.9 59 1.3C288 351.3 293.8 364.4 294 378.1c.1 9.7 15.1 9.7 15 0-.3-23.4-13.4-45-34.5-55.5-21.4-10.6-47.7-7.5-66.2 7.4-18.6 15-26.4 39.2-21.3 62.4 4.9 22.6 23.8 40.5 45.9 45.9 38.6 9.4 75.7-21.2 76.1-60.2C309.1 368.5 294.1 368.5 294 378.1zM421.2 340.8c-.3 12.3-9.8 21.8-22.1 22.1-12.3.3-21.8-10.3-22.1-22.1-.3-12.3 10.3-21.8 22.1-22.1C411.4 318.4 420.9 328.9 421.2 340.8c.2 9.7 15.2 9.7 15 0-.5-20.5-16.6-36.6-37.1-37.1-20.5-.5-36.7 17.3-37.1 37.1-.5 20.5 17.3 36.7 37.1 37.1 20.5.5 36.7-17.3 37.1-37.1C436.4 331.1 421.4 331.1 421.2 340.8z"/><path d="M348.4,113.1c-0.3,17.3-14,31-31.3,31.3c-17.3,0.3-31-14.5-31.3-31.3c-0.3-17.3,14.5-31,31.3-31.3
				C334.4,81.4,348.1,96.2,348.4,113.1c0.2,9.7,15.2,9.7,15,0C363,88.4,344.2,69,319.8,66.8c-24.2-2.1-45.8,17.2-48.7,40.7
				c-2.9,23.8,13.6,46.4,37.1,51c24,4.7,47.5-10.7,53.7-34c1-3.7,1.4-7.6,1.4-11.5C363.6,103.4,348.6,103.4,348.4,113.1z"/></svg>