<svg xmlns="http://www.w3.org/2000/svg" enable-background="new 0 0 512 512" version="1" viewBox="0 0 512 512"><path d="M211.1,396c-31.8-31.8-63.6-63.6-95.4-95.4c-15.4-15.4-23-36.4-22-58.1c0.9-19,9.9-36.4,23.2-49.7
					c9.5-9.5,19-19,28.6-28.6c8-8,15.8-16.5,24.3-24c16.8-14.9,40.7-20.8,62.6-16.8c16.2,3,30,11.2,41.5,22.7
					c18.9,18.9,37.8,37.8,56.7,56.7c9.6,9.6,19.3,19.3,28.9,28.9c7.3,7.3,14.5,14.4,19.9,23.5c11.6,19.6,12.8,43.4,5.2,64.6
					c-5.1,14-15,24.2-25.2,34.4c-15.2,15.2-29.9,31.5-46,45.7C284,425.9,238.5,422.9,211.1,396c-6.9-6.8-17.5,3.8-10.6,10.6
					c35.1,34.5,92.7,35,127.7,0c16.5-16.5,33-33,49.5-49.5c33.7-33.7,35-87.7,4.3-123.7c-5.1-5.9-11-11.3-16.5-16.8
					c-10.5-10.5-20.9-20.9-31.4-31.4c-17.1-17.1-34.2-34.2-51.3-51.3c-33-33-85.3-35-121.5-6.2c-9.1,7.2-17,16.3-25.1,24.5
					c-9.8,9.8-19.6,19.6-29.4,29.4c-13.6,13.6-23.2,30.2-26.7,49.3c-4.3,23.4,1,47.9,14.5,67.5c5.6,8.1,12.8,14.9,19.7,21.8
					c9.9,9.9,19.8,19.8,29.7,29.7c18.4,18.4,36.8,36.8,55.2,55.2c0.4,0.4,0.9,0.9,1.3,1.3C207.4,413.5,218,402.9,211.1,396z"/><path d="M78.7 152.5c15.5-5.9 31.2-7.4 47.3-2.9 6.6 1.9 13.1 4.2 19.7 6.2 9.2 2.9 13.2-11.5 4-14.5-7.7-2.4-15.3-5.2-23.2-7.2-17.3-4.4-35.3-2.5-51.8 3.8C65.7 141.5 69.6 156 78.7 152.5L78.7 152.5zM49.4 184.8c15.5-5.9 31.2-7.4 47.3-2.9 6.6 1.9 13.1 4.2 19.7 6.2 9.2 2.9 13.2-11.5 4-14.5-7.7-2.4-15.3-5.2-23.2-7.2-17.3-4.4-35.3-2.5-51.8 3.8C36.5 173.8 40.4 188.3 49.4 184.8L49.4 184.8zM18.6 215.6c15.5-5.9 31.2-7.4 47.3-2.9 6.6 1.9 13.1 4.2 19.7 6.2 9.2 2.9 13.2-11.5 4-14.5-7.7-2.4-15.3-5.2-23.2-7.2-17.3-4.4-35.3-2.5-51.8 3.8C5.7 204.6 9.6 219.1 18.6 215.6L18.6 215.6zM374.8 438.2c6.4-16.8 7.8-34.3 3.8-51.8-1.8-7.8-4.7-15.5-7.2-23.2-2.9-9.2-17.4-5.3-14.5 4 2.1 6.6 4.2 13.1 6.2 19.7 4.8 15.8 2.9 32-2.9 47.3C356.9 443.3 371.4 447.1 374.8 438.2L374.8 438.2zM342.5 467.5c6.4-16.8 7.8-34.3 3.8-51.8-1.8-7.8-4.7-15.5-7.2-23.2-2.9-9.2-17.4-5.3-14.5 4 2.1 6.6 4.2 13.1 6.2 19.7 4.8 15.8 2.9 32-2.9 47.3C324.6 472.5 339.1 476.4 342.5 467.5L342.5 467.5zM311.7 498.2c6.4-16.8 7.8-34.3 3.8-51.8-1.8-7.8-4.7-15.5-7.2-23.2-2.9-9.2-17.4-5.3-14.5 4 2.1 6.6 4.2 13.1 6.2 19.7 4.8 15.8 2.9 32-2.9 47.3C293.8 503.3 308.3 507.2 311.7 498.2L311.7 498.2zM460.1 228.2c0 9.9 0 19.9 0 29.8 0 10.4 1.3 22.1-.8 32.4-3.5 17.1-19 28.8-36.1 28.8-10.5 0-21 0-31.5 0-9.7 0-9.7 15 0 15 10.7 0 21.3 0 32 0 22.2 0 41.1-14.2 48.7-34.7 4.3-11.5 2.8-25.5 2.8-37.6 0-11.2 0-22.5 0-33.7C475.1 218.6 460.1 218.6 460.1 228.2L460.1 228.2z"/><path d="M481.9,154c1.7,11,3.5,22.1,5.2,33.1c1,6.1,1,11.7-1.1,17.7c-3.3,9.2-12.3,14.9-21.5,16.5c-9,1.6-18.1-3-23.9-9.6
						c-4.3-4.8-5.5-11.2-6.5-17.3c-1.8-11.2-3.5-22.5-5.3-33.7c-0.6-4-5.6-6.2-9.2-5.2c-4.3,1.2-5.9,5.2-5.2,9.2
						c1.9,11.9,3.7,23.9,5.6,35.8c3.3,21.3,22,37.1,43.8,35.9c25.3-1.4,41.8-24.8,38.5-48.9c-1.6-12-3.7-23.9-5.6-35.8
						c-0.1-0.5-0.2-1-0.2-1.6c-0.6-4-5.6-6.2-9.2-5.2C482.8,145.9,481.2,149.9,481.9,154L481.9,154z"/><g><path d="M191.9,119.4c0-10.4,0-20.8,0-31.2c0-17.7,11.6-32.4,28.8-36.5c4.2-1,8.5-0.8,12.8-0.8c6.2,0,12.4,0,18.6,0
							c10.3,0,20.5,0,30.8,0c9.7,0,9.7-15,0-15c-10.9,0-21.8,0-32.8,0c-12.7,0-26.4-1.3-38.5,2.8c-20.5,6.9-34.7,27-34.7,48.6
							c0,10.7,0,21.4,0,32.1C176.9,129.1,191.9,129.1,191.9,119.4L191.9,119.4z"/><path d="M361.1,14.8c-11.9-1.9-23.9-3.7-35.8-5.6c-21.8-3.4-42.4,7.7-49,29.4c-7.1,23.3,9.3,48.2,32.8,52.4
						c11.9,2.1,23.9,3.7,35.8,5.6c0.5,0.1,1,0.2,1.6,0.2c4,0.6,8.1-1,9.2-5.2c1-3.6-1.2-8.6-5.2-9.2c-11-1.7-22.1-3.5-33.1-5.2
						c-6.3-1-12-2.3-17.4-6.1c-7.4-5.2-11.3-15.6-10.1-24.4c1.3-9.6,7.3-17,15.9-21.2c5.6-2.7,11.8-2.4,17.7-1.5
						c11.2,1.8,22.5,3.5,33.7,5.3c4,0.6,8.1-1,9.2-5.2C367.4,20.4,365.2,15.4,361.1,14.8L361.1,14.8z"/></g><g><path d="M379.7,249.1c14.1-1.3,24.9-9.4,30-22.6c4.6-11.8,0.4-25.5-8-34.4c-8.6-9.1-22.7-11.8-34.4-8
				c-13.2,4.3-21.3,16.5-22.6,29.9c-0.9,9.6,14.1,9.5,15,0c1.5-15.6,20.4-21.7,31.3-11.3c11.3,10.7,3.5,30-11.4,31.3
				C370.1,235,370.1,250,379.7,249.1L379.7,249.1z"/></g><g><path d="M297.4,166.7c14-1.3,24.8-9.5,29.9-22.6c4.6-11.8,0.4-25.5-8-34.4c-8.6-9.1-22.7-11.8-34.4-8
				c-13.3,4.4-21.4,16.6-22.6,30.1c-0.9,9.6,14.1,9.6,15,0c1.4-15.7,20.3-21.9,31.4-11.5c11.2,10.6,3.6,29.9-11.3,31.3
				C287.8,152.6,287.8,167.6,297.4,166.7L297.4,166.7z"/></g></svg>