<svg xmlns="http://www.w3.org/2000/svg" enable-background="new 0 0 512 512" version="1" viewBox="0 0 512 512"><path d="M267.4,362.6c9.7,0,9.7-15,0-15C257.7,347.6,257.7,362.6,267.4,362.6L267.4,362.6z"/><path d="M267.2 362.6c.1 0 .1 0 .2 0-1.8-4.3-3.5-8.5-5.3-12.8-17.6 15.4-24.6 39.4-19 62 .6 2.3 1.4 4.5 2.3 6.7.6 1.5 1.3 3 1.9 4.4 1.2 2.6.5 2.8 2.9 1 .7-.5-.9.2-1.3.3-.7.2-1.5.3-2.2.5-1.9.3 1.6-.1-.9.1-.9.1-1.9.1-2.8.2-2.1.1-4.2-.1-6.3-.3 2.1.3-1-.2-1.5-.3-1.2-.2-2.5-.6-3.7-.9-2.8-.8-5.4-1.8-6.9-2.5-6.4-2.9-12.3-6.8-17.7-11.3-18-14.9-31.6-34.7-43.4-54.6.3 1.3.7 2.5 1 3.8 0 0 0 0 0 0 0-9.7-15-9.7-15 0 0 3.3 2.4 6.2 4.1 8.8 1.9 3.2 3.9 6.3 6 9.4 4 6.1 8.3 12 12.8 17.8 6.8 8.7 14.1 16.8 22.3 24.1 10.8 9.4 23.6 17.6 37.8 20.2 9.4 1.7 25.2 2.5 30.4-7.5 3.5-6.8-1-12.2-3.4-18.3-2.2-5.5-3.2-11.3-3.3-17.3-.1-11.1 4.2-22.1 11.5-30.5 1.6-1.8 3.4-3.5 5.2-5.1 4.8-4.2 1.1-13.2-5.3-12.8-.1 0-.1 0-.2 0C257.6 348.3 257.6 363.3 267.2 362.6L267.2 362.6zM359 311c0 3.4 2.4 5.8 4.4 8.3 2.2 2.9 4.5 5.7 6.8 8.5 4.6 5.4 9.6 10.5 14.8 15.3 8.7 7.9 18.3 14.8 28.7 20.3 16 8.4 33.8 13 51.9 13.4 6.6.1 13.2-.5 19.7-1.6 4.8-.8 8.4-2.6 11.1-6.9 4.2-6.6-.1-13.8-5.5-17.8-20-14.8-34.5-36.7-41.8-60.3-14.7-48.2 1.3-103.1 41.7-133.8 5.2-4 8.6-9.2 6.3-16-1.9-5.3-6.5-7.8-11.7-8.6-6.1-1-12.2-1.6-18.4-1.6-16.7-.1-33.1 4-48.2 10.9-12.7 5.8-24.1 14-34.4 23.4-6.2 5.6-11.8 11.8-17.1 18.3-3 3.6-5.8 7.4-8.5 11.2-2.1 2.9-6.6 7.6-6.2 11.5.5 4.1 3.1 7.5 7.5 7.5 3.7 0 8-3.4 7.5-7.5 0 0 0-.1 0-.1-.3 1.3-.7 2.5-1 3.8 22.5-34.1 56.2-62.8 98.1-63.9 3-.1 6.1 0 9.1.2 1.4.1 2.7.2 4.1.4.6.1 1.3.1 1.9.2-1.9-.2.7.1 1.1.2 1.1.2 2.2.4 3.3.6-3.6-.7 1.3-4.9-2.1-2.4-1.3 1-2.6 2-3.9 3.1-5.2 4.1-9.9 8.7-14.4 13.6-17.1 18.8-28.6 42.5-32.8 67.5-4.3 25-1.9 51.8 7.2 75.5 4.6 11.9 10.8 23 18.6 33.1 3.8 4.9 7.9 9.6 12.3 14 2.2 2.2 4.5 4.2 6.8 6.2 1.2 1 2.4 2 3.6 2.9.9.7 1.8 1.4 2.7 2.1 1.3 1.4 1.6 1.3.9-.4-.2-2 2.5-2.2.1-1.7-.6.1-1.2.2-1.8.3-.6.1-1.3.2-1.9.3 1.8-.3-.5.1-.7.1-3.3.4-6.5.6-9.8.6-7.5.2-14.6-.5-21.8-2-20.5-4.3-38.6-15.2-53.8-29.3-7.5-7-14.2-14.9-20.3-23.1.3 1.3.7 2.5 1 3.8 0 0 0-.1 0-.1C374 301.3 359 301.3 359 311L359 311zM151 163.2C150.9 163.2 150.9 163.2 151 163.2c2.4 2.5 4.9 5 7.4 7.5.7-18.5 5.3-37.4 17.1-52 9.4-11.5 22.4-19.5 35.9-24.3 12.9-4.6 24.9-6.5 37.8-7.2 4.9-.3 9.7-.3 14.6-.1.7 0 1.6.4 0-.3-1.5-.7-1.6-3-1.8-4.2.1.5.1 1 .1 1.5.1 2.1.1 4.2.2 6.3.5 27.6.1 55.2.1 82.8 0 9.7 15 9.7 15 0 0-25.7.3-51.5 0-77.2 0-4.3 0-8.6-.3-12.9-.6-8.5-8.4-10.9-15.8-11-12-.2-24 .8-35.8 3.1-19.9 3.8-39.1 12.1-54 26-19.3 17.9-27.2 43.9-28.1 69.6-.1 4.1 3.5 7.5 7.5 7.5 0 0 .1 0 .1 0C160.6 178.2 160.6 163.2 151 163.2L151 163.2z"/><path d="M141.9,348.3c29.6-43.5,34.4-96.7,19.6-146.4c-2.6-8.6-5.8-17-9.4-25.3c-0.1-0.3-0.2-0.5-0.4-0.8
				c-2.2,2.8-2.1,3.7,0.5,2.5c1.8-0.5,3.7-0.9,5.5-1.4c3.7-0.9,7.4-1.6,11.1-2.3c8-1.5,16.2-2.3,24.3-2.8
				c27.3-1.6,54.4,2.7,80.6,10.2c43.7,12.5,84.6,34.3,121.9,59.9c5.8,4,11.5,8.1,17.1,12.3c0.5,0.3,3.4,2.6,2,1.5
				c0.8,0.7,1.7,1.3,2.5,2c1.5,1.2,2.1-3,0-1c-0.9,0.9-1.9,1.7-2.8,2.5c-10.8,9.8-22.1,19-33.8,27.7
				c-31.2,23.3-65.4,43.5-102.2,56.6c-20.4,7.3-41.7,12.3-63.3,13.6c-12.1,0.7-24.3,0.2-36.3-1.5c-6.7-1-13.3-2.4-19.9-4.1
				c-3-0.8-5.9-1.6-8.9-2.6c-1.8-0.5-3.5-1.1-5.3-1.7c-0.6-0.2-1.2-0.4-1.7-0.6C141.2,345.4,140.8,345.9,141.9,348.3
				c4.4-8.6-8.5-16.2-13-7.6c-3,5.9-2.6,14.2,4,17.8c6.7,3.6,14.9,5.6,22.2,7.5c14.9,4,30.4,6,45.7,6.4c25.7,0.7,51.6-4.4,76-12.4
				c43.4-14.3,83.4-38.4,119.4-66.2c10.9-8.4,21.5-17.2,31.7-26.5c4.3-4,6.4-10.1,3.6-15.6c-1.8-3.6-5-5.7-8.1-8.1
				c-5.1-3.9-10.2-7.7-15.4-11.3c-36.2-25.6-76-46.9-118.2-61c-25.4-8.5-52-13.8-78.8-14.7c-15.5-0.5-31,0.9-46.2,3.5
				c-3.7,0.6-7.4,1.4-11.1,2.3c-3.2,0.7-7.5,1.2-10.2,3c-6.4,4.3-7.8,10.9-4.7,17.9c17.9,40.4,22.1,87.4,5.6,129.1
				c-3.9,10-9.4,19.4-15.4,28.3C123.5,348.8,136.5,356.3,141.9,348.3z"/><path d="M18.3,262.2c18.8-20.8,40.2-38.8,64.1-53.5c11.9-7.4,24.4-13.8,37.2-19.4c-0.9,0.4-2.3-1.8-1.4,0c0.4,0.7,0.7,1.5,1,2.2
				c0.6,1.2,1.3,3,1.7,3.9c1.7,4.1,3.2,8.2,4.6,12.4c6.9,20.3,9.8,41.7,7.7,63.1c-1.2,12.6-4.8,25.2-9.9,36.7
				c-2.9,6.4-6.3,12.5-10.1,18.3c-1,1.5-2.1,3.1-3.1,4.6c-2.3,3.3-0.2,1.2-0.4,1c-3.4-1.9-6.8-4-10.1-6
				c-30.8-19-58.1-43.8-80.1-72.4c-2.5-3.2-6.4-5-10.3-2.7c-3.2,1.9-5.2,7-2.7,10.3c17.2,22.4,36.9,42.4,59.3,59.6
				c11.1,8.5,22.7,16.3,34.8,23.4c5.6,3.2,12.9,5.3,18.1-0.1c5.3-5.4,9.3-12.7,13-19.2c23-41,21.3-90.3,3.7-132.9
				c-1.4-3.5-3-7-4.6-10.4c-3.1-6.5-11.1-8-17.2-5.4c-13.4,5.8-26.3,12.5-38.8,20.1c-24.9,15.2-47.5,34.2-67.1,55.8
				C1.2,258.7,11.8,269.4,18.3,262.2z"/><g><path d="M344.5,253.9c-2.1-0.1-4.1-2.6-5.7-3.9c-4.1-3.3-8.3-6.3-12.7-9.2c-14.9-9.5-31.5-16.5-48.4-21.4
				c-11.9-3.4-24.1-5.6-36.3-7c-6.6-0.8-13.3-1.1-20-1.3c-1.9,0-12,0-8-5.1c1.5-2,4-1.4,6.3-1.4c3.5,0,6.9,0.2,10.4,0.3
				c6.9,0.3,13.8,1,20.6,2c11.7,1.7,23.3,4.3,34.6,7.8c17.1,5.3,33.5,13,48.3,23.1c5.1,3.5,6,4.1,10.3,7.9
				C346.1,247.7,350.8,253.4,344.5,253.9c-9.6,0.7-9.7,15.7,0,15c14.1-1,23.1-15.9,15-28.4c-1.6-2.4-3.9-4.3-6.1-6.2
				c-9.3-7.9-19.8-14.5-30.6-20.2c-18.6-9.6-38.6-16.2-59.1-20.1c-13.3-2.5-26.9-3.9-40.4-4.3c-6.7-0.2-13-0.3-18.5,4
				c-5.2,4.1-7.7,10.9-6.4,17.4c2,10.9,11.4,14.8,21.4,14.9c10.7,0.1,21.4,1,32,2.8c16.1,2.7,32.1,7.3,47,14.1
				c9.6,4.4,18.8,9.6,27.3,15.9c0.4,0.3,2.7,2.1,0.9,0.6c0.5,0.4,1.1,0.9,1.6,1.3c0.8,0.6,1.5,1.3,2.3,1.9c4.1,3.6,8.1,5.8,13.7,6.1
				C354.2,269.5,354.1,254.5,344.5,253.9z"/></g><g><path d="M107.1,242.4c-0.5-0.4-0.9-1-1.3-1.5c0.8,1,0.2-0.5,0.2-0.9c-0.1-2.3,2-3.2,3.8-3.2c3.7,0,3.2,7-0.6,6.4
				c-4-0.6-8,0.9-9.2,5.2c-1,3.6,1.2,8.6,5.2,9.2c9.5,1.4,17.3-2.7,21.1-11.7c4.2-9.9-2.7-20.1-11.9-23.5
				c-8.9-3.3-19.3,2.9-22.2,11.4c-2.8,8.2,0.4,16.7,7.4,21.4C107.6,260.7,115.1,247.7,107.1,242.4L107.1,242.4z"/></g></svg>