<svg xmlns="http://www.w3.org/2000/svg" enable-background="new 0 0 512 512" version="1" viewBox="0 0 512 512"><path d="M99.2 323.8c.3 23.4 13.5 44.9 34.5 55.4 21.4 10.7 47.5 7.5 66-7.4 15-12.1 23-30.3 23-49.5 0-12.6 0-25.1 0-37.7 0-14.1 0-28.1 0-42.2 0-4.1-3.4-7.5-7.5-7.5-36.2 0-72.4 0-108.5 0-4.1 0-7.5 3.4-7.5 7.5C99.2 269.6 99.2 296.7 99.2 323.8c0 9.7 15 9.7 15 0 0-27.1 0-54.3 0-81.4-2.5 2.5-5 5-7.5 7.5 36.2 0 72.4 0 108.5 0-2.5-2.5-5-5-7.5-7.5 0 24.6 0 49.3 0 73.9 0 3.4.1 6.8-.1 10.3-.4 10.4-5 20.6-11.9 28.4-14.6 16.5-39 20.1-58 9.4-14.6-8.2-23.4-24-23.6-40.6C114.1 314.2 99.1 314.2 99.2 323.8zM207.8 78.7c0 45.5 0 90.9 0 136.4 0 .1 0 .2 0 .2 2.5-2.5 5-5 7.5-7.5-36.2 0-72.4 0-108.5 0 2.5 2.5 5 5 7.5 7.5 0-45.5 0-90.9 0-136.4 0-.1 0-.2 0-.2 0-9.7-15-9.7-15 0 0 45.5 0 90.9 0 136.4 0 .1 0 .2 0 .2 0 4.1 3.4 7.5 7.5 7.5 36.2 0 72.4 0 108.5 0 4.1 0 7.5-3.4 7.5-7.5 0-45.5 0-90.9 0-136.4 0-.1 0-.2 0-.2C222.8 69 207.8 69 207.8 78.7L207.8 78.7zM462.4 428.4c-12.8-4.2-28.1-2.6-41.4-2.6-24.4 0-48.8 0-73.1 0-63.9 0-127.8 0-191.7 0-23.3 0-46.6 0-69.9 0-16.8 0-33.7-1.6-48.4 8.4-10.5 7.1-17.7 18.3-20.1 30.6-1.5 7.4-.9 15.3-.9 22.8 0 4.1 3.4 7.5 7.5 7.5 31 0 62 0 93 0 63.6 0 127.1 0 190.7 0 52 0 103.9 0 155.9 0 7.9 0 15.7 0 23.6 0 4.1 0 7.5-3.4 7.5-7.5 0-9.5.6-19.1-2.3-28.3C488.3 444.6 476.6 433.7 462.4 428.4c-9.1-3.4-13 11.1-4 14.5 10.9 4 18.4 13.3 21 24.5 1.5 6.4.6 13.7.6 20.2 2.5-2.5 5-5 7.5-7.5-31 0-62 0-93 0-63.6 0-127.1 0-190.7 0-52 0-103.9 0-155.9 0-7.9 0-15.7 0-23.6 0 2.5 2.5 5 5 7.5 7.5 0-6.2-.6-12.7.4-18.8 1.8-11.3 9.1-20.1 19.2-25.1 6.1-3 12.7-2.9 19.2-2.9 17.5 0 34.9 0 52.4 0 62.2 0 124.5 0 186.7 0 44.5 0 89.1 0 133.6 0 5.2 0 10 .4 15 2.1C467.7 445.9 471.6 431.4 462.4 428.4z"/><path d="M218 71.2c-23.6 0-47.2 0-70.8 0-12.7 0-25.4 0-38.1 0-2.8 0-5.8.2-8.5-.3C91 69.3 83.9 60.8 83.9 51.1c0-9.8 7.5-18.7 17.3-20 2.7-.3 5.6-.1 8.3-.1 12.9 0 25.7 0 38.6 0 23.7 0 47.5-.5 71.2 0 10.4.3 18.7 10 18.7 20.1C238.1 62.3 229 70.9 218 71.2c-9.7.2-9.7 15.2 0 15 24.9-.6 42.2-26.1 32-49.3-4.6-10.6-14.6-18.3-25.9-20.3C220.5 16 217 16 213.4 16c-28.4 0-56.8 0-85.2 0-8 0-16.1 0-24.1 0-24.1 0-41.4 25-32.8 47.5 4.2 11.1 13.8 19.3 25.4 21.9 3.9.9 7.7.8 11.7.8 12.3 0 24.7 0 37 0 24.3 0 48.5 0 72.8 0C227.7 86.2 227.7 71.2 218 71.2zM293.1 323.8c.3 23.4 13.5 44.9 34.5 55.4 21.4 10.7 47.5 7.5 66-7.4 15-12.1 23-30.3 23-49.5 0-12.6 0-25.1 0-37.7 0-14.1 0-28.1 0-42.2 0-4.1-3.4-7.5-7.5-7.5-36.2 0-72.4 0-108.5 0-4.1 0-7.5 3.4-7.5 7.5C293.1 269.6 293.1 296.7 293.1 323.8c0 9.7 15 9.7 15 0 0-27.1 0-54.3 0-81.4-2.5 2.5-5 5-7.5 7.5 36.2 0 72.4 0 108.5 0-2.5-2.5-5-5-7.5-7.5 0 24.6 0 49.3 0 73.9 0 3.4.1 6.8-.1 10.3-.4 10.4-5 20.6-11.9 28.4-14.6 16.5-39 20.1-58 9.4-14.6-8.2-23.4-24-23.6-40.6C308 314.2 293 314.2 293.1 323.8zM401.6 78.7c0 45.5 0 90.9 0 136.4 0 .1 0 .2 0 .2 2.5-2.5 5-5 7.5-7.5-36.2 0-72.4 0-108.6 0 2.5 2.5 5 5 7.5 7.5 0-45.5 0-90.9 0-136.4 0-.1 0-.2 0-.2 0-9.7-15-9.7-15 0 0 45.5 0 90.9 0 136.4 0 .1 0 .2 0 .2 0 4.1 3.4 7.5 7.5 7.5 36.2 0 72.4 0 108.6 0 4.1 0 7.5-3.4 7.5-7.5 0-45.5 0-90.9 0-136.4 0-.1 0-.2 0-.2C416.6 69 401.6 69 401.6 78.7L401.6 78.7z"/><path d="M411.9,71.2c-23.6,0-47.2,0-70.8,0c-12.7,0-25.4,0-38.1,0c-2.8,0-5.8,0.2-8.5-0.3c-9.6-1.7-16.7-10.2-16.7-19.8
						c0-9.8,7.5-18.7,17.3-20c2.7-0.3,5.6-0.1,8.3-0.1c12.9,0,25.7,0,38.6,0c23.7,0,47.5-0.5,71.2,0c10.4,0.3,18.7,10,18.7,20.1
						C432,62.3,422.9,70.9,411.9,71.2c-9.7,0.2-9.7,15.2,0,15c24.9-0.6,42.2-26.1,32-49.3c-4.6-10.6-14.6-18.3-25.9-20.3
						c-3.6-0.6-7.1-0.6-10.8-0.6c-28.4,0-56.8,0-85.2,0c-8,0-16.1,0-24.1,0c-24.1,0-41.4,25-32.8,47.5c4.2,11.1,13.8,19.3,25.4,21.9
						c3.9,0.9,7.7,0.8,11.7,0.8c12.3,0,24.7,0,37,0c24.3,0,48.5,0,72.8,0C421.6,86.2,421.6,71.2,411.9,71.2z"/><g><path d="M59,435.6c0-49.6,0-99.3,0-148.9c0-14.8,0-29.5,0-44.3c-2.5,2.5-5,5-7.5,7.5c9,0,18.1,0,27.1,0c-2.5-2.5-5-5-7.5-7.5
					c0,49.6,0,99.3,0,148.9c0,14,0,28,0,42c0,9.7,15,9.7,15,0c0-49.6,0-99.3,0-148.9c0-14,0-28,0-42c0-4.1-3.4-7.5-7.5-7.5
					c-9,0-18.1,0-27.1,0c-4.1,0-7.5,3.4-7.5,7.5c0,49.6,0,99.3,0,148.9c0,14.8,0,29.5,0,44.3C44,445.3,59,445.3,59,435.6L59,435.6z"/></g><g><path d="M468,435.6c0-49.6,0-99.3,0-148.9c0-14.8,0-29.5,0-44.3c0-4.1-3.4-7.5-7.5-7.5c-9,0-18.1,0-27.1,0
					c-4.1,0-7.5,3.4-7.5,7.5c0,49.6,0,99.3,0,148.9c0,14,0,28,0,42c0,9.7,15,9.7,15,0c0-49.6,0-99.3,0-148.9c0-14,0-28,0-42
					c-2.5,2.5-5,5-7.5,7.5c9,0,18.1,0,27.1,0c-2.5-2.5-5-5-7.5-7.5c0,49.6,0,99.3,0,148.9c0,14.8,0,29.5,0,44.3
					C453,445.3,468,445.3,468,435.6L468,435.6z"/></g><g><path d="M431.1,207.8c-42.1,0-84.2,0-126.2,0c-43.6,0-87.2,0-130.8,0c-49,0-98,0-147,0c-1.6,0-3.2,0-4.8,0
					c-4.1,0-7.5,3.4-7.5,7.5c0,9,0,18.1,0,27.1c0,4.1,3.4,7.5,7.5,7.5c45.2,0,90.4,0,135.5,0c37.9,0,75.8,0,113.7,0
					c-2.5-2.5-5-5-7.5-7.5c0,49.3,0,98.5,0,147.8c0,14.4,0,28.7,0,43.1c2.5-2.5,5-5,7.5-7.5c-10.3,0-20.7,0-31,0
					c2.5,2.5,5,5,7.5,7.5c0-49.2,0-98.4,0-147.6c0-14.4,0-28.8,0-43.3c-2.5,2.5-5,5-7.5,7.5c44.1,0,88.2,0,132.2,0c39,0,78,0,117,0
					c4.1,0,7.5-3.4,7.5-7.5c0-9,0-18.1,0-27.1c0-4.1-3.4-7.5-7.5-7.5C470.2,207.8,450.6,207.8,431.1,207.8c-9.7,0-9.7,15,0,15
					c19.6,0,39.1,0,58.7,0c-2.5-2.5-5-5-7.5-7.5c0,9,0,18.1,0,27.1c2.5-2.5,5-5,7.5-7.5c-46.2,0-92.4,0-138.6,0
					c-36.9,0-73.7,0-110.6,0c-4.1,0-7.5,3.4-7.5,7.5c0,47.7,0,95.4,0,143c0,15.9,0,31.9,0,47.8c0,4.1,3.4,7.5,7.5,7.5
					c10.3,0,20.7,0,31,0c4.1,0,7.5-3.4,7.5-7.5c0-49.9,0-99.8,0-149.7c0-13.7,0-27.5,0-41.2c0-4.1-3.4-7.5-7.5-7.5
					c-45.2,0-90.3,0-135.5,0c-37.9,0-75.8,0-113.7,0c2.5,2.5,5,5,7.5,7.5c0-9,0-18.1,0-27.1c-2.5,2.5-5,5-7.5,7.5
					c45.5,0,91,0,136.5,0c46.1,0,92.2,0,138.3,0c43.8,0,87.6,0,131.4,0c0.9,0,1.7,0,2.6,0C440.7,222.8,440.7,207.8,431.1,207.8
					L431.1,207.8z"/></g><g><path d="M305.9,123.6c4.9-4.2,12-4.4,18.2-4c9.3,0.5,18.4,3,27.5,4.9c19.3,4.2,40.5,8.6,59.5,1c3.8-1.5,6.4-5,5.2-9.2
				c-1-3.6-5.4-6.8-9.2-5.2c-19.1,7.6-40.1,1.5-59.3-2.7c-17.4-3.8-37.8-8-52.6,4.6C287.9,119.3,298.6,129.9,305.9,123.6
				L305.9,123.6z"/></g><g><path d="M112,180.5c4.9-4.2,12-4.4,18.2-4c9.3,0.5,18.4,3,27.5,4.9c19.3,4.2,40.5,8.6,59.5,1c3.8-1.5,6.4-5,5.2-9.2
				c-1-3.6-5.4-6.8-9.2-5.2c-19.1,7.6-40.1,1.5-59.3-2.7c-17.4-3.8-37.8-8-52.6,4.6C94.1,176.2,104.7,186.8,112,180.5L112,180.5z"/></g></svg>