<svg xmlns="http://www.w3.org/2000/svg" enable-background="new 0 0 512 512" version="1" viewBox="0 0 512 512"><path d="M451.6,143.5c6.3,57.3,8.5,115,7.4,172.6c-0.6,29.9-2.1,59.8-4.8,89.6c-1.3,14.4-2.9,28.9-4.8,43.2
							c-1.4,10.9-4.8,22.2-14,29c-5.8,4.3-11.8,4.6-18.4,4.6c-7.2,0-14.3,0-21.5,0c-26,0-52,0-78,0c-61.6,0-123.2,0-184.8,0
							c-14.4,0-28.8,0-43.2,0c-17,0-25.4-16.6-27.7-31.3c-4.7-29.9-7.8-60.1-9.6-90.3c-4.5-76.4-0.2-153.1,9.8-228.9
							c0.5-4.1-3.8-7.5-7.5-7.5c-4.5,0-7,3.4-7.5,7.5c-8.4,63.6-12.7,127.7-11.3,191.9c0.7,30.6,2.7,61.2,6.2,91.7
							c1.7,14.8,3.3,29.8,6.2,44.4c2.4,11.7,9.1,22.9,18.7,30c13.1,9.8,30.4,7.5,45.8,7.5c25.4,0,50.8,0,76.1,0
							c62,0,123.9,0,185.9,0c15.4,0,30.7,0,46.1,0c15.1,0,27.4-8.2,35.3-20.8c7.2-11.4,8-25.1,9.6-38.1c1.8-14.5,3.2-29,4.4-43.6
							c6.8-83.6,5.6-168.3-3.6-251.6c-0.4-4.1-3.1-7.5-7.5-7.5C455.3,136,451.1,139.5,451.6,143.5L451.6,143.5z"/><path d="M100.5 29.3c41.6 0 83.1 0 124.7 0 54.9 0 109.8 0 164.7 0 3.5 0 7.1 0 10.6 0 10.7 0 20.1 5.1 26.9 13.2 3.5 4.1 5.1 9.3 7.1 14.2 2.4 6.2 5.5 12 9.2 17.6 7 10.6 16.2 19.4 26.6 26.6 5.6 3.8 19.4 7.7 15.3 17.3-1.6 3.7-5.2 5.2-8.5 7-5.4 2.9-10.8 5.9-16.2 8.8-13.5 7.3-27.1 14.7-40.6 22-3.2 1.7-6.3 3.4-9.5 5.1-6.5 3.5-14.9 1.4-19-4.8-7.3-11-14.6-22.1-22-33.1-3.5-5.3-6.9-10.2-12.4-13.9-8.7-5.8-20.1-5.3-29.3-1-4.5 2.1-8 5.8-10.9 9.8-2.8 3.9-3.4 8.8-6 12.8-3.9 6.2-12.9 7.3-19 4-5.5-3-8.5-10.7-11.5-15.8-4.6-7.7-10-13.6-18.7-16.6-10-3.4-20.9-.1-28.7 6.5-6.6 5.6-7 14.2-12.4 20.3-5.3 6.1-14.8 6.4-20.7 1.1-4.5-4.1-7.4-11.2-10.4-16.3-4.1-6.9-8.3-13.4-15.9-17.1-10.2-4.9-22.3-3.5-31.2 3.4-5.1 3.9-8.5 9.9-12.1 15.2-3.9 5.7-7.9 11.4-11.8 17.1-7.5 10.9-19.9 5-29.9 2-14.8-4.4-29.5-8.8-44.3-13.2-4.5-1.4-9.9-2.2-14.1-4.3-4.1-2-5.4-6.6-4.3-10.7.6-2.3 2.6-3.8 4.5-5.1 3.5-2.3 6.8-5 10-7.7 12.7-10.8 21.9-25.4 27.4-41C73 38.8 86 29.6 100.5 29.3c9.7-.2 9.7-15.2 0-15C88.2 14.6 77 19 67.7 27.1c-9.8 8.4-12.6 20-18.1 31.1-5.6 11.1-13.9 21-23.9 28.4-4.6 3.4-8.9 6-11.9 11-2.8 4.7-3.5 10.7-2.5 16 1.6 9 8.3 16 17 18.6 3.9 1.2 7.8 2.3 11.6 3.5 14.8 4.4 29.5 8.8 44.3 13.1 13.9 4.1 27.7 9.2 40.8-1.1 5.2-4.1 8.8-10.4 12.5-15.9 3.8-5.5 7.6-11.1 11.5-16.6 4.1-5.9 12-8 18.4-4.9 5.8 2.8 8.8 10.1 11.9 15.4 3.9 6.5 7.3 13.4 13.6 17.9 8.6 6.2 20.2 7.1 29.8 2.6 8.8-4.1 13-11.6 16.7-20 3.2-7.2 9.7-11.4 17.7-9.5 7 1.6 9.9 8.4 13.2 14 4.1 7 8 13.7 15.5 17.7 9 4.9 20 4.2 28.8-.6 4.3-2.4 7.8-6.1 10.4-10.2 2.4-3.8 2.7-8.6 5.6-12.1 5.1-6.4 13.8-6.9 20.4-2.6 3.5 2.3 5.9 7.6 8.2 11 7 10.5 13.7 21.3 21 31.5 7.4 10.4 20.6 14.6 32.7 11.1 4-1.1 7.7-3.5 11.3-5.5 21.7-11.7 43.3-23.5 65-35.2 9.8-5.3 14-16.8 11.3-27.4-3.1-12.2-15.6-15.7-24.8-22.2-9.9-7-17.7-16.6-23.4-27.1-2.8-5.2-4.6-10.9-7-16.3-2.5-5.6-6.4-10.6-10.7-14.8-15.6-15.2-35.6-13.6-55.4-13.6-58.7 0-117.4 0-176.1 0-34.1 0-68.2 0-102.4 0C90.9 14.3 90.9 29.3 100.5 29.3zM465 211c-33.4 0-66.8 0-100.2 0-64.3 0-128.5 0-192.8 0-41.2 0-82.4 0-123.6 0-.9 0-1.7 0-2.6 0-9.7 0-9.7 15 0 15 33.4 0 66.8 0 100.2 0 64.3 0 128.5 0 192.8 0 41.2 0 82.4 0 123.6 0 .9 0 1.7 0 2.6 0C474.7 226 474.7 211 465 211L465 211z"/><g><path d="M461.3,402.5c-33.8,0-67.6,0-101.4,0c-64.3,0-128.5,0-192.8,0c-39.1,0-78.1,0-117.2,0c-0.4,0-0.8,0-1.1,0
				c-9.7,0-9.7,15,0,15c33.8,0,67.6,0,101.4,0c64.3,0,128.5,0,192.8,0c39.1,0,78.1,0,117.2,0c0.4,0,0.8,0,1.1,0
				C471,417.5,471,402.5,461.3,402.5L461.3,402.5z"/></g><g><path d="M120.6,332.9c-8.6-14.9-17.2-29.8-25.8-44.6c0,2.5,0,5,0,7.6c8.6-14.9,17.2-29.8,25.8-44.6c-2.2,1.2-4.3,2.5-6.5,3.7
				c17.2,0,34.4,0,51.5,0c-2.2-1.2-4.3-2.5-6.5-3.7c8.6,14.9,17.2,29.8,25.8,44.6c0-2.5,0-5,0-7.6c-8.6,14.9-17.2,29.8-25.8,44.6
				c2.2-1.2,4.3-2.5,6.5-3.7c-17.2,0-34.4,0-51.5,0c-9.7,0-9.7,15,0,15c8.9,0,17.8,0,26.8,0c5.9,0,11.9,0,17.8,0
				c3.2,0,7.8,0.7,10.8-1c2.9-1.7,4.6-5.9,6.2-8.7c3-5.1,5.9-10.3,8.9-15.4c4.5-7.7,8.9-15.4,13.4-23.2c1.3-2.3,1.3-5.2,0-7.6
				c-6.1-10.5-12.1-21-18.2-31.5c-2.5-4.3-5-8.6-7.5-12.9c-2.8-4.9-8.8-3.9-13.6-3.9c-14.1,0-28.2,0-42.2,0c-2.1,0-4.2-0.1-6.1,1
				c-2,1.2-3,3.2-4.1,5.1c-3.3,5.8-6.7,11.6-10,17.3c-4.3,7.5-8.6,15-13,22.5c-1.8,3.1-3.5,6.3-1.4,10c0.9,1.6,1.9,3.2,2.8,4.9
				c7.7,13.3,15.3,26.5,23,39.8C112.5,348.8,125.4,341.3,120.6,332.9z"/><path d="M198.1,377.5c-8.6-14.9-17.2-29.8-25.8-44.6c0,2.5,0,5,0,7.6c8.6-14.9,17.2-29.8,25.8-44.6c-2.2,1.2-4.3,2.5-6.5,3.7
				c17.2,0,34.4,0,51.5,0c-2.2-1.2-4.3-2.5-6.5-3.7c8.6,14.9,17.2,29.8,25.8,44.6c0-2.5,0-5,0-7.6c-8.6,14.9-17.2,29.8-25.8,44.6
				c2.2-1.2,4.3-2.5,6.5-3.7c-17.2,0-34.4,0-51.5,0c-9.7,0-9.7,15,0,15c12.1,0,24.3,0,36.4,0c5,0,10,0,14.9,0
				c5.7,0,7.8-5.6,10.2-9.7c7-12.2,14.1-24.4,21.1-36.6c1.1-1.8,2.2-3.6,2.2-5.8c0-2.4-1.3-4.2-2.4-6.2c-3.3-5.8-6.7-11.6-10-17.3
				c-3.7-6.5-7.5-13-11.2-19.4c-2.4-4.1-4.3-9.1-10-9.1c-13.2,0-26.3,0-39.5,0c-4.2,0-9.5-0.9-13.6,0.3c-4.7,1.3-7.3,8.3-9.5,12.1
				c-6.8,11.7-13.6,23.5-20.3,35.2c-0.1,0.3-0.3,0.5-0.4,0.8c-1.3,2.3-1.3,5.2,0,7.6c8.6,14.9,17.2,29.8,25.8,44.6
				C189.9,393.4,202.9,385.9,198.1,377.5z"/><path d="M275.2,332.9c-8.6-14.9-17.2-29.8-25.8-44.6c0,2.5,0,5,0,7.6c8.6-14.9,17.2-29.8,25.8-44.6c-2.2,1.2-4.3,2.5-6.5,3.7
				c17.2,0,34.4,0,51.5,0c-2.2-1.2-4.3-2.5-6.5-3.7c8.6,14.9,17.2,29.8,25.8,44.6c0-2.5,0-5,0-7.6c-8.6,14.9-17.2,29.8-25.8,44.6
				c2.2-1.2,4.3-2.5,6.5-3.7c-17.2,0-34.4,0-51.5,0c-9.7,0-9.7,15,0,15c17.2,0,34.4,0,51.5,0c2.6,0,5.2-1.4,6.5-3.7
				c4.5-7.7,8.9-15.4,13.4-23.2c3-5.1,5.9-10.3,8.9-15.4c1.6-2.8,4.5-6.4,4.5-9.8c0-3.4-2.9-7-4.5-9.8c-3-5.1-5.9-10.3-8.9-15.4
				c-4.5-7.7-8.9-15.4-13.4-23.2c-1.3-2.3-3.8-3.7-6.5-3.7c-17.2,0-34.4,0-51.5,0c-2.6,0-5.2,1.4-6.5,3.7
				c-8.6,14.9-17.2,29.8-25.8,44.6c-1.3,2.3-1.3,5.2,0,7.6c8.6,14.9,17.2,29.8,25.8,44.6C267.1,348.8,280.1,341.3,275.2,332.9z"/><path d="M352.8,377.5c-8.6-14.9-17.2-29.8-25.8-44.6c0,2.5,0,5,0,7.6c8.6-14.9,17.2-29.8,25.8-44.6c-2.2,1.2-4.3,2.5-6.5,3.7
				c17.2,0,34.4,0,51.5,0c-2.2-1.2-4.3-2.5-6.5-3.7c8.6,14.9,17.2,29.8,25.8,44.6c0-2.5,0-5,0-7.6c-8.6,14.9-17.2,29.8-25.8,44.6
				c2.2-1.2,4.3-2.5,6.5-3.7c-17.2,0-34.4,0-51.5,0c-9.7,0-9.7,15,0,15c17.2,0,34.4,0,51.5,0c2.6,0,5.2-1.4,6.5-3.7
				c4.5-7.7,8.9-15.4,13.4-23.2c3-5.1,5.9-10.3,8.9-15.4c1.6-2.8,4.5-6.4,4.5-9.8c0-3.4-2.9-7-4.5-9.8c-3-5.1-5.9-10.3-8.9-15.4
				c-4.5-7.7-8.9-15.4-13.4-23.2c-1.3-2.3-3.8-3.7-6.5-3.7c-17.2,0-34.4,0-51.5,0c-2.6,0-5.2,1.4-6.5,3.7
				c-4.5,7.7-8.9,15.4-13.4,23.2c-3,5.1-5.9,10.3-8.9,15.4c-1.6,2.8-4.5,6.4-4.5,9.8c0,3.4,2.9,7,4.5,9.8c3,5.1,5.9,10.3,8.9,15.4
				c4.5,7.7,8.9,15.4,13.4,23.2C344.7,393.4,357.7,385.9,352.8,377.5z"/></g></svg>