<svg xmlns="http://www.w3.org/2000/svg" enable-background="new 0 0 512 512" version="1" viewBox="0 0 512 512"><path d="M256 282.6c-42.6 0-83.8 29-90.8 72.5-3 18.6 1 37.3 10.5 53.5 5.7 9.7 11.3 19.3 17 29 7.7 13.1 15.3 26.1 23 39.2 1.7 3 3.5 5.9 5.2 8.9 4.8 8.3 12 13.9 20.7 17.6 18.2 7.6 39.7-1.2 49.4-17.7 5.4-9.2 10.8-18.4 16.2-27.6 7.8-13.2 15.5-26.4 23.3-39.6 6.3-10.6 12.4-21.1 15.3-33.3 10.1-42.8-18.7-83.6-58.5-97.4C277.3 284.2 266.5 282.7 256 282.6c-9.7-.1-9.7 14.9 0 15 21.1.2 41.4 7.7 56.5 22.6 13.6 13.4 21 31.9 20.2 50.9-.6 13.2-6.3 24.6-12.9 35.7-7.4 12.5-14.7 25.1-22.1 37.6-6.3 10.7-12.5 21.4-18.8 32.1-7.4 12.7-22.2 18.3-35.7 10.9-8.6-4.7-13.2-15.9-18-24.1-8-13.6-15.9-27.2-23.9-40.7-4.3-7.3-8.6-14.6-12.9-21.9-7.8-13.3-11.2-28.7-8.5-44 6.3-35.9 40.7-59.2 75.9-59.2C265.7 297.6 265.7 282.6 256 282.6zM256 151c-22 0-43.5 11.8-51.4 33-3.7 9.9-2.2 20.6 2 30 2.3 5.1 5.9 9.7 8.9 14.4 8.2 12.7 15.3 28.2 30.3 33.8 10.6 4 22.2.6 30.8-6 4.8-3.7 8-9.8 11.2-14.9 9.1-14.1 22.2-28.9 21.4-46.7C308.1 167.4 280.8 151.3 256 151c-9.7-.1-9.7 14.9 0 15 18.6.2 39.7 12.1 38.4 33.1-.4 6.1-4 11.2-7.3 16.1-4.2 6.4-8.4 12.9-12.6 19.3-3.2 4.9-5.7 9.7-11 12.6-7.3 4-17.2 1.1-21.7-5.7-6.5-10-13-20-19.6-30.1-5.9-9.1-6.3-19.2-.6-28.6 7-11.5 21.4-16.7 34.2-16.7C265.7 166 265.7 151 256 151z"/><path d="M256 166c22 0 43.5-11.8 51.4-33 3.7-9.9 2.2-20.6-2-30-2.3-5.1-5.9-9.7-8.9-14.4-8.2-12.7-15.3-28.2-30.3-33.8-10.6-4-22.2-.6-30.8 6-4.8 3.7-8 9.8-11.2 14.9-9.1 14.1-22.2 28.9-21.4 46.7C203.9 149.6 231.2 165.7 256 166c9.7.1 9.7-14.9 0-15-18.6-.2-39.7-12.1-38.4-33.1.4-6.1 4-11.2 7.3-16.1 4.2-6.4 8.4-12.9 12.6-19.3 3.2-4.9 5.7-9.7 11-12.6 7.3-4 17.2-1.1 21.7 5.7 6.5 10 13 20 19.6 30.1 5.9 9.1 6.3 19.2.6 28.6-7 11.5-21.4 16.7-34.2 16.7C246.3 151 246.3 166 256 166zM445.5 290.8c0-12-6.7-22.9-17-28.8-4.8-2.7-9-3.9-12.4-9.2-.9-1.4-1.5-3-2.2-4.5-5.4-12.2-10.7-24.5-16.1-36.7-4.4-10.1-8.8-20.2-13.2-30.3-9.2-21-37.1-24.4-52.9-9.3-5.8 5.5-11.3 11.3-16.9 16.9-6.8 6.8 3.8 17.5 10.6 10.6 4.4-4.4 8.8-8.8 13.1-13.1 5-5 9.5-9 17-9 13.1.1 17 13.6 21.3 23.4 6.2 14.2 12.4 28.4 18.7 42.7 1.9 4.4 3.8 8.8 5.8 13.2 1 2.2 2.1 4.2 3.5 6.2 3.8 5.3 9.9 9.3 14.8 11.5 6.5 2.8 10.9 9.3 10.9 16.4C430.5 300.5 445.5 300.5 445.5 290.8L445.5 290.8zM81.5 290.8c0-4.5 1.7-8.7 4.7-12 4.2-4.7 9.2-5.1 14.2-8.9 5.4-4.1 8.7-9.4 11.4-15.5 5.7-12.9 11.3-25.9 17-38.8 4.2-9.6 7.9-19.7 12.8-29 4.3-8.1 13.9-10.7 22.2-7.9 5.6 1.9 10.4 8.5 14.5 12.5 2.8 2.8 5.6 5.6 8.5 8.5 6.8 6.8 17.5-3.8 10.6-10.6-9.6-9.6-19.2-22.6-33-25.8-10.8-2.5-22 1.1-30 8.5-4 3.7-6.3 8.5-8.4 13.4-5.7 13.1-11.5 26.2-17.2 39.3-4.3 9.8-7.8 20.7-13.5 29.8-2.2 3.4-6 5.4-9 6.7-4 1.7-7.5 4.2-10.5 7.3-5.8 5.9-9.1 14.4-9.1 22.6C66.5 300.5 81.5 300.5 81.5 290.8L81.5 290.8zM443.4 439.8c0-6.9.5-14-.9-20.8-1.2-6-4.8-11.4-9-15.7-4.2-4.3-9.5-7.2-13.7-11.7-8.9-9.7-11.2-23.1-14.5-35.5-4-14.9-8-29.8-12-44.7-3.9-14.7-8.2-28.2-19.2-39.6-8.2-8.5-19.7-13.8-29.9-19.6-8.6-4.9-17.3-9.7-25.9-14.6-8.4-4.8-16 8.2-7.6 13 10.8 6.1 21.6 12.2 32.3 18.3 4.2 2.4 8.5 4.6 12.6 7.2 9.9 6.1 17 16.4 20 27.6 6.3 23.4 12.5 46.8 18.8 70.2 3.6 13.5 10.4 25.6 21.3 34.6 6.4 5.3 12.6 9.2 12.6 18.5 0 4.3 0 8.6 0 12.9C428.4 449.4 443.4 449.4 443.4 439.8L443.4 439.8zM83.6 439.8c0-6.5-.8-13.4 1.2-19.6 1.7-5.1 6.3-7.8 10.2-10.9 5.3-4.2 9.7-9.1 13.6-14.6 7.3-10.6 9.8-24 13.1-36.3 4-14.8 7.9-29.6 11.9-44.5.9-3.4 1.8-6.8 2.7-10.3 2.9-10.9 9.5-20.4 18.8-26.8 7.4-5.2 15.9-9.2 23.7-13.6 7.5-4.2 15-8.4 22.4-12.7 8.4-4.8.9-17.7-7.6-13-10.8 6.1-21.6 12.2-32.3 18.3-4.2 2.4-8.5 4.6-12.6 7.2-11 6.8-19.6 17.4-24.4 29.4-4.2 10.3-6.3 21.6-9.2 32.3-3.8 14.1-7.6 28.2-11.3 42.4-3.5 12.9-8.9 24.3-20.3 32.3-8.9 6.2-13.9 15.2-14.8 26-.4 4.8 0 9.7 0 14.5C68.6 449.4 83.6 449.4 83.6 439.8L83.6 439.8zM416.5 82.2c-4.8-.7-9.6-1.5-14.3-2.2-5.4-.8-11.8-2.6-17.3-1.6-11.3 2-15 14.2-22.6 21.3-5 4.8-12 6.2-16.9 11-14.2 14.2-28.3 28.3-42.5 42.5-6.8 6.8 3.8 17.5 10.6 10.6 13.7-13.7 27.4-27.4 41.1-41.1 3.2-3.2 7.1-4.5 11-6.9 4.3-2.6 8-6.1 11.3-9.8 3.3-3.8 5.6-8.6 8.9-12.3 1.4-1.5 2.2-.9 4-.6 2.7.4 5.5.8 8.2 1.3 4.8.7 9.6 1.5 14.3 2.2 4 .6 8-1 9.2-5.2C422.7 87.8 420.6 82.8 416.5 82.2L416.5 82.2zM99.5 96.6c4.5-.7 8.9-1.4 13.4-2 2.9-.4 5.7-.9 8.6-1.3 2.3-.4 2.5-.7 3.9 0 1.8.9 2.8 3.6 3.9 5.2 1.5 2.2 3.1 4.3 4.8 6.4 3.2 4 7 7.2 11.1 10.2 3.9 2.8 8.5 3.9 11.9 7.3 13.8 13.8 27.6 27.6 41.4 41.4 6.8 6.8 17.5-3.8 10.6-10.6-14.1-14.1-28.2-28.2-42.2-42.2-4.6-4.6-11-6.2-16-10.3-8.3-6.9-11.4-18.6-22.3-22.1-5.3-1.7-12.4.4-17.7 1.2-5.1.8-10.2 1.6-15.3 2.3-4 .6-6.2 5.6-5.2 9.2C91.4 95.7 95.4 97.3 99.5 96.6L99.5 96.6z"/><g><path d="M297.2,13.6c0,7.1,1.4,15.7-0.6,22.6c-0.9,3.1-3.9,5.1-6.6,6.4c-3.1,1.5-5.8,3.6-8.1,6.2c-5.2,5.7-7.7,13.5-9,21
					c-1.6,9.5,12.8,13.5,14.5,4c1-6.1,2.5-13.4,8.1-17.1c3.2-2.1,6.5-3.6,9.4-6.3c3.3-3.1,5.4-7.3,6.6-11.6
					c2.2-7.7,0.8-17.4,0.8-25.3C312.2,4,297.2,4,297.2,13.6L297.2,13.6z"/></g><g><path d="M199.8,13.6c0,8.3-0.9,17.1,0.8,25.3c1.6,7.9,8,13.8,15,17.2c6.4,3.1,8,11.4,9.1,17.7c1.6,9.5,16.1,5.5,14.5-4
					c-1.3-7.8-4-14.8-9-21c-4.1-5.1-12.3-6.2-14.7-12.6c-1.3-3.4-0.6-8-0.6-11.6c0-3.7,0-7.4,0-11C214.8,4,199.8,4,199.8,13.6
					L199.8,13.6z"/></g></svg>