<svg xmlns="http://www.w3.org/2000/svg" enable-background="new 0 0 512 512" version="1" viewBox="0 0 512 512"><path d="M332.5,489.8c-48.6,0-97.3,0-145.9,0c-11.4,0-22.4-0.7-33.4-4.2c-20.5-6.4-37.5-21.3-47.8-39.9
				c-7-12.6-10.2-27-10.2-41.3c0-4.5,0-9,0-13.4c0-51.8,0-103.6,0-155.4c0-59.7,0-119.4,0-179.1c0-13.9,0-27.8,0-41.7
				c-2.5,2.5-5,5-7.5,7.5c38.9,0,77.7,0,116.6,0c60.8,0,121.6,0,182.5,0c12.5,0,25.1,0,37.6,0c-2.5-2.5-5-5-7.5-7.5
				c0,35.1,0,70.1,0,105.2c0,63.9,0,127.9,0,191.8c0,23.5,0,47,0,70.5c0,13.3,0.9,27.3-1.7,40.4
				C407.1,461.5,371.9,489.5,332.5,489.8c-9.7,0.1-9.7,15.1,0,15c46.7-0.4,87.9-33.6,97.3-79.5c2.8-13.9,2-28.4,2-42.5
				c0-55.1,0-110.1,0-165.2c0-57.4,0-114.7,0-172.1c0-10.2,0-20.5,0-30.7c0-4.1-3.4-7.5-7.5-7.5c-38.9,0-77.7,0-116.6,0
				c-60.8,0-121.6,0-182.5,0c-12.5,0-25.1,0-37.6,0c-4.1,0-7.5,3.4-7.5,7.5c0,35.1,0,70.1,0,105.2c0,63.9,0,127.9,0,191.8
				c0,23.5,0,47,0,70.5c0,13.9-0.6,27.9,1.7,41.7c8,46.1,50.1,79.8,96.2,80.8c20.7,0.5,41.4,0,62.1,0c30.8,0,61.6,0,92.4,0
				C342.2,504.8,342.2,489.8,332.5,489.8z"/><path d="M94.2,161c0.7-1,1.4-2.1,2.1-3.1c-1,1.4,1.1-1.2,1.5-1.6c0.8-0.8,1.6-1.6,2.5-2.3c1.4-1.2-1.3,0.9,0.2-0.2
				c0.6-0.4,1.2-0.8,1.8-1.2c0.9-0.6,1.9-1.1,2.9-1.6c0.5-0.3,1-0.5,1.5-0.7c-1.8,0.8-0.1,0.1,0.3-0.1c2.3-0.9,4.8-1.4,7.2-1.9
				c0.3-0.1,2.3-0.3,0.4-0.1c0.6-0.1,1.2-0.1,1.8-0.2c1.2-0.1,2.5-0.2,3.7-0.2c2.9-0.1,5.7,0.1,8.6,0.4c2.9,0.3,3.6,0.4,7.2,1
				c3.3,0.6,6.5,1.3,9.8,2.1c30.6,7.6,59.7,20.9,89.3,31.6c32.2,11.6,65.9,21.8,100.4,21.8c35.2,0,67.9-13.6,91.9-39.6
				c0.8-0.9,1.5-1.7,2.3-2.6c6.3-7.2-4.2-17.9-10.6-10.6c-11.1,12.7-24.5,23.4-40.3,29.8c-14.9,6-30.3,8.2-46.2,8
				c-33.8-0.4-66.9-11.5-98.4-23c-29.1-10.7-57.9-23.8-88.2-30.8c-22.7-5.2-47.8-5.5-63,14.9c-0.6,0.8-1.2,1.7-1.7,2.6
				C76,161.6,89,169.1,94.2,161L94.2,161z"/></svg>