<svg xmlns="http://www.w3.org/2000/svg" enable-background="new 0 0 512 512" version="1" viewBox="0 0 512 512"><path d="M430.3,488.8c-37.8,0-75.7,0-113.5,0c-62.1,0-124.2,0-186.4,0c-16.9,0-33.8,0-50.7,0c2.5,2.5,5,5,7.5,7.5
							c0-38.2,0-76.4,0-114.6c0-61.6,0-123.3,0-184.9c0-15.2,0-30.4,0-45.6c-2.5,2.5-5,5-7.5,7.5c37.8,0,75.7,0,113.5,0
							c62.1,0,124.2,0,186.4,0c16.9,0,33.8,0,50.7,0c-2.5-2.5-5-5-7.5-7.5c0,38.2,0,76.4,0,114.6c0,61.6,0,123.3,0,184.9
							c0,15.2,0,30.4,0,45.6c0,9.7,15,9.7,15,0c0-38.2,0-76.4,0-114.6c0-61.6,0-123.3,0-184.9c0-15.2,0-30.4,0-45.6
							c0-4.1-3.4-7.5-7.5-7.5c-37.8,0-75.7,0-113.5,0c-62.1,0-124.2,0-186.4,0c-16.9,0-33.8,0-50.7,0c-4.1,0-7.5,3.4-7.5,7.5
							c0,38.2,0,76.4,0,114.6c0,61.6,0,123.3,0,184.9c0,15.2,0,30.4,0,45.6c0,4.1,3.4,7.5,7.5,7.5c37.8,0,75.7,0,113.5,0
							c62.1,0,124.2,0,186.4,0c16.9,0,33.8,0,50.7,0C440,503.8,440,488.8,430.3,488.8z"/><path d="M319.6,496.3c0-38.2,0-76.4,0-114.6c0-61.6,0-123.3,0-184.9c0-15.2,0-30.4,0-45.6c0-9.7-15-9.7-15,0
							c0,38.2,0,76.4,0,114.6c0,61.6,0,123.3,0,184.9c0,15.2,0,30.4,0,45.6C304.6,505.9,319.6,505.9,319.6,496.3L319.6,496.3z"/><path d="M317,156.4c19.6-23.2,39.1-46.4,58.7-69.7c6.2-7.3-4.4-18-10.6-10.6c-19.6,23.2-39.1,46.4-58.7,69.7
						C300.2,153.2,310.8,163.9,317,156.4L317,156.4z"/><path d="M435.2 145.8c-19.8-23.2-39.7-46.4-59.5-69.7-6.3-7.4-16.9 3.3-10.6 10.6 19.8 23.2 39.7 46.4 59.5 69.7C430.9 163.8 441.5 153.1 435.2 145.8L435.2 145.8zM85 156.4c19.6-23.2 39.1-46.4 58.7-69.7 6.2-7.3-4.4-18-10.6-10.6-19.6 23.2-39.1 46.4-58.7 69.7C68.2 153.2 78.8 163.9 85 156.4L85 156.4z"/><path d="M138.4 89c47.1 0 94.2 0 141.3 0 30.3 0 60.5 0 90.8 0 9.7 0 9.7-15 0-15-47.1 0-94.2 0-141.3 0-30.3 0-60.5 0-90.8 0C128.7 74 128.7 89 138.4 89L138.4 89zM435.6 491c-20-20.1-39.9-40.2-59.9-60.3-6.8-6.9-17.4 3.7-10.6 10.6 20 20.1 39.9 40.2 59.9 60.3C431.8 508.4 442.4 497.8 435.6 491L435.6 491z"/><g><path d="M317.4,501.6c19.4-20.1,38.9-40.2,58.3-60.3c6.7-7-3.9-17.6-10.6-10.6c-19.4,20.1-38.9,40.2-58.3,60.3
						C300.1,497.9,310.7,508.5,317.4,501.6L317.4,501.6z"/></g><g><path d="M370.4,74c-47.1,0-94.2,0-141.3,0c-30.3,0-60.5,0-90.8,0c2.5,2.5,5,5,7.5,7.5c0-6,0-12,0-18c0-9.3,2.5-17.4,7.9-25
					c8.1-11.4,21.5-15.2,34.8-15.2c27.2,0,54.4,0,81.7,0c17.9,0,35.8,0,53.7,0c15.4,0,30.1,9.3,36,23.7c4.5,10.7,3,23.2,3,34.6
					c0,9.7,15,9.7,15,0c0-16.1,1-31.6-7.1-46.2c-9.4-17-28.2-27-47.4-27c-24.3,0-48.7,0-73,0c-21.8,0-43.7,0-65.5,0
					c-20.2,0-38.8,11.4-48.1,29.3c-7.1,13.8-5.9,29-5.9,44c0,4.1,3.4,7.5,7.5,7.5c47.1,0,94.2,0,141.3,0c30.3,0,60.5,0,90.8,0
					C380.1,89,380.1,74,370.4,74z"/></g><g><path d="M256,389.3c9.7,0,9.7-15,0-15C246.3,374.3,246.3,389.3,256,389.3L256,389.3z"/></g><g><path d="M263.5,496.3c0-27.1,0-54.2,0-81.3c0-9.7-15-9.7-15,0c0,27.1,0,54.2,0,81.3C248.5,505.9,263.5,505.9,263.5,496.3
					L263.5,496.3z"/></g><g><path d="M79.7,204.5c4.1,0,7.7,2.1,10,5.5c2.2,3.3,1.8,7.2,1.8,10.9c0,11,4.1,20.7,14,26.3c10.4,5.9,23.4,3.4,32-4.2
					c7-6.1,8.3-15.1,8.3-23.8c0-6.6,0-13.2,0-19.8c0-3.6,1.5-7.2,4.4-9.5c3.5-2.7,7.4-2.5,11.6-2.5c15.2,0,12.6,16.7,12.6,27.1
					c0,24.5,0,49.1,0,73.6c0,14.5,0,29.1,0,43.6c0,8.4-0.8,17.5,1.5,25.6c3.2,11.3,12.8,19.9,23.9,23c11.3,3.2,23.1-0.5,31.7-8
					c10.3-9,10.9-21.7,10.9-34.1c0-29.3,0-58.6,0-87.9c0-5.6,0-11.1,0-16.7c0-9.6,7.9-12.2,15.8-12.2c17.9,0,35.9,0,53.8,0
					c9.7,0,9.7-15,0-15c-11.8,0-23.6,0-35.3,0c-12.9,0-29.5-2.6-40,6.6c-9.9,8.6-9.3,20.1-9.3,31.9c0,14.5,0,29,0,43.5
					c0,14.9,0,29.9,0,44.8c0,8.9,1.6,19.5-4.7,26.8c-11.9,13.7-33.3,3.9-33.3-13.3c0-9,0-18,0-27c0-30.2,0-60.5,0-90.7
					c0-6.4,0-12.8,0-19.1c0-8.6,0.5-16.7-3.9-24.5c-5.7-10-16.4-12.9-27.1-12.9c-15.8,0-27.6,12.4-27.6,28c0,5.1,0,10.2,0,15.3
					c0,4.2,0.7,9.2-1.2,13c-3,6.2-9.9,7.7-16,5.7c-6-1.9-7.2-8.3-7.2-13.7c0-7-0.6-13.5-4.6-19.6c-4.9-7.3-13.4-11.8-22.2-11.8
					C70,189.5,70,204.5,79.7,204.5L79.7,204.5z"/></g></svg>