<svg xmlns="http://www.w3.org/2000/svg" enable-background="new 0 0 512 512" version="1" viewBox="0 0 512 512"><path d="M499.9,453.9c-26.6-12.2-54.2-10.5-82.2-5.3c-26.5,4.9-54.7,12.9-81.2,3.7c-6.7-2.3-13.2-4.8-20.2-6.1
					c-7.2-1.4-14.6-1.9-22-1.9c-14,0.1-28,2.6-41.7,5.3c-13.6,2.6-27.1,5.5-40.8,6.6c-6.6,0.5-13.2,0.4-19.8-0.2
					c-7.8-0.7-15-3.5-22.3-6.2c-24.8-9.1-51.7-5.1-77-0.2c-24.7,4.8-49.9,10.6-74.8,3.7c-9.3-2.6-13.3,11.9-4,14.5
					c26.5,7.4,53.3,2.1,79.7-3c12.9-2.5,25.9-4.9,39.1-5.3c14.1-0.4,26.6,2.6,39.7,7.5c26.9,9.9,57.1,2.6,84.2-2.7
					c13.6-2.6,27.1-4.9,41-4.7c6.7,0.1,13.2,0.9,19.7,2.4c7.7,1.8,14.8,5.2,22.3,7.3c25.1,6.7,52.4-0.1,77.2-4.9
					c25.2-4.9,51.4-8.2,75.5,2.9C501,470.9,508.6,457.9,499.9,453.9L499.9,453.9z"/><path d="M363.9,463.1c24.5-26.4,29.3-62.6,26.4-97.2c-3.2-38-14.2-74.9-23.7-111.6c-5-19.2-10.1-39-11.4-58.2
					c-0.3-3.9-0.3-7.9-0.2-11.8c0.2-4.6,0.3-5.6,1.3-9.9c0.3-1.5,0.8-2.9,1.3-4.4c0.1-0.3,1.1-2.8,0.4-1.1c0.3-0.8,0.7-1.5,1.1-2.2
					c0.7-1.4,1.6-2.8,2.5-4.1c0.7-1-0.6,0.7,0.7-0.8c0.5-0.6,1.1-1.2,1.7-1.7c6.9-6.8-3.7-17.4-10.6-10.6
					c-19.7,19.3-13.6,52.6-8.8,76.6c7.3,36.2,18.9,71.3,26,107.6c7.7,39.2,12.2,87.3-17.3,119C346.7,459.6,357.3,470.2,363.9,463.1
					L363.9,463.1z"/><path d="M299.5,106.6c17.3,21.5,37.2,40.6,59.7,56.7c10.6,7.6,21.9,14.4,33.5,20.4c11.3,5.8,23.2,10.4,34.8,15.5
						c10.7,4.8,23.1,0.4,28.7-9.8c2.6-4.6,2.6-9.6,2.4-14.6c-0.4-13.3-0.9-26.5-1.3-39.8c-0.5-14.3-0.9-28.6-1.4-42.9
						c-0.1-3.2-0.1-6.4-0.4-9.5c-1-11.7-6.6-22.6-15.3-30.5c-13.2-11.8-30.4-13.5-46.8-8.8c-12.8,3.7-25.5,7.3-38.3,11
						c-14.5,4.2-29.1,8.4-43.6,12.6c-5.6,1.6-10.8,3.4-14.8,8C288.7,84.2,289.8,99,299.5,106.6c3.2,2.5,7.5,3.1,10.6,0
						c2.6-2.6,3.2-8.1,0-10.6c-4.7-3.7-5.6-11.4,1.4-13.4c3.1-0.9,6.1-1.8,9.2-2.6c14.4-4.1,28.7-8.3,43.1-12.4
						c11.8-3.4,23.5-6.8,35.3-10.2c15.9-4.6,33.3,1.8,39.6,18c3.5,9.1,2.4,20.7,2.7,30.2c0.5,15.9,1,31.8,1.5,47.7
						c0.2,6.2,0.4,12.4,0.6,18.6c0.1,2.7,0.6,5.8,0.1,8.5c-0.6,3.3-3.4,5.7-6.7,5.9c-2,0.1-3.6-0.7-5.2-1.8
						c-2.9-1.9-7.3-2.8-10.6-4.1c-12-4.8-23.5-10.6-34.6-17.1c-29.6-17.3-55-40.6-76.4-67.2c-2.6-3.2-7.9-2.7-10.6,0
						C296.4,99.1,296.9,103.4,299.5,106.6z"/><g><path d="M131.4,446.4c-23.5-25.4-19.8-63.8-13.8-95.1c6.8-35.5,19.6-69.7,24.1-105.6c2-15.6,1.6-34-10.4-45.8
					c-6.9-6.8-17.5,3.8-10.6,10.6c0.4,0.4,2.6,3,1.6,1.6c0.7,1,1.3,2,1.9,3.1c1.2,2.2,1.5,3,2.3,6.5c1.1,4.6,1.2,11,0.8,17.3
					c-1,15.2-5.2,31.3-9.2,46.6c-9.3,36.1-21,73.1-20,110.8c0.6,22.3,7.1,44.1,22.5,60.8C127.4,464.1,137.9,453.5,131.4,446.4
					L131.4,446.4z"/><path d="M164.5,156.4c-16.9,20.9-36.7,39.1-59.7,53.1c-10.9,6.6-22.4,12.2-34.3,16.8c-2.8,1.1-7.5,4.7-10.5,2.3
						c-1.7-1.3-1.9-2.9-1.8-4.9c0.8-24.7,1.6-49.4,2.4-74.1c0.5-15.9,15.3-26.8,30.6-22.7c7.8,2.1,15.5,4.5,23.3,6.7
						c12.8,3.7,25.7,7.4,38.5,11.1C157.8,146.1,173.9,148.9,164.5,156.4c-3.2,2.6-2.7,8,0,10.6c3.1,3.1,7.4,2.6,10.6,0
						c9.1-7.3,9-20.7,1.3-28.9c-3.5-3.7-8.5-4.8-13.2-6.2c-14-4-28-8.1-42-12.1c-10.5-3-21.3-7.3-32.1-8.7
						c-22.7-2.9-42.7,15.3-43.5,37.8c-0.8,24.6-1.6,49.2-2.4,73.8c-0.3,7.9,2.9,14.4,9.5,18.8c4.5,2.9,10.5,3.3,15.6,1.8
						c2.6-0.7,5.1-2.4,7.6-3.3c3.5-1.3,6.9-2.8,10.4-4.3c24.1-10.4,46-25.3,65.1-43.2c8.5-7.9,16.3-16.6,23.6-25.7
						c2.6-3.2,3.1-7.5,0-10.6C172.5,153.8,167.1,153.3,164.5,156.4z"/></g></svg>