<svg xmlns="http://www.w3.org/2000/svg" enable-background="new 0 0 512 512" version="1" viewBox="0 0 512 512"><path d="M56.3,105.1C85.3,59.5,136,32,190,32.5c47.6,0.4,91.7,27.9,110.3,72.4c4.6,11,7.8,22.4,13.2,33.2
				c5.1,10.1,11.5,19.4,18.9,28c15.4,17.8,35.8,30.2,57.6,38.7c11.3,4.4,22.2,8.2,32.6,14.5c9.9,6,18.8,13.6,26.6,22.1
				c15.8,17.3,25.5,39.2,29,62.2c7.7,51.6-13.9,104.3-52.7,138.4c-37.8,33.1-94.7,47.3-142.8,31.1c-21.8-7.3-40.6-21.7-54.8-39.6
				c-7-8.9-12.7-19.2-16.8-29.8c-4.4-11.3-7.6-22.7-13.1-33.6c-10.1-20.1-25.6-37-44.4-49.3c-19.9-13.1-43.6-17-63.8-29.1
				c-27.4-16.4-46.9-43.7-54.3-74.6C26.6,179.3,36.1,137.6,56.3,105.1c5.1-8.2-7.9-15.8-13-7.6C14.9,143.4,7.6,204.3,33.1,253
				c11,20.9,28,38.4,47.9,50.9c20.1,12.6,43.8,16.5,63.9,29.1c18.6,11.6,32.5,28.7,41.9,48.4c5.1,10.8,8,22.4,12.7,33.4
				c4.7,11,11.2,21,18.6,30.4c14.7,18.6,34.6,32.4,56.6,40.9c23.5,9.1,49.4,10,74.2,6.6c53-7.2,100.3-41.4,125.5-88.3
				c23.9-44.4,28-101.7,4.2-146.9c-11.1-21.1-28.4-38.6-48.5-51.1c-10.5-6.5-21.8-10.8-33.4-15c-11.1-4-21.6-9.4-31.4-15.9
				c-18.3-12.3-32.2-29.9-41.4-49.8c-5-10.7-7.9-22.3-12.9-33c-5.1-10.8-12-20.7-19.8-29.7c-30.6-35.5-77.4-49.4-123-44.2
				C117,24.5,71,54,43.3,97.5C38.1,105.7,51.1,113.2,56.3,105.1L56.3,105.1z"/><path d="M65.6,95.8c25-51,92-42.2,133.4-18.6c23,13.1,43,31.9,58.1,53.6c7.5,10.7,12.8,22.6,19.5,33.8
				c6.4,10.8,14,20.9,22.3,30.4c17.1,19.4,38.3,35,61.2,46.8c23.8,12.3,44.3,29.7,61,50.6c16.6,20.8,27.5,45.5,31.6,71.8
				c3.7,23.5-0.2,49.5-16.5,67.6c-16.3,18.1-41.2,23-64.6,21.3c-26.5-1.9-51.3-12.9-72.7-28.2c-21.6-15.5-39.7-36.2-52.6-59.4
				c-6.3-11.3-11.9-22.8-19.4-33.5c-7.2-10.4-15.5-20-24.6-28.7c-15.7-15.1-33.9-26.1-53.1-36.1c-20.4-10.7-38.3-25.7-53.4-43.1
				c-14.4-16.7-25.8-36.3-32-57.5C57.2,143.9,55.4,117.8,65.6,95.8c4-8.7-8.9-16.3-13-7.6c-23.9,51.6,1.1,112.1,36.9,151.4
				c9.2,10.1,19.5,19,30.5,27c10.8,7.9,22.5,13.7,34.2,20.1c21.8,11.9,41.2,28.3,56.2,48.1c7.8,10.2,14.2,21.3,19.9,32.8
				c6,12.1,13.7,23.2,22.1,33.7c16.6,20.8,37.9,38.4,61.5,50.5c44.1,22.7,106.9,26.7,139.2-17.3c15.1-20.6,17.7-48,14.2-72.6
				c-3.8-26.8-14.7-51.8-30.6-73.5c-15.9-21.8-36.3-40.2-59.4-54.1c-11.4-6.8-23.3-12.5-34.3-20c-10.3-7.1-19.8-15.3-28.5-24.4
				c-8.5-8.8-16-18.6-22.6-29c-6.9-10.9-12.1-22.7-19.1-33.6c-14.7-22.7-34.4-42.2-56.8-57.2C174.7,42.5,111.4,29,70.6,64.3
				c-7.6,6.5-13.6,15-18,23.9C48.4,96.9,61.3,104.5,65.6,95.8L65.6,95.8z"/><path d="M444.8,433.9c-20.1-20.1-40.2-40.2-60.2-60.2c-43.6-43.6-87.2-87.2-130.9-130.9c-42.3-42.3-84.5-84.5-126.8-126.8
				c-16.3-16.3-32.5-32.5-48.8-48.8c-6.8-6.8-17.5,3.8-10.6,10.6c20.1,20.1,40.2,40.2,60.2,60.2c43.6,43.6,87.2,87.2,130.9,130.9
				c42.3,42.3,84.5,84.5,126.8,126.8c16.3,16.3,32.5,32.5,48.8,48.8C441,451.4,451.6,440.8,444.8,433.9L444.8,433.9z"/></svg>