<svg xmlns="http://www.w3.org/2000/svg" enable-background="new 0 0 512 512" version="1" viewBox="0 0 512 512"><path d="M46 129.3c.2 5.9.7 11.9 1.3 17.8.4 4.1 3.1 7.5 7.5 7.5 3.8 0 7.9-3.4 7.5-7.5-.6-5.9-1.1-11.9-1.3-17.8C60.6 119.7 45.6 119.7 46 129.3L46 129.3zM52.4 176.6c7.1 27.9 20.4 53.6 40.8 74.1 18.6 18.8 42.8 31.8 68.3 38.6 23.9 6.3 49.9 3.9 74.4 3.9 21.2 0 42.4 0 63.6 0 13.5 0 28.2-1.7 41.2 2.3 24.2 7.3 37.4 33.9 31.1 57.8-3.4 13.1-12.8 23.6-24.6 29.8-8.6 4.5-1 17.5 7.6 13 22.3-11.8 35.7-36.1 33.4-61.3-2.5-26.6-22.2-48.7-48-55-13-3.2-27.5-1.6-40.8-1.6-11.8 0-23.6 0-35.3 0-21.4 0-42.7 0-64.1 0-5.4 0-10.8.4-16.2 0-4-.3-4.2-.4-8.4-1.1-4.5-.8-9-1.9-13.4-3.1-25.6-7.2-48.6-21.9-65.9-42.1-14.5-16.9-23.7-37.7-29.2-59.2C64.5 163.2 50 167.2 52.4 176.6L52.4 176.6z"/><path d="M71.3,112.8c44.1,0,88.2,0,132.3,0c20.3,0,40.5,0,60.8,0c15.6,0,31.3,0,46.9,0c14.1,0,28.1-0.1,42,2.4
				c21.6,3.9,41.9,12.7,60,25.2c8.4,5.8,16,12.7,23,20c3.5,3.6,6.8,7.5,9.8,11.5c3.1,4,6,11.3,11.9,11.3c-2.2-1.2-4.3-2.5-6.5-3.7
				c1.4,2.8,3.5,5.4,5.1,8.2c-0.3-1.3-0.7-2.5-1-3.8c0,3,2.1,5.7,3.5,8.2c1.7,3.1,3.3,6.4,4.8,9.6c3.3,7.2,5.9,14.7,8,22.3
				c4.1,14.5,5.7,29.4,5.3,44.4c-0.5,22.6-6.4,45-16.8,65.1c-20.6,39.9-58.5,68.6-102.1,78.5c-2.7,0.6-5.4,1.1-8.2,1.6
				c-9.5,1.6-5.5,16.1,4,14.5c45.4-7.8,85.6-34.7,111-73c28.6-43,34.6-98.8,17.2-147.2c-3.4-9.6-7.8-18.9-12.9-27.7
				c0.3,1.3,0.7,2.5,1,3.8c0-4.6-4.3-8.1-6.2-12c-1.2-2.3-4-3.7-6.5-3.7c0,0,0,0,0,0c2.2,1.2,4.3,2.5,6.5,3.7
				c-30.8-45.4-81.6-73.2-136.6-74.2c-25.2-0.4-50.5,0-75.7,0c-43.3,0-86.6,0-129.9,0c-17,0-34,0-51.1,0
				C61.7,97.8,61.7,112.8,71.3,112.8L71.3,112.8z"/><path d="M181,150.4c8.1,0,8,12.1,0,12.4C172.9,163.3,173,150.8,181,150.4c9.6-0.5,9.7-15.5,0-15c-11.5,0.5-21.2,9.3-21.2,21.2
				c0,11.5,9.7,21.2,21.2,21.2s21.2-9.7,21.2-21.2s-9.7-21.2-21.2-21.2C171.3,135.4,171.3,150.4,181,150.4z"/><path d="M256.6 196.1c-.9 30.4-10.4 59.4-25.4 85.7 2.2-1.2 4.3-2.5 6.5-3.7-10.8 0-21.6 0-32.4 0 2.2 3.8 4.3 7.5 6.5 11.3 20.6-30.5 33.6-65.8 32.5-102.9-.9-30-11.4-60.8-29.2-85-2.2 3.8-4.3 7.5-6.5 11.3 10.9 0 21.7 0 32.6 0-2.2-1.2-4.3-2.5-6.5-3.7C249.6 135.7 257.3 165.6 256.6 196.1c-.2 9.7 14.8 9.7 15 0 .7-33.1-7.8-65.8-24-94.7-1.3-2.3-3.9-3.7-6.5-3.7-10.9 0-21.7 0-32.6 0-5.2 0-10 6.6-6.5 11.3 16.4 22.3 25.9 49.8 27.1 77.4 1.6 34.5-11.4 67.2-30.4 95.4-3.2 4.8 1.1 11.3 6.5 11.3 10.8 0 21.6 0 32.4 0 2.6 0 5.2-1.4 6.5-3.7 16.3-28.6 26.4-60.3 27.5-93.3C271.9 186.5 256.9 186.5 256.6 196.1zM340.7 108.8c10.4 60-1.2 124.4-41.3 171.6-4.1 4.8-1.6 12.8 5.3 12.8 11.3 0 23-.8 34.3.5 2.7.3 5.1-1.7 6.5-3.7 35.6-51.7 46.4-114.8 38.9-176.4-.5-4.1-3-7.5-7.5-7.5-3.7 0-8 3.4-7.5 7.5 3.6 29.6 3.5 59.4-2.6 88.7-6 28.8-17.6 56-34.3 80.2 2.2-1.2 4.3-2.5 6.5-3.7-11.2-1.3-23-.5-34.3-.5 1.8 4.3 3.5 8.5 5.3 12.8 43.9-51.6 56.6-120.5 45.2-186.2C353.5 95.3 339 99.3 340.7 108.8L340.7 108.8zM376.7 318.2c26-12.1 50-28.4 67.1-51.7 16.9-23.1 27-54 27-82.7 0-9.7-15-9.7-15 0 0 25.9-9.3 52.7-24 73.8-15.2 21.9-38.9 36.5-62.6 47.6C360.3 309.4 367.9 322.3 376.7 318.2L376.7 318.2z"/><path d="M384.8 344.7c24.5-11.1 48-25.4 66.8-44.8 17.4-18.1 30-40.3 37.7-64 3-9.2-11.5-13.1-14.5-4-7 21.4-18.4 41-33.9 57.4-17.6 18.7-40.5 32-63.7 42.5-3.7 1.7-4.6 7-2.7 10.3C376.7 345.8 381.1 346.4 384.8 344.7L384.8 344.7zM344.8 395.6c0 9.1 0 18.3 0 27.4 2.5-2.5 5-5 7.5-7.5-.1 0-.2 0-.3 0-4.4 0-7 3.4-7.5 7.5-2 17.3-12.6 32.3-27.6 40.9-10.4 6-21.6 6.8-33.2 6.8-20 0-40 0-59.9 0 2.5 2.5 5 5 7.5 7.5 0-7 0-14 0-21 0-16.9 7.9-32.1 20.8-42.7 2.9-2.4 2.9-8.2 0-10.6-12.5-10.4-20.2-24.8-20.8-41.1-.3-7.5 0-15.1 0-22.6-2.5 2.5-5 5-7.5 7.5 20 0 40 0 59.9 0 11.2 0 21.8.9 32 6.2 15.6 8.1 26.7 24.1 28.7 41.6.5 4.1 3.1 7.5 7.5 7.5.1 0 .2 0 .3 0 9.7 0 9.7-15 0-15-.1 0-.2 0-.3 0 2.5 2.5 5 5 7.5 7.5-2.4-20.6-12.6-38.1-29.4-50.3-12.6-9.2-27.8-12.5-43-12.5-21.1 0-42.2 0-63.3 0-4.1 0-7.5 3.4-7.5 7.5 0 8.6-.4 17.2.2 25.8 1.2 18.8 10.5 36.6 25 48.5 0-3.5 0-7.1 0-10.6-14.4 11.9-22.7 28.6-24.9 47-1 9-.3 18.3-.3 27.4 0 4.1 3.4 7.5 7.5 7.5 21.1 0 42.2 0 63.3 0 15 0 29.3-3.3 41.9-11.7 17.5-11.6 28.1-30.4 30.5-51.1-2.5 2.5-5 5-7.5 7.5.1 0 .2 0 .3 0 4.1 0 7.5-3.4 7.5-7.5 0-9.1 0-18.3 0-27.4C359.8 385.9 344.8 385.9 344.8 395.6z"/><path d="M352.3 403.1c9.7 0 9.7-15 0-15C342.7 388.1 342.7 403.1 352.3 403.1L352.3 403.1zM269.7 45.5c-48.7 0-97.4 0-146.1 0-21.1 0-42.2 0-63.3 0-16.7 0-31.7 10.6-34.8 27.5-2.1 11.5 2 23.4 10.7 31.2 7.6 6.9 17 8.5 26.9 8.5 2.8 0 5.6 0 8.3 0 9.7 0 9.7-15 0-15-6.2 0-12.9.8-18.9-1C43 94 38.3 83.5 40.4 74.4c2-8.2 9.8-13.9 18.1-13.9 1.6 0 3.3 0 4.9 0 23.8 0 47.7 0 71.5 0 44.9 0 89.8 0 134.7 0C279.3 60.5 279.3 45.5 269.7 45.5L269.7 45.5z"/><g><path d="M66.9,172.6c-1.6-9.1-3.2-18.3-4.9-27.4c-1.7-9.5-16.1-5.5-14.5,4c1.6,9.1,3.2,18.3,4.9,27.4
				C54.1,186.1,68.5,182,66.9,172.6L66.9,172.6z"/></g><g><path d="M61,131.1c-1.2-9.1-2.3-18.1-3.5-27.2c-0.5-4.1-3-7.5-7.5-7.5c-3.7,0-8,3.4-7.5,7.5c1.2,9.1,2.3,18.1,3.5,27.2
				c0.5,4.1,3,7.5,7.5,7.5C57.2,138.6,61.5,135.1,61,131.1L61,131.1z"/></g></svg>