<svg xmlns="http://www.w3.org/2000/svg" id="Layer_1" width="28" height="28" viewBox="0 0 28 28"><path id="circle3922-0-1-0" fill-rule="evenodd" d="M 14 0 A 14 14 0 0 0 0 14 A 14 14 0 0 0 14 28 A 14 14 0 0 0 28 14 A 14 14 0 0 0 14 0 z M 10.970703 6.0253906 C 11.229415 6.0253906 11.561292 6.1126949 11.730469 6.4511719 L 11.675781 6.3652344 L 14.675781 10.164062 L 14.677734 10.169922 L 14.681641 10.173828 C 14.951641 10.533828 14.951562 10.984042 14.802734 11.324219 C 14.653908 11.664397 14.332812 11.974609 13.882812 11.974609 L 12.482422 11.974609 L 12.482422 17.974609 C 12.482422 18.23572 12.387734 18.502891 12.199219 18.691406 C 12.010704 18.879919 11.743533 18.974609 11.482422 18.974609 L 10.482422 18.974609 C 10.221311 18.974609 9.9541403 18.87992 9.765625 18.691406 C 9.5771099 18.502891 9.4824219 18.23572 9.4824219 17.974609 L 9.4824219 11.974609 L 7.9824219 11.974609 C 7.5324219 11.974609 7.2129429 11.629045 7.0898438 11.300781 C 6.9667451 10.972517 6.9602285 10.601034 7.1347656 10.251953 L 7.1582031 10.205078 L 10.208984 6.3417969 L 10.228516 6.3203125 C 10.446367 6.1024605 10.71199 6.0253906 10.970703 6.0253906 z M 10.931641 7.0390625 L 8.0292969 10.716797 C 8.0087249 10.774082 8.0005756 10.883039 8.0253906 10.949219 C 8.0341906 10.972709 8.0318717 10.970609 8.03125 10.974609 L 10.482422 10.974609 L 10.482422 11.673828 L 10.482422 17.974609 L 11.482422 17.974609 L 11.482422 11.673828 L 11.482422 10.974609 L 13.882812 10.974609 C 13.832802 10.974609 13.860539 10.983648 13.886719 10.923828 C 13.912899 10.864 13.912812 10.815391 13.882812 10.775391 L 10.931641 7.0390625 z M 17.482422 7.9746094 L 18.482422 7.9746094 C 18.743533 7.9746094 19.010704 8.0692975 19.199219 8.2578125 C 19.387732 8.4463275 19.482422 8.7134984 19.482422 8.9746094 L 19.482422 14.974609 L 20.982422 14.974609 C 21.432422 14.974609 21.7519 15.320168 21.875 15.648438 C 21.9981 15.976701 22.004611 16.348196 21.830078 16.697266 L 21.806641 16.744141 L 18.798828 20.552734 C 18.61349 20.830742 18.299089 21 17.982422 21 C 17.665755 21 17.351354 20.830742 17.166016 20.552734 L 14.189453 16.785156 L 14.228516 16.828125 C 13.901739 16.501348 13.914084 16.027577 14.066406 15.701172 C 14.218728 15.37477 14.532422 15.074219 14.982422 15.074219 L 16.382812 15.074219 L 16.382812 8.8925781 L 16.408203 8.8164062 C 16.550367 8.3899152 16.9602 7.9746094 17.482422 7.9746094 z M 17.482422 8.9746094 C 17.420172 8.9746094 17.412322 9.0165125 17.382812 9.1015625 L 17.382812 15.375 L 17.382812 16.074219 L 14.982422 16.074219 C 15.032362 16.074219 14.995336 16.074447 14.972656 16.123047 C 14.963786 16.142027 14.961584 16.14354 14.958984 16.144531 L 17.982422 19.972656 L 20.935547 16.232422 C 20.956097 16.175138 20.964273 16.06618 20.939453 16 C 20.930653 15.97651 20.932972 15.978609 20.933594 15.974609 L 18.482422 15.974609 L 18.482422 15.275391 L 18.482422 8.9746094 L 17.482422 8.9746094 z "/></svg>