<svg xmlns="http://www.w3.org/2000/svg" id="Layer_1" width="28" height="28" viewBox="0 0 28 28"><path id="circle3934-5-9-7" fill-rule="evenodd" d="M 14 0 A 14 14 0 0 0 0 14 A 14 14 0 0 0 14 28 A 14 14 0 0 0 28 14 A 14 14 0 0 0 14 0 z M 14.449219 6.0292969 C 15.69309 6.0292969 16.787426 7.2765236 17.480469 9.2128906 C 17.703603 9.1842106 17.931209 9.1416862 18.148438 9.1289062 C 19.948437 9.0289062 21.148438 9.5296877 21.648438 10.429688 C 22.183308 11.445942 21.722978 12.775625 20.587891 14.115234 C 21.654313 15.429232 22.069001 16.740188 21.548828 17.728516 C 21.148828 18.528516 20.048828 19.029297 18.548828 19.029297 L 18.048828 19.029297 C 17.854163 19.017127 17.64246 18.975829 17.439453 18.949219 C 16.744412 20.823759 15.670039 22.029297 14.449219 22.029297 C 13.228923 22.029297 12.156014 20.824317 11.460938 18.951172 C 11.257084 18.976242 11.048469 19.017597 10.849609 19.029297 L 10.349609 19.029297 C 8.8496091 19.029297 7.7496094 18.528516 7.3496094 17.728516 C 6.8296399 16.740574 7.2431086 15.455883 8.3085938 14.154297 C 7.1744939 12.803898 6.7153375 11.445545 7.25 10.429688 C 7.75 9.4296877 8.9500003 9.0289063 10.75 9.1289062 C 10.963102 9.1422262 11.19298 9.1862069 11.416016 9.2167969 C 12.108966 7.2779989 13.204447 6.0292969 14.449219 6.0292969 z M 14.449219 7.0292969 C 13.734548 7.0292969 12.967175 7.9280005 12.414062 9.3984375 C 13.061209 9.5473705 13.731338 9.7498796 14.417969 10.005859 C 15.109983 9.7423366 15.80026 9.5346056 16.478516 9.3847656 C 15.92575 7.9225796 15.161669 7.0292969 14.449219 7.0292969 z M 10.349609 10.029297 C 9.2496091 10.029297 8.4500001 10.330078 8.25 10.830078 C 7.9585967 11.412885 8.2664259 12.327126 9.0742188 13.318359 C 9.5639352 12.844652 10.152008 12.38179 10.792969 11.933594 C 10.876437 11.273602 10.997433 10.65704 11.152344 10.080078 C 11.019687 10.065638 10.878505 10.037897 10.75 10.029297 L 10.349609 10.029297 z M 18.148438 10.029297 C 18.018363 10.037967 17.879111 10.067341 17.746094 10.082031 C 17.897811 10.647445 18.016389 11.251175 18.099609 11.896484 C 18.761413 12.351349 19.370686 12.825742 19.871094 13.316406 C 20.72481 12.296977 21.048636 11.377578 20.75 10.830078 C 20.45 10.330078 19.648828 10.029297 18.548828 10.029297 L 18.148438 10.029297 z M 12.138672 10.230469 C 12.05097 10.546072 11.968774 10.868314 11.902344 11.220703 C 12.181861 11.055075 12.451975 10.884979 12.75 10.728516 C 12.914379 10.646326 13.082228 10.580936 13.248047 10.503906 C 12.870988 10.390642 12.502145 10.304509 12.138672 10.230469 z M 16.759766 10.234375 C 16.399135 10.30992 16.032854 10.399932 15.65625 10.515625 C 15.82066 10.588962 15.983833 10.650546 16.148438 10.728516 C 16.445631 10.877112 16.71535 11.041374 16.994141 11.201172 C 16.928737 10.856943 16.845516 10.543353 16.759766 10.234375 z M 14.46875 10.933594 C 14.035841 11.107691 13.595197 11.305918 13.148438 11.529297 C 12.644225 11.788217 12.181676 12.060493 11.746094 12.339844 C 11.688504 12.877357 11.648438 13.436468 11.648438 14.029297 C 11.648438 14.564847 11.676053 15.077548 11.720703 15.568359 C 12.192751 15.867275 12.694409 16.159399 13.25 16.429688 C 13.655647 16.644441 14.066914 16.832755 14.478516 17.001953 C 14.895794 16.832591 15.319942 16.644717 15.75 16.429688 C 16.262845 16.166335 16.73201 15.887907 17.173828 15.603516 C 17.220648 15.101709 17.25 14.578199 17.25 14.029297 C 17.25 13.422299 17.206724 12.851612 17.146484 12.302734 C 16.712592 12.034632 16.251874 11.773452 15.75 11.529297 C 15.32761 11.305679 14.897352 11.107824 14.46875 10.933594 z M 14.449219 12.529297 C 15.271724 12.529297 15.949219 13.206792 15.949219 14.029297 C 15.949219 14.851802 15.271724 15.529297 14.449219 15.529297 C 13.626714 15.529297 12.949219 14.851802 12.949219 14.029297 C 12.949219 13.206792 13.626714 12.529297 14.449219 12.529297 z M 18.201172 13.015625 C 18.220952 13.350859 18.25 13.680916 18.25 14.029297 C 18.25 14.321294 18.222944 14.596013 18.208984 14.878906 C 18.613297 14.56682 18.961523 14.254474 19.277344 13.943359 C 18.959323 13.633041 18.608872 13.322452 18.201172 13.015625 z M 10.693359 13.074219 C 10.309951 13.369848 9.9759886 13.66774 9.671875 13.962891 C 9.9717445 14.2601 10.304922 14.556541 10.6875 14.851562 C 10.67442 14.577478 10.648438 14.311886 10.648438 14.029297 C 10.648437 13.701071 10.675779 13.390838 10.693359 13.074219 z M 14.449219 13.529297 C 14.167154 13.529297 13.949219 13.747232 13.949219 14.029297 C 13.949219 14.311362 14.167154 14.529297 14.449219 14.529297 C 14.731284 14.529297 14.949219 14.311362 14.949219 14.029297 C 14.949219 13.747232 14.731284 13.529297 14.449219 13.529297 z M 20.009766 14.757812 C 19.469203 15.291832 18.808279 15.812932 18.076172 16.314453 C 17.999812 16.862734 17.90006 17.379689 17.773438 17.869141 C 17.931158 17.887491 18.098023 17.919557 18.25 17.929688 C 19.55 18.029687 20.45 17.728906 20.75 17.128906 C 21.029647 16.569613 20.745391 15.702606 20.009766 14.757812 z M 8.9003906 14.814453 C 8.1548575 15.762832 7.8671468 16.613207 8.1484375 17.128906 C 8.4484374 17.728906 9.4500004 18.029688 10.75 17.929688 C 10.872463 17.921517 11.003832 17.894359 11.128906 17.880859 C 11.003887 17.399586 10.902582 16.891982 10.826172 16.353516 C 10.098011 15.864069 9.4394693 15.346953 8.9003906 14.814453 z M 16.970703 17.009766 C 16.730181 17.149788 16.503873 17.296405 16.25 17.429688 C 16.178011 17.465687 16.10354 17.492324 16.03125 17.527344 C 16.294189 17.599943 16.552794 17.661584 16.808594 17.714844 C 16.867081 17.486606 16.922883 17.256772 16.970703 17.009766 z M 11.931641 17.027344 C 11.979866 17.274549 12.03483 17.506074 12.09375 17.734375 C 12.356662 17.680387 12.624839 17.612519 12.896484 17.537109 C 12.813634 17.499008 12.731307 17.468947 12.648438 17.429688 C 12.39602 17.303478 12.170863 17.161735 11.931641 17.027344 z M 14.480469 18.1875 C 13.791148 18.445018 13.103886 18.653114 12.429688 18.796875 C 12.963892 20.186996 13.703073 21.029297 14.449219 21.029297 C 15.197765 21.029297 15.940056 20.181445 16.474609 18.783203 C 15.831451 18.640088 15.164352 18.438136 14.480469 18.1875 z "/></svg>