<svg xmlns="http://www.w3.org/2000/svg" id="Layer_1" width="28" height="28" viewBox="0 0 28 28"><path id="circle3928-3-1-6" d="M 14 0 A 14 14 0 0 0 0 14 A 14 14 0 0 0 14 28 A 14 14 0 0 0 28 14 A 14 14 0 0 0 14 0 z M 12.882812 6.2226562 C 13.214834 6.2202013 13.543813 6.2508969 13.865234 6.3105469 C 15.771124 6.6642449 17.412196 8.0720891 17.855469 10.048828 C 17.859829 10.065568 17.866894 10.080836 17.871094 10.097656 A 0.50005 0.50005 0 0 1 17.880859 10.144531 A 0.50005 0.50005 0 0 1 17.386719 10.732422 L 13.671875 11.582031 L 14.878906 17.21875 L 14.986328 17.21875 L 19.486328 17.21875 C 19.897439 17.21875 20.288438 17.36461 20.564453 17.640625 C 20.840468 17.91664 20.986328 18.307639 20.986328 18.71875 C 20.986328 19.129861 20.840468 19.522813 20.564453 19.798828 C 20.288438 20.074844 19.897439 20.21875 19.486328 20.21875 L 18.955078 20.21875 L 19.384766 21.019531 C 19.484766 21.219531 19.385547 21.61875 19.185547 21.71875 C 18.885547 21.81875 18.586328 21.719531 18.486328 21.519531 L 17.720703 20.21875 L 17.486328 20.21875 L 12.384766 20.21875 L 12.150391 20.21875 L 11.384766 21.519531 C 11.184766 21.819531 10.885547 21.81875 10.685547 21.71875 C 10.385547 21.51875 10.386328 21.219531 10.486328 21.019531 L 11.011719 20.166016 C 10.818196 20.096448 10.65712 19.969735 10.5625 19.863281 C 10.425845 19.709545 10.343138 19.583373 10.232422 19.472656 L 7.4316406 16.673828 C 6.8548639 16.097052 6.8548639 15.143183 7.4316406 14.566406 C 7.7200289 14.278018 8.1037456 14.132812 8.4863281 14.132812 C 8.8689106 14.132812 9.2525851 14.278013 9.5410156 14.566406 L 12.195312 17.21875 L 13.882812 17.21875 L 12.732422 11.796875 L 10.498047 12.306641 A 0.50005 0.50005 0 0 1 10.494141 12.306641 L 8.8046875 12.681641 A 0.50005 0.50005 0 0 1 8.0957031 12.322266 C 7.9690101 11.714139 7.9707059 11.103338 8.0605469 10.511719 C 8.0664869 10.473795 8.0635325 10.434204 8.0703125 10.396484 C 8.4072172 8.4672974 9.8186954 6.7948642 11.814453 6.3476562 A 0.50005 0.50005 0 0 1 11.833984 6.3417969 A 0.50005 0.50005 0 0 1 11.882812 6.3300781 A 0.50005 0.50005 0 0 1 11.939453 6.3203125 C 12.253665 6.2585925 12.569645 6.2249562 12.882812 6.2226562 z M 12.193359 7.3066406 C 12.143499 7.3177206 12.065812 7.3609779 11.962891 7.5449219 C 11.859969 7.7288659 11.761558 8.0338777 11.705078 8.4179688 C 11.606555 9.0879047 11.634863 9.999252 11.800781 10.984375 L 14.091797 10.458984 C 13.811501 9.4717864 13.448824 8.6284145 13.080078 8.0703125 C 12.871873 7.7551915 12.661918 7.5316896 12.498047 7.4160156 C 12.334175 7.3003406 12.250879 7.2938606 12.193359 7.3066406 z M 13.763672 7.3203125 C 13.813776 7.3887105 13.867336 7.4458613 13.916016 7.5195312 C 14.373346 8.2117063 14.765016 9.1520031 15.066406 10.236328 L 16.677734 9.8691406 C 16.230549 8.7305886 15.348173 7.8564105 14.257812 7.4609375 C 14.095917 7.4059225 13.932021 7.3554925 13.763672 7.3203125 z M 10.804688 7.8613281 C 10.787698 7.8726581 10.768753 7.8809881 10.751953 7.8925781 C 9.6109694 8.6991381 8.960296 10.136221 9.0703125 11.599609 L 10.275391 11.332031 L 10.826172 11.207031 C 10.636047 10.117177 10.595217 9.0982314 10.716797 8.2714844 C 10.738267 8.1254724 10.773357 7.9956711 10.804688 7.8613281 z M 8.484375 15.105469 C 8.3668409 15.105469 8.2502836 15.161826 8.1386719 15.273438 C 7.9154486 15.49666 7.9154486 15.743574 8.1386719 15.966797 L 10.939453 18.765625 C 11.128736 18.954909 11.245254 19.127959 11.308594 19.199219 C 11.325494 19.218161 11.316859 19.21395 11.318359 19.21875 L 12.384766 19.21875 L 17.486328 19.21875 L 18.585938 19.21875 L 19.486328 19.21875 C 19.675217 19.21875 19.783432 19.165787 19.857422 19.091797 C 19.931408 19.017812 19.986328 18.907639 19.986328 18.71875 C 19.986328 18.529861 19.931402 18.421646 19.857422 18.347656 C 19.783437 18.27367 19.675217 18.21875 19.486328 18.21875 L 14.986328 18.21875 L 13.986328 18.21875 L 11.779297 18.21875 L 8.8320312 15.273438 C 8.7204196 15.161829 8.601909 15.105469 8.484375 15.105469 z "/></svg>