<svg xmlns="http://www.w3.org/2000/svg" id="Layer_1" width="28" height="28" viewBox="0 0 28 28"><path id="circle3926-2-6-1" fill-rule="evenodd" d="M 14 0 A 14 14 0 0 0 0 14 A 14 14 0 0 0 14 28 A 14 14 0 0 0 28 14 A 14 14 0 0 0 14 0 z M 9.8515625 6.5 C 10.684615 6.5 11.515576 6.8525217 12.050781 7.5117188 C 12.650512 7.3114747 13.287415 7.1992188 13.949219 7.1992188 C 14.646868 7.1992188 15.31889 7.3289355 15.945312 7.5546875 C 16.456865 6.8984795 17.23716 6.5 18.148438 6.5 C 19.704847 6.5 20.949219 7.7443713 20.949219 9.3007812 C 20.949219 10.284063 20.427555 11.078233 19.714844 11.574219 C 19.864029 12.092712 19.949219 12.637124 19.949219 13.199219 C 19.949219 13.422843 19.909679 13.749246 19.855469 14.0625 C 20.433975 14.715565 20.851562 15.523073 20.851562 16.400391 C 20.851562 17.760536 19.99052 18.934988 18.730469 19.734375 C 17.470418 20.533762 15.784933 21 13.949219 21 C 12.113505 21 10.429973 20.533762 9.1699219 19.734375 C 7.9098706 18.934988 7.0507812 17.760536 7.0507812 16.400391 C 7.0507812 15.523073 7.4664162 14.715565 8.0449219 14.0625 C 7.9907089 13.749246 7.9511719 13.422843 7.9511719 13.199219 C 7.9511719 12.608013 8.0388406 12.041396 8.1953125 11.505859 C 7.5311417 11.005507 7.0507812 10.240792 7.0507812 9.3007812 C 7.0507812 7.7443712 8.2951523 6.5 9.8515625 6.5 z M 9.8515625 7.5 C 8.8079728 7.5 8.0507812 8.2571922 8.0507812 9.3007812 C 8.0507812 9.8151053 8.2516904 10.227029 8.5742188 10.541016 C 9.1210178 9.4353666 9.9905025 8.5290802 11.060547 7.9414062 C 10.731621 7.6661592 10.295302 7.5 9.8515625 7.5 z M 18.148438 7.5 C 17.58992 7.5 17.174599 7.6642844 16.867188 7.9746094 C 17.937917 8.5809984 18.805681 9.5076895 19.345703 10.617188 C 19.71662 10.295372 19.949219 9.8576992 19.949219 9.3007812 C 19.949219 8.2571922 19.192027 7.5 18.148438 7.5 z M 13.949219 8.1992188 C 11.215886 8.1992188 8.9511719 10.368036 8.9511719 13.199219 C 8.9511719 13.499219 8.9675536 13.867507 9.0253906 14.041016 L 9.1230469 14.335938 L 8.9042969 14.552734 C 8.3828643 15.074167 8.0507812 15.767057 8.0507812 16.400391 C 8.0507812 17.340246 8.6420825 18.215012 9.7070312 18.890625 C 10.771979 19.566238 12.284934 20 13.949219 20 C 15.613505 20 17.12842 19.566238 18.193359 18.890625 C 19.258307 18.215012 19.849609 17.340246 19.849609 16.400391 C 19.849609 15.767057 19.517527 15.074167 18.996094 14.552734 L 18.777344 14.335938 L 18.875 14.041016 C 18.93284 13.867507 18.949219 13.499219 18.949219 13.199219 C 18.949219 10.476996 16.671441 8.1992188 13.949219 8.1992188 z M 11.648438 10.800781 C 12.107136 10.800781 12.483558 11.088791 12.708984 11.439453 C 12.93441 11.790116 13.050781 12.225763 13.050781 12.699219 C 13.050781 13.172675 12.93441 13.610273 12.708984 13.960938 C 12.483558 14.311598 12.107136 14.599609 11.648438 14.599609 C 11.189739 14.599609 10.817223 14.311599 10.591797 13.960938 C 10.366372 13.610275 10.251953 13.172674 10.251953 12.699219 C 10.251953 12.225763 10.366372 11.790116 10.591797 11.439453 C 10.817223 11.088791 11.189739 10.800781 11.648438 10.800781 z M 16.25 10.800781 C 16.7087 10.800781 17.081215 11.088791 17.306641 11.439453 C 17.532067 11.790116 17.648438 12.225763 17.648438 12.699219 C 17.648438 13.172675 17.532067 13.610273 17.306641 13.960938 C 17.081215 14.311598 16.7087 14.599609 16.25 14.599609 C 15.791301 14.599609 15.418783 14.311599 15.193359 13.960938 C 14.967933 13.610275 14.851562 13.172674 14.851562 12.699219 C 14.851562 12.225763 14.967932 11.790116 15.193359 11.439453 C 15.418784 11.088791 15.791301 10.800781 16.25 10.800781 z M 11.648438 11.800781 C 11.610081 11.800781 11.533904 11.824431 11.433594 11.980469 C 11.333281 12.136507 11.251953 12.399476 11.251953 12.699219 C 11.251953 12.998962 11.333284 13.263884 11.433594 13.419922 C 11.533904 13.575959 11.610077 13.599609 11.648438 13.599609 C 11.686794 13.599609 11.766877 13.57596 11.867188 13.419922 C 11.967501 13.263884 12.050781 12.998962 12.050781 12.699219 C 12.050781 12.399476 11.967498 12.136507 11.867188 11.980469 C 11.766877 11.824431 11.686798 11.800781 11.648438 11.800781 z M 16.25 11.800781 C 16.211643 11.800781 16.133513 11.824431 16.033203 11.980469 C 15.93289 12.136507 15.851562 12.399476 15.851562 12.699219 C 15.851562 12.998962 15.932893 13.263884 16.033203 13.419922 C 16.133513 13.575959 16.21164 13.599609 16.25 13.599609 C 16.288357 13.599609 16.364534 13.57596 16.464844 13.419922 C 16.565158 13.263884 16.648438 12.998962 16.648438 12.699219 C 16.648438 12.399476 16.565154 12.136507 16.464844 11.980469 C 16.364534 11.824431 16.28836 11.800781 16.25 11.800781 z M 13.949219 14.599609 C 14.716495 14.599609 15.351562 15.232724 15.351562 16 C 15.351563 16.767276 14.716495 17.400391 13.949219 17.400391 C 13.181943 17.400391 12.550781 16.767276 12.550781 16 C 12.550781 15.232724 13.181943 14.599609 13.949219 14.599609 z M 13.949219 15.599609 C 13.722383 15.599609 13.550781 15.773164 13.550781 16 C 13.550781 16.226836 13.722383 16.400391 13.949219 16.400391 C 14.176055 16.400391 14.351562 16.226836 14.351562 16 C 14.351563 15.773164 14.176055 15.599609 13.949219 15.599609 z M 17.134766 16.855469 C 17.18302 16.846886 17.234833 16.847535 17.287109 16.859375 C 17.35681 16.875159 17.428909 16.911249 17.505859 16.974609 C 17.813665 17.228041 17.748828 17.499219 17.548828 17.699219 C 16.548828 18.699219 15.349219 19.199219 13.949219 19.199219 C 12.549219 19.199219 11.351562 18.699219 10.351562 17.699219 C 10.151563 17.499219 10.151563 17.199609 10.351562 17.099609 C 10.551563 16.899609 10.849219 16.899609 10.949219 17.099609 C 11.749219 17.899609 12.751563 18.300781 13.851562 18.300781 C 14.951563 18.300781 16.05 17.899609 16.75 17.099609 C 16.8625 16.987106 16.990003 16.881217 17.134766 16.855469 z "/></svg>