<svg xmlns="http://www.w3.org/2000/svg" id="Layer_1" width="28" height="28" viewBox="0 0 28 28"><path id="circle3934-5-9-7" fill-rule="evenodd" d="M 14 0 A 14 14 0 0 0 0 14 A 14 14 0 0 0 14 28 A 14 14 0 0 0 28 14 A 14 14 0 0 0 14 0 z M 11.5 8 L 16.5 8 C 16.8 8 17 8.2 17 8.5 L 17 10 L 20 10 C 20.416667 10 20.774948 10.192917 21.041016 10.458984 C 21.307083 10.725052 21.5 11.083333 21.5 11.5 L 21.5 18.5 C 21.5 19.377778 20.766667 20 20 20 L 8 20 C 7.2333333 20 6.5 19.377778 6.5 18.5 L 6.5 11.5 C 6.5 10.622222 7.2333333 10 8 10 L 11 10 L 11 8.5 C 11 8.2 11.2 8 11.5 8 z M 12 9 L 12 10 L 16 10 L 16 9 L 12 9 z M 8 11 C 7.7666667 11 7.5 11.177778 7.5 11.5 L 7.5 13.5 C 7.5 13.688889 7.5549215 13.797109 7.6289062 13.871094 C 7.702891 13.945078 7.8111111 14 8 14 L 12 14 C 12 13.738889 12.094688 13.471718 12.283203 13.283203 C 12.471718 13.09469 12.738889 13 13 13 L 15 13 C 15.261111 13 15.528282 13.094688 15.716797 13.283203 C 15.90531 13.471718 16 13.738889 16 14 L 20 14 C 20.188889 14 20.297109 13.945078 20.371094 13.871094 C 20.44508 13.797109 20.5 13.688889 20.5 13.5 L 20.5 11.5 C 20.5 11.416667 20.442917 11.274948 20.333984 11.166016 C 20.225052 11.05708 20.08333 11 20 11 L 8 11 z M 13 14 L 13 15 L 15 15 L 15 14 L 13 14 z M 7.5 14.917969 L 7.5 18.5 C 7.5 18.822222 7.7666667 19 8 19 L 20 19 C 20.233333 19 20.5 18.822222 20.5 18.5 L 20.5 14.917969 C 20.340904 14.968669 20.173363 15 20 15 L 16 15 C 16 15.261111 15.905312 15.528282 15.716797 15.716797 C 15.528282 15.90531 15.261111 16 15 16 L 13 16 C 12.738889 16 12.471718 15.905313 12.283203 15.716797 C 12.09469 15.528282 12 15.261111 12 15 L 8 15 C 7.826637 15 7.6590958 14.968669 7.5 14.917969 z "/></svg>