<svg xmlns="http://www.w3.org/2000/svg" id="Layer_1" width="28" height="28" viewBox="0 0 28 28"><path id="circle3922-0-1-0" fill-rule="evenodd" d="M 14 0 A 14 14 0 0 0 0 14 A 14 14 0 0 0 14 28 A 14 14 0 0 0 28 14 A 14 14 0 0 0 14 0 z M 13 7.5 L 15 7.5 C 16.4 7.5 17.5 8.6 17.5 10 L 20 10 C 20.877778 10 21.5 10.777387 21.5 11.599609 L 21.5 18.599609 C 21.5 19.366276 20.822222 20 20 20 L 8 20 C 7.1777778 20 6.5 19.366276 6.5 18.599609 L 6.5 11.599609 C 6.5 10.777387 7.1222222 10 8 10 L 10.5 10 C 10.5 8.6 11.6 7.5 13 7.5 z M 13 8.5 C 12.2 8.5 11.5 9.2 11.5 10 L 16.5 10 C 16.5 9.2 15.8 8.5 15 8.5 L 13 8.5 z M 8 11 C 7.6777778 11 7.5 11.221832 7.5 11.599609 L 7.5 18.599609 C 7.5 18.832943 7.6222222 19 8 19 L 20 19 C 20.377778 19 20.5 18.832943 20.5 18.599609 L 20.5 11.599609 C 20.5 11.221832 20.322222 11 20 11 L 17.5 11 L 16.5 11 L 11.5 11 L 10.5 11 L 8 11 z "/></svg>