<svg xmlns="http://www.w3.org/2000/svg" id="Layer_1" width="28" height="28" viewBox="0 0 28 28"><path id="circle3926-2-6-1" fill-rule="evenodd" d="M 14 0 A 14 14 0 0 0 0 14 A 14 14 0 0 0 14 28 A 14 14 0 0 0 28 14 A 14 14 0 0 0 14 0 z M 11.300781 6 L 13.5 6 L 15.5 6 L 17.599609 6 C 18.832943 6 19.848346 6.8941335 20.089844 8.1015625 C 20.091244 8.1073985 20.09255 8.1132606 20.09375 8.1191406 L 20.724609 12 L 20.5 12 C 20.916667 12 21.274948 12.192917 21.541016 12.458984 C 21.807083 12.725052 22 13.083333 22 13.5 L 22 17.5 C 22 17.911111 21.85414 18.30211 21.578125 18.578125 C 21.30211 18.85414 20.911111 19 20.5 19 L 20 19 L 20 19.5 C 20 20.377778 19.266667 21 18.5 21 C 18.083333 21 17.725052 20.807083 17.458984 20.541016 C 17.192917 20.274948 17 19.916667 17 19.5 L 17 19 L 12 19 L 12 19.5 C 12 20.377778 11.266667 21 10.5 21 C 10.083333 21 9.7250518 20.807083 9.4589844 20.541016 C 9.192917 20.274948 9 19.916667 9 19.5 L 9 19 L 8.5 19 C 8.0888889 19 7.6978903 18.85414 7.421875 18.578125 C 7.1458597 18.30211 7 17.911111 7 17.5 L 7 13.5 C 7 12.834424 7.4699741 12.196387 8.1679688 12.039062 L 8.8066406 8.1191406 C 8.8078406 8.1132576 8.8091369 8.1074025 8.8105469 8.1015625 C 9.052033 6.8941315 10.067448 6 11.300781 6 z M 11.300781 7 C 10.534115 7 9.9495295 7.5062591 9.7910156 8.2988281 L 9.09375 12.580078 C 9.0544192 12.822357 8.8450598 13.000271 8.5996094 13 L 8.5 13 C 8.1777778 13 8 13.266667 8 13.5 L 8 17.5 C 8 17.688889 8.0549216 17.797109 8.1289062 17.871094 C 8.2028911 17.94508 8.3111111 18 8.5 18 L 9.5 18 C 9.7761309 18.000028 9.999972 18.223869 10 18.5 L 10 19.5 C 10 19.583333 10.057083 19.725052 10.166016 19.833984 C 10.274948 19.94292 10.41667 20 10.5 20 C 10.733333 20 11 19.822222 11 19.5 L 11 18.5 C 11.000028 18.223869 11.223869 18.000028 11.5 18 L 17.5 18 C 17.776131 18.000028 17.999972 18.223869 18 18.5 L 18 19.5 C 18 19.583333 18.057083 19.725052 18.166016 19.833984 C 18.274948 19.94292 18.41667 20 18.5 20 C 18.733333 20 19 19.822222 19 19.5 L 19 18.5 C 19.000028 18.223869 19.223869 18.000028 19.5 18 L 20.5 18 C 20.688889 18 20.797104 17.945074 20.871094 17.871094 C 20.94508 17.797109 21 17.688889 21 17.5 L 21 13.5 C 21 13.416667 20.942917 13.274948 20.833984 13.166016 C 20.725052 13.05708 20.58333 13 20.5 13 L 20.300781 13 C 20.055331 13.000271 19.845971 12.822357 19.806641 12.580078 L 19.109375 8.2988281 C 18.950861 7.5062591 18.366276 7 17.599609 7 L 15.5 7 L 13.5 7 L 11.300781 7 z M 11.300781 8 L 13.400391 8 L 17.599609 8 C 17.842448 8.0002008 18.050037 8.1748405 18.091797 8.4140625 L 18.792969 12.414062 C 18.846273 12.71979 18.61112 12.999733 18.300781 13 L 15.5 13 L 13.5 13 L 10.599609 13 C 10.28927 12.999732 10.054122 12.71979 10.107422 12.414062 L 10.806641 8.4140625 C 10.848525 8.1741134 11.057205 7.9992508 11.300781 8 z M 11.720703 9 L 11.195312 12 L 13.5 12 L 15.5 12 L 17.705078 12 L 17.179688 9 L 13.400391 9 L 11.720703 9 z M 10.5 14 C 10.911111 14 11.30211 14.14586 11.578125 14.421875 C 11.85414 14.69789 12 15.088889 12 15.5 C 12 16.377778 11.266667 17 10.5 17 C 10.088889 17 9.6978903 16.85414 9.421875 16.578125 C 9.1458597 16.30211 9 15.911111 9 15.5 C 9 15.088889 9.1458597 14.69789 9.421875 14.421875 C 9.6978903 14.14586 10.088889 14 10.5 14 z M 18.5 14 C 18.911111 14 19.30211 14.14586 19.578125 14.421875 C 19.85414 14.69789 20 15.088889 20 15.5 C 20 16.377778 19.266667 17 18.5 17 C 18.088889 17 17.69789 16.85414 17.421875 16.578125 C 17.14586 16.30211 17 15.911111 17 15.5 C 17 15.088889 17.14586 14.69789 17.421875 14.421875 C 17.69789 14.14586 18.088889 14 18.5 14 z M 10.5 15 C 10.311111 15 10.202886 15.054926 10.128906 15.128906 C 10.05492 15.202891 10 15.311111 10 15.5 C 10 15.688889 10.054922 15.797109 10.128906 15.871094 C 10.202891 15.94508 10.311111 16 10.5 16 C 10.733333 16 11 15.822222 11 15.5 C 11 15.311111 10.945084 15.202886 10.871094 15.128906 C 10.797109 15.05492 10.688889 15 10.5 15 z M 18.5 15 C 18.311111 15 18.202896 15.054926 18.128906 15.128906 C 18.05492 15.202891 18 15.311111 18 15.5 C 18 15.688889 18.054922 15.797109 18.128906 15.871094 C 18.202891 15.94508 18.311111 16 18.5 16 C 18.733333 16 19 15.822222 19 15.5 C 19 15.311111 18.945074 15.202886 18.871094 15.128906 C 18.797109 15.05492 18.688889 15 18.5 15 z "/></svg>