<svg xmlns="http://www.w3.org/2000/svg" id="Layer_1" width="28" height="28" viewBox="0 0 28 28"><path id="circle3918-0-8-6" d="M 14 0 A 14 14 0 0 0 0 14 A 14 14 0 0 0 14 28 A 14 14 0 0 0 28 14 A 14 14 0 0 0 14 0 z M 13.992188 6.4921875 A 0.50005 0.50005 0 0 1 14.103516 6.5039062 C 18.172588 6.5598462 21.467477 9.8664023 21.498047 13.941406 A 0.50005 0.50005 0 0 1 21.498047 13.947266 C 21.498247 13.964376 21.5 13.980917 21.5 13.998047 C 21.5 16.607129 20.221132 18.893797 18.216797 20.236328 C 17.004445 21.118124 15.635263 21.573837 14.001953 21.498047 L 14 21.498047 L 13.998047 21.498047 C 13.990037 21.497672 13.982609 21.498449 13.974609 21.498047 A 0.50005 0.50005 0 0 1 13.9375 21.494141 C 9.8303156 21.460039 6.5 18.113146 6.5 13.998047 C 6.5000002 9.896797 9.808361 6.5601062 13.896484 6.5039062 A 0.50005 0.50005 0 0 1 13.992188 6.4921875 z M 13.5 7.5234375 C 10.139448 7.7785555 7.5000002 10.570999 7.5 13.998047 C 7.5 17.425097 10.139448 20.217538 13.5 20.472656 L 13.5 13.998047 L 13.5 7.5234375 z M 14.5 7.5234375 L 14.5 8.125 L 15.185547 7.609375 C 14.961058 7.568145 14.732006 7.5410475 14.5 7.5234375 z M 16.203125 7.8867188 L 14.5 9.5039062 L 14.5 11.009766 L 17.40625 8.4667969 C 17.028825 8.2342509 16.626796 8.0390577 16.203125 7.8867188 z M 18.121094 8.96875 L 14.5 12.306641 L 14.5 13.498047 L 14.824219 13.498047 L 18.828125 9.6542969 C 18.608248 9.4099919 18.37544 9.177285 18.121094 8.96875 z M 19.404297 10.384766 L 16.214844 13.498047 L 17.638672 13.498047 L 19.931641 11.34375 C 19.781694 11.008344 19.606509 10.687051 19.404297 10.384766 z M 20.271484 12.306641 L 19.027344 13.498047 L 20.474609 13.498047 C 20.443534 13.088704 20.374583 12.691083 20.271484 12.306641 z M 15.191406 14.498047 L 18.859375 18.242188 C 19.730454 17.235427 20.295604 15.9542 20.404297 14.498047 L 15.191406 14.498047 z M 14.5 15.222656 L 14.5 20.400391 C 15.606196 20.318218 16.605941 19.982366 17.458984 19.457031 C 17.688561 19.298572 17.916717 19.133408 18.138672 18.935547 L 14.5 15.222656 z "/></svg>