<svg xmlns="http://www.w3.org/2000/svg" id="Layer_1" width="28" height="28" viewBox="0 0 28 28"><path id="circle3922-0-1-0" fill-rule="evenodd" d="M 14 0 A 14 14 0 0 0 0 14 A 14 14 0 0 0 14 28 A 14 14 0 0 0 28 14 A 14 14 0 0 0 14 0 z M 12.5 6.9003906 C 12.8 6.9003906 13 7.1003906 13 7.4003906 L 13 8.4003906 C 13 8.7003906 12.8 8.9003906 12.5 8.9003906 C 12.2 8.9003906 12 8.7003906 12 8.4003906 L 12 7.4003906 C 12 7.1003906 12.2 6.9003906 12.5 6.9003906 z M 9.4628906 7.6386719 C 9.6563671 7.6081579 9.8386719 7.6977221 9.9511719 7.8925781 L 10.451172 8.7597656 C 10.601172 9.0195736 10.527386 9.2914062 10.267578 9.4414062 C 10.00777 9.5914068 9.7339844 9.5195741 9.5839844 9.2597656 L 9.0839844 8.3925781 C 8.9339844 8.1327701 9.0077704 7.8609375 9.2675781 7.7109375 C 9.33253 7.6734375 9.3983986 7.6488419 9.4628906 7.6386719 z M 15.771484 7.7539062 C 15.835977 7.7640862 15.901847 7.7886719 15.966797 7.8261719 C 16.226601 7.9761719 16.300391 8.2499576 16.150391 8.5097656 L 15.650391 9.375 C 15.500391 9.6348035 15.226605 9.7085938 14.966797 9.5585938 C 14.706993 9.4085943 14.633203 9.134808 14.783203 8.875 L 15.283203 8.0097656 C 15.395703 7.8149066 15.578008 7.7233963 15.771484 7.7539062 z M 7.3613281 9.7089844 C 7.4830708 9.6868204 7.614933 9.7173814 7.7382812 9.8027344 L 8.5605469 10.371094 C 8.8072436 10.541801 8.8582065 10.821662 8.6875 11.068359 C 8.5167934 11.315055 8.2388842 11.364065 7.9921875 11.193359 L 7.1699219 10.625 C 6.9232252 10.454294 6.8722622 10.176385 7.0429688 9.9296875 C 7.128322 9.8063445 7.2395855 9.7311444 7.3613281 9.7089844 z M 12.5 9.8554688 C 13.277809 9.8554687 13.982213 10.116063 14.542969 10.548828 C 15.047131 10.208994 15.640611 10 16.300781 10 C 17.957183 10 19.285864 11.26555 19.648438 12.857422 C 21.236572 13.224554 22.493883 14.573748 22.599609 16.371094 A 0.50005 0.50005 0 0 1 22.599609 16.400391 C 22.599609 18.374902 20.97451 20 19 20 L 10.199219 20 C 8.7214406 20 7.5 18.757583 7.5 17.201172 C 7.5 15.996085 8.2697579 15.066355 9.296875 14.693359 C 9.1404604 14.316392 9 13.885561 9 13.355469 C 9 11.400566 10.545098 9.8554688 12.5 9.8554688 z M 12.5 10.855469 C 11.054902 10.855469 10 11.910371 10 13.355469 C 10 13.551733 10.070739 13.708868 10.130859 13.873047 C 10.441765 13.272683 10.922789 12.793893 11.513672 12.505859 C 11.887826 12.289069 12.314529 12.15625 12.800781 12.15625 C 12.89487 12.15625 13.056535 12.213496 13.1875 12.228516 C 13.20103 12.198706 13.220005 12.175294 13.234375 12.146484 C 13.362392 11.853078 13.522412 11.57649 13.714844 11.326172 C 13.364131 11.084743 12.995594 10.855469 12.5 10.855469 z M 16.300781 11 C 15.786069 11 15.307168 11.172116 14.90625 11.449219 A 0.50005 0.50005 0 0 1 14.8125 11.546875 C 14.434245 11.84948 14.152079 12.194326 13.970703 12.654297 C 13.940163 12.739516 13.907189 12.823409 13.886719 12.912109 A 0.50005 0.50005 0 0 1 13.175781 13.248047 C 13.095038 13.207677 13.000781 13.201172 12.800781 13.201172 C 12.413114 13.201172 12.052145 13.29662 11.740234 13.466797 C 11.250851 13.776488 10.88751 14.292813 10.716797 14.882812 C 10.710427 14.914843 10.698359 14.943862 10.693359 14.976562 A 0.50005 0.50005 0 0 1 10.199219 15.400391 C 9.2769962 15.400391 8.5 16.157583 8.5 17.201172 C 8.5 18.244763 9.2769962 19 10.199219 19 L 19 19 C 20.420802 19 21.58605 17.831256 21.59375 16.412109 C 21.498105 14.942159 20.481638 13.861615 19.234375 13.695312 A 0.50005 0.50005 0 0 1 18.804688 13.265625 C 18.637583 12.01235 17.534115 11 16.300781 11 z M 6.5 12.900391 L 7.5 12.900391 C 7.8 12.900391 8 13.10039 8 13.400391 C 8 13.700391 7.8 13.900391 7.5 13.900391 L 6.5 13.900391 C 6.2 13.900391 6 13.700391 6 13.400391 C 6 13.10039 6.2 12.900391 6.5 12.900391 z "/></svg>