<svg xmlns="http://www.w3.org/2000/svg" id="Layer_1" width="28" height="28" viewBox="0 0 28 28"><path id="circle3928-3-1-6" d="M 14 0 A 14 14 0 0 0 0 14 A 14 14 0 0 0 14 28 A 14 14 0 0 0 28 14 A 14 14 0 0 0 14 0 z M 10.5 6 L 10.800781 6 L 12.199219 6 L 14.900391 6 L 16.300781 6 L 16.599609 6 C 17.01072 6 17.401724 6.1458617 17.677734 6.421875 C 17.953749 6.6978899 18.099609 7.088889 18.099609 7.5 L 18.099609 7.8007812 L 18.099609 9.1992188 L 18.099609 10.800781 C 18.099609 11.450781 17.641349 11.872564 17.277344 12.115234 L 17.251953 12.132812 L 15.107422 13.205078 A 0.50005 0.50005 0 0 1 15.199219 13.5 L 15.199219 15.5 C 15.199219 15.855556 15.150895 16.208668 14.931641 16.515625 C 14.712386 16.822582 14.311502 17 13.900391 17 C 13.425391 17 13.143759 17.154661 12.935547 17.40625 C 12.727335 17.657839 12.599609 18.040909 12.599609 18.5 C 12.599609 19.327273 13.272337 20 14.099609 20 C 15.583924 20 16.804239 19.044089 17.335938 17.714844 A 0.50005 0.50005 0 0 1 18.023438 17.453125 C 18.302322 17.592568 18.420871 17.865623 18.462891 18.054688 C 18.504901 18.243749 18.5 18.4 18.5 18.5 C 18.5 20.987879 16.373117 23 13.900391 23 C 11.427664 23 9.3007812 20.987879 9.3007812 18.5 C 9.3007812 16.496783 10.381465 15.101968 12 14.373047 L 12 13.5 A 0.50005 0.50005 0 0 1 12.015625 13.363281 L 10.460938 12.539062 L 9.4960938 12.003906 L 9.4472656 11.953125 C 9.1294145 11.635274 9 11.267057 9 10.900391 L 9 9.1992188 L 9 7.8007812 L 9 7.5 C 9 7.088889 9.1458597 6.69789 9.421875 6.421875 C 9.6978903 6.1458597 10.088888 6 10.5 6 z M 10.5 7 C 10.311111 7 10.20289 7.0549212 10.128906 7.1289062 C 10.05492 7.2028913 10 7.311111 10 7.5 L 10 7.8007812 L 10 8.8652344 L 11.816406 7 L 10.800781 7 L 10.5 7 z M 13.210938 7 L 10 10.300781 L 10 10.900391 C 10 10.930878 10.067575 11.120727 10.140625 11.216797 L 10.548828 11.443359 L 14.994141 7 L 14.900391 7 L 13.210938 7 z M 16.408203 7 L 11.466797 11.939453 L 12.589844 12.535156 L 12.71875 12.574219 L 17.099609 8.1933594 L 17.099609 7.8007812 L 17.099609 7.5 C 17.099609 7.311111 17.044693 7.2028862 16.970703 7.1289062 C 16.896717 7.0549202 16.788498 7 16.599609 7 L 16.408203 7 z M 17.099609 9.6074219 L 14.132812 12.574219 L 16.728516 11.277344 C 16.958823 11.121623 17.099609 10.948766 17.099609 10.800781 L 17.099609 9.6074219 z M 14.199219 13.654297 C 13.889138 13.801538 13.595194 13.800781 13.400391 13.800781 L 13.326172 13.800781 L 13 13.703125 L 13 14.599609 A 0.50005 0.50005 0 0 1 12.666016 15.072266 C 11.121729 15.617308 10.300781 16.666667 10.300781 18.5 C 10.300781 20.412121 11.973118 22 13.900391 22 C 15.545428 22 16.937864 20.820884 17.330078 19.292969 C 16.514423 20.255679 15.460699 21 14.099609 21 C 12.726883 21 11.599609 19.872727 11.599609 18.5 C 11.599609 17.859091 11.772272 17.242934 12.164062 16.769531 C 12.555851 16.296121 13.175391 16 13.900391 16 C 14.089278 16 14.086438 15.976634 14.117188 15.933594 C 14.147928 15.890551 14.199219 15.744444 14.199219 15.5 L 14.199219 13.654297 z "/></svg>