<svg xmlns="http://www.w3.org/2000/svg" id="Layer_1" width="28" height="28" viewBox="0 0 28 28"><path id="circle3928-3-1-6" d="M 14 0 A 14 14 0 0 0 0 14 A 14 14 0 0 0 14 28 A 14 14 0 0 0 28 14 A 14 14 0 0 0 14 0 z M 13.5 6 L 14.5 6 C 14.911111 6 15.30211 6.1458597 15.578125 6.421875 C 15.85414 6.69789 16 7.088889 16 7.5 L 16 10 L 18.5 10 C 18.911111 10 19.30211 10.14586 19.578125 10.421875 C 19.85414 10.69789 20 11.088889 20 11.5 L 20 12.5 C 20 12.911111 19.85414 13.30211 19.578125 13.578125 C 19.30211 13.85414 18.911111 14 18.5 14 L 16 14 L 16 21.5 C 16 21.911111 15.85414 22.30211 15.578125 22.578125 C 15.30211 22.85414 14.911111 23 14.5 23 L 13.5 23 C 13.088889 23 12.69789 22.85414 12.421875 22.578125 C 12.14586 22.30211 12 21.911111 12 21.5 L 12 14 L 9.5 14 C 9.0888889 14 8.6978903 13.85414 8.421875 13.578125 C 8.1458597 13.30211 8 12.911111 8 12.5 L 8 11.5 C 8 11.088889 8.1458597 10.69789 8.421875 10.421875 C 8.6978903 10.14586 9.0888889 10 9.5 10 L 12 10 L 12 7.5 C 12 7.088889 12.14586 6.69789 12.421875 6.421875 C 12.69789 6.1458597 13.088889 6 13.5 6 z M 13.5 7 C 13.311111 7 13.202891 7.0549213 13.128906 7.1289062 C 13.05492 7.2028913 13 7.311111 13 7.5 L 13 11 L 9.5 11 C 9.3111111 11 9.202891 11.054921 9.1289062 11.128906 C 9.0549215 11.202891 9 11.311111 9 11.5 L 9 12.5 C 9 12.688889 9.0549216 12.797109 9.1289062 12.871094 C 9.2028912 12.945078 9.3111111 13 9.5 13 L 13 13 L 13 21.5 C 13 21.688889 13.054922 21.797109 13.128906 21.871094 C 13.202891 21.94508 13.311111 22 13.5 22 L 14.5 22 C 14.688889 22 14.797109 21.945078 14.871094 21.871094 C 14.94508 21.797109 15 21.688889 15 21.5 L 15 13 L 18.5 13 C 18.688889 13 18.797109 12.945078 18.871094 12.871094 C 18.94508 12.797109 19 12.688889 19 12.5 L 19 11.5 C 19 11.311111 18.945078 11.202891 18.871094 11.128906 C 18.797109 11.05492 18.688889 11 18.5 11 L 15 11 L 15 7.5 C 15 7.311111 14.945078 7.2028913 14.871094 7.1289062 C 14.797109 7.0549202 14.688889 7 14.5 7 L 13.5 7 z "/></svg>