<svg xmlns="http://www.w3.org/2000/svg" id="Layer_1" width="28" height="28" viewBox="0 0 28 28"><path id="circle3934-5-9-7" fill-rule="evenodd" d="M 14 0 A 14 14 0 0 0 0 14 A 14 14 0 0 0 14 28 A 14 14 0 0 0 28 14 A 14 14 0 0 0 14 0 z M 12 6 L 16 6 A 0.50005 0.50005 0 0 1 16.5 6.5 L 16.5 9.3476562 L 18.416016 12.222656 A 0.50005 0.50005 0 0 1 18.429688 12.757812 L 15.884766 17 L 16 17 A 0.50005 0.50005 0 0 1 16.5 17.5 L 16.5 18.722656 C 17.717606 17.945751 18.5 16.591274 18.5 15 C 18.5 14.7 18.7 14.5 19 14.5 C 19.3 14.5 19.5 14.7 19.5 15 C 19.5 16.857472 18.513896 18.507907 17.083984 19.5 L 18.130859 19.5 C 18.291372 19.194287 18.592978 19 19 19 C 19.6 19 20 19.5 20 20 C 20 20.5 19.5 21 19 21 C 18.660662 21 18.333429 20.805962 18.150391 20.5 L 16.5 20.5 L 16.5 21.5 A 0.50005 0.50005 0 0 1 16 22 L 12 22 A 0.50005 0.50005 0 0 1 11.5 21.5 L 11.5 20.5 L 9.8203125 20.5 C 9.6321576 20.782797 9.3232058 21 9 21 C 8.5 21 8 20.6 8 20 C 8 19.4 8.4 19 9 19 C 9.3878553 19 9.6770649 19.217194 9.84375 19.5 L 10.916016 19.5 C 9.4861032 18.507907 8.5 16.857472 8.5 15 C 8.5 14.7 8.7 14.5 9 14.5 C 9.3 14.5 9.5 14.7 9.5 15 C 9.5 16.502822 10.28246 17.924894 11.5 18.71875 L 11.5 17.5 A 0.50005 0.50005 0 0 1 12 17 L 12.115234 17 L 9.5703125 12.757812 A 0.50005 0.50005 0 0 1 9.5839844 12.222656 L 11.5 9.3476562 L 11.5 6.5 A 0.50005 0.50005 0 0 1 12 6 z M 12.5 7 L 12.5 9 L 15.5 9 L 15.5 7 L 12.5 7 z M 12.267578 10 L 10.591797 12.513672 L 13.283203 17 L 13.5 17 L 13.5 13.800781 C 13.2 13.600781 13 13.3 13 13 C 13 12.4 13.4 12 14 12 C 14.6 12 15 12.4 15 13 C 15 13.4 14.8 13.700781 14.5 13.800781 L 14.5 17 L 14.716797 17 L 17.408203 12.513672 L 15.732422 10 L 12.267578 10 z M 12.5 18 L 12.5 21 L 15.5 21 L 15.5 18 L 12.5 18 z "/></svg>