<svg xmlns="http://www.w3.org/2000/svg" id="Layer_1" width="28" height="28" viewBox="0 0 28 28"><path id="circle3930-0-0-2" fill-rule="evenodd" d="M 14 0 A 14 14 0 0 0 0 14 A 14 14 0 0 0 14 28 A 14 14 0 0 0 28 14 A 14 14 0 0 0 14 0 z M 15.511719 7 L 20.011719 7 C 20.27283 7 20.540001 7.0946881 20.728516 7.2832031 C 20.917029 7.4717181 21.011719 7.738889 21.011719 8 L 21.011719 12.5 C 21.011719 12.761111 20.917031 13.028282 20.728516 13.216797 C 20.540001 13.40531 20.27283 13.5 20.011719 13.5 L 15.511719 13.5 C 15.250608 13.5 14.983437 13.405312 14.794922 13.216797 C 14.606409 13.028282 14.511719 12.761111 14.511719 12.5 L 14.511719 8 C 14.511719 7.738889 14.606407 7.4717181 14.794922 7.2832031 C 14.983437 7.0946901 15.250608 7 15.511719 7 z M 10.25 7.0742188 C 10.566347 7.0742187 10.956881 7.2554081 11.085938 7.6425781 L 11.058594 7.5761719 L 13.359375 12.175781 L 13.328125 12.123047 C 13.51346 12.401055 13.54085 12.777252 13.386719 13.054688 C 13.232589 13.332124 12.927994 13.5 12.611328 13.5 L 8.0117188 13.5 C 7.6867187 13.5 7.371085 13.365226 7.1796875 13.119141 C 6.9882902 12.873058 6.9396754 12.534489 7.0371094 12.242188 L 7.0488281 12.208984 L 9.3789062 7.5488281 L 9.3964844 7.5234375 C 9.6031575 7.2134275 9.9336544 7.0742188 10.25 7.0742188 z M 15.511719 8 L 15.511719 12.5 L 20.011719 12.5 L 20.011719 8 L 15.511719 8 z M 10.210938 8.1191406 L 8.0214844 12.5 L 12.402344 12.5 L 10.210938 8.1191406 z M 10.3125 14.400391 C 12.129118 14.400391 13.611328 15.882601 13.611328 17.699219 C 13.611328 19.515836 12.129118 21 10.3125 21 C 8.4958831 21 7.0117188 19.515836 7.0117188 17.699219 C 7.0117187 15.882601 8.4958832 14.400391 10.3125 14.400391 z M 15.460938 14.949219 C 15.585938 14.949219 15.7125 14.999609 15.8125 15.099609 L 17.710938 17 L 19.611328 15.099609 C 19.811328 14.899609 20.1125 14.899609 20.3125 15.099609 C 20.5125 15.299609 20.5125 15.600781 20.3125 15.800781 L 18.412109 17.699219 L 20.412109 19.699219 C 20.612109 19.899219 20.612109 20.200391 20.412109 20.400391 C 20.312109 20.500392 20.211719 20.5 20.011719 20.5 C 19.911719 20.5 19.810938 20.500391 19.710938 20.400391 L 17.710938 18.400391 L 15.710938 20.400391 C 15.610938 20.500392 15.512109 20.5 15.412109 20.5 C 15.312109 20.5 15.211719 20.500391 15.011719 20.400391 C 14.811719 20.200391 14.811719 19.899219 15.011719 19.699219 L 17.011719 17.699219 L 15.111328 15.800781 C 14.911328 15.600781 14.911328 15.299609 15.111328 15.099609 C 15.211328 14.999609 15.335938 14.949219 15.460938 14.949219 z M 10.3125 15.400391 C 9.0363233 15.400391 8.0117188 16.423042 8.0117188 17.699219 C 8.0117187 18.975396 9.0363232 20 10.3125 20 C 11.588678 20 12.611328 18.975396 12.611328 17.699219 C 12.611328 16.423042 11.588678 15.400391 10.3125 15.400391 z "/></svg>