<svg xmlns="http://www.w3.org/2000/svg" id="Layer_1" width="28" height="28" viewBox="0 0 28 28"><path id="circle3926-2-6-1" fill-rule="evenodd" d="M 14 0 A 14 14 0 0 0 0 14 A 14 14 0 0 0 14 28 A 14 14 0 0 0 28 14 A 14 14 0 0 0 14 0 z M 19.837891 4.9765625 C 20.220474 4.9765625 20.602236 5.121768 20.890625 5.4101562 L 22.589844 7.109375 C 23.166621 7.686152 23.166621 8.6400199 22.589844 9.2167969 L 22.222656 9.5839844 A 0.50005 0.50005 0 0 1 22.175781 9.6308594 L 21.990234 9.8164062 A 0.50005 0.50005 0 0 1 21.880859 9.9003906 A 0.50005 0.50005 0 0 0 21.878906 9.9023438 L 21.261719 10.46875 A 0.50005 0.50005 0 0 1 21.148438 10.644531 L 18.287109 13.505859 L 22.691406 17.910156 C 23.068183 18.286932 23.068183 18.939629 22.691406 19.316406 L 20.291016 21.716797 C 19.91424 22.093574 19.25959 22.093574 18.882812 21.716797 L 18.880859 21.714844 L 14.527344 17.265625 L 11.646484 20.146484 A 0.50005 0.50005 0 0 1 11.392578 20.337891 L 6.7929688 21.837891 A 0.50005 0.50005 0 0 1 6.1621094 21.207031 L 7.6621094 16.607422 A 0.50005 0.50005 0 0 1 8.015625 16.279297 L 10.777344 13.517578 L 6.2851562 9.1191406 L 6.2832031 9.1171875 C 5.9064264 8.7404105 5.9064264 8.0857604 6.2832031 7.7089844 L 8.6835938 5.3085938 C 8.871982 5.1202058 9.1291363 5.0273438 9.3867188 5.0273438 C 9.6443012 5.0273438 9.9014555 5.1202055 10.089844 5.3085938 L 14.539062 9.7578125 L 17.251953 7.0449219 A 0.50005 0.50005 0 0 1 17.267578 7.0253906 L 18.095703 6.1210938 A 0.50005 0.50005 0 0 1 18.183594 6.0097656 L 18.369141 5.8242188 A 0.50005 0.50005 0 0 1 18.412109 5.7832031 L 18.783203 5.4101562 C 19.071591 5.1217679 19.455309 4.9765625 19.837891 4.9765625 z M 19.835938 5.9492188 C 19.718404 5.9492187 19.601846 6.0055755 19.490234 6.1171875 L 19.105469 6.5 L 18.439453 7.2285156 L 20.771484 9.5605469 L 21.476562 8.9160156 L 21.5 8.8945312 A 0.50005 0.50005 0 0 1 21.505859 8.8886719 L 21.882812 8.5097656 C 22.106035 8.2865426 22.106036 8.0396293 21.882812 7.8164062 L 20.183594 6.1171875 C 20.071983 6.0055785 19.953471 5.9492188 19.835938 5.9492188 z M 9.3867188 6.0195312 L 6.9941406 8.4121094 L 7.7226562 9.125 L 8.4257812 8.421875 L 9.4160156 9.4101562 L 8.7226562 10.103516 L 9.7519531 11.113281 L 11.474609 9.390625 L 12.464844 10.380859 L 10.753906 12.091797 L 11.486328 12.810547 L 13.832031 10.464844 L 9.3867188 6.0195312 z M 17.638672 8.0722656 L 8.9160156 16.794922 L 9.5410156 17.419922 L 18.263672 8.6972656 L 17.638672 8.0722656 z M 19.253906 9.6875 L 10.53125 18.410156 L 11.25 19.128906 L 19.972656 10.40625 L 19.253906 9.6875 z M 17.580078 14.212891 L 15.234375 16.558594 L 15.921875 17.259766 L 16.607422 16.574219 L 17.597656 17.564453 L 16.900391 18.261719 L 17.978516 19.363281 L 19.654297 17.685547 L 20.644531 18.675781 L 18.957031 20.363281 L 19.587891 21.005859 L 21.980469 18.613281 L 17.580078 14.212891 z M 8.359375 17.693359 L 7.5253906 20.251953 L 7.7480469 20.474609 L 10.306641 19.640625 L 8.359375 17.693359 z "/></svg>