<svg xmlns="http://www.w3.org/2000/svg" id="Layer_1" width="28" height="28" viewBox="0 0 28 28"><path id="circle3918-0-8-6" d="M 14 0 A 14 14 0 0 0 0 14 A 14 14 0 0 0 14 28 A 14 14 0 0 0 28 14 A 14 14 0 0 0 14 0 z M 9.5 7 L 12.5 7 C 12.911111 7 13.30211 7.14586 13.578125 7.421875 C 13.85414 7.69789 14 8.088889 14 8.5 L 14 9 L 19.5 9 C 19.91111 9 20.302109 9.14586 20.578125 9.421875 C 20.85414 9.697891 21 10.088889 21 10.5 L 21 11.5 L 21 12.5 L 21 13 L 21 18.5 C 21 18.911111 20.85414 19.30211 20.578125 19.578125 C 20.302109 19.85414 19.91111 20 19.5 20 L 9.5 20 C 9.0888889 20 8.6978903 19.85414 8.421875 19.578125 C 8.1458597 19.30211 8 18.911111 8 18.5 L 8 12.5 L 8 10.5 L 8 8.5 C 8 8.088889 8.1458597 7.69789 8.421875 7.421875 C 8.6978903 7.14586 9.0888889 7 9.5 7 z M 9.5 8 C 9.3111111 8 9.2028913 8.0549212 9.1289062 8.1289062 C 9.0549211 8.2028912 9 8.311111 9 8.5 L 9 10.5 L 9 12.5 L 9 18.5 C 9 18.688889 9.0549213 18.797104 9.1289062 18.871094 C 9.202891 18.94508 9.3111111 19 9.5 19 C 9.6888889 19 9.7971087 18.945074 9.8710938 18.871094 C 9.9450794 18.797109 10 18.688889 10 18.5 L 10 14.5 L 10 13.5 L 10 12.5 C 10 12.088889 10.14586 11.69789 10.421875 11.421875 C 10.69789 11.14586 11.088889 11 11.5 11 L 12.5 11 L 19.5 11 C 19.673362 11 19.840903 11.031331 20 11.082031 L 20 10.5 C 20 10.311111 19.945074 10.202896 19.871094 10.128906 C 19.797109 10.05492 19.688888 10 19.5 10 L 14 10 C 13.738889 10 13.471718 9.9053119 13.283203 9.7167969 C 13.094689 9.5282809 13 9.2611106 13 9 L 13 8.5 C 13 8.311111 12.945074 8.2028912 12.871094 8.1289062 C 12.79711 8.0549202 12.688888 8 12.5 8 L 9.5 8 z M 11.5 12 C 11.311111 12 11.202897 12.054926 11.128906 12.128906 C 11.05492 12.202891 11 12.311111 11 12.5 L 11 13.5 L 11 14.5 L 11 18.5 C 11 18.673363 10.968669 18.840904 10.917969 19 L 19.5 19 C 19.688888 19 19.797105 18.945074 19.871094 18.871094 C 19.945081 18.797109 20 18.688889 20 18.5 L 20 13 L 20 12.5 C 20 12.311111 19.945074 12.202896 19.871094 12.128906 C 19.797109 12.05492 19.688888 12 19.5 12 L 12.5 12 L 11.5 12 z "/></svg>