<svg xmlns="http://www.w3.org/2000/svg" id="Layer_1" width="28" height="28" viewBox="0 0 28 28"><path id="circle3928-3-1-6" d="M 14 0 A 14 14 0 0 0 0 14 A 14 14 0 0 0 14 28 A 14 14 0 0 0 28 14 A 14 14 0 0 0 14 0 z M 14 6.5 C 17.993014 6.5 21.127596 9.662431 21.398438 13.5 L 21.5 13.5 L 21.5 14 C 21.5 17.651816 18.876217 20.655834 15.492188 21.349609 C 15.25047 21.399167 15.004645 21.435558 14.755859 21.460938 C 14.507074 21.486317 14.254496 21.5 14 21.5 C 9.9192979 21.5 6.5 18.080701 6.5 14 C 6.5 9.928069 9.8264959 6.5 14 6.5 z M 14 7.5 C 13.508553 7.5 13.032732 7.5589654 12.574219 7.6621094 L 13.800781 8.5996094 L 15.228516 7.6210938 C 14.830829 7.5446508 14.421342 7.5 14 7.5 z M 16.40625 7.9667969 L 14.400391 9.4003906 L 14.5 11.599609 L 16.5 13.099609 L 18.199219 12.400391 L 19.078125 9.9589844 C 18.381806 9.0844334 17.464681 8.3914719 16.40625 7.9667969 z M 11.462891 8.015625 C 10.376955 8.47892 9.4516041 9.2341649 8.765625 10.169922 L 9.5996094 12.298828 L 11.599609 12.900391 L 13.5 11.599609 L 13.400391 9.4003906 L 11.462891 8.015625 z M 19.765625 11.017578 L 19.199219 12.5 L 20.474609 13.507812 C 20.406703 12.620254 20.160914 11.777116 19.765625 11.017578 z M 8.1367188 11.222656 C 7.8224862 11.881487 7.6095821 12.594955 7.5332031 13.345703 C 7.5222051 13.453825 7.521175 13.56439 7.515625 13.673828 L 8.6992188 12.699219 L 8.1367188 11.222656 z M 14 12.400391 L 12.199219 13.699219 L 12.900391 15.699219 L 15 15.699219 L 15.699219 13.699219 L 14 12.400391 z M 18.599609 13.199219 L 16.800781 13.900391 L 16 16.199219 L 16.699219 17.599609 L 19.193359 17.888672 C 19.877673 16.979926 20.336065 15.888019 20.462891 14.689453 L 18.599609 13.199219 z M 9.5 13.400391 L 7.5820312 14.953125 C 7.7369073 15.950474 8.1237698 16.883223 8.6914062 17.6875 L 10.800781 17.599609 L 12 16.099609 L 11.300781 13.900391 L 9.5 13.400391 z M 12.900391 16.798828 L 11.800781 18.099609 L 12.539062 20.320312 C 13.011271 20.43412 13.498902 20.5 14 20.5 C 14.353993 20.5 14.700661 20.463913 15.041016 20.408203 L 16 18.199219 L 15.199219 16.798828 L 12.900391 16.798828 z M 16.900391 18.599609 L 16.298828 20.068359 C 17.095668 19.764052 17.819881 19.308503 18.435547 18.732422 L 16.900391 18.599609 z M 10.900391 18.699219 L 9.6445312 18.765625 C 10.147622 19.227269 10.719187 19.613211 11.341797 19.902344 L 10.900391 18.699219 z "/></svg>