<svg xmlns="http://www.w3.org/2000/svg" id="Layer_1" width="28" height="28" viewBox="0 0 28 28"><path id="circle3930-0-0-2" fill-rule="evenodd" d="M 14 0 A 14 14 0 0 0 0 14 A 14 14 0 0 0 14 28 A 14 14 0 0 0 28 14 A 14 14 0 0 0 14 0 z M 13.476562 5.9492188 C 13.737674 5.9492188 14.012639 6.0282848 14.230469 6.2460938 L 19.623047 11.240234 L 19.630859 11.246094 C 19.948708 11.563946 20.04253 12.061423 19.861328 12.423828 C 19.69463 12.757222 19.352449 12.957181 18.974609 12.988281 C 18.974709 12.992201 18.976562 12.996 18.976562 13 L 18.976562 20 C 18.976562 20.261111 18.881874 20.528282 18.693359 20.716797 C 18.504844 20.90531 18.237673 21 17.976562 21 L 14.976562 21 C 14.715452 21 14.448281 20.905312 14.259766 20.716797 C 14.071253 20.528282 13.976562 20.261111 13.976562 20 L 13.976562 17.099609 C 13.976563 17.116279 13.969477 17.074946 13.935547 17.041016 C 13.901617 17.007096 13.860283 17 13.876953 17 L 13.076172 17 C 13.092842 17 13.051508 17.007076 13.017578 17.041016 C 12.983658 17.074946 12.976562 17.116279 12.976562 17.099609 L 12.976562 20 C 12.976562 20.261111 12.881874 20.528282 12.693359 20.716797 C 12.504843 20.90531 12.237673 21 11.976562 21 L 8.9765625 21 C 8.7154514 21 8.4482778 20.905311 8.2597656 20.716797 C 8.0712505 20.528282 7.9765625 20.261111 7.9765625 20 L 7.9765625 13 C 7.9765625 12.99602 7.978472 12.992181 7.9785156 12.988281 C 7.6006754 12.957182 7.2584944 12.757223 7.0917969 12.423828 C 6.910595 12.061425 7.0044095 11.563944 7.3222656 11.246094 L 7.3300781 11.240234 L 12.722656 6.2460938 C 12.940507 6.0282387 13.215452 5.9492188 13.476562 5.9492188 z M 13.476562 6.9492188 C 13.437692 6.9492188 13.411838 6.970975 13.429688 6.953125 L 13.423828 6.9609375 L 8.0292969 11.953125 C 7.9471479 12.035275 7.9925281 11.988962 7.9863281 11.976562 C 7.9801261 11.964163 7.9928389 12 8.0761719 12 L 8.9765625 12 L 17.976562 12 L 18.876953 12 C 18.960333 12 18.972897 11.964163 18.966797 11.976562 C 18.960597 11.988962 19.005978 12.035275 18.923828 11.953125 L 13.529297 6.9609375 L 13.523438 6.953125 C 13.541308 6.970975 13.515453 6.9492188 13.476562 6.9492188 z M 8.9765625 13 L 8.9765625 20 L 11.976562 20 L 11.976562 17.099609 C 11.976562 16.782942 12.11948 16.525052 12.310547 16.333984 C 12.501615 16.142916 12.759505 16 13.076172 16 L 13.876953 16 C 14.193619 16 14.45151 16.142916 14.642578 16.333984 C 14.833645 16.525052 14.976562 16.782942 14.976562 17.099609 L 14.976562 20 L 17.976562 20 L 17.976562 13 L 8.9765625 13 z "/></svg>