<svg xmlns="http://www.w3.org/2000/svg" id="Layer_1" width="28" height="28" viewBox="0 0 28 28"><path id="circle3926-2-6-1" fill-rule="evenodd" d="M 14 0 A 14 14 0 0 0 0 14 A 14 14 0 0 0 14 28 A 14 14 0 0 0 28 14 A 14 14 0 0 0 14 0 z M 10 6 L 15 6 C 15.3 6 15.5 6.2 15.5 6.5 C 15.5 6.8 15.3 7 15 7 L 14.400391 7 C 13.800392 7 13.8 8 14.5 8 L 17 8 C 17.3 8 17.5 8.2 17.5 8.5 C 17.5 8.8 17.3 9 17 9 L 14.5 9 L 12.5 9 L 12 9 C 11.7 9 11.5 8.8 11.5 8.5 C 11.5 8.2 11.7 8 12 8 L 12.5 8 C 13.099999 8 13.099999 7 12.5 7 L 10 7 C 9.7 7 9.5 6.8 9.5 6.5 C 9.5 6.2 9.7 6 10 6 z M 17 6 L 18 6 C 18.3 6 18.5 6.2 18.5 6.5 C 18.5 6.8 18.3 7 18 7 L 17 7 C 16.7 7 16.5 6.8 16.5 6.5 C 16.5 6.2 16.7 6 17 6 z M 10 8 C 10.7 8 10.7 9 10 9 C 9.3 9 9.3 8 10 8 z M 9.5996094 10.099609 L 11.199219 10.099609 C 11.382552 10.099609 11.57028 10.13865 11.751953 10.259766 C 11.933626 10.380881 12.099609 10.633724 12.099609 10.900391 L 12.173828 13.224609 L 13.625 12.283203 C 13.90284 12.098914 14.277831 12.0708 14.554688 12.224609 C 14.832121 12.37874 15 12.683333 15 13 L 15 13.65625 L 16.607422 12.494141 L 16.546875 12.546875 C 16.823652 12.270098 17.229939 12.281961 17.498047 12.416016 C 17.766156 12.55007 18 12.826996 18 13.199219 L 18 13.755859 L 19.607422 12.59375 L 19.546875 12.646484 C 19.794188 12.399174 20.128938 12.346884 20.417969 12.433594 C 20.707001 12.520303 21 12.826996 21 13.199219 L 21 14.699219 L 21 15.099609 L 21 16.199219 L 21 20.099609 C 21 20.366276 20.882083 20.574948 20.728516 20.728516 C 20.574948 20.882083 20.366276 21 20.099609 21 L 13.5 21 L 11.5 21 L 9 21 C 8.7388889 21 8.4717184 20.905312 8.2832031 20.716797 C 8.094688 20.528282 8 20.261111 8 20 L 8 14.5 C 8 14.238889 8.0946879 13.971718 8.2832031 13.783203 C 8.3514354 13.714976 8.4386135 13.672516 8.5234375 13.628906 L 8.6992188 10.900391 C 8.6992186 10.633724 8.8652019 10.380881 9.046875 10.259766 C 9.2285481 10.138649 9.416276 10.099609 9.5996094 10.099609 z M 9.6875 11.099609 L 9.5332031 13.5 L 11.183594 13.5 L 11.105469 11.099609 L 9.6875 11.099609 z M 14 13.232422 L 12.048828 14.5 L 9 14.5 L 9 20 L 11.5 20 L 13.5 20 L 20 20 L 20 16.199219 L 20 15.099609 L 20 14.699219 L 20 13.544922 L 18.392578 14.705078 L 18.453125 14.654297 C 18.176348 14.931074 17.770061 14.91921 17.501953 14.785156 C 17.233844 14.651102 17 14.372222 17 14 L 17 13.443359 L 15.392578 14.605469 L 15.453125 14.552734 C 15.176348 14.829511 14.770061 14.819601 14.501953 14.685547 C 14.233845 14.551493 14 14.272613 14 13.900391 L 14 13.232422 z M 13.5 16 L 14.5 16 L 14.5 17 L 13.5 17 L 13.5 16 z M 15.5 16 L 16.5 16 L 16.5 17 L 15.5 17 L 15.5 16 z M 17.5 16 L 18.5 16 L 18.5 17 L 17.5 17 L 17.5 16 z M 13.5 18 L 14.5 18 L 14.5 19 L 13.5 19 L 13.5 18 z M 15.5 18 L 16.5 18 L 16.5 19 L 15.5 19 L 15.5 18 z M 17.5 18 L 18.5 18 L 18.5 19 L 17.5 19 L 17.5 18 z "/></svg>