<svg xmlns="http://www.w3.org/2000/svg" id="Layer_1" width="28" height="28" viewBox="0 0 28 28"><path id="circle3918-0-8-6" d="M 14 0 A 14 14 0 0 0 0 14 A 14 14 0 0 0 14 28 A 14 14 0 0 0 28 14 A 14 14 0 0 0 14 0 z M 8.5 7.6503906 L 19.5 7.6503906 C 19.911111 7.6503906 20.30211 7.7962506 20.578125 8.0722656 C 20.85414 8.3482806 21 8.7392796 21 9.1503906 L 21 16.150391 C 21 16.561502 20.85414 16.952501 20.578125 17.228516 C 20.30211 17.504531 19.911111 17.650391 19.5 17.650391 L 16 17.650391 L 16 19.650391 L 17.5 19.650391 A 0.50005 0.50005 0 1 1 17.5 20.650391 L 10.5 20.650391 A 0.50005 0.50005 0 1 1 10.5 19.650391 L 12 19.650391 L 12 17.650391 L 8.5 17.650391 C 8.0888889 17.650391 7.6978903 17.504531 7.421875 17.228516 C 7.1458597 16.952501 7 16.561502 7 16.150391 L 7 15.650391 L 7 14.650391 L 7 9.1503906 C 7 8.7392796 7.1458597 8.3482806 7.421875 8.0722656 C 7.6978903 7.7962506 8.0888889 7.6503906 8.5 7.6503906 z M 8.5 8.6503906 C 8.3111111 8.6503906 8.202891 8.7053119 8.1289062 8.7792969 C 8.0549215 8.8532819 8 8.9615016 8 9.1503906 L 8 14.650391 L 20 14.650391 L 20 9.1503906 C 20 8.9615016 19.945078 8.8532819 19.871094 8.7792969 C 19.797109 8.7053109 19.688889 8.6503906 19.5 8.6503906 L 8.5 8.6503906 z M 8 15.650391 L 8 16.150391 C 8 16.33928 8.0549216 16.447499 8.1289062 16.521484 C 8.2028911 16.59547 8.3111111 16.650391 8.5 16.650391 L 12.5 16.650391 L 15.5 16.650391 L 19.5 16.650391 C 19.688889 16.650391 19.797104 16.595464 19.871094 16.521484 C 19.94508 16.447499 20 16.33928 20 16.150391 L 20 15.650391 L 8 15.650391 z M 13 17.650391 L 13 19.650391 L 15 19.650391 L 15 17.650391 L 13 17.650391 z "/></svg>