<svg xmlns="http://www.w3.org/2000/svg" id="Layer_1" width="28" height="28" viewBox="0 0 28 28"><path id="circle3922-0-1-0" fill-rule="evenodd" d="M 14 0 A 14 14 0 0 0 0 14 A 14 14 0 0 0 14 28 A 14 14 0 0 0 28 14 A 14 14 0 0 0 14 0 z M 12.449219 5.9003906 L 15.75 5.9003906 C 16.161111 5.9003906 16.553239 6.0584884 16.802734 6.3496094 C 17.052267 6.6407304 17.148438 7.0170576 17.148438 7.4003906 L 17.148438 7.6171875 L 17.390625 7.4707031 L 17.349609 7.5 C 18.015836 7.00033 19.014792 7.1756344 19.476562 7.9433594 L 19.480469 7.9433594 L 21.265625 10.623047 A 0.50005 0.50005 0 0 1 21.279297 10.642578 C 21.69531 11.335934 21.533626 12.292326 20.806641 12.728516 L 19.771484 13.400391 L 20.820312 14.080078 A 0.50005 0.50005 0 0 1 20.849609 14.099609 C 21.473609 14.567609 21.593748 15.464848 21.177734 16.158203 A 0.50005 0.50005 0 0 1 21.164062 16.177734 L 19.376953 18.857422 C 18.940763 19.584406 17.984371 19.74609 17.291016 19.330078 L 17.048828 19.183594 L 17.048828 19.5 C 17.048828 19.883335 16.952658 20.259647 16.703125 20.550781 C 16.453592 20.841901 16.059549 21 15.648438 21 L 12.349609 21 C 11.938498 21 11.544454 20.841902 11.294922 20.550781 C 11.045389 20.259658 10.949219 19.883335 10.949219 19.5 L 10.949219 19.183594 L 10.707031 19.330078 L 10.748047 19.300781 C 10.08138 19.800781 9.080551 19.62644 8.6191406 18.857422 L 6.7402344 16.1875 A 0.50005 0.50005 0 0 1 6.7207031 16.158203 C 6.3046894 15.464847 6.4644229 14.508456 7.1914062 14.072266 L 8.2480469 13.388672 L 7.265625 12.712891 A 0.50005 0.50005 0 0 1 7.2480469 12.701172 C 6.6240468 12.233172 6.5039085 11.335935 6.9199219 10.642578 A 0.50005 0.50005 0 0 1 6.9335938 10.623047 L 8.7207031 7.9433594 C 9.1568932 7.2163754 10.113288 7.0546881 10.806641 7.4707031 A 0.50005 0.50005 0 0 1 10.835938 7.4902344 L 11.050781 7.6386719 L 11.050781 7.4003906 C 11.050781 7.0170576 11.146951 6.6407304 11.396484 6.3496094 C 11.646017 6.0584874 12.038108 5.9003906 12.449219 5.9003906 z M 12.449219 6.9003906 C 12.26033 6.9003906 12.204817 6.941122 12.154297 7 C 12.103829 7.058879 12.048828 7.1837236 12.048828 7.4003906 L 12.048828 8.5996094 A 0.50005 0.50005 0 0 1 11.261719 9.0097656 L 10.291016 8.3300781 L 10.289062 8.3300781 C 9.9835673 8.1477641 9.741499 8.1847392 9.578125 8.4570312 A 0.50005 0.50005 0 0 1 9.5664062 8.4785156 L 7.7773438 11.158203 L 7.7773438 11.160156 C 7.5952053 11.465985 7.6740684 11.768735 7.8496094 11.900391 L 9.4335938 12.988281 A 0.50005 0.50005 0 0 1 9.4199219 13.820312 L 7.7207031 14.919922 A 0.50005 0.50005 0 0 1 7.7070312 14.929688 C 7.4347391 15.093062 7.3958102 15.335215 7.578125 15.640625 L 7.578125 15.642578 L 9.4570312 18.3125 A 0.50005 0.50005 0 0 1 9.4785156 18.34375 C 9.6171048 18.57473 10.015104 18.600001 10.148438 18.5 A 0.50005 0.50005 0 0 1 10.193359 18.470703 L 11.193359 17.871094 A 0.50005 0.50005 0 0 1 11.949219 18.300781 L 11.949219 19.5 C 11.949219 19.716667 12.004217 19.841511 12.054688 19.900391 C 12.105154 19.959271 12.162674 19.999998 12.351562 20 L 15.648438 20 C 15.837327 20 15.894842 19.959271 15.945312 19.900391 C 15.995781 19.841513 16.050781 19.716667 16.050781 19.5 L 16.050781 18.300781 A 0.50005 0.50005 0 0 1 16.808594 17.871094 L 17.808594 18.470703 C 18.115239 18.654691 18.357674 18.616767 18.521484 18.34375 A 0.50005 0.50005 0 0 1 18.535156 18.322266 L 20.322266 15.640625 C 20.504395 15.334796 20.425541 15.032047 20.25 14.900391 L 18.580078 13.820312 A 0.50005 0.50005 0 0 1 18.580078 12.980469 L 20.279297 11.880859 A 0.50005 0.50005 0 0 1 20.291016 11.871094 C 20.564031 11.707284 20.603908 11.464846 20.419922 11.158203 L 18.632812 8.4785156 A 0.50005 0.50005 0 0 1 18.621094 8.4570312 C 18.482505 8.2260513 18.084505 8.2007813 17.951172 8.3007812 A 0.50005 0.50005 0 0 1 17.908203 8.3300781 L 16.908203 8.9296875 A 0.50005 0.50005 0 0 1 16.148438 8.5 L 16.148438 7.4003906 C 16.148438 7.1837236 16.097345 7.05888 16.046875 7 C 15.996408 6.94112 15.938889 6.9003906 15.75 6.9003906 L 12.449219 6.9003906 z M 14.050781 7.9003906 C 14.250781 7.9003906 14.548828 8.1003906 14.548828 8.4003906 L 14.548828 9.5683594 L 15.248047 9.8007812 C 15.248047 9.8007812 15.349609 9.8003906 15.349609 9.9003906 C 15.649609 10.100391 15.849609 10.500391 15.849609 10.900391 C 15.849609 11.300391 15.548047 11.600781 15.248047 11.800781 L 15.148438 11.800781 L 14.548828 11.9375 L 14.548828 12.939453 L 15.548828 13.099609 C 16.048828 13.199609 16.349219 13.599611 16.449219 14.099609 C 16.549219 14.599609 16.249609 15.001172 15.849609 15.201172 L 15.748047 15.201172 L 14.548828 15.28125 L 14.548828 16.25 L 15.949219 16.599609 C 16.149217 16.699609 16.348047 16.899609 16.248047 17.099609 C 16.148047 17.399609 15.948047 17.5 15.748047 17.5 L 15.648438 17.5 L 14.548828 17.234375 L 14.548828 18.400391 C 14.548828 18.700391 14.348828 18.900391 14.048828 18.900391 C 13.748828 18.900391 13.548828 18.700391 13.548828 18.400391 L 13.548828 16.992188 L 12.349609 16.701172 L 12.248047 16.701172 C 11.848047 16.501172 11.648438 16.101172 11.648438 15.701172 C 11.648437 15.301172 11.848047 14.901172 12.248047 14.701172 L 12.349609 14.701172 L 13.548828 14.621094 L 13.548828 13.746094 L 12.849609 13.599609 C 12.349609 13.499609 12.049219 13.099609 11.949219 12.599609 C 11.949219 12.199609 12.148828 11.7 12.548828 11.5 L 12.648438 11.5 L 13.548828 11.294922 L 13.548828 10.216797 L 13.148438 10.099609 C 12.84841 9.9996094 12.749609 9.8 12.849609 9.5 C 12.949609 9.3000015 13.149219 9.1011719 13.449219 9.2011719 L 13.550781 9.234375 L 13.550781 8.4003906 C 13.550781 8.1003906 13.750781 7.9003906 14.050781 7.9003906 z M 14.550781 10.511719 L 14.550781 11.068359 L 14.851562 11 C 14.951562 10.900002 14.951172 10.900781 14.951172 10.800781 C 14.951172 10.800781 14.951562 10.699609 14.851562 10.599609 L 14.550781 10.511719 z M 13.550781 12.164062 L 12.951172 12.300781 C 12.851171 12.400779 12.851562 12.5 12.851562 12.5 C 12.851562 12.5 12.850781 12.701172 13.050781 12.701172 L 13.550781 12.78125 L 13.550781 12.164062 z M 14.550781 13.953125 L 14.550781 14.552734 L 15.351562 14.5 C 15.451562 14.400002 15.451172 14.300781 15.451172 14.300781 C 15.451172 14.300781 15.45 14.099609 15.25 14.099609 L 14.550781 13.953125 z M 13.550781 15.347656 L 12.748047 15.400391 C 12.648047 15.50039 12.648438 15.499609 12.648438 15.599609 C 12.648438 15.599609 12.648047 15.70078 12.748047 15.800781 L 13.550781 16 L 13.550781 15.347656 z "/></svg>