<svg xmlns="http://www.w3.org/2000/svg" id="Layer_1" width="28" height="28" viewBox="0 0 28 28"><path id="circle3918-0-8-6" d="M 14 0 A 14 14 0 0 0 0 14 A 14 14 0 0 0 14 28 A 14 14 0 0 0 28 14 A 14 14 0 0 0 14 0 z M 14 6 C 16.8 6 19 8.2 19 11 L 20 11 C 20 10.7 20.2 10.5 20.5 10.5 C 20.8 10.5 21 10.7 21 11 C 21 14.732228 18.158374 17.725397 14.496094 17.976562 C 14.496394 17.984963 14.5 17.9914 14.5 18 L 14.5 21 L 16.5 21 C 16.8 21 17 21.2 17 21.5 C 17 21.8 16.8 22 16.5 22 L 11.5 22 C 11.2 22 11 21.8 11 21.5 C 11 21.2 11.2 21 11.5 21 L 13.5 21 L 13.5 18 C 13.5 17.991435 13.503583 17.984962 13.503906 17.976562 C 9.8416203 17.725395 7 14.732228 7 11 C 7 10.7 7.2 10.5 7.5 10.5 C 7.8 10.5 8 10.7 8 11 L 9 11 C 9 8.2 11.2 6 14 6 z M 14 7 C 11.8 7 10 8.8 10 11 C 10 13.2 11.8 15 14 15 C 16.2 15 18 13.2 18 11 C 18 8.8 16.2 7 14 7 z M 15.449219 8.5507812 C 15.574219 8.5507812 15.700781 8.5992188 15.800781 8.6992188 C 16.000781 8.8992187 16.000781 9.2003906 15.800781 9.4003906 L 13.400391 11.900391 C 13.300391 12.000392 13.1 12 13 12 C 12.9 12 12.699609 12.000391 12.599609 11.900391 C 12.399609 11.700391 12.399609 11.399219 12.599609 11.199219 L 15.099609 8.6992188 C 15.199609 8.5992208 15.324219 8.5507812 15.449219 8.5507812 z M 16.449219 10.050781 C 16.574219 10.050781 16.700781 10.099219 16.800781 10.199219 C 17.000781 10.399219 17.000781 10.700391 16.800781 10.900391 L 15.800781 11.900391 C 15.800781 12.000392 15.6 12 15.5 12 C 15.4 12 15.199609 12.000391 15.099609 11.900391 C 14.899609 11.700391 14.899609 11.399219 15.099609 11.199219 L 16.099609 10.199219 C 16.199609 10.099221 16.324219 10.050781 16.449219 10.050781 z M 9.09375 11.984375 C 9.062248 11.989445 9.034258 12 9 12 L 8.0917969 12 C 8.5723704 14.827306 11.041286 17 14 17 C 16.958714 17 19.42763 14.827306 19.908203 12 L 18.902344 12 C 18.450185 14.306597 16.456762 16 14 16 C 11.53771 16 9.5399625 14.298921 9.09375 11.984375 z M 14.5 12 A 0.5 0.5 0 0 1 15 12.5 A 0.5 0.5 0 0 1 14.5 13 A 0.5 0.5 0 0 1 14 12.5 A 0.5 0.5 0 0 1 14.5 12 z "/></svg>