<svg xmlns="http://www.w3.org/2000/svg" id="Layer_1" width="28" height="28" viewBox="0 0 28 28"><path id="circle3934-5-9-7" fill-rule="evenodd" d="M 14 0 A 14 14 0 0 0 0 14 A 14 14 0 0 0 14 28 A 14 14 0 0 0 28 14 A 14 14 0 0 0 14 0 z M 8 6 C 9.1761538 6 10.219886 6.7169969 10.707031 7.7167969 C 11.712717 7.2603279 12.825254 7 14 7 C 15.186226 7 16.30894 7.2655537 17.322266 7.7304688 C 17.819392 6.7033267 18.849333 6 20 6 C 21.661905 6 23 7.338095 23 9 C 23 10.202043 22.307474 11.255434 21.28125 11.703125 C 21.738856 12.709846 22 13.823703 22 15 C 22 19.412356 18.412356 23 14 23 C 9.5876443 23 6 19.412356 6 15 C 6 13.825879 6.2607853 12.714253 6.7167969 11.708984 C 5.7350259 11.238636 5 10.242782 5 9 C 5 7.338095 6.3380952 6 8 6 z M 8 7 C 6.8619048 7 6 7.861905 6 9 C 6 9.872291 6.5171374 10.504097 7.1992188 10.806641 C 7.3489584 10.564645 7.5096927 10.331418 7.6835938 10.107422 A 1 1 0 0 1 7.0996094 9.1992188 A 1 1 0 0 1 8.0996094 8.1992188 A 1 1 0 0 1 8.9980469 8.765625 C 9.2585786 8.556172 9.5345688 8.3674412 9.8203125 8.1914062 C 9.5015997 7.5277482 8.7628939 7 8 7 z M 20 7 C 19.251862 7 18.534938 7.4909051 18.203125 8.2050781 C 18.47977 8.3768011 18.747128 8.5605179 19 8.7636719 A 1 1 0 0 1 19.900391 8.1992188 A 1 1 0 0 1 20.900391 9.1992188 A 1 1 0 0 1 20.316406 10.107422 C 20.494606 10.336955 20.659695 10.575809 20.8125 10.824219 C 21.509136 10.560185 22 9.857909 22 9 C 22 7.861905 21.138095 7 20 7 z M 14 8 C 10.128084 8 7 11.128084 7 15 C 7 18.871916 10.128084 22 14 22 C 17.871916 22 21 18.871916 21 15 C 21 11.128084 17.871916 8 14 8 z M 12.099609 10 C 12.83149 10 13.471145 10.327842 14.021484 10.701172 C 14.58756 10.352941 15.225219 10.099609 15.900391 10.099609 C 17.8749 10.099609 19.5 11.724709 19.5 13.699219 C 19.5 15.053812 18.674583 16.159511 17.525391 16.796875 C 17.553381 16.929474 17.599609 17.090607 17.599609 17.400391 C 17.599609 19.3749 15.97451 21 14 21 C 12.02549 21 10.400396 19.3749 10.400391 17.400391 C 10.400391 17.211614 10.447006 16.999903 10.478516 16.796875 C 9.3084083 16.206261 8.5 15.043848 8.5 13.699219 C 8.5 11.639959 10.1251 10 12.099609 10 z M 12.099609 11 C 10.674119 11 9.5 12.158478 9.5 13.699219 C 9.5 14.794091 10.179563 15.798786 11.158203 16.125 L 11.632812 16.283203 L 11.474609 16.757812 C 11.395689 16.994569 11.400391 17.100391 11.400391 17.400391 C 11.400391 18.825881 12.57451 20 14 20 C 15.42549 20 16.599607 18.825881 16.599609 17.400391 C 16.599609 17.211502 16.5 16.966276 16.5 16.599609 L 16.5 16.267578 L 16.808594 16.138672 C 17.841093 15.708464 18.5 14.794091 18.5 13.699219 C 18.5 12.273729 17.325881 11.099609 15.900391 11.099609 C 15.295629 11.099609 14.698227 11.281262 14.3125 11.589844 L 14 11.839844 L 13.6875 11.589844 C 13.270031 11.255868 12.656752 11 12.099609 11 z M 12 12.5 C 12.822505 12.5 13.5 13.177495 13.5 14 C 13.5 14.822505 12.822505 15.5 12 15.5 C 11.177495 15.5 10.5 14.822505 10.5 14 C 10.5 13.177495 11.177495 12.5 12 12.5 z M 16 12.5 C 16.822505 12.5 17.5 13.177495 17.5 14 C 17.5 14.822505 16.822505 15.5 16 15.5 C 15.177495 15.5 14.5 14.822505 14.5 14 C 14.5 13.177495 15.177495 12.5 16 12.5 z M 12 13.5 C 11.717935 13.5 11.5 13.717935 11.5 14 C 11.5 14.282065 11.717935 14.5 12 14.5 C 12.282065 14.5 12.5 14.282065 12.5 14 C 12.5 13.717935 12.282065 13.5 12 13.5 z M 16 13.5 C 15.717935 13.5 15.5 13.717935 15.5 14 C 15.5 14.282065 15.717935 14.5 16 14.5 C 16.282065 14.5 16.5 14.282065 16.5 14 C 16.5 13.717935 16.282065 13.5 16 13.5 z M 13.5 16 L 14.5 16 C 14.8 16 15 16.2 15 16.5 C 15 16.8 14.8 17 14.5 17 L 14.5 17.900391 C 14.748932 17.840518 14.988336 17.75024 15.199219 17.599609 C 15.399219 17.399609 15.700391 17.499219 15.900391 17.699219 C 16.100391 17.899219 16.000781 18.200391 15.800781 18.400391 C 15.300781 18.800391 14.7 19 14 19 C 13.3 19 12.699219 18.800391 12.199219 18.400391 C 11.999219 18.300391 11.899609 17.999219 12.099609 17.699219 C 12.299609 17.499219 12.600781 17.399609 12.800781 17.599609 C 13.011664 17.75024 13.251068 17.840521 13.5 17.900391 L 13.5 17 C 13.2 17 13 16.8 13 16.5 C 13 16.3 13.2 16 13.5 16 z "/></svg>