<svg xmlns="http://www.w3.org/2000/svg" id="Layer_1" width="28" height="28" viewBox="0 0 28 28"><g id="g4142"><path id="circle3922-0-1-0" fill-rule="evenodd" d="M 14 0 A 14 14 0 0 0 0 14 A 14 14 0 0 0 14 28 A 14 14 0 0 0 28 14 A 14 14 0 0 0 14 0 z M 18.480469 7 C 18.762681 6.9912057 18.996201 7.217651 18.996094 7.5 L 18.996094 10.933594 C 19.001994 10.977666 19.001994 11.022336 18.996094 11.066406 L 18.996094 17 C 18.996364 17.037428 18.992475 17.074778 18.984375 17.111328 C 18.924974 18.157969 18.056729 19 16.996094 19 C 15.897448 19 14.996094 18.098647 14.996094 17 C 14.996094 15.901353 15.897448 15 16.996094 15 C 17.361591 15 17.700189 15.107658 17.996094 15.28125 L 17.996094 11.640625 L 10.996094 13.390625 L 10.996094 19 C 10.996364 19.037428 10.992475 19.074778 10.984375 19.111328 C 10.924975 20.157969 10.05673 21 8.9960938 21 C 7.8974465 21 6.9960938 20.098647 6.9960938 19 C 6.9960938 17.901353 7.8974465 17 8.9960938 17 C 9.3615912 17 9.7001918 17.107658 9.9960938 17.28125 L 9.9960938 13.169922 L 9.9960938 12.845703 L 9.9960938 9.5 C 9.9964517 9.270781 10.152609 9.071155 10.375 9.015625 L 18.375 7.015625 C 18.409498 7.006695 18.444859 7.0014 18.480469 7 z M 17.996094 8.140625 L 10.996094 9.890625 L 10.996094 12.359375 L 17.996094 10.609375 L 17.996094 8.140625 z M 16.996094 16 C 16.437887 16 15.996094 16.441793 15.996094 17 C 15.996094 17.558207 16.437887 18 16.996094 18 C 17.554301 18 17.996094 17.558207 17.996094 17 C 17.996094 16.441793 17.554301 16 16.996094 16 z M 8.9960938 18 C 8.4378866 18 7.9960938 18.441793 7.9960938 19 C 7.9960938 19.558207 8.4378866 20 8.9960938 20 C 9.5543012 20 9.9960938 19.558207 9.9960938 19 C 9.9960938 18.441793 9.5543012 18 8.9960938 18 z "/></g></svg>