<svg xmlns="http://www.w3.org/2000/svg" id="Layer_1" width="28" height="28" viewBox="0 0 28 28"><path id="circle3926-2-6-1" fill-rule="evenodd" d="M 14 0 A 14 14 0 0 0 0 14 A 14 14 0 0 0 14 28 A 14 14 0 0 0 28 14 A 14 14 0 0 0 14 0 z M 15.414062 5.6933594 L 15.433594 5.6933594 L 15.451172 5.6953125 C 16.878248 5.8050875 18.256339 6.4468794 19.326172 7.3027344 L 19.347656 7.3203125 L 19.367188 7.3398438 C 19.743963 7.7166208 19.743963 8.3712699 19.367188 8.7480469 L 19.365234 8.75 L 16.0625 11.953125 L 16.066406 11.947266 C 15.452137 12.561536 14.314453 12.093359 14.314453 11.193359 L 14.314453 6.6132812 L 14.339844 6.5351562 C 14.482008 6.1086653 14.891839 5.6933594 15.414062 5.6933594 z M 15.408203 6.7011719 C 15.356643 6.7004259 15.341143 6.7424594 15.314453 6.8183594 L 15.314453 11.193359 C 15.314453 11.293349 15.373645 11.225964 15.359375 11.240234 L 15.363281 11.238281 L 18.648438 8.0527344 C 17.733145 7.3342094 16.551352 6.7975819 15.408203 6.7011719 z M 12.609375 8.0839844 C 12.854189 8.0842234 13.090647 8.188303 13.230469 8.328125 C 13.418982 8.516641 13.513672 8.7274736 13.513672 8.9941406 L 13.513672 14.794922 L 17.107422 19.386719 L 17.066406 19.339844 C 17.313688 19.587158 17.351627 19.913687 17.304688 20.171875 C 17.258554 20.425611 17.142473 20.674914 16.845703 20.830078 C 14.483429 22.413384 11.376783 22.410375 9.0234375 20.701172 C 9.0222175 20.700272 9.0207413 20.700102 9.0195312 20.699219 C 6.5474993 18.97435 5.3662766 15.762465 6.3417969 12.935547 C 7.1918557 10.288229 9.5204158 8.3786908 12.365234 8.1210938 C 12.445519 8.0956838 12.527775 8.0839044 12.609375 8.0839844 z M 12.513672 9.1015625 C 10.032142 9.3009815 8.0253553 10.945283 7.2890625 13.246094 L 7.2890625 13.251953 L 7.2871094 13.257812 C 6.4671946 15.626455 7.4787794 18.407453 9.5996094 19.882812 L 9.6035156 19.886719 L 9.6074219 19.890625 C 11.631725 21.362846 14.28207 21.361429 16.310547 19.990234 L 12.720703 15.402344 L 12.759766 15.447266 C 12.541912 15.229415 12.513672 14.894922 12.513672 14.794922 L 12.513672 9.1015625 z M 19.601562 9.7441406 C 19.856104 9.7441406 20.177899 9.8369816 20.349609 10.162109 C 21.387441 11.54301 21.914062 13.217466 21.914062 14.894531 L 21.914062 14.910156 L 21.912109 14.925781 C 21.803395 16.665195 20.951596 18.360948 19.662109 19.548828 C 19.47384 19.734758 19.201044 19.858778 18.914062 19.830078 C 18.624865 19.801157 18.36127 19.6171 18.197266 19.371094 L 14.919922 15.203125 L 14.960938 15.248047 C 14.743085 15.030196 14.680775 14.71766 14.703125 14.494141 C 14.725477 14.270622 14.802288 14.100517 14.867188 13.970703 L 14.904297 13.894531 L 18.859375 10.041016 C 19.077226 9.8231608 19.342851 9.7441406 19.601562 9.7441406 z M 19.550781 10.763672 L 15.740234 14.476562 C 15.724214 14.518171 15.706425 14.562121 15.703125 14.582031 L 19.007812 18.785156 C 20.087633 17.777067 20.816936 16.309621 20.910156 14.875 C 20.906073 13.409993 20.445356 11.954488 19.550781 10.763672 z "/></svg>