<svg xmlns="http://www.w3.org/2000/svg" id="Layer_1" width="28" height="28" viewBox="0 0 28 28"><path id="circle3934-5-9-7" fill-rule="evenodd" d="M 14 0 A 14 14 0 0 0 0 14 A 14 14 0 0 0 14 28 A 14 14 0 0 0 28 14 A 14 14 0 0 0 14 0 z M 14.5 5.046875 C 18.079446 5.046875 21.000628 8.0841853 20.898438 11.751953 C 20.896145 13.281661 19.940496 15.134282 18.824219 16.935547 C 17.706602 18.738974 16.397462 20.449462 15.589844 21.458984 C 15.012085 22.181183 13.886352 22.181183 13.308594 21.458984 C 12.503515 20.452636 11.19452 18.766508 10.076172 16.974609 C 8.9578236 15.182711 8 13.318316 8 11.746094 C 8 8.0813879 10.917172 5.046875 14.5 5.046875 z M 14.5 6.046875 C 11.482828 6.046875 9 8.6107989 9 11.746094 C 9 12.873871 9.8421764 14.712209 10.923828 16.445312 C 12.00548 18.178412 13.294923 19.840307 14.089844 20.833984 C 14.312085 21.111786 14.586353 21.111786 14.808594 20.833984 C 15.600976 19.843507 16.892226 18.154776 17.974609 16.408203 C 19.056993 14.66163 19.900391 12.815325 19.900391 11.746094 L 19.900391 11.740234 L 19.900391 11.732422 C 19.992378 8.6048481 17.517172 6.046875 14.5 6.046875 z M 14.5 9.046875 C 15.872727 9.046875 17 10.174149 17 11.546875 C 17 12.919602 15.872727 14.046875 14.5 14.046875 C 13.127273 14.046875 12 12.919602 12 11.546875 C 12 10.174149 13.127273 9.046875 14.5 9.046875 z M 14.5 10.046875 C 13.672727 10.046875 13 10.719602 13 11.546875 C 13 12.374148 13.672727 13.046875 14.5 13.046875 C 15.327273 13.046875 16 12.374148 16 11.546875 C 16 10.719602 15.327273 10.046875 14.5 10.046875 z "/></svg>