<svg xmlns="http://www.w3.org/2000/svg" id="Layer_1" width="28" height="28" viewBox="0 0 28 28"><path id="circle3922-0-1-0" fill-rule="evenodd" d="M 14 0 A 14 14 0 0 0 0 14 A 14 14 0 0 0 14 28 A 14 14 0 0 0 28 14 A 14 14 0 0 0 14 0 z M 12.492188 5.0292969 C 12.613502 5.0325749 12.738755 5.0607799 12.863281 5.1230469 L 12.884766 5.1347656 L 12.904297 5.1464844 C 13.770993 5.6881699 14.576862 6.4834261 14.919922 7.6269531 C 15.263857 8.7734101 15.032613 9.9054789 14.587891 10.794922 C 14.463356 11.043993 14.253065 11.185173 14.035156 11.257812 C 13.817247 11.330452 13.565478 11.343285 13.316406 11.21875 L 13.294922 11.207031 L 13.275391 11.195312 C 12.408694 10.653627 11.604777 9.8583708 11.261719 8.7148438 C 10.92976 7.6083128 11.038591 6.4638782 11.607422 5.5351562 C 11.732924 5.2975433 11.932076 5.1548034 12.144531 5.0839844 C 12.253486 5.0476664 12.370873 5.0260169 12.492188 5.0292969 z M 12.455078 6.0625 C 12.05146 6.725138 11.957164 7.5557804 12.21875 8.4277344 C 12.464006 9.2452534 13.029178 9.8230349 13.716797 10.273438 C 14.048997 9.5759609 14.208828 8.7403675 13.960938 7.9140625 C 13.71468 7.0931995 13.146604 6.513615 12.455078 6.0625 z M 17.439453 10.169922 C 17.756119 10.169922 18.015965 10.312838 18.207031 10.503906 C 18.398098 10.694974 18.541016 10.954818 18.541016 11.271484 C 18.541016 12.404818 18.077149 13.44043 17.292969 14.224609 C 16.716917 14.800662 16.023529 15.214224 15.240234 15.390625 L 15.240234 15.945312 C 16.126255 15.283949 17.16172 14.970703 18.240234 14.970703 C 18.501345 14.970703 18.768516 15.065391 18.957031 15.253906 C 19.145544 15.442421 19.240234 15.709592 19.240234 15.970703 C 19.240234 17.191915 18.797722 18.518681 17.792969 19.523438 C 17.040901 20.275506 16.169763 20.704733 15.240234 20.884766 L 15.240234 21.470703 C 15.240234 21.881814 15.094374 22.272813 14.818359 22.548828 C 14.542344 22.824843 14.151345 22.970703 13.740234 22.970703 C 13.329123 22.970703 12.938125 22.824843 12.662109 22.548828 C 12.386094 22.272813 12.240234 21.881814 12.240234 21.470703 L 12.240234 20.921875 C 11.234311 20.769845 10.292595 20.329704 9.4863281 19.523438 C 8.4815715 18.518681 8.0410156 17.191915 8.0410156 15.970703 C 8.0410157 15.709592 8.1357034 15.442421 8.3242188 15.253906 C 8.512734 15.065393 8.7799046 14.970703 9.0410156 14.970703 C 10.200938 14.970703 11.312543 15.328774 12.240234 16.097656 L 12.240234 15.390625 C 11.456939 15.214224 10.763553 14.800662 10.1875 14.224609 C 9.4033208 13.44043 8.9394531 12.419242 8.9394531 11.371094 C 8.939453 11.046094 9.079331 10.738511 9.2949219 10.546875 C 9.5105128 10.355234 9.7799048 10.271484 10.041016 10.271484 C 11.089164 10.271484 12.193125 10.716563 12.994141 11.517578 C 13.296427 11.819864 13.52442 12.150842 13.710938 12.496094 C 13.90542 12.113551 14.154631 11.749665 14.486328 11.417969 C 15.287343 10.616953 16.391305 10.169922 17.439453 10.169922 z M 17.439453 11.169922 C 16.687601 11.169922 15.792344 11.526016 15.193359 12.125 C 14.880626 12.437733 14.669223 12.782749 14.503906 13.166016 C 14.618246 13.228588 14.726149 13.300368 14.818359 13.392578 C 15.072095 13.646314 15.208919 13.998671 15.230469 14.373047 C 15.721018 14.221912 16.16992 13.933595 16.585938 13.517578 C 17.201759 12.901757 17.541016 12.13815 17.541016 11.271484 C 17.541016 11.288144 17.53393 11.244867 17.5 11.210938 C 17.46606 11.177018 17.422783 11.169922 17.439453 11.169922 z M 10.041016 11.271484 C 10.002126 11.271484 9.9683844 11.286522 9.9589844 11.294922 C 9.9495744 11.303282 9.9394531 11.296094 9.9394531 11.371094 C 9.9394531 12.122945 10.278711 12.901757 10.894531 13.517578 C 11.310549 13.933596 11.759452 14.221912 12.25 14.373047 C 12.271552 13.998671 12.408373 13.646315 12.662109 13.392578 C 12.745489 13.309199 12.84161 13.242784 12.943359 13.183594 C 12.782537 12.833037 12.577848 12.515348 12.287109 12.224609 C 11.688125 11.625625 10.792868 11.271484 10.041016 11.271484 z M 13.740234 13.970703 L 13.460938 14.041016 C 13.428578 14.059646 13.392901 14.075849 13.369141 14.099609 C 13.332141 14.136602 13.300324 14.182277 13.277344 14.242188 C 13.254364 14.302102 13.240234 14.376263 13.240234 14.470703 L 13.240234 21.470703 C 13.240234 21.659592 13.295151 21.767807 13.369141 21.841797 C 13.443126 21.915783 13.551346 21.970703 13.740234 21.970703 C 13.929123 21.970703 14.037338 21.915777 14.111328 21.841797 C 14.185314 21.767812 14.240234 21.659592 14.240234 21.470703 L 14.240234 14.470703 C 14.240234 14.281814 14.185308 14.173599 14.111328 14.099609 C 14.037343 14.025623 13.929123 13.970703 13.740234 13.970703 z M 9.0410156 15.970703 C 9.0410156 16.949491 9.3981166 18.021163 10.193359 18.816406 C 10.822117 19.445164 11.490822 19.772071 12.240234 19.910156 L 12.240234 17.470703 A 0.50005 0.50005 0 0 1 12.1875 17.423828 L 11.886719 17.125 C 11.078381 16.316662 10.129905 15.970703 9.0410156 15.970703 z M 18.240234 15.970703 C 17.151345 15.970703 16.202869 16.316662 15.394531 17.125 L 15.240234 17.277344 L 15.240234 19.873047 C 15.909185 19.714071 16.51286 19.389484 17.085938 18.816406 C 17.881182 18.021163 18.240234 16.949491 18.240234 15.970703 z "/></svg>