<svg xmlns="http://www.w3.org/2000/svg" id="Layer_1" width="28" height="28" viewBox="0 0 28 28"><path id="circle3934-5-9-7" fill-rule="evenodd" d="M 14 0 A 14 14 0 0 0 0 14 A 14 14 0 0 0 14 28 A 14 14 0 0 0 28 14 A 14 14 0 0 0 14 0 z M 13.5 7 C 15.234521 7 16.769324 7.6974104 17.943359 8.8496094 L 19.146484 7.6464844 A 0.50005 0.50005 0 0 1 20 8 L 20 12.5 A 0.50005 0.50005 0 0 1 19.5 13 L 19.400391 13 L 17.400391 13 L 15 13 A 0.50005 0.50005 0 0 1 14.646484 12.146484 L 15.857422 10.935547 C 15.26487 10.370845 14.493169 10 13.5 10 C 11.775438 10 10.445844 10.819611 10.089844 12.599609 A 0.50005 0.50005 0 0 1 9.5996094 13 L 7.5996094 13 A 0.50005 0.50005 0 0 1 7.1074219 12.417969 C 7.6441525 9.1975856 10.277777 7 13.5 7 z M 13.5 8 C 10.936358 8 8.9567951 9.5782128 8.2929688 12 L 9.2695312 12 C 9.8600594 10.065591 11.566946 9 13.5 9 C 14.928205 9 16.193382 9.5642148 16.994141 10.59375 A 0.50005 0.50005 0 0 1 16.953125 11.253906 L 16.207031 12 L 17.400391 12 L 19 12 L 19 9.2070312 L 18.353516 9.8535156 A 0.50005 0.50005 0 0 1 17.619141 9.8242188 C 16.616403 8.6391647 15.17037 8 13.5 8 z M 7.5 14 L 7.6992188 14 L 9.6992188 14 L 12 14 A 0.50005 0.50005 0 0 1 12.353516 14.853516 L 11.142578 16.066406 C 11.735066 16.630584 12.507319 17 13.5 17 C 15.224561 17 16.554157 16.182343 16.910156 14.402344 A 0.50005 0.50005 0 0 1 17.400391 14 L 19.400391 14 A 0.50005 0.50005 0 0 1 19.896484 14.566406 C 19.464261 17.808081 16.722222 20 13.5 20 C 11.765061 20 10.230756 19.303126 9.0566406 18.150391 L 7.8535156 19.353516 A 0.50005 0.50005 0 0 1 7 19 L 7 14.5 A 0.50005 0.50005 0 0 1 7.5 14 z M 8 15 L 8 17.792969 L 8.6464844 17.146484 A 0.50005 0.50005 0 0 1 9.3808594 17.177734 C 10.383596 18.362787 11.829629 19 13.5 19 C 16.068902 19 18.124745 17.414222 18.720703 15 L 17.732422 15 C 17.142646 16.936027 15.433887 18 13.5 18 C 12.071794 18 10.806608 17.437738 10.005859 16.408203 A 0.50005 0.50005 0 0 1 10.046875 15.748047 L 10.794922 15 L 9.6992188 15 L 8 15 z "/></svg>