<svg xmlns="http://www.w3.org/2000/svg" id="Layer_1" width="28" height="28" viewBox="0 0 28 28"><path id="circle3928-3-1-6" d="M 14 0 A 13.999999 13.999999 0 0 0 0 14 A 13.999999 13.999999 0 0 0 14 28 A 13.999999 13.999999 0 0 0 28 14 A 13.999999 13.999999 0 0 0 14 0 z M 14 8.2011719 C 14.800003 8.2011719 15.5 8.9011723 15.5 9.7011719 C 15.5 9.7694079 15.479903 9.8178831 15.470703 9.8769531 C 18.277304 10.534818 20.397624 13.022666 20.490234 16 L 21.5 16 C 21.8 16 22.099609 16.2 22.099609 16.5 C 22.099609 16.8 21.700391 17 21.400391 17 L 6.5996094 17 C 6.2996094 17 6 16.8 6 16.5 C 6 16.2 6.2996094 16 6.5996094 16 L 7.5097656 16 C 7.6023981 13.022012 9.723734 10.534156 12.53125 9.8769531 C 12.5202 9.8172221 12.5 9.7514419 12.5 9.7011719 C 12.5 8.9011723 13.2 8.2011719 14 8.2011719 z M 14 9.2011719 C 13.700007 9.2011719 13.5 9.4011719 13.5 9.7011719 C 13.5 9.7104319 13.503528 9.7174625 13.503906 9.7265625 C 13.668156 9.7139525 13.832685 9.7011719 14 9.7011719 C 14.167316 9.7011719 14.331838 9.7139525 14.496094 9.7265625 C 14.496494 9.7175025 14.5 9.7104719 14.5 9.7011719 C 14.5 9.4011719 14.3 9.2011719 14 9.2011719 z M 14 10.701172 C 11.040617 10.701172 8.617242 13.065874 8.5097656 16 L 19.490234 16 C 19.382758 13.065874 16.959383 10.701172 14 10.701172 z M 13.105469 11.476562 C 13.292969 11.499999 13.425 11.650781 13.5 11.800781 C 13.6 12.100781 13.399219 12.300388 13.199219 12.400391 C 11.699219 12.800391 10.599219 13.900781 10.199219 15.300781 C 10.199219 15.500781 10.000782 15.701172 9.8007812 15.701172 L 9.6992188 15.701172 C 9.3992192 15.601172 9.3007813 15.401562 9.3007812 15.101562 C 9.8007812 13.301563 11.100391 11.9 12.900391 11.5 C 12.975391 11.47496 13.042969 11.468763 13.105469 11.476562 z "/></svg>