<svg xmlns="http://www.w3.org/2000/svg" id="Layer_1" width="28" height="28" viewBox="0 0 28 28"><path id="circle3918-0-8-6" d="M 14 0 A 14 14 0 0 0 0 14 A 14 14 0 0 0 14 28 A 14 14 0 0 0 28 14 A 14 14 0 0 0 14 0 z M 14 6.5 C 18.164957 6.5 21.5 9.835043 21.5 14 C 21.5 18.164957 18.164957 21.5 14 21.5 C 9.8350427 21.5 6.5 18.164957 6.5 14 C 6.5 9.835043 9.8350427 6.5 14 6.5 z M 14 7.5 C 10.364957 7.5 7.5 10.364957 7.5 14 C 7.5 17.635043 10.364957 20.5 14 20.5 C 17.635043 20.5 20.5 17.635043 20.5 14 C 20.5 10.364957 17.635043 7.5 14 7.5 z M 11 10.5 C 11.411111 10.5 11.80211 10.64586 12.078125 10.921875 C 12.35414 11.19789 12.5 11.588889 12.5 12 C 12.5 12.411111 12.35414 12.80211 12.078125 13.078125 C 11.80211 13.35414 11.411111 13.5 11 13.5 C 10.588889 13.5 10.19789 13.35414 9.921875 13.078125 C 9.6458597 12.80211 9.5 12.411111 9.5 12 C 9.5 11.588889 9.6458597 11.19789 9.921875 10.921875 C 10.19789 10.64586 10.588889 10.5 11 10.5 z M 17 10.5 C 17.411111 10.5 17.80211 10.64586 18.078125 10.921875 C 18.35414 11.19789 18.5 11.588889 18.5 12 C 18.5 12.877778 17.766667 13.5 17 13.5 C 16.588889 13.5 16.19789 13.35414 15.921875 13.078125 C 15.64586 12.80211 15.5 12.411111 15.5 12 C 15.5 11.588889 15.64586 11.19789 15.921875 10.921875 C 16.19789 10.64586 16.588889 10.5 17 10.5 z M 11 11.5 C 10.811111 11.5 10.702891 11.554921 10.628906 11.628906 C 10.55492 11.702891 10.5 11.811111 10.5 12 C 10.5 12.188889 10.554921 12.297109 10.628906 12.371094 C 10.702891 12.445078 10.811111 12.5 11 12.5 C 11.188889 12.5 11.297109 12.445078 11.371094 12.371094 C 11.44508 12.297109 11.5 12.188889 11.5 12 C 11.5 11.811111 11.445079 11.702891 11.371094 11.628906 C 11.297109 11.55492 11.188889 11.5 11 11.5 z M 17 11.5 C 16.811111 11.5 16.702891 11.554921 16.628906 11.628906 C 16.55492 11.702891 16.5 11.811111 16.5 12 C 16.5 12.188889 16.554922 12.297109 16.628906 12.371094 C 16.702891 12.44508 16.811111 12.5 17 12.5 C 17.233333 12.5 17.5 12.322222 17.5 12 C 17.5 11.811111 17.445078 11.702891 17.371094 11.628906 C 17.297109 11.55492 17.188889 11.5 17 11.5 z M 10.949219 16.150391 C 11.074219 16.150391 11.200781 16.200781 11.300781 16.300781 C 12.000781 17.100781 13 17.5 14 17.5 C 15 17.5 15.999609 17.100781 16.599609 16.300781 C 16.799609 16.100781 17.100781 16.100781 17.300781 16.300781 C 17.500781 16.500781 17.500391 16.8 17.400391 17 C 16.500391 18 15.3 18.5 14 18.5 C 12.7 18.5 11.499609 17.9 10.599609 17 C 10.399609 16.8 10.399609 16.500781 10.599609 16.300781 C 10.699609 16.200781 10.824219 16.150391 10.949219 16.150391 z "/></svg>