<svg xmlns="http://www.w3.org/2000/svg" id="Layer_1" width="28" height="28" viewBox="0 0 28 28"><path id="circle3928-3-1-6" d="M 14 0 A 14 14 0 0 0 0 14 A 14 14 0 0 0 14 28 A 14 14 0 0 0 28 14 A 14 14 0 0 0 14 0 z M 14.035156 6.8105469 C 14.375555 6.8348609 14.777698 7.071731 14.884766 7.5 L 14.847656 7.3984375 L 16.599609 10.904297 C 16.655137 10.959662 16.708296 11.002202 16.785156 11.044922 L 20.599609 11.630859 L 20.621094 11.636719 C 20.992295 11.729519 21.265525 11.999719 21.382812 12.328125 C 21.500101 12.656531 21.441775 13.087528 21.154297 13.375 L 18.392578 16.136719 L 19.085938 20 C 19.295314 20.837515 18.328405 21.507348 17.623047 21.037109 L 17.671875 21.066406 L 14.158203 19.259766 C 14.160203 19.258586 14.156117 19.252991 14.123047 19.269531 L 10.626953 21.068359 L 10.623047 21.068359 C 10.273976 21.242887 9.8603204 21.214289 9.5683594 21.001953 C 9.2763978 20.789618 9.1196657 20.380713 9.2148438 20 L 9.2070312 20.033203 L 9.8984375 16.181641 C 9.8976875 16.155131 9.8989025 16.139646 9.8984375 16.128906 L 6.8496094 13.177734 L 6.8457031 13.175781 C 6.5582098 12.888288 6.4932125 12.46335 6.6210938 12.130859 C 6.7489748 11.798369 7.0916667 11.521484 7.5 11.521484 L 7.4238281 11.527344 L 11.339844 10.925781 C 11.346214 10.916501 11.337136 10.931188 11.353516 10.898438 L 13.152344 7.2988281 L 13.125 7.3632812 C 13.269868 6.9286763 13.694757 6.7862369 14.035156 6.8105469 z M 13.974609 7.8886719 L 12.248047 11.345703 C 12.18314 11.475517 12.100598 11.617178 11.949219 11.738281 C 11.797839 11.859385 11.583724 11.921875 11.400391 11.921875 L 11.476562 11.916016 L 7.5976562 12.511719 L 10.650391 15.464844 L 10.654297 15.46875 C 10.763223 15.577676 10.849363 15.748789 10.876953 15.886719 C 10.904493 16.024648 10.900391 16.122656 10.900391 16.222656 L 10.900391 16.265625 L 10.201172 20.162109 L 13.673828 18.375 L 13.675781 18.375 C 13.995038 18.215376 14.41803 18.132955 14.753906 18.46875 L 14.628906 18.376953 L 18.099609 20.162109 L 17.423828 16.398438 C 17.334208 16.20421 17.357481 15.992023 17.400391 15.863281 C 17.457013 15.693413 17.537559 15.577676 17.646484 15.46875 L 20.447266 12.667969 C 20.459696 12.655419 20.449106 12.687606 20.441406 12.666016 C 20.433936 12.645116 20.408559 12.617675 20.380859 12.609375 L 20.378906 12.607422 L 16.447266 12.003906 L 16.376953 11.96875 C 16.117325 11.838936 15.945703 11.676172 15.845703 11.576172 L 15.789062 11.517578 L 13.974609 7.8886719 z "/></svg>