<svg xmlns="http://www.w3.org/2000/svg" id="Layer_1" width="28" height="28" viewBox="0 0 28 28"><path id="circle3930-0-0-2" fill-rule="evenodd" d="M 14 0 A 14 14 0 0 0 0 14 A 14 14 0 0 0 14 28 A 14 14 0 0 0 28 14 A 14 14 0 0 0 14 0 z M 12 8.5 L 15 8.5 C 15.8 8.5 16.5 9.2 16.5 10 L 16.5 11 L 18.5 11 C 18.911111 11 19.30211 11.143907 19.578125 11.419922 C 19.85414 11.695937 20 12.088889 20 12.5 L 20 18.5 C 20 18.911111 19.85414 19.30211 19.578125 19.578125 C 19.30211 19.854141 18.911111 20 18.5 20 L 8.5 20 C 8.0888889 20 7.6978903 19.854141 7.421875 19.578125 C 7.1458597 19.30211 7 18.911111 7 18.5 L 7 12.5 C 7 12.088889 7.1458597 11.695937 7.421875 11.419922 C 7.6978903 11.143907 8.0888889 11 8.5 11 L 10.5 11 L 10.5 10 C 10.5 9.2 11.2 8.5 12 8.5 z M 12 9.5 C 11.7 9.5 11.5 9.7 11.5 10 L 11.5 11 L 15.5 11 L 15.5 10 C 15.5 9.7 15.3 9.5 15 9.5 L 12 9.5 z M 8.5 12 C 8.3111111 12 8.202891 12.052969 8.1289062 12.126953 C 8.0549211 12.200938 8 12.311111 8 12.5 L 8 18.5 C 8 18.688889 8.0549216 18.797109 8.1289062 18.871094 C 8.2028911 18.94508 8.3111111 19 8.5 19 L 18.5 19 C 18.688889 19 18.797109 18.945079 18.871094 18.871094 C 18.94508 18.797109 19 18.688889 19 18.5 L 19 12.5 C 19 12.311111 18.945074 12.200943 18.871094 12.126953 C 18.797109 12.05297 18.688889 12 18.5 12 L 16.5 12 L 16.5 12.5 C 16.5 12.8 16.3 13 16 13 C 15.7 13 15.5 12.8 15.5 12.5 L 15.5 12 L 11.5 12 L 11.5 12.5 C 11.5 12.8 11.3 13 11 13 C 10.7 13 10.5 12.8 10.5 12.5 L 10.5 12 L 8.5 12 z "/></svg>