<svg xmlns="http://www.w3.org/2000/svg" id="Layer_1" width="28" height="28" viewBox="0 0 28 28"><path id="circle3930-0-0-2" fill-rule="evenodd" d="M 14 0 A 14 14 0 0 0 0 14 A 14 14 0 0 0 14 28 A 14 14 0 0 0 28 14 A 14 14 0 0 0 14 0 z M 18.5 7.9140625 C 18.911111 7.9140625 19.263808 8.0362007 19.523438 8.1660156 A 0.50005 0.50005 0 0 1 19.654297 8.9667969 L 18.699219 9.9199219 L 18.699219 10.113281 L 18.992188 10.113281 L 19.947266 9.1601562 A 0.50005 0.50005 0 0 1 20.773438 9.3554688 C 20.873436 9.6554687 21 10.002951 21 10.414062 C 21 11.786788 19.872727 12.914062 18.5 12.914062 C 18.409181 12.914062 18.322785 12.896319 18.234375 12.886719 L 16.207031 14.914062 L 19.753906 18.460938 C 20.330683 19.037714 20.330683 19.98963 19.753906 20.566406 C 19.17713 21.143183 18.223261 21.143183 17.646484 20.566406 L 14.099609 17.021484 L 12.953125 18.167969 C 13.058768 18.910729 12.831606 19.689879 12.253906 20.267578 C 11.27713 21.244355 9.7228702 21.244355 8.7460938 20.267578 C 7.769317 19.290802 7.769317 17.736542 8.7460938 16.759766 C 9.234482 16.271377 9.8674175 16.027344 10.5 16.027344 C 10.615679 16.027344 10.730886 16.044217 10.845703 16.060547 L 12.001953 14.904297 L 10.949219 13.789062 L 10.453125 14.267578 C 9.9567062 14.763992 9.1596094 14.734453 8.5996094 14.314453 L 8.5722656 14.292969 L 8.2890625 14.009766 L 8.2519531 13.9375 C 8.1519531 13.7375 8 13.479948 8 13.113281 L 8 11.712891 C 8 11.346224 8.1519496 11.090635 8.2519531 10.890625 L 8.2890625 10.818359 L 10.746094 8.359375 C 10.994303 8.1111659 11.317101 7.9962406 11.648438 7.9941406 C 11.979773 7.9920806 12.319609 8.1044531 12.599609 8.3144531 L 12.628906 8.3359375 L 13.689453 9.3945312 L 13.716797 9.4355469 C 14.059028 9.9488929 14.019609 10.652892 13.599609 11.212891 L 13.576172 11.246094 L 13.101562 11.707031 L 14.150391 12.755859 L 16.044922 10.861328 C 16.018172 10.715751 16 10.566947 16 10.414062 C 16 9.0413344 17.127273 7.9140625 18.5 7.9140625 z M 11.673828 8.9863281 C 11.580966 8.9835081 11.504365 9.0151663 11.453125 9.0664062 L 9.1230469 11.396484 C 9.05256 11.548988 9 11.684781 9 11.712891 L 9 13.113281 C 9 13.141263 9.0532078 13.278282 9.1230469 13.429688 L 9.2070312 13.513672 C 9.442577 13.685276 9.643985 13.662665 9.7460938 13.560547 L 9.75 13.556641 L 12.802734 10.601562 C 12.968074 10.368684 12.937622 10.092853 12.882812 10.001953 L 11.994141 9.1132812 C 11.875811 9.0264382 11.766688 8.9891281 11.673828 8.9863281 z M 18.144531 9.0625 C 17.511354 9.238225 17 9.7255875 17 10.414062 C 17 10.511463 17.011487 10.606949 17.029297 10.699219 L 17.080078 10.876953 C 17.116093 11.003005 17.174454 11.121413 17.246094 11.232422 C 17.307178 11.326828 17.383251 11.413701 17.462891 11.494141 C 17.732581 11.753188 18.097296 11.914062 18.5 11.914062 C 19.256573 11.914063 19.824085 11.324657 19.925781 10.595703 L 19.552734 10.966797 A 0.50005 0.50005 0 0 1 19.199219 11.113281 L 18.199219 11.113281 A 0.50005 0.50005 0 0 1 17.699219 10.613281 L 17.699219 9.7128906 A 0.50005 0.50005 0 0 1 17.845703 9.359375 L 18.144531 9.0625 z M 16.466797 11.853516 L 11.873047 16.447266 C 12.007206 16.537294 12.134832 16.640691 12.253906 16.759766 C 12.260616 16.766466 12.264884 16.77445 12.271484 16.78125 C 12.295334 16.80605 12.317524 16.831672 12.333984 16.857422 C 12.417 16.949142 12.499446 17.040865 12.566406 17.140625 L 17.181641 12.525391 C 16.901298 12.349113 16.658519 12.122794 16.466797 11.853516 z M 12.400391 12.419922 L 11.697266 13.123047 L 12.710938 14.195312 L 13.443359 13.462891 L 12.400391 12.419922 z M 15.5 15.621094 L 14.806641 16.314453 L 18.353516 19.859375 C 18.576739 20.082598 18.823652 20.082598 19.046875 19.859375 C 19.270098 19.636152 19.270098 19.391192 19.046875 19.167969 L 15.5 15.621094 z M 10.5 17 C 10.132582 17 9.7647386 17.155186 9.453125 17.466797 C 8.8299017 18.09002 8.8299017 18.937324 9.453125 19.560547 C 10.076348 20.18377 10.923652 20.18377 11.546875 19.560547 C 11.891068 19.216354 12.037943 18.803832 12.001953 18.398438 L 11.925781 18.171875 C 11.846888 17.935195 11.773828 17.768543 11.705078 17.654297 C 11.664616 17.601062 11.620786 17.548707 11.572266 17.498047 C 11.292826 17.313137 11.034793 17.152221 10.841797 17.087891 L 10.615234 17.011719 C 10.57687 17.008299 10.53842 17 10.5 17 z M 10.5 17.914062 A 0.60000002 0.60000002 0 0 1 11.099609 18.513672 A 0.60000002 0.60000002 0 0 1 10.5 19.113281 A 0.60000002 0.60000002 0 0 1 9.9003906 18.513672 A 0.60000002 0.60000002 0 0 1 10.5 17.914062 z "/></svg>