<svg xmlns="http://www.w3.org/2000/svg" id="Layer_1" width="28" height="28" viewBox="0 0 28 28"><path id="circle3930-0-0-2" fill-rule="evenodd" d="M 14 0 A 14 14 0 0 0 0 14 A 14 14 0 0 0 14 28 A 14 14 0 0 0 28 14 A 14 14 0 0 0 14 0 z M 10.953125 5 L 11.552734 5 L 11.853516 5 L 16.154297 5 L 17.052734 5 L 17.253906 5 C 18.571778 5 19.805285 5.547963 20.607422 6.546875 L 22.507812 8.4453125 L 22.466797 8.4082031 C 23.220738 9.0113561 23.220738 10.187863 22.466797 10.791016 L 22.519531 10.740234 L 21.119141 12.240234 A 0.50005 0.50005 0 0 1 21.066406 12.291016 C 20.584922 12.676203 19.985378 12.678839 19.453125 12.478516 L 19.453125 20.199219 C 19.453125 20.704775 19.379158 21.161768 19.105469 21.533203 C 18.83178 21.904638 18.357683 22.099609 17.853516 22.099609 L 10.253906 22.099609 C 9.7497392 22.099609 9.2756422 21.904636 9.0019531 21.533203 C 8.7282638 21.161768 8.6542971 20.704775 8.6542969 20.199219 L 8.6542969 12.478516 C 8.1220439 12.678839 7.5224991 12.676203 7.0410156 12.291016 A 0.50005 0.50005 0 0 1 6.9882812 12.242188 L 5.4882812 10.640625 L 5.5410156 10.689453 C 4.8188171 10.111694 4.8188171 8.9859611 5.5410156 8.4082031 L 5.5 8.4453125 L 7.5 6.4453125 A 0.50005 0.50005 0 0 1 7.5234375 6.4238281 L 7.7832031 6.1972656 A 0.50005 0.50005 0 0 1 7.8359375 6.15625 L 8.1328125 5.9609375 A 0.50005 0.50005 0 0 1 8.1699219 5.9375 C 8.3991307 5.813867 9.5689254 5.1305955 10.90625 5.0019531 A 0.50005 0.50005 0 0 1 10.953125 5 z M 10.996094 6 C 9.952548 6.102658 8.9527763 6.653453 8.6582031 6.8125 L 8.4160156 6.9707031 L 8.1953125 7.1640625 L 6.2070312 9.1523438 A 0.50005 0.50005 0 0 1 6.1660156 9.1894531 C 5.888214 9.4116941 5.888214 9.6859611 6.1660156 9.9082031 A 0.50005 0.50005 0 0 1 6.21875 9.9570312 L 7.6738281 11.509766 C 8.0166539 11.779797 8.2788636 11.768011 8.5 11.546875 L 8.8007812 11.246094 A 0.50005 0.50005 0 0 1 9.6542969 11.599609 L 9.6542969 20.199219 C 9.654297 20.593664 9.7303296 20.837841 9.8066406 20.941406 C 9.8829516 21.044969 9.9580726 21.099609 10.253906 21.099609 L 17.853516 21.099609 C 18.149349 21.099609 18.224471 21.044971 18.300781 20.941406 C 18.377094 20.837841 18.453125 20.593664 18.453125 20.199219 L 18.453125 11.599609 A 0.50005 0.50005 0 0 1 19.306641 11.246094 L 19.607422 11.546875 C 19.828559 11.768011 20.090768 11.779797 20.433594 11.509766 L 21.787109 10.058594 A 0.50005 0.50005 0 0 1 21.841797 10.009766 C 22.087856 9.8129188 22.087856 9.3863011 21.841797 9.1894531 A 0.50005 0.50005 0 0 1 21.800781 9.1523438 L 19.900391 7.2539062 A 0.50005 0.50005 0 0 1 19.859375 7.2070312 C 19.260125 6.4365662 18.315017 6 17.253906 6 L 17.052734 6 L 16.451172 6 C 16.193053 7.211096 15.271631 8.1992188 14.052734 8.1992188 C 12.790261 8.1992188 11.828718 7.251508 11.5625 6 L 11.552734 6 L 10.996094 6 z M 12.423828 6 C 12.624378 6.745909 13.266792 7.1992188 14.052734 7.1992188 C 14.699069 7.1992187 15.343275 6.685089 15.566406 6 L 12.423828 6 z M 15.052734 11 L 17.052734 11 A 0.50005 0.50005 0 0 1 17.552734 11.5 L 17.552734 13.5 C 17.552734 13.816666 17.39139 14.076966 17.207031 14.238281 C 17.022671 14.399596 16.8194 14.5 16.552734 14.5 L 15.552734 14.5 C 15.291623 14.5 15.026406 14.40336 14.837891 14.214844 C 14.649375 14.026329 14.552734 13.761111 14.552734 13.5 L 14.552734 11.5 A 0.50005 0.50005 0 0 1 15.052734 11 z M 15.552734 12 L 15.552734 13.5 L 16.552734 13.5 L 16.552734 12 L 15.552734 12 z "/></svg>