<svg xmlns="http://www.w3.org/2000/svg" id="Layer_1" width="28" height="28" viewBox="0 0 28 28"><path id="circle3918-0-8-6" d="M 14 0 A 14 14 0 0 0 0 14 A 14 14 0 0 0 14 28 A 14 14 0 0 0 28 14 A 14 14 0 0 0 14 0 z M 14 6.5 C 18.136213 6.5 21.5 9.863787 21.5 14 C 21.5 18.136214 18.136213 21.5 14 21.5 C 9.8637867 21.5 6.5 18.136214 6.5 14 C 6.5000001 9.863787 9.8637868 6.5 14 6.5 z M 14 7.5 C 13.536462 7.5 13.08425 7.548839 12.648438 7.640625 C 12.460083 7.914996 12.27895 8.2508668 12.099609 8.6992188 L 15.900391 8.6992188 C 15.775136 8.2817038 15.610648 7.9494005 15.4375 7.6640625 C 14.974781 7.5598995 14.494653 7.5 14 7.5 z M 16.619141 8.0507812 C 16.755336 8.4025982 16.890861 8.6992188 17 8.6992188 L 17.757812 8.6992188 C 17.402456 8.4471318 17.022654 8.2282302 16.619141 8.0507812 z M 11.3125 8.0839844 C 10.934605 8.2555134 10.577063 8.4616598 10.242188 8.6992188 L 11 8.6992188 C 11.100166 8.6992188 11.199771 8.4222564 11.3125 8.0839844 z M 9.1328125 9.6992188 C 8.6170039 10.282704 8.2043517 10.956756 7.9238281 11.699219 L 10.400391 11.699219 C 10.400391 11.699219 10.499219 10.699219 10.699219 9.6992188 L 9.1328125 9.6992188 z M 11.699219 9.6992188 C 11.599219 10.699219 11.400391 11.699219 11.400391 11.699219 L 16.599609 11.699219 C 16.499609 11.699219 16.399219 10.699219 16.199219 9.6992188 L 11.699219 9.6992188 z M 17.300781 9.6992188 C 17.400781 10.699219 17.499609 11.699219 17.599609 11.699219 L 20.076172 11.699219 C 19.795648 10.956756 19.382995 10.282704 18.867188 9.6992188 L 17.300781 9.6992188 z M 7.6289062 12.699219 C 7.5439961 13.119183 7.5 13.554612 7.5 14 C 7.5 14.236322 7.5146017 14.4695 7.5390625 14.699219 L 10.300781 14.699219 L 10.300781 13.699219 L 10.300781 12.699219 L 7.6289062 12.699219 z M 11.300781 12.699219 L 11.300781 13.699219 L 11.300781 14.699219 L 16.699219 14.699219 L 16.699219 13.699219 L 16.699219 12.699219 L 11.300781 12.699219 z M 17.699219 12.699219 L 17.699219 13.699219 L 17.699219 14.699219 L 20.460938 14.699219 C 20.485397 14.4695 20.5 14.236322 20.5 14 C 20.5 13.554612 20.456004 13.119183 20.371094 12.699219 L 17.699219 12.699219 z M 7.7304688 15.699219 C 7.9258531 16.424175 8.2402369 17.09864 8.65625 17.699219 L 10.699219 17.699219 C 10.599219 17.699219 10.500391 16.699219 10.400391 15.699219 L 7.7304688 15.699219 z M 11.300781 15.699219 C 11.400781 16.699219 11.499219 17.699219 11.699219 17.699219 L 16.300781 17.699219 C 16.400781 17.699219 16.599609 16.699219 16.599609 15.699219 L 11.300781 15.699219 z M 17.599609 15.699219 C 17.599609 16.699219 17.400781 17.699219 17.300781 17.699219 L 19.34375 17.699219 C 19.759763 17.09864 20.074147 16.424175 20.269531 15.699219 L 17.599609 15.699219 z M 9.5136719 18.699219 C 10.080021 19.239986 10.739489 19.683453 11.472656 19.992188 C 11.307995 19.708977 11.135047 19.374452 11 18.699219 L 9.5136719 18.699219 z M 12 18.699219 C 12.302675 19.455907 12.60517 20.038389 12.951172 20.408203 C 13.293144 20.463553 13.642149 20.5 14 20.5 C 14.331361 20.5 14.654772 20.467522 14.972656 20.419922 C 15.307894 20.008741 15.605302 19.43694 15.900391 18.699219 L 12 18.699219 z M 16.900391 18.699219 C 16.755234 19.425002 16.595498 19.731644 16.412109 20.035156 C 17.190231 19.724735 17.890934 19.267719 18.486328 18.699219 L 16.900391 18.699219 z "/></svg>