<svg xmlns="http://www.w3.org/2000/svg" id="Layer_1" width="28" height="28" viewBox="0 0 28 28"><path id="circle3930-0-0-2" fill-rule="evenodd" d="M 14 0 A 14 14 0 0 0 0 14 A 14 14 0 0 0 14 28 A 14 14 0 0 0 28 14 A 14 14 0 0 0 14 0 z M 6.5 6 L 21.5 6 C 21.911111 6 22.30211 6.14586 22.578125 6.421875 C 22.85414 6.69789 23 7.088889 23 7.5 L 23 20.5 C 23 20.911111 22.85414 21.30211 22.578125 21.578125 C 22.30211 21.85414 21.911111 22 21.5 22 L 6.5 22 C 6.0888889 22 5.6978903 21.85414 5.421875 21.578125 C 5.1458597 21.30211 5 20.911111 5 20.5 L 5 7.5 C 5 7.088889 5.1458597 6.69789 5.421875 6.421875 C 5.6978903 6.14586 6.0888889 6 6.5 6 z M 6.5 7 C 6.3111111 7 6.2028912 7.0549213 6.1289062 7.1289062 C 6.0549215 7.2028913 6 7.311111 6 7.5 L 6 10 L 22 10 L 22 7.5 C 22 7.311111 21.945078 7.2028913 21.871094 7.1289062 C 21.797109 7.0549202 21.688889 7 21.5 7 L 6.5 7 z M 15.5 8 A 0.5 0.5 0 0 1 16 8.5 A 0.5 0.5 0 0 1 15.5 9 A 0.5 0.5 0 0 1 15 8.5 A 0.5 0.5 0 0 1 15.5 8 z M 17.5 8 A 0.5 0.5 0 0 1 18 8.5 A 0.5 0.5 0 0 1 17.5 9 A 0.5 0.5 0 0 1 17 8.5 A 0.5 0.5 0 0 1 17.5 8 z M 19.5 8 A 0.5 0.5 0 0 1 20 8.5 A 0.5 0.5 0 0 1 19.5 9 A 0.5 0.5 0 0 1 19 8.5 A 0.5 0.5 0 0 1 19.5 8 z M 6 11 L 6 20.5 C 6 20.688889 6.0549215 20.797109 6.1289062 20.871094 C 6.202891 20.945078 6.3111111 21 6.5 21 L 21.5 21 C 21.688889 21 21.797109 20.945078 21.871094 20.871094 C 21.94508 20.797109 22 20.688889 22 20.5 L 22 11 L 6 11 z M 7.5 14 C 7.8 14 8 14.2 8 14.5 L 8 15 L 8 16.300781 L 8.5996094 15.599609 C 8.7996094 15.399609 9.1007813 15.399609 9.3007812 15.599609 L 10 16.300781 L 10 15 L 10 14.5 C 10 14.2 10.2 14 10.5 14 C 10.8 14 11 14.2 11 14.5 L 11 15 L 11 16.400391 L 11 17.400391 L 11 17.5 L 11 17.599609 L 11 17.699219 L 11 17.800781 C 11 17.900781 10.900391 17.900391 10.900391 17.900391 C 10.900391 18.000392 10.800781 18 10.800781 18 L 10.699219 18 L 10.599609 18 L 10.5 18 L 10.400391 18 C 10.400391 17.899999 10.300781 17.900391 10.300781 17.900391 L 10.199219 17.900391 L 9 16.699219 L 7.9003906 17.900391 C 7.8003906 17.900391 7.7992187 18 7.6992188 18 L 7.5 18 L 7.3007812 18 L 7 17.699219 L 7 17.5 L 7 16.5 L 7 15 L 7 14.5 C 7 14.2 7.2 14 7.5 14 z M 12.5 14 C 12.8 14 13 14.2 13 14.5 L 13 15 L 13 16.300781 L 13.599609 15.599609 C 13.799609 15.399609 14.100781 15.399609 14.300781 15.599609 L 15 16.300781 L 15 15 L 15 14.5 C 15 14.2 15.2 14 15.5 14 C 15.8 14 16 14.2 16 14.5 L 16 15 L 16 16.400391 L 16 17.400391 L 16 17.5 L 16 17.599609 L 16 17.699219 L 16 17.800781 C 16 17.900781 15.900391 17.900391 15.900391 17.900391 C 15.900391 18.000392 15.800781 18 15.800781 18 L 15.699219 18 L 15.599609 18 L 15.5 18 L 15.400391 18 C 15.400391 17.899999 15.300781 17.900391 15.300781 17.900391 L 15.199219 17.900391 L 14 16.699219 L 12.900391 17.900391 C 12.800391 17.900391 12.799219 18 12.699219 18 L 12.5 18 L 12.300781 18 L 12 17.699219 L 12 17.5 L 12 16.5 L 12 15 L 12 14.5 C 12 14.2 12.2 14 12.5 14 z M 17.5 14 C 17.8 14 18 14.2 18 14.5 L 18 15 L 18 16.300781 L 18.599609 15.599609 C 18.799609 15.399609 19.100781 15.399609 19.300781 15.599609 L 20 16.300781 L 20 15 L 20 14.5 C 20 14.2 20.2 14 20.5 14 C 20.8 14 21 14.2 21 14.5 L 21 15 L 21 16.400391 L 21 17.400391 L 21 17.5 L 21 17.599609 L 21 17.699219 L 21 17.800781 C 21 17.900781 20.900391 17.900391 20.900391 17.900391 C 20.900391 18.000392 20.800781 18 20.800781 18 L 20.699219 18 L 20.599609 18 L 20.5 18 L 20.400391 18 C 20.400391 17.899999 20.300781 17.900391 20.300781 17.900391 L 20.199219 17.900391 L 19 16.699219 L 17.900391 17.900391 C 17.800391 17.900391 17.799219 18 17.699219 18 L 17.5 18 L 17.300781 18 L 17 17.699219 L 17 17.5 L 17 16.5 L 17 15 L 17 14.5 C 17 14.2 17.2 14 17.5 14 z "/></svg>