<svg xmlns="http://www.w3.org/2000/svg" data-name="Layer 1" viewBox="0 0 64 64"><path fill="#c4c8d1" stroke="#3c3b72" stroke-linecap="round" stroke-linejoin="round" stroke-width="3" d="M51,34.61,47.15,57.5a2,2,0,0,1-2,1.67H18.82a2,2,0,0,1-2-1.67L13,34.61,32,13.22Z"/><path fill="#dee3e7" stroke="#3c3b72" stroke-linecap="round" stroke-linejoin="round" stroke-width="3" d="M53.5,37.48,32,13.22,10.5,37.48a1,1,0,0,1-1.37.11L5.82,34.94a1,1,0,0,1-.12-1.45l24.8-28a2,2,0,0,1,3,0l24.8,28a1,1,0,0,1-.12,1.45l-3.31,2.65A1,1,0,0,1,53.5,37.48Z"/><circle cx="32" cy="37.14" r="7" fill="#ffe993" stroke="#3c3b72" stroke-linecap="round" stroke-linejoin="round" stroke-width="3"/><circle cx="32" cy="50.33" r="1.88" fill="#3c3b72"/></svg>