<svg xmlns="http://www.w3.org/2000/svg" data-name="Layer 1" viewBox="0 0 64 64"><rect width="64.17" height="8.25" x="-.08" y="20.75" fill="#dee3e7" stroke="#3c3b72" stroke-linecap="round" stroke-linejoin="round" stroke-width="3" rx="1"/><rect width="64.17" height="8.25" x="-.08" y="43.62" fill="#dee3e7" stroke="#3c3b72" stroke-linecap="round" stroke-linejoin="round" stroke-width="3" rx="1"/><path fill="#c4c8d1" stroke="#3c3b72" stroke-linecap="round" stroke-linejoin="round" stroke-width="3" d="M18.66 12.4L12.88 4.3 7.11 12.4a2 2 0 0 0-.37 1.16V59.7H19V13.56A2 2 0 0 0 18.66 12.4zM37.78 12.4L32 4.3l-5.78 8.1a2 2 0 0 0-.37 1.16V59.7h12.3V13.56A2 2 0 0 0 37.78 12.4zM56.89 12.4L51.12 4.3l-5.78 8.1A2 2 0 0 0 45 13.56V59.7h12.3V13.56A1.92 1.92 0 0 0 56.89 12.4z"/></svg>