<svg xmlns="http://www.w3.org/2000/svg" data-name="Layer 1" viewBox="0 0 64 64"><line x1="12.72" x2="8.84" y1="39.44" y2="44.8" fill="none" stroke="#3c3b72" stroke-linecap="round" stroke-linejoin="round" stroke-width="3"/><line x1="32.94" x2="29.06" y1="54.13" y2="59.48" fill="none" stroke="#3c3b72" stroke-linecap="round" stroke-linejoin="round" stroke-width="3"/><line x1="27.89" x2="24" y1="50.46" y2="55.81" fill="none" stroke="#3c3b72" stroke-linecap="round" stroke-linejoin="round" stroke-width="3"/><line x1="22.83" x2="18.95" y1="46.79" y2="52.14" fill="none" stroke="#3c3b72" stroke-linecap="round" stroke-linejoin="round" stroke-width="3"/><line x1="17.78" x2="13.89" y1="43.12" y2="48.47" fill="none" stroke="#3c3b72" stroke-linecap="round" stroke-linejoin="round" stroke-width="3"/><rect width="9" height="20.99" x="41.64" y="4.36" fill="#dee3e7" stroke="#3c3b72" stroke-linecap="round" stroke-linejoin="round" stroke-width="3" rx="2" transform="rotate(-143.93 46.143 14.86)"/><line x1="26.49" x2="39.96" y1="41.85" y2="23.35" fill="none" stroke="#3c3b72" stroke-linecap="round" stroke-linejoin="round" stroke-width="3"/><path fill="#c4c8d1" stroke="#3c3b72" stroke-linecap="round" stroke-linejoin="round" stroke-width="3" d="M12.14,41.23h25a0,0,0,0,1,0,0v4.15a2,2,0,0,1-2,2h-21a2,2,0,0,1-2-2V41.23a0,0,0,0,1,0,0Z" transform="rotate(-144.01 24.637 44.299)"/></svg>