<svg xmlns="http://www.w3.org/2000/svg" data-name="Layer 1" viewBox="0 0 64 64"><path fill="#c4c8d1" stroke="#3c3b72" stroke-linecap="round" stroke-linejoin="round" stroke-width="3" d="M20,28.75V47.33a1,1,0,0,0,1,1H43a1,1,0,0,0,1-1V27.75H55a1,1,0,0,0,1-1V19.5a1,1,0,0,0-1-1H9a1,1,0,0,0-1,1v7.25a1,1,0,0,0,1,1H19A1,1,0,0,1,20,28.75Z"/><ellipse cx="32" cy="13.91" fill="#ffe993" stroke="#3c3b72" stroke-linecap="round" stroke-linejoin="round" stroke-width="3" rx="7" ry="8.12"/><path fill="#c4c8d1" stroke="#3c3b72" stroke-linecap="round" stroke-linejoin="round" stroke-width="3" d="M26.5,4.3h11a2,2,0,0,1,2,2v6.89a0,0,0,0,1,0,0h-15a0,0,0,0,1,0,0V6.3A2,2,0,0,1,26.5,4.3Z"/><line x1="20.54" x2="43.46" y1="13.19" y2="13.19" fill="none" stroke="#3c3b72" stroke-linecap="round" stroke-linejoin="round" stroke-width="3"/><line x1="8.04" x2="3.5" y1="21.83" y2="21.83" fill="none" stroke="#3c3b72" stroke-linecap="round" stroke-linejoin="round" stroke-width="3"/><line x1="60.5" x2="55.96" y1="21.83" y2="21.83" fill="none" stroke="#3c3b72" stroke-linecap="round" stroke-linejoin="round" stroke-width="3"/><line x1="32" x2="32" y1="48.33" y2="59.7" fill="none" stroke="#3c3b72" stroke-linecap="round" stroke-linejoin="round" stroke-width="3"/></svg>