<svg xmlns="http://www.w3.org/2000/svg" data-name="Layer 1" viewBox="0 0 64 64"><path fill="#c4c8d1" stroke="#3c3b72" stroke-linecap="round" stroke-linejoin="round" stroke-width="3" d="M38.72,8.43l7.2,17.72H56.64a5,5,0,0,1,5,5V48.81H8.24V9.69a5,5,0,0,1,5-5H33.16A6,6,0,0,1,38.72,8.43Z"/><path fill="#dee3e7" stroke="#3c3b72" stroke-linecap="round" stroke-linejoin="round" stroke-width="3" d="M15.5,25.5v-13a1,1,0,0,1,1-1H31.8a1,1,0,0,1,.93.64l5,13a1,1,0,0,1-.93,1.36H16.5A1,1,0,0,1,15.5,25.5Z"/><circle cx="51.01" cy="48.68" r="10.63" fill="#fffaf0" stroke="#3c3b72" stroke-linecap="round" stroke-linejoin="round" stroke-width="3"/><circle cx="50.98" cy="48.66" r="4.35" fill="#dee3e7" stroke="#3c3b72" stroke-linecap="round" stroke-linejoin="round" stroke-width="3"/><circle cx="15.33" cy="46.34" r="12.96" fill="#fffaf0" stroke="#3c3b72" stroke-linecap="round" stroke-linejoin="round" stroke-width="3"/><circle cx="15.33" cy="46.34" r="5.21" fill="#dee3e7" stroke="#3c3b72" stroke-linecap="round" stroke-linejoin="round" stroke-width="3"/><path fill="#dee3e7" stroke="#3c3b72" stroke-linecap="round" stroke-linejoin="round" stroke-width="3" d="M16.5,11.5h5.25a0,0,0,0,1,0,0v15a0,0,0,0,1,0,0H16.5a1,1,0,0,1-1-1v-13A1,1,0,0,1,16.5,11.5Z"/></svg>