<svg xmlns="http://www.w3.org/2000/svg" data-name="Layer 1" viewBox="0 0 64 64"><path fill="#c4c8d1" stroke="#3c3b72" stroke-linecap="round" stroke-linejoin="round" stroke-width="3" d="M10.82 12h0A18.84 18.84 0 0 0 .14 21.27h0a1 1 0 0 0 .78 1.45l5.84.66L12 18.83 12.14 13A1 1 0 0 0 10.82 12zM33.64 8.89h11a2 2 0 0 1 2 2v4.46a0 0 0 0 1 0 0h-15a0 0 0 0 1 0 0V10.89A2 2 0 0 1 33.64 8.89zM53.07 22.46H25.22l-.9 7.35-1.2 9.77-1.07 8.77-.56 4.52a2 2 0 0 0 2 2.25H54.81a2 2 0 0 0 2-2.25L56 46 53.7 27.62z"/><path fill="none" stroke="#3c3b72" stroke-linecap="round" stroke-linejoin="round" stroke-width="3" d="M53.07,22.46l.63,5.16L56,46l6.56-4.52A3,3,0,0,0,64,38.9V26.46a4,4,0,0,0-4-4Z"/><polygon fill="#dee3e7" stroke="#3c3b72" stroke-linecap="round" stroke-linejoin="round" stroke-width="3" points="24.32 29.81 22.05 48.35 22.04 48.35 6.76 23.38 11.99 18.83 24.32 29.81 24.32 29.81"/><path fill="#dee3e7" stroke="#3c3b72" stroke-linecap="round" stroke-linejoin="round" stroke-width="3" d="M54.14,22.46l-.5-5.3a2,2,0,0,0-2-1.82h-25a2,2,0,0,0-2,1.82l-.5,5.29Z"/></svg>