<svg xmlns="http://www.w3.org/2000/svg" data-name="Layer 1" viewBox="0 0 64 64"><path fill="#c4c8d1" stroke="#3c3b72" stroke-linecap="round" stroke-linejoin="round" stroke-width="3" d="M47.19,23.7,32.69,10a1,1,0,0,0-1.38,0L16.81,23.7a1,1,0,0,0-.31.72V58.7a1,1,0,0,0,1,1h29a1,1,0,0,0,1-1V24.42A1,1,0,0,0,47.19,23.7Z"/><path fill="#fffaf0" stroke="#3c3b72" stroke-linecap="round" stroke-linejoin="round" stroke-width="3" d="M16.26,4.08h6.66a0,0,0,0,1,0,0V18.42a3.3,3.3,0,0,1-3.3,3.3h-.06a3.3,3.3,0,0,1-3.3-3.3V4.08a0,0,0,0,1,0,0Z" transform="rotate(-45 19.591 12.895)"/><circle cx="32" cy="25.31" r="3.86" fill="#ffe993" stroke="#3c3b72" stroke-linecap="round" stroke-linejoin="round" stroke-width="3"/><line x1="25.83" x2="29.27" y1="19.14" y2="22.58" fill="none" stroke="#3c3b72" stroke-linecap="round" stroke-linejoin="round" stroke-width="3"/><path fill="#fffaf0" stroke="#3c3b72" stroke-linecap="round" stroke-linejoin="round" stroke-width="3" d="M41.08,28.89h6.66a0,0,0,0,1,0,0V43.23a3.3,3.3,0,0,1-3.3,3.3h-.06a3.3,3.3,0,0,1-3.3-3.3V28.89a0,0,0,0,1,0,0Z" transform="rotate(135 44.41 37.714)"/><line x1="38.17" x2="34.74" y1="31.48" y2="28.04" fill="none" stroke="#3c3b72" stroke-linecap="round" stroke-linejoin="round" stroke-width="3"/><path fill="#fffaf0" stroke="#3c3b72" stroke-linecap="round" stroke-linejoin="round" stroke-width="3" d="M41.08,4.08h6.66a0,0,0,0,1,0,0V18.42a3.3,3.3,0,0,1-3.3,3.3h-.06a3.3,3.3,0,0,1-3.3-3.3V4.08a0,0,0,0,1,0,0Z" transform="rotate(45 44.405 12.903)"/><line x1="38.17" x2="34.73" y1="19.14" y2="22.58" fill="none" stroke="#3c3b72" stroke-linecap="round" stroke-linejoin="round" stroke-width="3"/><path fill="#fffaf0" stroke="#3c3b72" stroke-linecap="round" stroke-linejoin="round" stroke-width="3" d="M16.26,28.89h6.66a0,0,0,0,1,0,0V43.23a3.3,3.3,0,0,1-3.3,3.3h-.06a3.3,3.3,0,0,1-3.3-3.3V28.89A0,0,0,0,1,16.26,28.89Z" transform="rotate(-135 19.594 37.716)"/><line x1="25.83" x2="29.27" y1="31.48" y2="28.03" fill="none" stroke="#3c3b72" stroke-linecap="round" stroke-linejoin="round" stroke-width="3"/><path fill="#dee3e7" stroke="#3c3b72" stroke-linecap="round" stroke-linejoin="round" stroke-width="3" d="M32,45h0a4.5,4.5,0,0,1,4.5,4.5V59.7a0,0,0,0,1,0,0h-9a0,0,0,0,1,0,0V49.5A4.5,4.5,0,0,1,32,45Z"/></svg>