<svg xmlns="http://www.w3.org/2000/svg" xmlns:xlink="http://www.w3.org/1999/xlink" width="48" height="48" viewBox="0 0 48 48"><defs><linearGradient id="b" x1="992.183" x2="1019.298" y1="516.081" y2="545.959" gradientTransform="matrix(1.53785 0 0 1.53785 -932.485 -657.644)" gradientUnits="userSpaceOnUse" xlink:href="#a"/><linearGradient id="a"><stop offset="0" stop-color="#ff1679"/><stop offset="1" stop-color="#ff770b"/></linearGradient></defs><g transform="translate(-590.22 -135.376)"><rect width="48" height="48" x="590.22" y="135.376" fill="url(#b)" rx="10.144" ry="10.144"/><path fill="#fff" style="line-height:normal;text-indent:0;text-align:start;text-decoration-line:none;text-decoration-style:solid;text-decoration-color:#000;text-transform:none;block-progression:tb;isolation:auto;mix-blend-mode:normal" d="m 621.42493,148.13097 c 0.10221,0.0214 0.16205,0.0547 0.17773,0.0664 -0.0614,-0.0459 0.19944,0.28472 0.21875,0.83789 0.0193,0.55317 -0.1186,1.34121 -0.64844,2.31446 -0.0512,0.0949 -0.0704,0.20384 -0.0547,0.31054 0.24196,1.68091 0.40429,4.44152 0.40429,7.58399 0,3.14248 -0.16232,5.89911 -0.40429,7.58007 -0.0157,0.1067 0.003,0.21564 0.0547,0.31055 0.53013,0.97366 0.66781,1.76482 0.64844,2.31836 -0.0194,0.55353 -0.28015,0.88376 -0.21875,0.83789 -0.0627,0.0469 -0.83672,0.42226 -2.1543,-0.90039 -0.0938,-0.0938 -0.22091,-0.14645 -0.35351,-0.14648 l -11.14453,0 c -0.13328,-5e-4 -0.26124,0.0522 -0.35547,0.14648 -1.31758,1.32265 -2.08962,0.94725 -2.15235,0.90039 0.0614,0.0459 -0.20133,-0.28436 -0.2207,-0.83789 -0.0194,-0.55354 0.12026,-1.3447 0.65039,-2.31836 0.0512,-0.0949 0.0704,-0.20384 0.0547,-0.31055 -0.24197,-1.68096 -0.4043,-4.43759 -0.4043,-7.58007 0,-3.14247 0.16234,-5.90308 0.4043,-7.58399 0.0157,-0.1067 -0.003,-0.21563 -0.0547,-0.31054 -0.52984,-0.97325 -0.6697,-1.76129 -0.65039,-2.31446 0.0181,-0.51718 0.2273,-0.78098 0.20703,-0.7832 0.27604,6.3e-4 0.51242,-0.034 0.82227,0.0312 0.35399,0.0745 0.79233,0.2609 1.34375,0.81445 0.0942,0.0942 0.22219,0.14698 0.35547,0.14649 l 11.14453,0 c 0.1326,-3e-5 0.25976,-0.0527 0.35351,-0.14649 0.65879,-0.66133 1.18112,-0.89943 1.54688,-0.96484 0.18287,-0.0327 0.32747,-0.0233 0.42969,-0.002 z m -13.40235,7.11329 c -0.27613,3e-5 -0.49997,0.22387 -0.5,0.5 l 0,6 c 3e-5,0.27613 0.22387,0.49997 0.5,0.5 l 11,0 c 0.27613,-3e-5 0.49997,-0.22387 0.5,-0.5 l 0,-6 c -3e-5,-0.27613 -0.22387,-0.49997 -0.5,-0.5 z m 0.5,1 10,0 0,5 -10,0 z m 1,1 0,1 5,0 0,-1 z m 0,2 0,1 3,0 0,-1 z" color="#000" font-family="sans-serif" font-weight="400" overflow="visible" white-space="normal"/></g></svg>