<svg xmlns="http://www.w3.org/2000/svg" xmlns:xlink="http://www.w3.org/1999/xlink" width="48" height="48" viewBox="0 0 48 48"><defs><linearGradient id="b" x1="949.87" x2="974.39" y1="518.014" y2="544.657" gradientTransform="matrix(1.53785 0 0 1.53785 -864.133 -657.644)" gradientUnits="userSpaceOnUse" xlink:href="#a"/><linearGradient id="a"><stop offset="0" stop-color="#24f7bc"/><stop offset="1" stop-color="#24c4fc"/></linearGradient></defs><g transform="translate(-590.22 -135.376)"><rect width="48" height="48" x="590.22" y="135.376" fill="url(#b)" rx="10.144" ry="10.144"/><path fill="#fff" style="isolation:auto;mix-blend-mode:normal" d="m 611.22007,143.37552 0,1.50195 5,0 0,-1.50195 -5,0 z m 0,2.50195 c 0.001,0.83008 0.66966,1.49805 1.5,1.49805 l 0,15.99218 -2,0 c -1.38501,0 -2.5,1.115 -2.5,2.5 l 0,8.5 0.008,0.008 2,0 0,-8 2.5,0 0,8 1.99219,0 0,-8 2.5,0 0,8 2.00781,0 -0.008,-0.008 0,-8.5 c 0,-1.385 -1.11499,-2.5 -2.5,-2.5 l -2,0 0,-15.99218 c 0.83034,0 1.49893,-0.66798 1.5,-1.49805 l -5,0 z" color="#000" overflow="visible"/></g></svg>