<svg xmlns="http://www.w3.org/2000/svg" xmlns:xlink="http://www.w3.org/1999/xlink" width="48" height="48" viewBox="0 0 48 48"><defs><linearGradient id="b" x1="868.253" x2="937.656" y1="521.354" y2="588.736" gradientTransform="matrix(1.53785 0 0 1.53785 -736.748 -657.644)" gradientUnits="userSpaceOnUse" xlink:href="#a"/><linearGradient id="a"><stop offset="0" stop-color="#24f3d2"/><stop offset=".394" stop-color="#0674f0"/><stop offset=".507" stop-color="#6961b5"/><stop offset=".813" stop-color="#f34660"/><stop offset="1" stop-color="#ee078d"/></linearGradient></defs><g transform="translate(-590.22 -135.376)"><rect width="48" height="48" x="590.22" y="135.376" fill="url(#b)" rx="10.144" ry="10.144"/><path fill="#fff" style="line-height:normal;text-indent:0;text-align:start;text-decoration-line:none;text-decoration-style:solid;text-decoration-color:#000;text-transform:none;block-progression:tb;isolation:auto;mix-blend-mode:normal" d="m 619.86195,146.23848 a 0.50005,0.50005 0 0 0 -0.0352,0.004 c -1.88327,0.18235 -3.42574,1.48079 -3.98437,3.2207 -0.35961,-0.0953 -0.73072,-0.16211 -1.12109,-0.16211 -0.38679,0 -0.75469,0.0646 -1.11133,0.1582 -0.49161,-1.53379 -1.75445,-2.72542 -3.35352,-3.10937 a 0.50005,0.50005 0 0 0 -0.14843,-0.0156 0.50005,0.50005 0 0 0 -0.0859,0.98633 c 1.28098,0.30758 2.28111,1.27184 2.65234,2.50782 -1.37237,0.7314 -2.31376,2.15739 -2.31445,3.82226 6e-4,0.21173 0.0225,0.42272 0.0547,0.63281 1.28499,-0.68541 2.74988,-1.07617 4.30664,-1.07617 1.55677,0 3.02165,0.39076 4.30664,1.07617 0.0319,-0.21031 0.0537,-0.42191 0.0547,-0.63476 -10e-4,-1.66361 -0.94125,-3.08901 -2.3125,-3.82031 0.41951,-1.40108 1.64375,-2.44573 3.15234,-2.5918 a 0.50005,0.50005 0 0 0 -0.0606,-0.99805 z m -7.39062,4.98047 c 0.27614,0 0.5,0.22386 0.5,0.5 0,0.27614 -0.22386,0.5 -0.5,0.5 -0.27614,0 -0.5,-0.22386 -0.5,-0.5 0,-0.27614 0.22386,-0.5 0.5,-0.5 z m 5,0 c 0.27614,0 0.5,0.22386 0.5,0.5 0,0.27614 -0.22386,0.5 -0.5,0.5 -0.27614,0 -0.5,-0.22386 -0.5,-0.5 0,-0.27614 0.22386,-0.5 0.5,-0.5 z m 7.91797,1.42578 a 0.50005,0.50005 0 0 0 -0.42579,0.2793 c -0.89548,1.75471 -2.23186,3.24527 -3.87304,4.33594 -1.3977,-1.7348 -3.4941,-2.8841 -5.86914,-3.02735 l 0,16.22852 c 1.9597,-0.11825 3.72736,-0.92756 5.07226,-2.17969 1.99819,1.10641 3.62982,2.77638 4.66992,4.81445 a 0.50005,0.50005 0 0 0 0.42579,0.2793 0.50005,0.50005 0 0 0 0.46484,-0.73242 c -1.09195,-2.13968 -2.78156,-3.90902 -4.85156,-5.11133 1.07152,-1.28635 1.74887,-2.9061 1.85742,-4.68555 l 3.85351,0 a 0.50005,0.50005 0 1 0 0,-1 l -3.85351,0 c -0.0839,-1.37881 -0.50684,-2.66284 -1.19336,-3.76953 1.77367,-1.18419 3.21787,-2.79727 4.1875,-4.69726 a 0.50005,0.50005 0 0 0 -0.46484,-0.73438 z m -21.32227,0.0664 a 0.50005,0.50005 0 0 0 -0.44336,0.73633 c 0.96927,1.87039 2.39943,3.46273 4.15234,4.63281 -0.68518,1.10585 -1.10954,2.38834 -1.19336,3.76562 l -3.85546,0 a 0.50005,0.50005 0 1 0 0,1 l 3.85546,0 c 0.1084,1.77697 0.78458,3.3942 1.85352,4.67969 -2.04639,1.18856 -3.71878,2.93634 -4.8125,5.04688 a 0.50005,0.50005 0 0 0 0.44336,0.73632 0.50005,0.50005 0 0 0 0.44336,-0.27539 c 1.04259,-2.01189 2.66311,-3.65984 4.64062,-4.7539 1.34499,1.25248 3.1103,2.06338 5.07032,2.18164 l 0,-16.22852 c -2.37504,0.14325 -4.47145,1.29255 -5.86914,3.02735 -1.62155,-1.07764 -2.94678,-2.54436 -3.8418,-4.27149 a 0.50005,0.50005 0 0 0 -0.44336,-0.27734 z m 5.5957,5.50976 c 0.0169,-8.6e-4 0.0339,-8.6e-4 0.0508,0 l 3,0 c 0.67616,-0.01 0.67616,1.01 0,1 l -3,0 c -0.66669,0.0339 -0.71745,-0.9662 -0.0508,-1 z m 7.01367,0 c 0.0169,-8.6e-4 0.0339,-8.6e-4 0.0508,0 l 3,0 c 0.67616,-0.01 0.67616,1.01 0,1 l -3,0 c -0.66669,0.0339 -0.71745,-0.9662 -0.0508,-1 z m -6.01367,2 c 0.0169,-8.6e-4 0.0339,-8.6e-4 0.0508,0 l 2,0 c 0.67616,-0.01 0.67616,1.01 0,1 l -2,0 c -0.66669,0.0339 -0.71745,-0.9662 -0.0508,-1 z m 6.01367,0 c 0.0169,-8.6e-4 0.0339,-8.6e-4 0.0508,0 l 2,0 c 0.67616,-0.01 0.67616,1.01 0,1 l -2,0 c -0.66669,0.0339 -0.71745,-0.9662 -0.0508,-1 z m -5.01367,2 c 0.0169,-8.6e-4 0.0339,-8.6e-4 0.0508,0 l 1,0 c 0.67616,-0.01 0.67616,1.01 0,1 l -1,0 c -0.66669,0.0339 -0.71745,-0.9662 -0.0508,-1 z m 5.01367,0 c 0.0169,-8.6e-4 0.0339,-8.6e-4 0.0508,0 l 1,0 c 0.67616,-0.01 0.67616,1.01 0,1 l -1,0 c -0.66669,0.0339 -0.71745,-0.9662 -0.0508,-1 z" color="#000" font-family="sans-serif" font-weight="400" overflow="visible" white-space="normal"/></g></svg>