<svg xmlns="http://www.w3.org/2000/svg" xmlns:xlink="http://www.w3.org/1999/xlink" width="48" height="48" viewBox="0 0 48 48"><defs><linearGradient id="b" x1="949.87" x2="974.39" y1="518.014" y2="544.657" gradientTransform="matrix(1.53785 0 0 1.53785 -864.133 -657.644)" gradientUnits="userSpaceOnUse" xlink:href="#a"/><linearGradient id="a"><stop offset="0" stop-color="#24f7bc"/><stop offset="1" stop-color="#24c4fc"/></linearGradient></defs><g transform="translate(-590.22 -135.376)"><rect width="48" height="48" x="590.22" y="135.376" fill="url(#b)" rx="10.144" ry="10.144"/><path fill="#fff" d="m 619.72011,147.37444 a 6.4999887,6.4999887 0 0 0 -5.25781,2.68945 3.9999995,3.9999995 0 0 0 -2.24219,-0.68945 3.9999995,3.9999995 0 0 0 -4,4 3.9999995,3.9999995 0 0 0 0.041,0.53516 2.4999997,2.4999997 0 0 0 -1.54102,-0.53516 2.4999997,2.4999997 0 0 0 -2.44922,2 l -0.0508,0 c -2.216,0 -4,1.784 -4,4 0,2.216 1.784,4 4,4 l 20,0 c 2.216,0 4,-1.784 4,-4 0,-1.599 -0.93525,-2.96232 -2.28516,-3.60352 a 6.4999887,6.4999887 0 0 0 0.28516,-1.89648 6.4999887,6.4999887 0 0 0 -6.5,-6.5 z m -7.50781,16.47852 a 0.50005,0.50005 0 0 0 -0.49219,0.50781 l 0,7 a 0.50005,0.50005 0 1 0 1,0 l 0,-7 a 0.50005,0.50005 0 0 0 -0.50781,-0.50781 z m -7,0.50781 a 0.50005,0.50005 0 0 0 -0.49219,0.50781 l 0,7 a 0.50005,0.50005 0 1 0 1,0 l 0,-7 a 0.50005,0.50005 0 0 0 -0.50781,-0.50781 z m 14,0 a 0.50005,0.50005 0 0 0 -0.49219,0.50781 l 0,7 a 0.50005,0.50005 0 1 0 1,0 l 0,-7 a 0.50005,0.50005 0 0 0 -0.50781,-0.50781 z m -10.5,0.33203 a 0.50004976,0.50004976 0 0 0 -0.49219,0.50586 l 0,3.16211 a 0.50004976,0.50004976 0 1 0 1,0 l 0,-3.16211 a 0.50004976,0.50004976 0 0 0 -0.50781,-0.50586 z m 14,0 a 0.50004976,0.50004976 0 0 0 -0.49219,0.50586 l 0,3.16211 a 0.50004976,0.50004976 0 1 0 1,0 l 0,-3.16211 a 0.50004976,0.50004976 0 0 0 -0.50781,-0.50586 z m -7,0.12109 a 0.50004976,0.50004976 0 0 0 -0.49219,0.50586 l 0,3.91992 a 0.50004976,0.50004976 0 1 0 1,0 l 0,-3.91992 a 0.50004976,0.50004976 0 0 0 -0.50781,-0.50586 z"/></g></svg>