<svg xmlns="http://www.w3.org/2000/svg" xmlns:xlink="http://www.w3.org/1999/xlink" width="48" height="48" viewBox="0 0 48 48"><defs><linearGradient id="b" x1="1073.403" x2="1097.116" y1="516.451" y2="544.308" gradientTransform="matrix(1.53785 0 0 1.53785 -1643.872 211.343)" gradientUnits="userSpaceOnUse" xlink:href="#a"/><linearGradient id="a"><stop offset="0" stop-color="#16ff6a"/><stop offset="1" stop-color="#0090a5"/></linearGradient></defs><g transform="translate(0 -1004.362)"><rect width="48" height="48" y="1004.362" fill="url(#b)" rx="10.144" ry="10.144"/><path fill="#fff" style="line-height:normal;text-indent:0;text-align:start;text-decoration-line:none;text-decoration-style:solid;text-decoration-color:#000;text-transform:none;block-progression:tb;isolation:auto;mix-blend-mode:normal" d="m 29.716048,1015.9752 -0.209,0.3633 -0.4043,-0.2324 c 0.2115,-0.063 0.4156,-0.1038 0.6133,-0.1309 z m 1.125,0.057 c 0.1645,0.047 0.3226,0.1082 0.4668,0.1915 0.1446,0.084 0.2752,0.1892 0.3984,0.3085 l -0.4668,0.8067 -0.8652,-0.4981 z m -2.6992,0.6739 0.8652,0.5 -0.5,0.8652 -0.8652,-0.5 z m 4.1758,0.7695 c 0.076,0.185 0.1418,0.3828 0.1933,0.5977 l -0.4043,-0.2325 z m -2.4434,0.2305 0.8652,0.5 -0.5,0.8652 -0.8652,-0.498 z m -3.7246,0.1582 0.127,0.074 -0.5,0.8652 -0.3692,-0.2129 c 0.2469,-0.2492 0.4931,-0.5097 0.7422,-0.7265 z m 0.9922,0.5742 0.8652,0.5 -0.5,0.8652 -0.8652,-0.5 z m 4.4648,0.2676 0.8653,0.5 -0.5,0.8672 -0.8653,-0.5 z m -6.9043,0.6328 0.5743,0.332 -0.5,0.8653 -0.709,-0.4082 c 0.2091,-0.2715 0.4189,-0.5405 0.6347,-0.7891 z m 4.1719,0.1 0.8652,0.5 -0.5,0.8652 -0.8652,-0.5 z m -2.7324,0.7324 0.8652,0.5 -0.5,0.8653 -0.8652,-0.5 z m 4.4648,0.2676 0.8653,0.5 -0.5,0.8652 -0.8653,-0.498 z m -7.1425,0.4961 0.8125,0.4687 -0.5,0.8653 -0.8555,-0.4942 c 0.1765,-0.2884 0.3569,-0.5687 0.543,-0.8398 z m 4.4101,0.2363 0.8652,0.5 -0.5,0.8653 -0.8652,-0.5 z m 4.4629,0.2676 0.127,0.074 c -0.063,0.3236 -0.1676,0.666 -0.2598,1.0039 l -0.3672,-0.2129 z m -11.7441,0.1465 0.084,0.049 0.8672,0.5 c 1.9266,1.1123 2.5752,3.5383 1.4629,5.4649 l -2.4961,4.3242 c -0.01,0.011 -0.015,0.02 -0.022,0.031 l -1.4218,2.4629 c -0.016,0.025 -0.03,0.051 -0.041,0.078 l -0.02,0.031 c -0.018,0.031 -0.032,0.064 -0.043,0.098 -0.7675,1.3978 -0.8005,3.005 -0.2149,4.3731 l -1.7422,-1.0059 c -1.9266,-1.1123 -2.5752,-3.5382 -1.4629,-5.4648 l 0.5,-0.8672 0.5,-0.8652 0,-0.01 3.4961,-6.0547 c 0.5733,-0.993 0.6882,-2.0917 0.5489,-3.1465 z m 4.5488,0.3183 0.8652,0.5 -0.5,0.8653 -0.8652,-0.5 z m 4.4648,0.2676 0.8653,0.5 -0.5,0.8653 -0.8653,-0.5 z m -2.7324,0.7324 0.8652,0.4981 -0.5,0.8672 -0.8652,-0.5 z m 4.4629,0.2657 0.5742,0.332 c -0.1073,0.311 -0.2348,0.6267 -0.3652,0.9434 l -0.709,-0.4082 z m -7.1953,0.4648 0.8652,0.5 -0.5,0.8672 -0.018,-0.01 c -0.057,-0.4612 -0.1783,-0.9099 -0.3593,-1.3379 z m 4.4648,0.2695 0.8653,0.4981 -0.5,0.8672 -0.8653,-0.5 z m -2.7324,0.7305 0.8652,0.5 -0.5,0.8672 -0.8652,-0.5 z m 4.4629,0.2676 0.8125,0.4687 c -0.1421,0.2975 -0.2951,0.5948 -0.457,0.8926 l -0.8555,-0.4941 z m -2.7305,0.7324 0.8653,0.5 -0.5,0.8672 -0.8653,-0.5 z m -2.7324,0.7324 0.8652,0.5 -0.5,0.8653 -0.8652,-0.5 z m 4.4629,0.2676 0.8535,0.4922 c -0.091,0.1494 -0.1832,0.2985 -0.2773,0.4434 -0.2926,-0.053 -0.5869,-0.093 -0.8809,-0.1172 l 0,0 c -0.056,0 -0.1118,0 -0.168,0 z m -2.7305,0.7324 0.3203,0.1856 c -0.1562,0.024 -0.3141,0.038 -0.4687,0.07 z m -2.7324,0.7325 0.4551,0.2636 c -0.3145,0.1549 -0.6159,0.3356 -0.9121,0.5274 z m 4.3203,0.3242 c 1.2401,-0.016 2.4997,0.2577 3.6778,0.8476 l 0.1093,0.062 c -1.5722,0.7632 -2.9912,1.8913 -3.9336,3.5235 l -3.6757,6.3672 c -0.018,0.028 -0.033,0.058 -0.045,0.09 l -0.01,0.012 c -0.6606,1.1443 -2.0697,1.5545 -3.2402,0.9922 -1.7169,-1.1737 -2.2646,-3.4558 -1.2051,-5.291 l 1.5274,-2.6465 c 1.4846,-2.5095 4.0922,-3.9218 6.7929,-3.957 z m -10.8203,10.9336 2.5977,1.5 c -0.2813,0.4872 -0.878,0.6486 -1.3653,0.3672 l -0.8672,-0.5 c -0.4872,-0.2813 -0.6465,-0.8801 -0.3652,-1.3672 z" color="#000" font-family="sans-serif" font-weight="400" overflow="visible" white-space="normal"/></g></svg>