<svg xmlns="http://www.w3.org/2000/svg" xmlns:xlink="http://www.w3.org/1999/xlink" width="48" height="48" viewBox="0 0 48 48"><defs><linearGradient id="b" x1="868.253" x2="937.656" y1="521.354" y2="588.736" gradientTransform="translate(-2197.96 545.796) scale(1.55175)" gradientUnits="userSpaceOnUse" xlink:href="#a"/><linearGradient id="a"><stop offset="0" stop-color="#24f3d2"/><stop offset=".394" stop-color="#0674f0"/><stop offset=".507" stop-color="#6961b5"/><stop offset=".813" stop-color="#f34660"/><stop offset="1" stop-color="#ee078d"/></linearGradient></defs><g transform="matrix(.99104 0 0 .99104 851.307 -1333.928)"><rect width="48.434" height="48.434" x="-859" y="1345.983" fill="url(#b)" rx="10.236" ry="10.236"/><path fill="#fff" d="m -827.92284,1356.9185 -3.29908,3.297 c -0.11312,0.1131 -0.96717,0.9692 -1.33815,1.3402 -0.79055,0.7906 -0.79055,2.0632 0,2.8537 0.79056,0.7905 2.06313,0.7905 2.85368,0 0.62234,-0.6223 0.74575,-1.5405 0.38825,-2.29 l 0.23648,0.2364 3.29908,-3.2971 -0.71342,-0.7134 -3.21039,3.2104 c -0.19764,-0.1977 -0.40609,-0.4061 -0.71342,-0.7135 l 3.21039,-3.2103 -0.71342,-0.7134 z m 2.85368,2.8536 -4.45986,4.4599 0.71342,0.7134 4.45986,-4.4599 -0.71342,-0.7134 z m 1.42685,1.4268 -3.29711,3.2992 0.23649,0.2365 c -0.74954,-0.3575 -1.6677,-0.2341 -2.29004,0.3882 -0.79056,0.7905 -0.79056,2.063 0,2.8536 0.79055,0.7905 2.06313,0.7905 2.85369,0 0.39527,-0.3953 1.42684,-1.4268 1.42684,-1.4268 0,0 -0.0661,-0.067 -0.0709,-0.071 l 3.21039,-3.2105 -0.71342,-0.7133 -3.21039,3.2103 c -0.28377,-0.2837 -0.4645,-0.4645 -0.64247,-0.6424 l 3.21039,-3.2104 -0.71342,-0.7135 z m -11.06,2.4971 c 0,0 -1.03156,1.0315 -1.42684,1.4268 -0.79055,0.7905 -0.79055,2.063 0,2.8536 0.79055,0.7905 2.06509,0.7905 2.85565,0 0.79055,-0.7906 0.79055,-2.0631 0,-2.8536 -0.39528,-0.3953 -1.42881,-1.4268 -1.42881,-1.4268 z m -3.5671,3.567 c 0,0 -1.03157,1.0316 -1.42684,1.4269 -0.79056,0.7905 -0.79056,2.0651 0,2.8557 0.79055,0.7906 2.06312,0.7906 2.85367,0 0.79057,-0.7906 0.79057,-2.0652 0,-2.8557 -0.39527,-0.3953 -1.42683,-1.4269 -1.42683,-1.4269 z m 7.13618,0.8356 c -0.51586,0 -1.03156,0.196 -1.42684,0.5913 -0.79055,0.7905 -0.79055,2.0651 0,2.8557 0.79056,0.7906 2.06313,0.7906 2.85368,0 0.39528,-0.3953 1.42684,-1.4269 1.42684,-1.4269 0,0 -1.03156,-1.0336 -1.42684,-1.4288 -0.39527,-0.3953 -0.91098,-0.5913 -1.42684,-0.5913 z m -10.70328,2.7335 c 0,0 -1.03157,1.0316 -1.42685,1.4269 -0.79055,0.7905 -0.79055,2.0631 0,2.8536 0.79056,0.7906 2.06314,0.7906 2.85369,0 0.79055,-0.7905 0.79055,-2.0631 0,-2.8536 -0.39528,-0.3953 -1.42684,-1.4269 -1.42684,-1.4269 z m 7.1342,0.8337 c -0.51586,0 -1.03157,0.1978 -1.42684,0.5932 -0.79055,0.7905 -0.79055,2.0631 0,2.8536 0.79055,0.7906 2.06509,0.7906 2.85565,0 0.39527,-0.3952 1.42685,-1.4269 1.42685,-1.4269 0,0 -1.03158,-1.0315 -1.42685,-1.4267 -0.39528,-0.3954 -0.91295,-0.5932 -1.42881,-0.5932 z m -3.5671,3.567 c -0.51586,0 -1.03157,0.198 -1.42684,0.5932 -0.79056,0.7906 -0.79056,2.0632 0,2.8538 0.79055,0.7905 2.06312,0.7905 2.85367,0 0.39529,-0.3954 1.42685,-1.4269 1.42685,-1.4269 0,0 -1.03156,-1.0315 -1.42685,-1.4269 -0.39527,-0.3952 -0.91097,-0.5932 -1.42683,-0.5932 z m -3.439,0.4652 -6.19218,6.1921 1.42684,1.4269 6.19217,-6.1923 -1.42683,-1.4267 z" color="#000" overflow="visible" style="isolation:auto;mix-blend-mode:normal"/></g></svg>