<svg xmlns="http://www.w3.org/2000/svg" xmlns:xlink="http://www.w3.org/1999/xlink" width="48" height="48" viewBox="0 0 48 48"><defs><linearGradient id="b" x1="1073.403" x2="1097.116" y1="516.451" y2="544.308" gradientTransform="matrix(1.53785 0 0 1.53785 -1053.651 -657.644)" gradientUnits="userSpaceOnUse" xlink:href="#a"/><linearGradient id="a"><stop offset="0" stop-color="#16ff6a"/><stop offset="1" stop-color="#0090a5"/></linearGradient></defs><g transform="translate(-590.22 -135.376)"><rect width="48" height="48" x="590.22" y="135.376" fill="url(#b)" rx="10.144" ry="10.144"/><path fill="#fff" fill-rule="evenodd" d="m 614.66538,144.44796 -15.44531,6.41797 0,4.45508 3.04102,0 0,20.05469 2.95703,0 0,-15.91406 18.91406,0 0,15.91406 2.95703,0 0,-20.05469 3.04102,0 0,-4.45508 -15.46485,-6.41797 z m -9.49023,10.91797 5,0 0,2 -5,0 0,-2 z m 7,0 5,0 0,2 -5,0 0,-2 z m 7,0 5,0 0,2 -5,0 0,-2 z m -9.95508,9.50977 0,4.5 5,0 0,-4.5 -5,0 z m 0,5.5 0,5 5,0 0,-5 -5,0 z m 6,0 0,5 5,0 0,-5 -5,0 z"/></g></svg>