<svg xmlns="http://www.w3.org/2000/svg" xmlns:xlink="http://www.w3.org/1999/xlink" width="48" height="48" viewBox="0 0 48 48"><defs><linearGradient id="b" x1="992.183" x2="1019.298" y1="516.081" y2="545.959" gradientTransform="matrix(1.53785 0 0 1.53785 -1132.962 -625.577)" gradientUnits="userSpaceOnUse" xlink:href="#a"/><linearGradient id="a"><stop offset="0" stop-color="#ff1679"/><stop offset="1" stop-color="#ff770b"/></linearGradient></defs><g transform="translate(-389.743 -167.442)"><rect width="48" height="48" x="389.743" y="167.442" fill="url(#b)" rx="10.144" ry="10.144"/><path fill="#fff" d="m 413.24281,175.94241 0,5.5 1,0 0,-5.5 -1,0 z m -1,4.79688 c -1.1646,0.46983 -2.0489,1.46652 -2.36523,2.70312 l 1.36523,0 c 0.27613,3e-5 0.49997,0.22387 0.5,0.5 l 0,0.5 0.59375,0 c 0.15187,-0.42178 0.48447,-0.75633 0.90625,-0.9082 l 0,-0.5918 -0.5,0 c -0.27613,-3e-5 -0.49997,-0.22387 -0.5,-0.5 l 0,-1.70312 z m 3,0 0,1.70312 c -3e-5,0.27613 -0.22387,0.49997 -0.5,0.5 l -0.5,0 0,0.5918 c 0.42178,0.15187 0.75439,0.48642 0.90625,0.9082 l 0.59375,0 0,-0.5 c 3e-5,-0.27613 0.22387,-0.49997 0.5,-0.5 l 1.36523,0 c -0.31682,-1.23621 -1.20055,-2.23348 -2.36523,-2.70312 z m -10.5,3.70312 0,1 5.5,0 0,-1 -5.5,0 z m 9,0 c -0.28206,0 -0.5,0.21794 -0.5,0.5 0,0.28207 0.21794,0.5 0.5,0.5 0.28207,0 0.5,-0.21793 0.5,-0.5 0,-0.28206 -0.21793,-0.5 -0.5,-0.5 z m 3.5,0 0,1 5.5,0 0,-1 -5.5,0 z m -5.5,1 0,0.5 c -3e-5,0.27613 -0.22387,0.49997 -0.5,0.5 l -1.5,0 0,2 0.49219,0 c 0.67616,-0.01 0.67616,1.01 0,1 l -0.49219,0 0,4 0.48437,0 c 0.67616,-0.01 0.67616,1.01 0,1 l -0.48437,0 0,3 0.49219,0 c 0.67616,-0.01 0.67616,1.01 0,1 l -0.49219,0 0,3 0.50977,0 c 0.67616,-0.01 0.67616,1.01 0,1 l -0.50977,0 0,1 2,0 0,-5.5 c 3e-5,-0.27613 0.22387,-0.49997 0.5,-0.5 l 3,0 c 0.27613,3e-5 0.49997,0.22387 0.5,0.5 l 0,3.5 0.49219,0 c 0.67616,-0.01 0.67616,1.01 0,1 l -0.49219,0 0,1 2,0 0,-3 -0.49414,0 c -0.67616,0.01 -0.67616,-1.01 0,-1 l 0.49414,0 0,-2.04883 c -0.0683,0.0326 -0.14305,0.0493 -0.21875,0.0488 l -1.27539,0 c -0.67616,0.01 -0.67616,-1.01 0,-1 l 1.27539,0 c 0.0755,-0.001 0.15035,0.015 0.21875,0.0469 l 0,-4.04688 -0.49414,0 c -0.67616,0.01 -0.67616,-1.01 0,-1 l 0.49414,0 0,-5 -1.5,0 c -0.27613,-3e-5 -0.49997,-0.22387 -0.5,-0.5 l 0,-0.5 -0.59375,0 c -0.15216,0.42096 -0.48505,0.75459 -0.90625,0.90625 l 0,0.59375 0.5,0 c 0.27613,3e-5 0.49997,0.22387 0.5,0.5 l 0,7 c -3e-5,0.27613 -0.22387,0.49997 -0.5,0.5 l -2,0 c -0.27613,-3e-5 -0.49997,-0.22387 -0.5,-0.5 l 0,-7 c 3e-5,-0.27613 0.22387,-0.49997 0.5,-0.5 l 0.5,0 0,-0.59375 c -0.42119,-0.15166 -0.75408,-0.48529 -0.90625,-0.90625 l -0.59375,0 z m 1.5,3 0,5.5 1,0 0,-5.5 -1,0 z m -0.5,10 0,5 2,0 0,-5 -2,0 z m -7,6 0,1 16,0 0,-1 -3.42383,0 c -0.0505,0.008 -0.10184,0.008 -0.15234,0 l -8.84766,0 c -0.0505,0.008 -0.10184,0.008 -0.15234,0 l -3.42383,0 z" color="#000" font-family="sans-serif" font-weight="400" overflow="visible" white-space="normal" style="line-height:normal;text-indent:0;text-align:start;text-decoration-line:none;text-decoration-style:solid;text-decoration-color:#000;text-transform:none;block-progression:tb;isolation:auto;mix-blend-mode:normal"/></g></svg>