<svg xmlns="http://www.w3.org/2000/svg" xmlns:xlink="http://www.w3.org/1999/xlink" width="48" height="48" viewBox="0 0 48 48"><defs><linearGradient id="b" x1="1056.035" x2="1031.176" y1="544.13" y2="517.701" gradientTransform="matrix(1.53785 0 0 1.53785 -991.517 -657.644)" gradientUnits="userSpaceOnUse" xlink:href="#a"/><linearGradient id="a"><stop offset="0" stop-color="#5a5a5a"/><stop offset="1" stop-color="#656e85"/></linearGradient></defs><g transform="translate(-590.22 -135.376)"><rect width="48" height="48" x="590.22" y="135.376" fill="url(#b)" rx="10.144" ry="10.144"/><path fill="#fff" style="line-height:normal;text-indent:0;text-align:start;text-decoration-line:none;text-decoration-style:solid;text-decoration-color:#000;text-transform:none;block-progression:tb;isolation:auto;mix-blend-mode:normal" d="m 619.10092,152.38337 c 0.5047,-0.0369 0.99928,0.15111 1.47461,0.58008 0.45275,0.40859 0.86582,1.0447 1.16602,1.85547 -0.55568,0.33944 -1.04156,0.85157 -1.42383,1.47656 -0.66077,1.0803 -1.04884,2.51091 -1.08399,4.08399 l -1.02734,0 c -0.0353,-1.57308 -0.42516,-3.00369 -1.08594,-4.08399 -0.18903,-0.30906 -0.40401,-0.58959 -0.63867,-0.83789 0.0151,-0.0312 0.0269,-0.064 0.0352,-0.0977 0.51123,-1.83129 1.57458,-2.90287 2.58398,-2.97656 z m -9.06445,0.006 c 0.51419,-0.0572 1.01672,0.11746 1.50195,0.54102 0.46618,0.40691 0.89441,1.05388 1.20313,1.88672 -0.55604,0.33943 -1.04136,0.8532 -1.42383,1.47851 -0.66077,1.0803 -1.04884,2.51091 -1.08399,4.08399 l -1.02734,0 c -0.0353,-1.57308 -0.42516,-3.00369 -1.08594,-4.08399 -0.18621,-0.30444 -0.39837,-0.58056 -0.6289,-0.82617 0.48561,-1.84113 1.53534,-2.96768 2.54492,-3.08008 z m -4.81641,2.99024 c 0.74561,0 1.47452,0.49856 2.04883,1.4375 0.54503,0.89108 0.90148,2.15637 0.9375,3.5625 l -5.97266,0 c 0.036,-1.40613 0.39248,-2.67142 0.9375,-3.5625 0.57431,-0.93894 1.30323,-1.4375 2.04883,-1.4375 z m 9,0 c 0.74561,0 1.47452,0.49856 2.04883,1.4375 0.54503,0.89108 0.90148,2.15637 0.9375,3.5625 l -5.97266,0 c 0.036,-1.40613 0.39248,-2.67142 0.9375,-3.5625 0.57431,-0.93894 1.30323,-1.4375 2.04883,-1.4375 z m 9,0 c 0.74561,0 1.47452,0.49856 2.04883,1.4375 0.54503,0.89108 0.90148,2.15637 0.9375,3.5625 l -5.97266,0 c 0.036,-1.40613 0.39248,-2.67142 0.9375,-3.5625 0.57431,-0.93894 1.30323,-1.4375 2.04883,-1.4375 z m -22.5,6 27,0 c 0.28565,0 0.5,0.21435 0.5,0.5 0,0.28565 -0.21435,0.5 -0.5,0.5 l -0.96093,0 c -0.0247,-0.002 -0.0495,-0.002 -0.0742,0 l -6.91797,0 -2.00781,0 c -0.0247,-0.002 -0.0495,-0.002 -0.0742,0 l -8.94727,0 c -0.0254,-0.002 -0.0508,-0.002 -0.0762,0 l -7.94141,0 c -0.28566,0 -0.5,-0.21435 -0.5,-0.5 0,-0.28566 0.21434,-0.5 0.5,-0.5 z m 1.59766,2 5.81055,0 c -0.22588,1.26575 -0.83161,2.33857 -1.625,2.99609 l -2.56055,0 c -0.79341,-0.65752 -1.39912,-1.73034 -1.625,-2.99609 z m 9.02148,0 5.81055,0 c -0.22588,1.26576 -0.8316,2.33857 -1.625,2.99609 l -2.56055,0 c -0.79343,-0.65751 -1.39912,-1.73032 -1.625,-2.99609 z m 9,0 5.81055,0 c -0.22588,1.26575 -0.8316,2.33857 -1.625,2.99609 l -2.56055,0 c -0.79343,-0.65751 -1.39912,-1.73032 -1.625,-2.99609 z" color="#000" font-family="sans-serif" font-weight="400" overflow="visible" white-space="normal"/></g></svg>