<svg xmlns="http://www.w3.org/2000/svg" xmlns:xlink="http://www.w3.org/1999/xlink" width="48" height="48" viewBox="0 0 48 48"><defs><linearGradient id="b" x1="949.87" x2="974.39" y1="518.014" y2="544.657" gradientTransform="matrix(1.53785 0 0 1.53785 -864.133 -657.644)" gradientUnits="userSpaceOnUse" xlink:href="#a"/><linearGradient id="a"><stop offset="0" stop-color="#24f7bc"/><stop offset="1" stop-color="#24c4fc"/></linearGradient></defs><g transform="translate(-590.22 -135.376)"><rect width="48" height="48" x="590.22" y="135.376" fill="url(#b)" rx="10.144" ry="10.144"/><path fill="#fff" style="line-height:normal;text-indent:0;text-align:start;text-decoration-line:none;text-decoration-style:solid;text-decoration-color:#000;text-transform:none;block-progression:tb;isolation:auto;mix-blend-mode:normal" d="m 607.72072,147.37478 0.002,0 c 0.27085,0 0.5,0.22512 0.5,0.55468 0,0.31265 -0.0215,0.5299 -0.0215,1.00586 4.8e-4,0.25462 0.19222,0.46823 0.44531,0.4961 3.20867,0.35397 5.57617,2.48223 5.57617,4.94336 0,0.56264 -0.43735,1 -1,1 l -11,0 c -0.56265,0 -1,-0.43736 -1,-1 0,-2.39285 2.23388,-4.47006 5.31055,-4.91016 l 0.004,0 c 0.0858,-0.0129 0.17265,-0.024 0.25976,-0.0332 0.25914,-0.0274 0.45378,-0.24926 0.44727,-0.50977 -0.009,-0.33949 -0.0406,-0.68957 -0.0234,-0.96093 0.001,-0.011 0.002,-0.0221 0.002,-0.0332 0,-0.32836 0.22851,-0.55108 0.49805,-0.55273 z m 16.6543,8.21679 c 0.0644,0.007 0.12696,0.0271 0.18554,0.0606 l 0.002,0.002 c 0.23456,0.13543 0.32103,0.4431 0.15625,0.72852 -0.15634,0.27078 -0.28351,0.44914 -0.52149,0.86133 -0.12711,0.22055 -0.0683,0.50139 0.13672,0.65234 2.6018,1.91089 3.58799,4.93696 2.35742,7.06836 -0.28132,0.48727 -0.87796,0.64851 -1.36523,0.36719 l -9.52539,-5.5 c -0.48727,-0.28133 -0.64852,-0.87992 -0.36719,-1.36719 1.19642,-2.07227 4.17016,-2.7529 7.05469,-1.5957 l 0.004,0.002 c 0.081,0.0318 0.16021,0.066 0.24024,0.10156 0.23846,0.10589 0.51826,0.0106 0.64258,-0.21875 0.16196,-0.29846 0.31036,-0.61722 0.46093,-0.84375 0.006,-0.009 0.012,-0.018 0.0176,-0.0273 0.12329,-0.21351 0.32821,-0.31176 0.52149,-0.29102 z m -22.08008,0.78321 10.85742,0 c 0.30903,2.72535 -0.67619,5.43888 -2.48047,6.90234 -0.50398,0.40575 -1.05194,0.70149 -1.62305,0.88086 l -0.28906,0.0918 -0.0527,0.29883 c -0.0852,0.48075 -0.49619,0.82408 -0.98438,0.82421 -0.48818,-1.3e-4 -0.8992,-0.34346 -0.98437,-0.82421 l -0.0527,-0.29883 -0.29101,-0.0918 c -0.6211,-0.19477 -1.21505,-0.52712 -1.75391,-0.98828 l -0.002,-0.002 c -1.72858,-1.49265 -2.64358,-4.14673 -2.34375,-6.79297 z m 1.39844,1 c -0.29517,0.0142 -0.51372,0.27989 -0.47071,0.57226 0.24929,1.87677 1.09059,3.60632 2.42969,4.75977 0.5065,0.45341 1.17605,-0.32439 0.65234,-0.75781 -1.11911,-0.96395 -1.87087,-2.47154 -2.09179,-4.13477 -0.0315,-0.25989 -0.25802,-0.45154 -0.51953,-0.43945 z m 11.66992,3.35937 9.40234,5.42774 c -1.09489,2.51495 -3.30526,4.37284 -5.59961,4.73828 -0.63932,0.0994 -1.26142,0.0814 -1.8457,-0.0488 l -0.29688,-0.0644 -0.19531,0.23242 c -0.31366,0.37318 -0.84114,0.46527 -1.26367,0.22265 -0.42273,-0.24419 -0.60802,-0.74808 -0.44141,-1.20703 l 0.10352,-0.28711 -0.20508,-0.22265 c -0.44071,-0.47944 -0.7893,-1.06516 -1.02539,-1.73438 l 0,-0.002 c -0.75108,-2.15712 -0.21589,-4.91269 1.36719,-7.05469 z m 0.46875,1.50977 c -0.20042,0.005 -0.37877,0.12828 -0.45313,0.31445 -0.72248,1.74998 -0.85836,3.67139 -0.27539,5.33985 0.22005,0.63021 1.16536,0.30013 0.94531,-0.33008 -0.4872,-1.39437 -0.38442,-3.07608 0.25586,-4.62696 0.14403,-0.33525 -0.10789,-0.7069 -0.47265,-0.69726 z" color="#000" font-family="sans-serif" font-weight="400" overflow="visible" white-space="normal"/></g></svg>