<svg xmlns="http://www.w3.org/2000/svg" xmlns:xlink="http://www.w3.org/1999/xlink" width="48" height="48" viewBox="0 0 48 48"><defs><linearGradient id="b" x1="1056.035" x2="1031.176" y1="544.13" y2="517.701" gradientTransform="matrix(1.53785 0 0 1.53785 -991.517 -657.644)" gradientUnits="userSpaceOnUse" xlink:href="#a"/><linearGradient id="a"><stop offset="0" stop-color="#5a5a5a"/><stop offset="1" stop-color="#656e85"/></linearGradient></defs><g transform="translate(-590.22 -135.376)"><rect width="48" height="48" x="590.22" y="135.376" fill="url(#b)" rx="10.144" ry="10.144"/><path fill="#fff" d="m 603.72007,148.3757 -2,3 0,3.5 -3.5,0 0,1 3.5,0 0,2 -3.5,0 0,1 3.5,0 0,4 -3.5,0 0,1 3.5,0 0,2 -3.5,0 0,1 3.5,0 0,3.5 4,0 0,-3.5 3,0 0,3.5 4,0 0,-3.5 2.98242,0 0,-1 -2.98242,0 0,-2 2.98242,0 0,-1 -2.98242,0 0,-4 2.98242,0 0,-1 -2.98242,0 0,-2 2.98242,0 0,-1 -2.98242,0 0,-3.5 -2,-3 -2,3 0,3.5 -3,0 0,-3.5 -2,-3 z m 14,0 -2,3 0,19 4,0 0,-3.5 3,0 0,3.5 4,0 0,-3.5 3.5,0 0,-1 -3.5,0 0,-2 3.5,0 0,-1 -3.5,0 0,-4 3.5,0 0,-1 -3.5,0 0,-2 3.5,0 0,-1 -3.5,0 0,-3.5 -2,-3 -2,3 0,3.5 -3,0 0,-3.5 -2,-3 z m -12,7.5 3,0 0,2 -3,0 0,-2 z m 14,0 3,0 0,2 -3,0 0,-2 z m -14,3 3,0 0,4 -3,0 0,-4 z m 14,0 3,0 0,4 -3,0 0,-4 z m -14,5 3,0 0,2 -3,0 0,-2 z m 14,0 3,0 0,2 -3,0 0,-2 z"/></g></svg>