<svg xmlns="http://www.w3.org/2000/svg" xmlns:xlink="http://www.w3.org/1999/xlink" width="48" height="48" viewBox="0 0 48 48"><defs><linearGradient id="b" x1="868.253" x2="937.656" y1="521.354" y2="588.736" gradientTransform="matrix(1.53785 0 0 1.53785 -1869.956 553.319)" gradientUnits="userSpaceOnUse" xlink:href="#a"/><linearGradient id="a"><stop offset="0" stop-color="#24f3d2"/><stop offset=".394" stop-color="#0674f0"/><stop offset=".507" stop-color="#6961b5"/><stop offset=".813" stop-color="#f34660"/><stop offset="1" stop-color="#ee078d"/></linearGradient></defs><g transform="translate(542.988 -1346.339)"><rect width="48" height="48" x="-542.988" y="1346.339" fill="url(#b)" rx="10.144" ry="10.144"/><path fill="#fff" fill-rule="evenodd" style="line-height:normal;text-indent:0;text-align:start;text-decoration-line:none;text-decoration-style:solid;text-decoration-color:#000;text-transform:none;block-progression:tb;isolation:auto;mix-blend-mode:normal" d="m -519.83956,1356.8358 c -0.76686,0 -1.53349,0.2933 -2.12109,0.8809 l -2.82813,2.8281 c -0.0529,0.053 -0.0867,0.1163 -0.13476,0.1719 l 10.20507,0 -3,-3 c -0.58761,-0.5876 -1.35423,-0.8809 -2.12109,-0.8809 z m -12.67188,1.8809 c -0.66644,0.033 -0.6176,1.0323 0.0488,1 l 2.60352,0 2.91406,13.6035 c 0.049,0.2315 0.2536,0.397 0.49024,0.3965 l 0.86718,0 -2.375,10.0097 0.0273,-0.08 c 0,0 -0.0735,0.1846 -0.10352,0.4316 -0.0946,0.7787 0.2729,1.5748 0.98828,1.9902 0.7091,0.4123 1.57375,0.3388 2.19727,-0.123 0.19985,-0.1481 0.34765,-0.2988 0.34765,-0.2988 a 0.50004998,0.50004998 0 0 0 0.0606,-0.076 l 7.75781,-11.8535 2.06641,0 3.27344,5.8906 a 3.5,3.5 0 0 0 -1.31836,2.7324 3.5,3.5 0 0 0 3.5,3.5 3.5,3.5 0 0 0 3.5,-3.5 3.5,3.5 0 0 0 -3.5,-3.5 3.5,3.5 0 0 0 -1.32031,0.2598 l -2.99024,-5.3828 5.02149,0 c 0.24148,0 0.44777,-0.1744 0.49023,-0.4121 l 2,-11 c 0.0545,-0.3057 -0.17974,-0.5866 -0.49023,-0.5879 l -7.26368,0 -11.79492,0 -2.89453,0 -0.55859,-2.6055 c -0.0497,-0.23 -0.25297,-0.3943 -0.48828,-0.3945 l -3.00782,0 c -0.0163,-8e-4 -0.0326,-8e-4 -0.0488,0 z m 7.95313,15 6.67578,0 -7.36523,11.2539 c -0.0207,0.02 -0.0911,0.09 -0.20118,0.1718 -0.31165,0.2308 -0.73846,0.2729 -1.0996,0.062 -0.3644,-0.2116 -0.5457,-0.6116 -0.49805,-1.0039 0.0177,-0.1461 0.0312,-0.1601 0.0312,-0.1601 a 0.50004998,0.50004998 0 0 0 0.0254,-0.082 l 2.43164,-10.2403 0,0 z m 15.39258,7.123 a 1.4999913,1.4999913 0 0 1 1.5,1.5 1.4999913,1.4999913 0 0 1 -1.5,1.5 1.4999913,1.4999913 0 0 1 -1.5,-1.5 1.4999913,1.4999913 0 0 1 0.32226,-0.9258 l 0.53516,0.9649 a 0.50055219,0.50055219 0 0 0 0.875,-0.4864 l -0.5625,-1.0136 a 1.4999913,1.4999913 0 0 1 0.33008,-0.039 z" color="#000" font-family="sans-serif" font-weight="400" overflow="visible" white-space="normal"/></g></svg>