<svg xmlns="http://www.w3.org/2000/svg" xmlns:xlink="http://www.w3.org/1999/xlink" width="48" height="48" viewBox="0 0 48 48"><defs><linearGradient id="b" x1="1073.403" x2="1097.116" y1="516.451" y2="544.308" gradientTransform="matrix(1.53785 0 0 1.53785 -1053.651 -657.644)" gradientUnits="userSpaceOnUse" xlink:href="#a"/><linearGradient id="a"><stop offset="0" stop-color="#16ff6a"/><stop offset="1" stop-color="#0090a5"/></linearGradient></defs><g transform="translate(-590.22 -135.376)"><rect width="48" height="48" x="590.22" y="135.376" fill="url(#b)" rx="10.144" ry="10.144"/><path fill="#fff" style="line-height:normal;text-indent:0;text-align:start;text-decoration-line:none;text-decoration-style:solid;text-decoration-color:#000;text-transform:none;block-progression:tb;isolation:auto;mix-blend-mode:normal" d="m 610.71421,146.37375 c 1.64877,0.0279 3.29823,0.53573 4.72852,1.53516 3.26923,2.2843 4.50903,6.52447 2.98633,10.20898 -1.09488,2.64932 -3.26958,4.62936 -5.89844,5.21094 -0.0455,0.01 -0.34482,0.0461 -0.36719,0.0488 l -2.08984,0 0,-2.0586 c 2.87541,-0.60135 5.16149,-2.80985 5.81445,-5.6914 0.67664,-2.986 -0.52613,-6.08806 -3.03906,-7.83985 -1.09691,-0.76466 -2.35182,-1.18802 -3.62891,-1.30468 0.49406,-0.0792 0.99393,-0.11784 1.49414,-0.10938 z m -0.64062,18.00391 2,0 0,0.99804 -2,0 z m 0,1.99804 2,0 0,5 c 0,0.56265 -0.43735,1 -1,1 -0.56265,0 -1,-0.43735 -1,-1 z" color="#000" font-family="sans-serif" font-weight="400" overflow="visible" white-space="normal"/></g></svg>