<svg xmlns="http://www.w3.org/2000/svg" xmlns:xlink="http://www.w3.org/1999/xlink" width="48" height="48" viewBox="0 0 48 48"><defs><linearGradient id="b" x1="906.952" x2="931.379" y1="515.915" y2="546.094" gradientTransform="matrix(1.53785 0 0 1.53785 -798.499 -657.644)" gradientUnits="userSpaceOnUse" xlink:href="#a"/><linearGradient id="a"><stop offset="0" stop-color="#ffd800"/><stop offset="1" stop-color="#ff6100"/></linearGradient></defs><g transform="translate(-590.22 -135.376)"><rect width="48" height="48" x="590.22" y="135.376" fill="url(#b)" rx="10.144" ry="10.144"/><path fill="#fff" style="line-height:normal;text-indent:0;text-align:start;text-decoration-line:none;text-decoration-style:solid;text-decoration-color:#000;text-transform:none;block-progression:tb;isolation:auto;mix-blend-mode:normal" d="m 603.74058,146.3298 7,0 c 0.28565,0 0.5,0.21435 0.5,0.5 l 0,1 c 0,0.28565 -0.21435,0.5 -0.5,0.5 l -7,0 c -0.28565,0 -0.5,-0.21435 -0.5,-0.5 l 0,-1 c 0,-0.28565 0.21435,-0.5 0.5,-0.5 z m 0.5,3 6,0 0,3 c 0,0.41667 0.15696,0.80114 0.35352,1.25977 0.19655,0.45863 0.44922,0.96289 0.69922,1.46289 0.25,0.5 0.49733,0.99574 0.67578,1.41211 0.17844,0.41637 0.27148,0.7819 0.27148,0.86523 l 0,1 -10,0 0,-1 c 0,-0.0833 0.093,-0.44886 0.27149,-0.86523 0.17844,-0.41637 0.42578,-0.91211 0.67578,-1.41211 0.25,-0.5 0.50266,-1.00426 0.69922,-1.46289 0.19655,-0.45863 0.35351,-0.8431 0.35351,-1.25977 z m 4,1 0,2 c 0,0.49164 0.20927,0.95127 0.46289,1.50977 0.25362,0.5585 0.57329,1.1742 0.85547,1.74804 l 0.89649,-0.4414 c -0.28869,-0.58707 -0.6027,-1.19653 -0.83985,-1.71875 -0.23715,-0.52223 -0.375,-0.9993 -0.375,-1.09766 l 0,-2 z m 2.67969,5.81641 -0.92188,0.38672 c 0.16095,0.38409 0.24219,0.71816 0.24219,0.79687 l 1,0 c 0,-0.39329 -0.14092,-0.75549 -0.32031,-1.18359 z m -8.67969,3.18359 10,0 0,8 -10,0 z m 15.04102,0.0918 8.91797,0 -0.43946,5.5 -8.03906,0 z m -10.05469,0.9082 c -0.16089,0.004 -0.30991,0.0856 -0.40039,0.21875 0,0 -0.41965,0.61528 -0.8418,1.35352 -0.21107,0.36911 -0.4241,0.76963 -0.58984,1.15234 -0.16574,0.38271 -0.29688,0.72856 -0.29688,1.10742 0,1.18686 0.96106,2.16797 2.14258,2.16797 1.18152,0 2.14259,-0.98112 2.14258,-2.16797 0,-0.37885 -0.13309,-0.72471 -0.29883,-1.10742 -0.16574,-0.38271 -0.37682,-0.78323 -0.58789,-1.15234 -0.42214,-0.73824 -0.84375,-1.35352 -0.84375,-1.35352 -0.0955,-0.14052 -0.2559,-0.22291 -0.42578,-0.21875 z m 0.0137,1.44531 c 0.14846,0.23258 0.19356,0.28525 0.38672,0.62305 0.19965,0.34914 0.39872,0.72611 0.54102,1.05469 0.14229,0.32858 0.21484,0.62759 0.21484,0.70898 10e-6,0.65415 -0.5094,1.16797 -1.14258,1.16797 -0.63318,0 -1.14258,-0.51383 -1.14258,-1.16797 0,-0.0814 0.0725,-0.38041 0.21485,-0.70898 0.1423,-0.32858 0.34136,-0.70555 0.54101,-1.05469 0.1933,-0.33803 0.23822,-0.39042 0.38672,-0.62305 z m 10.56055,4.14649 7.87891,0 -0.4375,5.46094 c -0.0488,0.60962 -0.44034,1.03906 -1.00196,1.03906 l -5,0 c -0.56087,0 -0.95031,-0.42876 -1.00195,-1.03906 l 0,-0.002 z m -15.56055,2.4082 10,0 0,2.0918 c 0,1.11664 -0.88334,2 -2,2 l -6,0 c -1.11666,0 -2,-0.88336 -2,-2 z" color="#000" font-family="sans-serif" font-weight="400" overflow="visible" white-space="normal"/></g></svg>