<svg xmlns="http://www.w3.org/2000/svg" xmlns:xlink="http://www.w3.org/1999/xlink" width="48" height="48" viewBox="0 0 48 48"><defs><linearGradient id="b" x1="906.952" x2="931.379" y1="515.915" y2="546.094" gradientTransform="matrix(1.53785 0 0 1.53785 -798.499 -657.644)" gradientUnits="userSpaceOnUse" xlink:href="#a"/><linearGradient id="a"><stop offset="0" stop-color="#ffd800"/><stop offset="1" stop-color="#ff6100"/></linearGradient></defs><g transform="translate(-590.22 -135.376)"><rect width="48" height="48" x="590.22" y="135.376" fill="url(#b)" rx="10.144" ry="10.144"/><path fill="#fff" style="line-height:normal;text-indent:0;text-align:start;text-decoration-line:none;text-decoration-style:solid;text-decoration-color:#000;text-transform:none;block-progression:tb;isolation:auto;mix-blend-mode:normal" d="m 607.84612,148.39046 -0.93555,2.85156 c -0.41113,-0.45811 -0.93077,-0.7601 -1.48047,-0.88281 -0.37537,-0.0838 -0.76347,-0.0838 -1.13867,0.004 -0.75041,0.17522 -1.43962,0.69867 -1.82812,1.51562 -0.3885,0.81695 -0.48225,1.90552 -0.16016,3.23242 l -0.01,-0.043 1.05859,7.02539 -1.13086,3.45118 -1.35937,-0.36329 a 0.50004994,0.50004994 0 0 0 -0.14649,-0.0195 0.50004994,0.50004994 0 0 0 -0.11133,0.98633 l 15.66211,4.19531 a 0.50054408,0.50054408 0 1 0 0.25977,-0.96679 l -1.55469,-0.41602 3.90625,-17.61523 -11.03125,-2.95508 z m -2.97461,2.90039 c 0.64,-0.0144 1.29736,0.34001 1.64844,1.14258 l -2.47461,7.54687 -0.76172,-5.0625 a 0.50005,0.50005 0 0 0 -0.01,-0.043 c -0.28211,-1.1622 -0.17338,-2.00458 0.0937,-2.5664 0.26717,-0.56183 0.6885,-0.86481 1.15039,-0.97266 0.11547,-0.027 0.23407,-0.0422 0.35352,-0.0449 z m 24.40039,4.79687 -0.34961,0.004 -0.0879,0.008 -0.63672,0.11719 -0.084,0.0234 -0.004,0 0.18164,0.48438 0.0879,0.47461 0.58594,-0.10743 0.3125,-0.004 -0.006,-1 z m 1.16016,0.15625 -0.33985,0.93946 0.53321,0.19336 0.29492,0.17382 0.50391,-0.86523 -0.33594,-0.19531 -0.082,-0.0391 -0.57422,-0.20703 z m -3.3125,0.43946 -0.27149,0.16211 -0.0723,0.0508 -0.51757,0.44726 0.65429,0.75781 0.48828,-0.42187 0.22852,-0.13477 -0.50977,-0.86132 z m -2.32227,0.16015 a 0.50005048,0.50005048 0 0 0 -0.41015,0.75586 l 0.72461,1.25586 -7.70118,4.06055 -0.47265,2.19922 8.64453,-5.44531 0.70703,1.2246 a 0.50050437,0.50050437 0 1 0 0.86719,-0.5 l -1.9043,-3.29687 a 0.50005048,0.50005048 0 0 0 -0.45508,-0.25391 z m 3.79102,1.25977 -0.41992,0.0703 -0.0293,0.006 -0.0273,0.008 -0.41797,0.12109 -0.0273,0.008 -0.0273,0.0117 -0.40625,0.17188 0.39062,0.91992 0.36328,-0.1543 0.38282,-0.11132 0.38281,-0.0625 -0.16406,-0.98829 z m 1.17187,0.0352 -0.1875,0.98437 0.25586,0.0488 0.36719,0.11524 0.36914,0.16797 0.41211,-0.91212 -0.40234,-0.18164 -0.0273,-0.0117 -0.0273,-0.01 -0.41407,-0.12891 -0.0293,-0.0117 -0.0293,-0.006 -0.28711,-0.0547 z" color="#000" font-family="sans-serif" font-weight="400" overflow="visible" white-space="normal"/></g></svg>