<svg xmlns="http://www.w3.org/2000/svg" xmlns:xlink="http://www.w3.org/1999/xlink" width="48" height="48" viewBox="0 0 48 48"><defs><linearGradient id="b" x1="1056.035" x2="1031.176" y1="544.13" y2="517.701" gradientTransform="matrix(1.53785 0 0 1.53785 -2124.724 553.319)" gradientUnits="userSpaceOnUse" xlink:href="#a"/><linearGradient id="a"><stop offset="0" stop-color="#5a5a5a"/><stop offset="1" stop-color="#656e85"/></linearGradient></defs><g transform="translate(542.988 -1346.339)"><rect width="48" height="48" x="-542.988" y="1346.339" fill="url(#b)" rx="10.144" ry="10.144"/><path fill="#fff" style="isolation:auto;mix-blend-mode:normal" d="m -513.99339,1354.362 a 6.5220159,6.3705562 61.066753 0 0 -2.11328,0.7461 6.5220159,6.3705562 61.066753 0 0 -3.13477,5.2422 l -0.14648,0 0,2.1074 a 6.0500802,6.111912 0 0 0 -5.50781,-3.6074 6.0500802,6.111912 0 0 0 -2.0918,0.3828 6.0500802,6.111912 0 0 0 6.00781,5.4239 6.0500802,6.111912 0 0 0 1.5918,-0.2246 l 0,6.9062 -6.74805,0 c -0.15847,0 -0.28711,0.1281 -0.28711,0.2871 l 0,2.4219 c 0,0.159 0.12864,0.2871 0.28711,0.2871 l 14.42774,0 c 0.15847,0 0.28515,-0.1281 0.28515,-0.2871 l 0,-2.4219 c 0,-0.159 -0.12668,-0.2871 -0.28515,-0.2871 l -6.67969,0 0,-2.3262 a 4.0615298,4.0182513 0 0 0 0.97461,0.1211 4.0615298,4.0182513 0 0 0 4.0332,-3.5644 4.0615298,4.0182513 0 0 0 -1.4043,-0.2539 4.0615298,4.0182513 0 0 0 -3.60351,2.1718 l 0,-4.2675 a 6.5220159,6.3705562 61.066753 0 0 1.80859,-0.6817 6.5220159,6.3705562 61.066753 0 0 2.58594,-8.1758 z m -11.35547,20.9707 1.22656,10.0059 10.41602,0 1.22656,-10.0059 -12.86914,0 z" color="#000" overflow="visible"/></g></svg>