<svg xmlns="http://www.w3.org/2000/svg" xmlns:xlink="http://www.w3.org/1999/xlink" width="48" height="48" viewBox="0 0 48 48"><defs><linearGradient id="b" x1="906.952" x2="931.379" y1="515.915" y2="546.094" gradientTransform="matrix(1.53785 0 0 1.53785 -798.499 -657.644)" gradientUnits="userSpaceOnUse" xlink:href="#a"/><linearGradient id="a"><stop offset="0" stop-color="#ffd800"/><stop offset="1" stop-color="#ff6100"/></linearGradient></defs><g transform="translate(-590.22 -135.376)"><rect width="48" height="48" x="590.22" y="135.376" fill="url(#b)" rx="10.144" ry="10.144"/><path fill="#fff" style="line-height:normal;text-indent:0;text-align:start;text-decoration-line:none;text-decoration-style:solid;text-decoration-color:#000;text-transform:none;block-progression:tb;isolation:auto;mix-blend-mode:normal" d="m 612.181,144.40695 4,0 0,1 -4,0 z m 0,2 4,0 c 0,0.56264 -0.43735,1 -1,1 l -2,0 c -0.56265,0 -1,-0.43736 -1,-1 z m 1.5,2 1,0 0,13 -1,0 z m -0.85937,14 2.71875,0 -0.75,3 -1.21875,0 z m -3.60156,2 3.07031,0 0.40429,1.62109 c 0.0557,0.2231 0.25638,0.37945 0.48633,0.37891 l 2,0 c 0.22922,-3.6e-4 0.42885,-0.15652 0.48438,-0.37891 l 0.40625,-1.62109 3.07031,0 c -0.10536,4.04109 -1.3462,6.54783 -2.59375,8.02929 -1.15661,1.37348 -2.13342,1.81046 -2.36719,1.90821 -0.23377,-0.0977 -1.21056,-0.53473 -2.36719,-1.90821 -1.24753,-1.48146 -2.48839,-3.9882 -2.59374,-8.02929 z" color="#000" font-family="sans-serif" font-weight="400" overflow="visible" white-space="normal"/></g></svg>