<svg xmlns="http://www.w3.org/2000/svg" xmlns:xlink="http://www.w3.org/1999/xlink" width="48" height="48" viewBox="0 0 48 48"><defs><linearGradient id="b" x1="906.952" x2="931.379" y1="515.915" y2="546.094" gradientTransform="matrix(1.53785 0 0 1.53785 -1931.706 553.319)" gradientUnits="userSpaceOnUse" xlink:href="#a"/><linearGradient id="a"><stop offset="0" stop-color="#ffd800"/><stop offset="1" stop-color="#ff6100"/></linearGradient></defs><g transform="translate(542.988 -1346.339)"><rect width="48" height="48" x="-542.988" y="1346.339" fill="url(#b)" rx="10.144" ry="10.144"/><path fill="#fff" d="m -519.48753,1355.3386 a 6.5000089,6.5000089 0 0 0 -6.5,6.5 6.5000089,6.5000089 0 0 0 0.0215,0.502 6.0000003,6.0000003 0 0 0 -0.0215,0 6.0000003,6.0000003 0 0 0 -6,6 6.0000003,6.0000003 0 0 0 6,6 6.0000003,6.0000003 0 0 0 2.5957,-0.5957 6.5000089,6.5000089 0 0 0 3.9043,1.3145 6.5000089,6.5000089 0 0 0 3.9082,-1.3164 6.0000003,6.0000003 0 0 0 2.5918,0.5976 6.0000003,6.0000003 0 0 0 6,-6 6.0000003,6.0000003 0 0 0 -6,-6 6.0000003,6.0000003 0 0 0 -0.0254,0 6.5000089,6.5000089 0 0 0 0.0254,-0.5 6.5000089,6.5000089 0 0 0 -6.5,-6.5 z m -0.33203,1.5098 a 0.50111367,0.50111367 0 1 1 0.0234,1.0019 c -1.80294,0.1397 -3.28412,1.4655 -3.62109,3.2422 a 0.50008573,0.50008573 0 0 1 -0.81836,0.2871 0.50008573,0.50008573 0 0 1 -0.0371,-0.033 0.50008573,0.50008573 0 0 1 -0.12696,-0.4414 c 0.42021,-2.2155 2.27903,-3.8784 4.52735,-4.0527 a 0.50005003,0.50005003 0 0 1 0.0332,0 l 0,0 a 0.50046207,0.50046207 0 0 1 0.0195,0 z m -8.15625,7.5254 a 0.50005,0.50005 0 0 1 0.004,0 0.50005,0.50005 0 0 1 0.22656,0.9375 c -0.81273,0.4723 -1.40074,1.2512 -1.63281,2.1621 -0.23206,0.9109 -0.0892,1.8761 0.39844,2.6797 a 0.50005,0.50005 0 0 1 -0.33594,0.7715 0.50005,0.50005 0 0 1 -0.0488,0.01 0.50005,0.50005 0 0 1 -0.46875,-0.2579 c -0.62675,-1.0328 -0.81192,-2.2746 -0.51367,-3.4453 0.29826,-1.1707 1.05508,-2.1742 2.09961,-2.7812 a 0.50005,0.50005 0 0 1 0.2207,-0.068 l 0,0 a 0.50005,0.50005 0 0 1 0.0508,0 z m 4.98828,10.7207 0,7.2441 c 0,2.216 -1.784,4 -4,4 l 15,0 c -2.216,0 -4,-1.784 -4,-4 l 0,-7.2441 c -1.07495,0.5941 -2.25896,0.9629 -3.49805,0.9629 a 1.0001,1.0001 0 0 1 -0.004,0 c -1.23849,0 -2.42339,-0.3697 -3.49805,-0.9629 z"/></g></svg>