<svg xmlns="http://www.w3.org/2000/svg" xmlns:xlink="http://www.w3.org/1999/xlink" width="48" height="48" viewBox="0 0 48 48"><defs><linearGradient id="b" x1="992.183" x2="1019.298" y1="516.081" y2="545.959" gradientTransform="matrix(1.53785 0 0 1.53785 -1132.962 -625.577)" gradientUnits="userSpaceOnUse" xlink:href="#a"/><linearGradient id="a"><stop offset="0" stop-color="#ff1679"/><stop offset="1" stop-color="#ff770b"/></linearGradient></defs><g transform="translate(-389.743 -167.442)"><rect width="48" height="48" x="389.743" y="167.442" fill="url(#b)" rx="10.144" ry="10.144"/><path fill="#fff" d="m 413.7292,178.9367 a 0.50005,0.50005 0 0 0 -0.49219,0.50781 l 0,3.17969 c -0.91437,-1.18032 -2.35903,-1.94727 -3.98047,-1.94726 a 0.50005,0.50005 0 1 0 0,1 c 2.14886,-1e-5 3.88323,1.62912 3.98047,3.67968 l 0,0.043 a 0.50005,0.50005 0 0 0 0.002,0.041 l -2.0664,0 c -0.40127,0 -0.81151,0.1686 -1.08204,0.41797 -0.2706,0.24939 -0.3984,0.54186 -0.3477,0.87304 l 2.56641,16.76954 c 0.18368,1.2027 2.70758,1.30009 2.85742,0.0176 0.001,-0.006 0.001,-0.0116 0.002,-0.0176 l 0.31445,-2.05469 -1.74414,0 0,-1 1.89648,0 0.45899,-3 -2.35547,0 0,-1 2.50977,0 0.45898,-3 -2.96875,0 0,-1 3.1211,0 0.45898,-3 -3.58008,0 0,-1 3.73438,0 0.26172,-1.71485 c 0.0507,-0.33118 -0.0771,-0.62364 -0.34766,-0.87304 -0.27058,-0.24938 -0.68083,-0.41797 -1.08208,-0.41797 l -2.0625,0 a 0.50027565,0.50027565 0 0 0 0.002,-0.0586 c -5.9e-4,-0.0188 -0.007,-0.036 -0.008,-0.0547 l 0,-0.0215 a 0.50005,0.50005 0 0 0 0.0137,-0.0879 c 0.16904,-1.99632 1.88882,-3.54102 3.97852,-3.54101 a 0.50005,0.50005 0 1 0 0,-1 c -1.61854,-1e-5 -3.07572,0.75752 -3.99219,1.94336 l 0,-3.17578 a 0.50005,0.50005 0 0 0 -0.50787,-0.50782 z" color="#000" font-family="sans-serif" font-weight="400" overflow="visible" white-space="normal" style="line-height:normal;text-indent:0;text-align:start;text-decoration-line:none;text-decoration-style:solid;text-decoration-color:#000;text-transform:none;block-progression:tb;isolation:auto;mix-blend-mode:normal"/></g></svg>